<?xml version="1.0" encoding="utf-8"?>
<!-- Generator: Adobe Illustrator 24.1.2, SVG Export Plug-In . SVG Version: 6.00 Build 0)  -->
<svg version="1.1" id="Слой_1" xmlns="http://www.w3.org/2000/svg" xmlns:xlink="http://www.w3.org/1999/xlink" x="0px" y="0px"
	 viewBox="0 0 544 396" style="enable-background:new 0 0 544 396;" xml:space="preserve">
<style type="text/css">
	.st0{fill:#F7EBE3;}
	.st1{fill:#E1C9BC;}
	.st2{fill:#EBEBEB;}
	.st3{fill:#263238;}
	.st4{fill:#C6CACC;}
	.st5{fill:#FAFAFA;}
	.st6{fill:#C3CCE8;}
	.st7{fill:#76C6C5;}
	.st8{fill:none;stroke:#8E98AF;stroke-width:0.5;stroke-linecap:round;stroke-linejoin:round;stroke-miterlimit:10;}
	.st9{fill:#FFFFFF;}
	.st10{fill:#B78876;}
	.st11{fill:#AA6550;}
	.st12{fill:#455A64;}
	.st13{fill:none;stroke:#AA6550;stroke-width:0.75;stroke-linecap:round;stroke-linejoin:round;stroke-miterlimit:10;}
</style>
<g id="Слой_2_1_">
</g>
<g>
	<g>
		<path class="st0" d="M421.9,223.2c0,0-7.6-5.2-17.3,12.9c-9.7,18.2-13.4,28.7-13.4,28.7s-2.5,3.8-5.1,1.2
			c-2.6-2.6-6.1-9.8-10.6-8.6c-4.7,1.2-6.3,6.4-5.6,14.1c0.7,7.6,1.7,24.5,1.8,26c0.1,1.5-0.8,3.7-2.9,2.2c-2-1.5-13.7-15-19.8-9.1
			c-6.1,5.9-0.5,26.9,0,29.2c0.6,2.3,0.1,3.3-1,3.8s-4.6-4.4-8.1-8.1s-8.2-7.4-11.4-3.7c-3.2,3.7-4.5,19.3,9.9,45l7.5,11.5l13.7-0.5
			c29.3-2.9,41.4-12.8,42.6-17.6c1.2-4.8-4.5-6.5-9.5-7.2s-11.1-0.8-11.2-2c-0.2-1.2,0.4-2.2,2.6-3c2.2-0.9,22.6-8.3,24-16.6
			c1.4-8.4-16.4-10.2-18.7-11.1c-2.4-0.8-1.1-2.8,0.2-3.6c1.3-0.8,15.7-9.6,22.4-13.3c6.7-3.8,10-8,8.4-12.6
			c-1.6-4.4-9.5-3.1-13.1-3.8c-3.6-0.7-1.9-4.9-1.9-4.9s6.5-9.1,15.9-27.4s0.5-21.6,0.5-21.6"/>
	</g>
	<g>
		<g>
			<path class="st1" d="M346.7,365.7c6.9-13.4,16.7-31.9,27.5-52.3s20.6-38.8,27.6-52.2c3.5-6.7,6.3-12.1,8.3-15.9
				c1-1.9,1.7-3.3,2.3-4.3c0.3-0.5,0.5-0.9,0.6-1.1c0.1-0.3,0.2-0.4,0.2-0.4s-0.1,0.1-0.2,0.4c-0.1,0.3-0.3,0.6-0.6,1.1
				c-0.5,1-1.2,2.5-2.2,4.4c-1.9,3.8-4.7,9.2-8.2,15.9c-6.9,13.4-16.7,31.9-27.5,52.3s-20.6,38.8-27.6,52.2"/>
		</g>
	</g>
	<g>
		<g>
			<path class="st1" d="M379.9,267.7c0,0,0.1,0.3,0.3,0.9c0.2,0.6,0.4,1.5,0.7,2.6c0.6,2.2,1.3,5.3,2,8.6c0.7,3.3,1.4,6.4,1.8,8.7
				c0.2,1,0.4,1.9,0.6,2.6c0.1,0.6,0.2,1,0.2,1s-0.1-0.3-0.3-0.9c-0.2-0.6-0.4-1.5-0.7-2.6c-0.6-2.2-1.2-5.3-2-8.7
				c-0.7-3.3-1.4-6.4-1.9-8.7c-0.2-1-0.4-1.9-0.6-2.6C379.9,268.1,379.9,267.8,379.9,267.7z"/>
		</g>
	</g>
	<g>
		<g>
			<path class="st1" d="M386.8,292.5c0-0.1,6.2-1.9,13.9-3.9c7.7-2.1,14-3.6,14-3.5s-6.2,1.9-13.9,3.9S386.8,292.6,386.8,292.5z"/>
		</g>
	</g>
	<g>
		<g>
			<path class="st1" d="M368.8,323c0,0,0.4,0,1,0c0.7,0,1.7,0,2.7,0.1c2.3,0,5.5,0.1,9,0s6.7-0.2,9-0.4c1.1-0.1,2-0.1,2.7-0.2
				c0.6,0,1,0,1,0s-0.4,0.1-1,0.2s-1.6,0.2-2.7,0.3c-2.3,0.2-5.5,0.4-9.1,0.5c-3.5,0.1-6.8,0-9.1-0.2c-1.2-0.1-2.1-0.1-2.7-0.2
				C369.1,323.1,368.8,323,368.8,323z"/>
		</g>
	</g>
	<g>
		<g>
			<path class="st1" d="M357.6,302c0,0,0.2,0.3,0.5,0.8c0.3,0.6,0.8,1.3,1.3,2.2c1.1,1.9,2.5,4.4,4.1,7.3s3,5.5,4,7.4
				c0.5,0.9,0.8,1.6,1.2,2.3c0.3,0.5,0.4,0.8,0.4,0.9c0,0-0.2-0.3-0.5-0.8c-0.3-0.6-0.8-1.3-1.3-2.2c-1.1-1.9-2.5-4.4-4.1-7.3
				s-3-5.5-4-7.4c-0.5-0.9-0.8-1.6-1.2-2.3C357.7,302.3,357.6,302,357.6,302z"/>
		</g>
	</g>
	<g>
		<g>
			<path class="st1" d="M338.3,327c0,0,0.3,0.3,0.7,1c0.4,0.7,1,1.7,1.7,2.8c1.4,2.4,3.3,5.7,5.3,9.3c2.1,3.7,3.9,7,5.2,9.4
				c0.6,1.2,1.1,2.1,1.5,2.9c0.4,0.7,0.5,1.1,0.5,1.1s-0.3-0.3-0.7-1c-0.4-0.7-1-1.7-1.7-2.8c-1.4-2.4-3.3-5.7-5.3-9.3
				c-2.1-3.7-3.9-7-5.2-9.4c-0.6-1.2-1.1-2.1-1.5-2.9C338.4,327.4,338.2,327,338.3,327z"/>
		</g>
	</g>
	<g>
		<g>
			<path class="st1" d="M353,352.7c0,0,0.5-0.1,1.3-0.1c0.9,0,2.1,0,3.5,0c2.9,0,7-0.1,11.5-0.3c4.5-0.2,8.5-0.5,11.5-0.7
				c1.4-0.1,2.6-0.2,3.5-0.3c0.8-0.1,1.3-0.1,1.3-0.1s-0.4,0.1-1.3,0.2c-0.8,0.1-2,0.3-3.5,0.4c-2.9,0.3-7,0.6-11.5,0.8
				c-4.5,0.2-8.6,0.2-11.5,0.2c-1.5,0-2.7-0.1-3.5-0.1C353.4,352.8,353,352.7,353,352.7z"/>
		</g>
	</g>
</g>
<g>
	<g>
		<g>
			<polygon class="st2" points="457.3,293 333.2,273.9 360.8,96 484.9,115.1 			"/>
		</g>
	</g>
	<g>
		<g>
			<g>
				<path class="st3" d="M402.9,128.3c0,0.3-7.6-0.7-16.9-2.1s-16.8-2.8-16.8-3c0-0.3,7.6,0.7,16.9,2.1
					C395.4,126.7,402.9,128,402.9,128.3z"/>
			</g>
		</g>
	</g>
	<g>
		<g>
			<g>
				<path class="st3" d="M384.6,131.3c0,0.3-3.7-0.1-8.2-0.8s-8.1-1.5-8-1.7c0-0.3,3.7,0.1,8.2,0.8C381,130.2,384.6,131,384.6,131.3
					z"/>
			</g>
		</g>
	</g>
	<g>
		<g>
			<g>
				<path class="st3" d="M461.2,159.2c0,0.3-21-2.8-46.9-6.7c-25.9-4-46.8-7.4-46.8-7.7s21,2.8,46.9,6.7
					C440.3,155.5,461.2,158.9,461.2,159.2z"/>
			</g>
		</g>
	</g>
	<g>
		<g>
			<g>
				<path class="st3" d="M459.8,168.1c0,0.3-21-2.8-46.9-6.7c-25.9-4-46.8-7.4-46.8-7.7s21,2.8,46.9,6.7
					C438.9,164.4,459.9,167.8,459.8,168.1z"/>
			</g>
		</g>
	</g>
	<g>
		<g>
			<g>
				<path class="st3" d="M458.5,176.9c0,0.3-21-2.8-46.9-6.7c-25.9-4-46.8-7.4-46.8-7.7s21,2.8,46.9,6.7
					C437.6,173.3,458.5,176.7,458.5,176.9z"/>
			</g>
		</g>
	</g>
	<g>
		<g>
			<g>
				<path class="st3" d="M457.1,185.8c0,0.3-21-2.8-46.9-6.7c-25.9-4-46.8-7.4-46.8-7.7s21,2.8,46.9,6.7
					C436.2,182.2,457.1,185.6,457.1,185.8z"/>
			</g>
		</g>
	</g>
	<g>
		<g>
			<g>
				<path class="st3" d="M455.7,194.7c0,0.3-21-2.8-46.9-6.7c-25.9-4-46.8-7.4-46.8-7.7s21,2.8,46.9,6.7
					C434.8,191.1,455.7,194.5,455.7,194.7z"/>
			</g>
		</g>
	</g>
	<g>
		<g>
			<g>
				<path class="st3" d="M454.3,203.6c0,0.3-21-2.8-46.9-6.7c-25.9-4-46.8-7.4-46.8-7.7s21,2.8,46.9,6.7
					C433.4,199.9,454.4,203.4,454.3,203.6z"/>
			</g>
		</g>
	</g>
	<g>
		<g>
			<g>
				<path class="st3" d="M406.3,204.5c0,0.1-0.7,0-1.9-0.1c-1.2-0.1-2.9-0.3-5-0.6c-4.2-0.6-10.1-1.4-16.6-2.4s-12.3-1.9-16.5-2.7
					c-2.1-0.4-3.8-0.7-5-0.9s-1.8-0.4-1.8-0.5s0.7,0,1.9,0.1c1.2,0.1,2.9,0.3,5,0.6c4.2,0.6,10.1,1.4,16.6,2.4s12.3,1.9,16.5,2.7
					c2.1,0.4,3.8,0.7,5,0.9C405.6,204.2,406.3,204.4,406.3,204.5z"/>
			</g>
		</g>
	</g>
	<g>
		<g>
			<g>
				<path class="st3" d="M468.7,137.6c0,0.3-3.4-0.1-7.6-0.7c-4.1-0.6-7.5-1.4-7.4-1.6c0-0.3,3.4,0.1,7.6,0.7
					C465.4,136.6,468.7,137.3,468.7,137.6z"/>
			</g>
		</g>
	</g>
	<g>
		<g>
			<g>
				<path class="st3" d="M382,220.6c0,0.3-5.5-0.4-12.2-1.4s-12.1-2.1-12.1-2.3c0-0.3,5.5,0.4,12.2,1.4S382,220.3,382,220.6z"/>
			</g>
		</g>
	</g>
	<g>
		<g>
			<g>
				<path class="st3" d="M381.5,228.8c0,0.3-5.6-0.4-12.4-1.4c-6.8-1.1-12.3-2.1-12.3-2.4c0-0.3,5.6,0.4,12.4,1.4
					C376.1,227.5,381.6,228.5,381.5,228.8z"/>
			</g>
		</g>
	</g>
	<g>
		<g>
			<g>
				<path class="st3" d="M452.7,230.2c0,0.3-2.7,0.1-5.9-0.4c-3.2-0.5-5.8-1.1-5.8-1.4c0-0.3,2.7-0.1,5.9,0.4
					S452.7,229.9,452.7,230.2z"/>
			</g>
		</g>
	</g>
	<g>
		<g>
			<g>
				<path class="st3" d="M452,237.5c0,0.3-2.7,0.1-5.9-0.4c-3.2-0.5-5.8-1.1-5.8-1.4c0-0.3,2.7-0.1,6,0.4
					C449.4,236.7,452,237.3,452,237.5z"/>
			</g>
		</g>
	</g>
	<g>
		<g>
			<g>
				<path class="st3" d="M368.9,235.5c0,0.3-2.6,0.1-5.7-0.4s-5.6-1.1-5.6-1.3c0-0.3,2.6-0.1,5.7,0.4
					C366.4,234.6,368.9,235.2,368.9,235.5z"/>
			</g>
		</g>
	</g>
	<g>
		<g>
			<g>
				<path class="st3" d="M451.1,246.1c0,0.3-2,0.2-4.3-0.2c-2.4-0.4-4.2-0.9-4.2-1.1c0-0.3,2-0.2,4.3,0.2
					C449.2,245.3,451.1,245.8,451.1,246.1z"/>
			</g>
		</g>
	</g>
</g>
<g>
	<g>
		<g>
			<g>
				<path class="st0" d="M210.3,360.2c13.9-13.9,13.9-35.1,10.1-53.6c-0.6-3.1-0.9-6.4-2.8-8.9c-1.9-2.5-5.7-3.7-8.2-1.9
					c-2.1,1.5-2.6,4.3-3.5,6.8c-1.2,3.2-3.3,6.1-6,8.2c-1.8,1.4-4.1,2.4-6.3,1.7c-2.9-1-3.9-4.6-4.4-7.7c-1-5.7-1.9-11.5-2.9-17.2
					c-0.5-3.1-1.1-6.2-2.5-9c-1.5-2.8-4.1-5.1-7.1-5.4c-3.1-0.3-6.4,2-6.5,5.1c0,1.3,0.4,2.6,0.6,3.8c0.1,1.3-0.2,2.8-1.4,3.4
					s-2.5-0.1-3.6-0.8c-3.7-2.5-6.6-6.2-9.3-9.8c-2.7-3.6-5.4-7.4-8.9-10.2c-3.5-2.9-7.9-4.9-12.4-4.3c-4.5,0.5-8.7,4.1-9,8.6
					c-0.4,4.5,2.9,8.5,6.3,11.5c5,4.5,10.6,8.3,16.7,11.1c1.1,0.5,2.3,1.1,2.8,2.2c1,1.9-0.6,4.3-2.5,5.3c-2.2,1.2-4.7,1.4-7,2.1
					s-4.8,2.2-5.3,4.6c-0.7,3.4,2.5,6.2,5.5,7.9c5.9,3.4,12.5,5.8,19.2,7c2.4,0.4,4.9,0.7,7,2s3.7,3.8,3,6.2
					c-0.7,2.4-3.4,3.6-5.9,3.5c-2.4,0-4.8-0.9-7.2-1.4c-4.5-0.9-9.9,0.4-12,4.5c-1.4,2.7-0.9,6.1,0.5,8.8c1.4,2.7,3.7,4.9,6,6.8
					c8.2,6.8,18,11.6,28.4,13.3C191.9,366.2,201.2,365.5,210.3,360.2"/>
			</g>
		</g>
	</g>
	<g>
		<g>
			<g>
				<g>
					<path class="st1" d="M211.9,369.8c-2-7.2-4-11.5-8.4-20.4s-10-18.2-16.2-27.8c-1.6-2.4-3.1-4.7-4.6-7.1c-1.5-2.3-3-4.6-4.6-6.8
						c-3.2-4.3-6.6-8.2-10-11.8c-3.4-3.6-6.7-6.9-9.8-10s-6.1-5.9-8.9-8.3c-5.6-4.9-10.6-8.3-14.1-10.5c-1.8-1.1-3.2-1.9-4.1-2.5
						c-0.5-0.3-0.8-0.5-1.1-0.6c-0.2-0.1-0.4-0.2-0.4-0.2s0.1,0.1,0.3,0.2c0.3,0.2,0.6,0.4,1.1,0.7c0.9,0.6,2.3,1.4,4,2.5
						c3.5,2.3,8.4,5.7,14,10.6c2.8,2.4,5.7,5.3,8.8,8.3c3.1,3.1,6.4,6.4,9.7,10s6.7,7.5,9.9,11.8c1.6,2.1,3.1,4.4,4.6,6.7
						c1.5,2.3,3,4.7,4.6,7.1c6.2,9.5,11.8,18.8,16.2,27.7c4.4,8.8,6.5,13.1,8.5,20.2"/>
				</g>
			</g>
		</g>
	</g>
	<g>
		<g>
			<g>
				<g>
					<path class="st1" d="M177.9,307.9c0,0,0.1-0.5,0.1-1.4s0-2.1-0.1-3.7c-0.1-3.1-0.4-7.5-0.7-12.2c-0.3-4.8-0.6-9.1-0.6-12.2
						c0-1.6,0-2.8,0-3.7c0-0.9,0-1.4-0.1-1.4c0,0-0.1,0.5-0.2,1.4c-0.1,0.9-0.1,2.1-0.1,3.7c-0.1,3.1,0.1,7.5,0.5,12.3
						c0.3,4.7,0.7,9,0.9,12.2c0.1,1.5,0.2,2.7,0.2,3.7C177.8,307.4,177.9,307.9,177.9,307.9z"/>
				</g>
			</g>
		</g>
	</g>
	<g>
		<g>
			<g>
				<g>
					<path class="st1" d="M137.1,307.4c0,0,0.6,0,1.6-0.1s2.5-0.2,4.4-0.3c3.7-0.2,8.8-0.4,14.4-0.3c5.6,0.1,10.8,0.4,14.4,0.7
						c1.8,0.1,3.3,0.3,4.4,0.4c1,0.1,1.6,0.1,1.6,0.1s-0.6-0.2-1.6-0.3c-1-0.2-2.5-0.4-4.4-0.6c-3.7-0.4-8.8-0.8-14.5-0.9
						s-10.8,0.2-14.5,0.5c-1.8,0.2-3.3,0.4-4.4,0.5C137.6,307.3,137.1,307.4,137.1,307.4z"/>
				</g>
			</g>
		</g>
	</g>
	<g>
		<g>
			<g>
				<g>
					<path class="st1" d="M202.9,348.8c0,0,0.1-0.2,0.2-0.5c0.1-0.4,0.3-0.9,0.4-1.5c0.4-1.3,0.8-3.3,1.4-5.7
						c1.1-4.9,2.4-11.6,3.8-19.1c1.4-7.5,2.6-14.3,3.6-19.1c0.5-2.4,0.9-4.3,1.2-5.8c0.1-0.6,0.2-1.1,0.3-1.6
						c0.1-0.4,0.1-0.6,0.1-0.6s-0.1,0.2-0.2,0.5c-0.1,0.4-0.3,0.9-0.4,1.5c-0.4,1.3-0.8,3.3-1.4,5.7c-1.1,4.9-2.4,11.6-3.8,19.1
						c-1.4,7.5-2.6,14.3-3.6,19.1c-0.5,2.4-0.9,4.3-1.2,5.8c-0.1,0.6-0.2,1.1-0.3,1.6C202.9,348.6,202.8,348.8,202.9,348.8z"/>
				</g>
			</g>
		</g>
	</g>
	<g>
		<g>
			<g>
				<g>
					<path class="st1" d="M147.3,341.1c0,0,0.2,0.1,0.6,0.1c0.4,0.1,1,0.1,1.6,0.2c1.5,0.2,3.5,0.5,5.9,0.8c5,0.7,11.9,1.8,19.6,2.9
						c7.7,1.2,14.6,2.2,19.6,2.8c2.5,0.3,4.6,0.5,6,0.7c0.7,0.1,1.2,0.1,1.6,0.1c0.4,0,0.6,0,0.6,0s-0.2-0.1-0.6-0.1
						c-0.4-0.1-1-0.1-1.6-0.2c-1.5-0.2-3.5-0.5-5.9-0.8c-5-0.7-11.9-1.8-19.6-2.9c-7.7-1.2-14.6-2.2-19.6-2.8
						c-2.5-0.3-4.6-0.5-6-0.7c-0.7-0.1-1.2-0.1-1.6-0.1S147.3,341.1,147.3,341.1z"/>
				</g>
			</g>
		</g>
	</g>
</g>
<g>
	<g>
		<path class="st4" d="M246.2,275.1l-129.6,39.5c-1.3,0.4-2.6-0.3-3-1.6L58.9,133.2c-0.4-1.3,0.3-2.6,1.6-3l129.6-39.5
			c1.3-0.4,2.6,0.3,3,1.6l54.7,179.8C248.2,273.4,247.5,274.7,246.2,275.1z"/>
	</g>
</g>
<g>
	<g>
		
			<rect x="90.3" y="110.5" transform="matrix(0.9567 -0.2912 0.2912 0.9567 -51.6859 53.1118)" class="st5" width="124.6" height="179.4"/>
	</g>
</g>
<g>
	<g>
		<path class="st3" d="M151.5,109.6c-4-4.2-10-5.8-15.5-4.1l-2.4-7.3c-1.7-5.5-7.5-8.7-13.1-7l0,0c-5.5,1.7-8.7,7.5-7,13.1l2.3,7.6
			l-2.5,0.8c-5.4,1.8-9.4,6.4-10.4,12l-0.6,3.5l51.9-15.8L151.5,109.6z M125.6,106.7c-3,0.9-6.1-0.8-7-3.8s0.8-6.1,3.8-7
			s6.1,0.8,7,3.8C130.2,102.7,128.5,105.8,125.6,106.7z"/>
	</g>
</g>
<g>
	<g>
		<g>
			<path class="st3" d="M118.5,143.4c0.1,0.2-7.1,2.6-16,5.3s-16.2,4.7-16.3,4.5c-0.1-0.2,7.1-2.6,16-5.3S118.4,143.2,118.5,143.4z"
				/>
		</g>
	</g>
</g>
<g>
	<g>
		<g>
			<path class="st3" d="M103.4,154c0.1,0.2-3.4,1.4-7.7,2.8c-4.3,1.3-7.8,2.2-7.9,2s3.4-1.4,7.7-2.8
				C99.8,154.6,103.3,153.8,103.4,154z"/>
		</g>
	</g>
</g>
<g>
	<g>
		<g>
			<path class="st3" d="M184,146c0.1,0.2-20,6.5-44.9,14.1s-45,13.5-45.1,13.3s20-6.5,44.9-14.1C163.7,151.8,183.9,145.8,184,146z"
				/>
		</g>
	</g>
</g>
<g>
	<g>
		<g>
			<path class="st3" d="M186.6,154.6c0.1,0.2-20,6.5-44.9,14.1s-45,13.5-45.1,13.3s20-6.5,44.9-14.1
				C166.3,160.4,186.5,154.4,186.6,154.6z"/>
		</g>
	</g>
</g>
<g>
	<g>
		<g>
			<path class="st3" d="M189.2,163.2c0.1,0.2-20,6.5-44.9,14.1s-45,13.5-45.1,13.3s20-6.5,44.9-14.1
				C168.9,169,189.1,163,189.2,163.2z"/>
		</g>
	</g>
</g>
<g>
	<g>
		<g>
			<path class="st3" d="M191.8,171.8c0.1,0.2-20,6.5-44.9,14.1s-45,13.5-45.1,13.3s20-6.5,44.9-14.1
				C171.5,177.5,191.7,171.6,191.8,171.8z"/>
		</g>
	</g>
</g>
<g>
	<g>
		<g>
			<path class="st3" d="M194.4,180.4c0.1,0.2-20,6.5-44.9,14.1s-45,13.5-45.1,13.3s20-6.5,44.9-14.1
				C174.1,186.1,194.3,180.2,194.4,180.4z"/>
		</g>
	</g>
</g>
<g>
	<g>
		<g>
			<path class="st3" d="M197,188.9c0.1,0.2-20,6.5-44.9,14.1s-45,13.5-45.1,13.3s20-6.5,44.9-14.1C176.8,194.7,197,188.7,197,188.9z
				"/>
		</g>
	</g>
</g>
<g>
	<g>
		<g>
			<path class="st3" d="M154.4,210.4c0,0.1-0.6,0.3-1.7,0.7c-1.3,0.4-2.9,1-4.8,1.6c-4,1.3-9.7,3.1-15.9,5s-11.9,3.6-15.9,4.7
				c-1.9,0.5-3.5,1-4.9,1.3c-1.2,0.3-1.8,0.4-1.8,0.4c0-0.1,0.6-0.3,1.7-0.7c1.3-0.4,2.9-1,4.8-1.6c4-1.3,9.7-3.1,15.9-5
				s11.8-3.6,15.9-4.7c1.9-0.5,3.5-1,4.9-1.3C153.7,210.5,154.4,210.3,154.4,210.4z"/>
		</g>
	</g>
</g>
<g>
	<g>
		<g>
			<path class="st3" d="M181.3,123.4c0.1,0.2-3.1,1.4-7.1,2.6s-7.3,2-7.3,1.8c-0.1-0.2,3.1-1.4,7.1-2.6
				C178,124,181.3,123.2,181.3,123.4z"/>
		</g>
	</g>
</g>
<g>
	<g>
		<g>
			<path class="st3" d="M139.6,235.3c0.1,0.2-5.1,2-11.6,3.9c-6.5,2-11.7,3.4-11.8,3.2c-0.1-0.2,5.1-2,11.6-3.9
				C134.3,236.5,139.6,235.1,139.6,235.3z"/>
		</g>
	</g>
</g>
<g>
	<g>
		<g>
			<path class="st3" d="M142.8,242.9c0.1,0.2-5.2,2-11.8,4c-6.6,2-11.9,3.4-12,3.2s5.2-2,11.8-4
				C137.3,244.1,142.7,242.6,142.8,242.9z"/>
		</g>
	</g>
</g>
<g>
	<g>
		<g>
			<path class="st3" d="M207,213.5c0.1,0.2-2.4,1.2-5.5,2.1c-3.1,0.9-5.7,1.5-5.8,1.3s2.4-1.2,5.5-2.1
				C204.4,213.9,207,213.3,207,213.5z"/>
		</g>
	</g>
</g>
<g>
	<g>
		<g>
			<path class="st3" d="M209.6,220.4c0.1,0.2-2.4,1.2-5.5,2.1c-3.1,0.9-5.7,1.5-5.8,1.3s2.4-1.2,5.5-2.1
				C206.9,220.8,209.5,220.2,209.6,220.4z"/>
		</g>
	</g>
</g>
<g>
	<g>
		<g>
			<path class="st3" d="M134.4,254.4c0.1,0.2-2.3,1.1-5.3,2s-5.5,1.5-5.6,1.3s2.3-1.1,5.3-2C131.8,254.7,134.3,254.1,134.4,254.4z"
				/>
		</g>
	</g>
</g>
<g>
	<g>
		<g>
			<path class="st3" d="M212.5,228.5c0.1,0.2-1.7,0.9-4,1.6c-2.3,0.7-4.1,1.1-4.2,0.9c-0.1-0.2,1.7-0.9,4-1.6
				C210.5,228.6,212.4,228.2,212.5,228.5z"/>
		</g>
	</g>
</g>
<g>
	<g>
		<g>
			<path class="st3" d="M128.4,276.4c0,0,0.2-0.1,0.5-0.3c0.4-0.2,0.8-0.4,1.4-0.7c1.3-0.6,3.1-1.4,5.4-2.4
				c4.8-2.1,11.5-4.9,19.5-8.4l0.4-0.2l0.1,0.4c0.5,2.2,0.3,4.6-0.8,6.8c-1,2.2-3.1,4-5.7,4.5c-2.5,0.5-5.4,0-7.4-2
				s-2.5-5.2-1.4-7.8c0.4-1,1.1-1.9,1.9-2.5c0.2-0.2,0.4-0.3,0.7-0.5c0.2-0.1,0.5-0.3,0.8-0.4s0.8-0.1,1.1,0.2
				c0.3,0.3,0.4,0.5,0.5,0.8c0.7,1.9,0.9,3.9,0.7,5.9c-0.2,1.9-0.8,3.8-1.7,5.5c-0.9,1.6-2.2,3.1-4,3.8c-1.8,0.8-3.8,0.2-5.1-0.9
				s-2.2-2.7-2.5-4.3c-0.5-3.2,0.6-6.1,1.4-8.6l0.2-0.6l0.3,0.5c1.5,2.3,2,4.9,1.9,7c-0.1,2.2-0.7,4-1.3,5.3c-0.7,1.4-1.5,2.3-2,2.8
				c-0.3,0.3-0.5,0.5-0.7,0.6s-0.2,0.2-0.2,0.2c-0.1-0.1,1.4-1.1,2.7-3.8c0.6-1.3,1.2-3.1,1.2-5.2s-0.5-4.5-1.9-6.7l0.5-0.1
				c-0.8,2.5-1.8,5.3-1.3,8.3c0.3,1.4,1.1,2.9,2.3,3.9s2.9,1.4,4.4,0.8s2.7-2,3.6-3.5c0.9-1.5,1.4-3.3,1.6-5.1
				c0.2-1.8,0-3.8-0.6-5.5c-0.1-0.2-0.2-0.4-0.3-0.5s-0.2-0.1-0.3,0c-0.3,0.1-0.8,0.4-1.1,0.7c-0.7,0.6-1.3,1.4-1.7,2.2
				c-1,2.3-0.6,5.3,1.2,7c1.7,1.7,4.4,2.3,6.7,1.8s4.2-2.1,5.2-4.1s1.3-4.3,0.8-6.3l0.5,0.2c-8,3.3-14.8,6.1-19.6,8.1
				c-2.3,0.9-4.2,1.7-5.5,2.2c-0.6,0.2-1.1,0.4-1.5,0.6C128.5,276.3,128.4,276.4,128.4,276.4z"/>
		</g>
	</g>
</g>
<g>
	<g>
		<g>
			<path class="st3" d="M213.6,250.1c0,0-0.1,0.5-0.5,1.4c-0.2,0.4-0.5,1-0.9,1.5c-0.5,0.5-1.2,1-2.1,1.2c-0.5,0.1-1,0-1.5-0.3
				s-0.8-0.7-1.1-1.2c-0.5-1-0.8-2.1-1.3-3.2c-0.8-2.3-1.7-4.8-2.7-7.5l0.7-0.1c-0.7,3.5-1.4,7.3-2.1,11.3c-0.2,0.9-0.4,1.9-0.5,2.8
				l-0.3,1.6l-0.5-1.5c-1.4-4.6-2.8-8.9-3.9-12.7h0.6c-1.9,4.1-2.7,7.8-3.1,10.4c-0.4,2.6-0.5,4.1-0.5,4.1s-0.1-0.4-0.1-1.1
				s0.1-1.8,0.2-3.1c0.3-2.6,1-6.4,2.9-10.7l0.4-0.8l0.3,0.9c1.2,3.7,2.6,8,4,12.6h-0.8c0.2-0.9,0.4-1.9,0.5-2.8
				c0.8-4,1.5-7.8,2.2-11.3l0.3-1.4l0.5,1.3c0.9,2.7,1.8,5.3,2.6,7.6c0.4,1.1,0.7,2.2,1.2,3.1c0.4,0.9,1.3,1.4,2.1,1.3
				c1.7-0.2,2.5-1.6,2.9-2.3C213.4,250.5,213.6,250.1,213.6,250.1z"/>
		</g>
	</g>
</g>
<g>
	<g>
		<g>
			<path class="st3" d="M214.4,244.3c0.1,0.2-6.9,3.7-15.6,7.9c-8.7,4.2-15.9,7.4-16,7.2s6.9-3.7,15.6-7.9S214.3,244.1,214.4,244.3z
				"/>
		</g>
	</g>
</g>
<g>
	<g>
		<g>
			<path class="st3" d="M221.9,246.9c0.1,0.2-5.2,3.7-11.8,7.8c-6.6,4.1-12.1,7.3-12.2,7.1c-0.1-0.2,5.2-3.7,11.8-7.8
				S221.8,246.7,221.9,246.9z"/>
		</g>
	</g>
</g>
<g>
	<g>
		<path class="st6" d="M241.8,268.9c0,0-22.2,15.1-23.4,50.2c-0.4,11.8,5.4,49.3,5.4,49.3l129.6,0.5l-24.3-100.6l-40.8-9.3
			L241.8,268.9z"/>
	</g>
</g>
<g>
	<g>
		<polygon class="st7" points="291.4,295 273.7,368.7 317.8,369 		"/>
	</g>
</g>
<g>
	<g>
		<g>
			<path class="st8" d="M290.7,279c0.1,0,0.1,0.9,0.2,2.4c0.1,1.6,0.2,3.6,0.4,5.8c0.1,2.3,0.2,4.3,0.2,5.8s0,2.4,0,2.4
				c-0.1,0-0.1-0.9-0.2-2.4c-0.1-1.6-0.2-3.6-0.4-5.8c-0.1-2.3-0.2-4.3-0.2-5.8C290.6,280,290.6,279,290.7,279z"/>
		</g>
	</g>
</g>
<g>
	<g>
		<g>
			<path class="st8" d="M338.9,364c0,0,0,0-0.1,0.1c-0.1,0-0.2,0.1-0.5,0.2c-0.4,0.2-1,0.4-1.9,0.5c-1.7,0.2-4.3-0.1-6.8-1.8
				c-2.6-1.6-4.9-4.4-7.5-7.5c-2.5-3.1-5-6.7-7.3-10.7c-4.6-8-7.3-15.9-8.8-21.7c-0.7-2.9-1.2-5.3-1.5-7c-0.1-0.8-0.2-1.4-0.3-1.9
				c-0.1-0.4-0.1-0.7-0.1-0.7s0.1,0.2,0.2,0.7s0.2,1.1,0.4,1.9c0.3,1.6,0.9,4,1.6,6.9c1.6,5.8,4.3,13.7,8.9,21.6
				c2.3,4,4.7,7.6,7.2,10.7s4.8,5.8,7.3,7.5s5,2.1,6.6,1.9C338.1,364.4,338.9,363.9,338.9,364z"/>
		</g>
	</g>
</g>
<g>
	<g>
		<g>
			<g>
				<polygon class="st9" points="260.1,140 267.4,138.5 303.7,138.9 322.2,143 329.2,246 247.7,249.8 				"/>
			</g>
		</g>
		<g>
			<g>
				<path class="st6" d="M312.9,241.2l1.7-46.9l-2.9-54.3c11.5,3,27.2,6.3,35.8,16.1c5.6,6.4,11.2,14.7,13.2,27.9
					c2.4,15.6,5.6,45.4,7.5,62.1"/>
			</g>
		</g>
		<g>
			<g>
				<path class="st6" d="M324.4,233.6l-56.4,9.2l-2-34.8l-3.1-68.8c-16.3,0.7-35,14.2-40.6,24.7c-3.9,7.3-7.2,15.8-8.2,24
					c-2,15.6-5.3,42.3-7.2,59c-1.2,10.3,2.3,20.5,9.5,28l0,0c8.2,8.4,21,11.4,32.5,9l85.9-24.2L324.4,233.6z"/>
			</g>
		</g>
	</g>
</g>
<g>
	<g>
		<g>
			<path class="st8" d="M247.4,203.3c0.1,0-0.1,9-0.4,20.1c-0.4,11.1-0.7,20.1-0.8,20.1s0.1-9,0.4-20.1
				C246.9,212.3,247.3,203.3,247.4,203.3z"/>
		</g>
	</g>
</g>
<g>
	<g>
		<path class="st6" d="M263.4,233.9l-10.5,25.8l83.7,23.2c7.8,2.2,16.1,0.7,22.7-3.9l0,0c8.8-6.2,10.9-17,9.8-27.7l-1.5-11.4
			L263.4,233.9z"/>
	</g>
</g>
<g>
	<g>
		<path class="st8" d="M352.1,262c-0.1,0-0.3-1.8-1.1-4.5c-0.2-0.7-0.5-1.4-0.8-2.2s-0.7-1.6-1.1-2.4c-0.9-1.7-2-3.4-3.4-5.1
			c-1.4-1.7-2.9-3.1-4.3-4.3c-0.7-0.6-1.4-1.1-2.2-1.6c-0.7-0.5-1.4-0.9-2-1.2c-2.5-1.4-4.2-1.9-4.2-2c0,0,0.4,0.1,1.2,0.4
			c0.4,0.1,0.8,0.3,1.4,0.5c0.5,0.2,1.1,0.5,1.8,0.8c0.6,0.3,1.3,0.7,2,1.2c0.7,0.4,1.4,1,2.2,1.6c1.5,1.2,3,2.7,4.4,4.4
			s2.5,3.5,3.4,5.2c0.4,0.9,0.8,1.7,1.1,2.5c0.3,0.8,0.6,1.5,0.8,2.2c0.2,0.7,0.3,1.3,0.5,1.9c0.1,0.6,0.2,1,0.3,1.4
			C352.1,261.5,352.1,262,352.1,262z"/>
	</g>
</g>
<g>
	<g>
		<g>
			<path class="st8" d="M259.6,243.8c0,0,0-0.1,0-0.2c0-0.1,0.1-0.3,0.2-0.5c0.2-0.5,0.4-1.1,0.7-2c0.6-1.7,1.6-4.2,2.7-7.3v-0.1
				h0.1c7.1,0.6,17.2,1.6,28.5,2.6c10.8,1,20.5,1.9,27.6,2.6c3.5,0.4,6.3,0.6,8.3,0.8c1,0.1,1.7,0.2,2.3,0.2c0.2,0,0.4,0.1,0.6,0.1
				c0.1,0,0.2,0,0.2,0s-0.1,0-0.2,0c-0.2,0-0.4,0-0.6,0c-0.6,0-1.3-0.1-2.3-0.2c-2-0.2-4.9-0.4-8.4-0.7c-7.1-0.6-16.8-1.5-27.6-2.5
				c-11.3-1.1-21.4-2-28.5-2.7l0.1-0.1c-1.2,3-2.1,5.5-2.8,7.2c-0.3,0.8-0.6,1.5-0.8,1.9c-0.1,0.2-0.2,0.4-0.2,0.5
				C259.7,243.7,259.6,243.8,259.6,243.8z"/>
		</g>
	</g>
</g>
<g>
	<g>
		<g>
			<path class="st10" d="M259.7,243.5l2.7-7.6l-6.3-9.9c-1.1-1.7-2.9-2.9-4.9-3.3l-23.3-4.4c0,0-1.1,2.8,2,4.6
				c3,1.7,16.8,4.9,16.8,4.9l-21.1-0.4c0,0-0.7,3,1.7,4.1s17.4,1.6,17.4,1.6l-19.3,2.7c0,0-0.1,3.1,4.3,3.1c3.5,0,10.8-0.5,13-0.8
				c0.4-0.1,0.7,0.2,0.8,0.6l0,0c0.1,0.4-0.2,0.7-0.5,0.8l-12.8,3c-1.7,0.4-1.8,2.9-0.1,3.3c0.2,0.1,0.5,0.1,0.7,0.1
				c2.2-0.2,15.2-1.9,15.2-1.9l0.7,1.5L259.7,243.5"/>
		</g>
	</g>
	<g>
		<g>
			<g>
				<path class="st11" d="M250.1,241.2c-0.1,0-0.1-0.6-0.7-1.2c-0.3-0.3-0.7-0.6-1.2-0.8s-1.1-0.2-1.8-0.2c-1.3,0.1-2.5,0.5-3.3,0.6
					c-0.9,0.1-1.4,0.1-1.4,0s0.5-0.1,1.4-0.3c0.8-0.2,2-0.6,3.4-0.7c0.7,0,1.4,0,1.9,0.3c0.6,0.2,1,0.6,1.3,0.9
					C250.2,240.5,250.1,241.2,250.1,241.2z"/>
			</g>
		</g>
	</g>
	<g>
		<g>
			<g>
				<path class="st11" d="M252.2,235.4c0,0-0.1-0.2-0.2-0.5c-0.2-0.3-0.5-0.8-1.1-1.1c-1.2-0.7-3.2-0.5-5.3-0.3s-4,0.5-5.4,0.6
					c-1.4,0.2-2.2,0.3-2.2,0.2s0.8-0.3,2.2-0.5c1.4-0.3,3.3-0.6,5.4-0.8c1.1-0.1,2.1-0.1,3-0.1s1.8,0.2,2.4,0.6
					c0.6,0.4,1,0.9,1.1,1.3C252.2,235.1,252.2,235.4,252.2,235.4z"/>
			</g>
		</g>
	</g>
	<g>
		<g>
			<g>
				<path class="st11" d="M253.8,232c-0.1,0,0.1-0.8-0.5-1.8c-0.3-0.5-0.8-1-1.4-1.4c-0.6-0.4-1.5-0.6-2.3-0.7
					c-1.7-0.2-3.4,0-4.6-0.1c-1.2-0.1-1.9-0.4-1.9-0.5s0.7,0.1,1.9,0.2c1.2,0.1,2.8-0.2,4.6,0c0.9,0.1,1.8,0.3,2.5,0.8
					c0.7,0.4,1.2,1,1.5,1.5s0.4,1.1,0.3,1.4C253.9,231.8,253.8,232,253.8,232z"/>
			</g>
		</g>
	</g>
</g>
<g>
	<g>
		<g>
			<path class="st8" d="M329.3,232c0,0,0-0.5,0.1-1.3s0.3-2,0.6-3.4c0.5-2.9,1.5-6.8,2.5-11.1s1.7-8.3,2-11.2c0.1-0.7,0.1-1.4,0.2-2
				s0.1-1.1,0.1-1.5c0-0.8,0.1-1.3,0.1-1.3s0,0.5,0,1.3c0,0.4,0,0.9,0,1.5s-0.1,1.2-0.1,2c-0.2,2.9-0.9,6.9-1.9,11.2
				s-2,8.2-2.6,11.1c-0.3,1.4-0.5,2.6-0.7,3.4C329.4,231.5,329.3,232,329.3,232z"/>
		</g>
	</g>
</g>
<g>
	<g>
		<path class="st8" d="M337.4,283.1c0,0-0.2,0-0.5-0.1s-0.8-0.2-1.3-0.3c-1.2-0.3-2.8-0.7-4.7-1.2c-4-1-9.5-2.5-15.6-4.1
			c-6.1-1.7-11.5-3.3-15.5-4.5c-1.9-0.6-3.5-1.1-4.7-1.5c-0.5-0.2-0.9-0.3-1.3-0.4c-0.3-0.1-0.4-0.2-0.4-0.2s0.2,0,0.5,0.1
			s0.8,0.2,1.3,0.3c1.2,0.3,2.8,0.8,4.7,1.3c4,1.1,9.5,2.7,15.5,4.4c6,1.7,11.5,3.2,15.5,4.3c1.9,0.5,3.5,1,4.7,1.3
			c0.5,0.1,0.9,0.3,1.3,0.4C337.2,283,337.4,283.1,337.4,283.1z"/>
	</g>
</g>
<g>
	<g>
		<path class="st3" d="M257.2,57c1.7-5.3,10.5-10.1,15.3-12.8c7.2-4.1,13.9-3.3,18,0.4c7.4-6.2,17.2-12.2,26.6-9.8
			c9.4,2.5,17,12.1,15.3,21.6c-1,5.6-4.9,10.7-4.7,16.4c0.2,3.9,2.2,7.4,3.9,11c1.6,3.5,2.9,7.7,1.4,11.3c-1.4,3.4-4.8,5.5-6.6,8.6
			c-1.5,2.6-1.8,5.6-2.8,8.4c-3.5,10.4-15.8,16.2-26.6,14.4c-10.8-1.8-19.8-10-24.9-19.6c-5.1-9.7-6.8-20.8-7.4-31.8"/>
	</g>
</g>
<g>
	<g>
		<g>
			<g>
				<g>
					<g>
						<g>
							<g>
								<g>
									<path class="st10" d="M265.1,64.3L269,139c0.8,9.9,12,25,19,24l0,0c10.7-0.9,15.6-13,15-23c-0.6-10.5,2-19,2-19
										s13-4,15-16.4c1.4-9.1-0.6-24.1-2.2-36.1c-1.3-10-10.7-16.9-20.6-15.2"/>
								</g>
							</g>
						</g>
					</g>
				</g>
			</g>
			<g>
				<g>
					<g>
						<g>
							<g>
								<g>
									<path class="st3" d="M314,82.4c0.2,1.8-0.7,3.4-1.9,3.6c-1.2,0.2-2.4-1.2-2.6-3s0.7-3.4,1.9-3.6
										C312.6,79.3,313.8,80.6,314,82.4z"/>
								</g>
							</g>
						</g>
					</g>
				</g>
			</g>
			<g>
				<g>
					<g>
						<g>
							<g>
								<g>
									<path class="st3" d="M290.5,84.7c0.2,1.7-0.7,3.2-1.9,3.4c-1.2,0.2-2.4-1.1-2.6-2.8c-0.2-1.7,0.7-3.2,1.9-3.4
										C289.2,81.7,290.3,83,290.5,84.7z"/>
								</g>
							</g>
						</g>
					</g>
				</g>
			</g>
		</g>
	</g>
	<g>
		<g>
			<g>
				<g>
					<g>
						<g>
							<path class="st3" d="M292.1,77.4c-0.2,0.7-2.7,0.5-5.5,1.1c-2.9,0.5-5.1,1.5-5.5,0.9c-0.2-0.3,0.2-0.9,1.1-1.6s2.3-1.4,4-1.7
								c1.7-0.3,3.3-0.1,4.4,0.2C291.6,76.6,292.2,77.1,292.1,77.4z"/>
						</g>
					</g>
				</g>
			</g>
		</g>
	</g>
	<g>
		<g>
			<g>
				<g>
					<g>
						<g>
							<path class="st3" d="M315.7,76c-0.4,0.6-2.1,0.1-4.1,0.2c-2,0-3.7,0.6-4.1,0.1c-0.2-0.3,0-0.8,0.8-1.4
								c0.7-0.6,1.9-1.1,3.3-1.1s2.6,0.4,3.4,0.9C315.6,75.2,315.9,75.7,315.7,76z"/>
						</g>
					</g>
				</g>
			</g>
		</g>
	</g>
</g>
<g>
	<g>
		<circle class="st11" cx="292.8" cy="91.4" r="0.6"/>
	</g>
</g>
<g>
	<g>
		<path class="st11" d="M311.7,88.2c0,0.4-0.3,0.6-0.6,0.6c-0.4,0-0.6-0.3-0.6-0.6c0-0.4,0.3-0.6,0.6-0.6
			C311.5,87.5,311.7,87.8,311.7,88.2z"/>
	</g>
</g>
<g>
	<g>
		<path class="st11" d="M315.3,89.9c0,0.4-0.3,0.6-0.6,0.6s-0.6-0.3-0.6-0.6c0-0.4,0.3-0.6,0.6-0.6S315.3,89.5,315.3,89.9z"/>
	</g>
</g>
<g>
	<g>
		<path class="st11" d="M316.4,87.2c0,0.4-0.3,0.6-0.6,0.6c-0.4,0-0.6-0.3-0.6-0.6c0-0.4,0.3-0.6,0.6-0.6
			C316.1,86.5,316.4,86.8,316.4,87.2z"/>
	</g>
</g>
<g>
	<g>
		<path class="st11" d="M290.5,94.2c0,0.4-0.3,0.6-0.6,0.6c-0.4,0-0.6-0.3-0.6-0.6s0.3-0.6,0.6-0.6S290.5,93.9,290.5,94.2z"/>
	</g>
</g>
<g>
	<g>
		<path class="st11" d="M288,91.6c0,0.4-0.3,0.6-0.6,0.6c-0.4,0-0.6-0.3-0.6-0.6c0-0.4,0.3-0.6,0.6-0.6C287.8,91,288,91.3,288,91.6z
			"/>
	</g>
</g>
<g>
	<g>
		<path class="st3" d="M296.4,50.8c-1.6,14.1-12,26.8-25.6,31c4.4,6.3,1.6,18.2,1.7,28.2c0.1,9.3,0.1,11.9-5.9,16.7
			c-5,1.2-7.8-12.4-11.5-16.2c-3.7-3.8-7.2-8.5-6.9-13.8c0.1-2.5,1.1-4.8,1.2-7.3c0.2-2.7-0.7-5.4-1.2-8.1
			c-2.2-12,4.1-24.8,14.5-31.1s24.3-5.8,34.7,0.6"/>
	</g>
</g>
<g>
	<g>
		<path class="st3" d="M266.6,108.7c-1.4-4.8-3.4-8.5-6.5-12.4l0.2,0.5c-2.5-5.6-8.6-9.4-14.8-9.1s-11.9,4.7-13.8,10.6
			c-1.9,5.9,0.2,12.8,5,16.6c-1.8-0.4-3.5,1.1-3.9,2.9s0.3,3.6,1.3,5.1c3.7,5.3,11.9,6.8,17.2,2.9c4.1,2.8,10.2,1.2,13.3-2.8
			C267.6,119.1,268,113.5,266.6,108.7z"/>
	</g>
</g>
<g>
	<g>
		<g>
			<path class="st12" d="M249.8,88.1c0,0-0.2-0.2-0.4-0.5c-0.3-0.3-0.6-0.9-0.8-1.7c-0.5-1.6-0.3-4.2,1-6.9c0.6-1.4,1.6-2.7,2.8-4
				s2.6-2.5,4.2-3.6c1.6-1.1,3.5-2.1,5.5-2.8c2-0.7,4.2-1.2,6.3-1.8c2.2-0.5,4.3-1.1,6.3-1.8c2-0.7,3.9-1.5,5.6-2.4
				c3.4-1.8,6.3-3.9,8.4-5.9c2.2-2,3.7-3.8,4.7-5.1c0.5-0.6,0.9-1.2,1.1-1.5c0.3-0.3,0.4-0.5,0.4-0.5s-0.1,0.2-0.3,0.6
				c-0.2,0.4-0.6,0.9-1.1,1.6c-1,1.3-2.5,3.2-4.7,5.2s-5,4.2-8.4,6c-1.7,0.9-3.6,1.8-5.6,2.5s-4.2,1.3-6.3,1.8
				c-2.2,0.5-4.3,1.1-6.3,1.8c-2,0.7-3.8,1.6-5.4,2.7s-3,2.3-4.2,3.5s-2.2,2.5-2.8,3.8c-1.3,2.6-1.6,5.1-1.1,6.7
				C249.1,87.4,249.9,88.1,249.8,88.1z"/>
		</g>
	</g>
</g>
<g>
	<g>
		<g>
			<path class="st12" d="M295.2,49.6c0,0-0.1,0.2-0.4,0.4c-0.2,0.3-0.6,0.7-1.1,1.2c-1,1-2.5,2.5-4.5,4.1s-4.5,3.4-7.7,4.7
				c-1.6,0.6-3.4,1-5.2,1.4c-1.8,0.4-3.7,0.6-5.6,0.9c-3.9,0.6-7.6,1.2-10.7,2.3c-3.2,1.1-5.9,2.6-7.8,4.3c-1.9,1.7-3.1,3.4-3.8,4.7
				c-0.3,0.6-0.5,1.1-0.6,1.5s-0.2,0.5-0.2,0.5s0-0.2,0.1-0.6s0.3-0.9,0.6-1.6c0.6-1.3,1.8-3.1,3.7-4.8c1.9-1.7,4.6-3.3,7.8-4.4
				c3.2-1.1,6.9-1.7,10.8-2.3c1.9-0.3,3.8-0.6,5.6-0.9c1.8-0.4,3.5-0.7,5.1-1.4c3.1-1.2,5.7-3,7.7-4.5c2-1.6,3.5-3,4.6-4
				c0.5-0.5,0.9-0.9,1.2-1.2C295,49.8,295.1,49.6,295.2,49.6z"/>
		</g>
	</g>
</g>
<g>
	<g>
		<g>
			<path class="st12" d="M314.9,34.2c0,0.1-1.5,0.1-3.9,0.8c-0.6,0.2-1.2,0.3-1.9,0.6c-0.7,0.2-1.4,0.6-2.1,0.9
				c-1.4,0.7-3,1.6-4.4,2.8s-2.7,2.4-3.7,3.7c-0.5,0.6-1,1.2-1.3,1.8c-0.4,0.6-0.7,1.2-1,1.7c-1.1,2.2-1.5,3.6-1.6,3.6
				c0,0,0.1-0.4,0.3-1c0.1-0.3,0.2-0.7,0.4-1.2c0.2-0.5,0.4-1,0.7-1.5c0.3-0.6,0.6-1.2,1-1.8s0.8-1.2,1.3-1.9c1-1.3,2.3-2.6,3.7-3.8
				c1.5-1.2,3-2.1,4.5-2.8c0.8-0.3,1.5-0.7,2.2-0.9c0.7-0.3,1.3-0.4,1.9-0.6c0.6-0.2,1.2-0.2,1.6-0.3c0.5-0.1,0.9-0.1,1.2-0.1
				C314.6,34.2,314.9,34.2,314.9,34.2z"/>
		</g>
	</g>
</g>
<g>
	<g>
		<g>
			<path class="st12" d="M327.5,101.5c0,0,0-0.1,0.1-0.2s0.2-0.3,0.4-0.4c0.3-0.4,0.8-0.9,1.4-1.7c0.5-0.8,1.2-1.7,1.6-3
				c0.2-0.6,0.3-1.4,0.2-2.1c-0.1-0.7-0.4-1.5-0.8-2.2c-0.8-1.5-2.2-2.7-3.5-4.3c-1.3-1.6-2.4-3.4-3.3-5.5s-1.6-4.4-1.9-6.8
				c-0.3-2.5-0.2-5-0.2-7.6s0-5.1-0.7-7.5c-0.6-2.3-1.9-4.4-3.4-6s-3.3-2.9-5.1-3.7c-1.8-0.8-3.7-1.2-5.3-1.2
				c-3.4-0.1-6.1,0.9-7.7,1.7c-0.8,0.4-1.5,0.8-1.9,1.1c-0.2,0.1-0.3,0.2-0.5,0.3c-0.1,0.1-0.2,0.1-0.2,0.1s0.7-0.8,2.4-1.7
				c1.7-0.9,4.4-1.9,7.8-1.8c1.7,0,3.6,0.4,5.5,1.2s3.7,2.1,5.2,3.7c1.5,1.7,2.8,3.8,3.5,6.2s0.7,5,0.7,7.6s-0.1,5.1,0.2,7.5
				c0.3,2.4,1,4.7,1.9,6.7c0.9,2.1,2,3.9,3.2,5.4c1.2,1.6,2.6,2.9,3.5,4.4c0.4,0.7,0.7,1.5,0.8,2.3c0.1,0.8,0,1.5-0.2,2.2
				c-0.4,1.3-1.1,2.3-1.7,3.1c-0.6,0.8-1.1,1.3-1.4,1.7c-0.2,0.2-0.3,0.3-0.4,0.4S327.5,101.5,327.5,101.5z"/>
		</g>
	</g>
</g>
<g>
	<g>
		<g>
			<path class="st12" d="M266.6,127c0,0-0.1-0.1-0.4-0.3c-0.2-0.2-0.6-0.5-1-0.8c-0.9-0.7-2.2-1.8-3.5-3.3c-1.4-1.5-2.9-3.6-3.3-6.3
				c-0.2-1.4-0.1-2.8-0.2-4.2c0-1.4-0.3-2.9-1.2-4.2c-0.9-1.3-2-2.2-3-3.3c-1.1-1-1.9-2.2-2.5-3.4c-0.6-1.2-1-2.5-1.2-3.7
				s-0.4-2.3-0.3-3.3c0-1,0.2-1.9,0.3-2.7c0.1-0.8,0.1-1.5,0-2c-0.1-1.1-0.3-1.7-0.3-1.7s0.1,0.1,0.2,0.4c0.1,0.3,0.2,0.7,0.3,1.3
				c0.1,0.6,0.1,1.3,0,2.1c-0.1,0.8-0.3,1.7-0.3,2.7c0,2,0.4,4.4,1.6,6.8c0.6,1.2,1.4,2.3,2.5,3.3c1,1,2.2,2,3.1,3.4
				c0.5,0.7,0.8,1.4,1,2.1c0.2,0.8,0.3,1.5,0.3,2.3c0,1.5-0.1,2.9,0.2,4.2c0.4,2.6,1.9,4.7,3.2,6.2c1.3,1.5,2.6,2.6,3.4,3.4
				c0.4,0.4,0.7,0.6,1,0.9L266.6,127z"/>
		</g>
	</g>
</g>
<g>
	<g>
		<g>
			<path class="st12" d="M257.7,108.9c0,0,0,0.1,0,0.3c0,0.2,0,0.5-0.1,0.9c-0.1,0.8-0.3,1.9-0.8,3.3c-0.5,1.3-1.2,2.9-2.4,4.4
				c-1.1,1.5-2.7,3-4.5,4.1c-1.9,1.1-3.9,1.8-5.8,2.1c-1.9,0.3-3.6,0.2-5,0s-2.5-0.6-3.3-0.9c-0.4-0.1-0.6-0.3-0.8-0.4
				s-0.3-0.1-0.3-0.2s1.6,0.8,4.4,1.1c1.4,0.2,3.1,0.2,4.9-0.1c1.8-0.3,3.8-0.9,5.6-2s3.3-2.5,4.4-4c1.1-1.5,1.9-3,2.4-4.3
				C257.6,110.6,257.6,108.9,257.7,108.9z"/>
		</g>
	</g>
</g>
<g>
	<g>
		<g>
			<path class="st12" d="M254.7,105.2c0,0,0,0.4-0.2,1.1s-0.5,1.6-1.1,2.8c-1.1,2.2-3.3,5.1-6.6,7.1s-6.9,2.7-9.4,2.7
				c-1.3,0-2.3-0.1-3-0.2s-1.1-0.2-1.1-0.2c0-0.1,1.5,0.2,4,0.1s5.9-0.8,9.2-2.8c3.3-1.9,5.4-4.7,6.6-6.9
				C254.3,106.7,254.6,105.2,254.7,105.2z"/>
		</g>
	</g>
</g>
<g>
	<g>
		<g>
			<path class="st12" d="M231.9,97.4c0,0,0.2-0.2,0.7-0.4c0.2-0.1,0.5-0.3,0.9-0.4c0.3-0.1,0.7-0.3,1.2-0.4c0.9-0.3,2-0.5,3.2-0.6
				s2.6-0.1,4,0.1s2.7,0.6,3.9,1c1.1,0.5,2.2,0.9,2.9,1.5c0.4,0.2,0.7,0.5,1,0.7s0.5,0.4,0.7,0.6c0.4,0.4,0.6,0.6,0.6,0.6
				c-0.1,0.1-0.9-0.8-2.5-1.7c-0.8-0.5-1.8-0.9-2.9-1.4c-1.1-0.4-2.4-0.7-3.8-0.9c-1.4-0.2-2.7-0.2-3.9-0.1s-2.3,0.3-3.2,0.5
				C233,97,231.9,97.5,231.9,97.4z"/>
		</g>
	</g>
</g>
<g>
	<g>
		<g>
			<path class="st6" d="M249.8,96c-0.1,0.1-5-4.1-11-9.3c-6-5.2-10.8-9.6-10.7-9.6c0.1-0.1,5,4.1,11,9.3
				C245.1,91.6,249.9,95.9,249.8,96z"/>
		</g>
	</g>
</g>
<g>
	<g>
		<g>
			<path class="st3" d="M255.4,122.8c0,0-0.1,1.2-1,3.2c-0.4,1-1.1,2.1-2,3.3c-1,1.2-2.3,2.4-3.9,3.3c-1.7,0.9-3.8,1.5-6,1.6
				c-2.3,0-4.7-0.5-6.8-2c-2.1-1.4-3.8-3.7-4.5-6.4c-0.4-1.3-0.5-2.8-0.2-4.2c0.2-1.4,0.8-2.8,1.6-4c1.4-2.1,3.5-3.6,5.8-4.1v0.4
				c-2.5-0.4-4.8-1.4-6.7-2.7c-1.9-1.4-3.4-3.2-4.3-5.1c-0.9-1.9-1.2-4-1-5.9c0.1-1.9,0.8-3.6,1.7-4.9s2-2.2,3.1-2.9
				c1.1-0.6,2.1-1,3-1.1c0.9-0.2,1.5-0.2,2-0.1c0.2,0,0.4,0,0.5,0.1c0.1,0,0.2,0,0.2,0c0,0.1-1-0.2-2.6,0.2
				c-0.8,0.2-1.8,0.5-2.9,1.2c-1,0.6-2.1,1.6-3,2.9s-1.5,2.9-1.6,4.7c-0.1,1.8,0.2,3.8,1,5.7c0.9,1.9,2.3,3.6,4.2,4.9
				s4.1,2.3,6.5,2.6l1,0.2l-1,0.2c-2.2,0.5-4.2,2-5.5,3.9c-0.8,1.2-1.3,2.5-1.6,3.9c-0.2,1.4-0.1,2.8,0.2,4c0.7,2.6,2.3,4.8,4.4,6.2
				c2,1.4,4.4,2,6.6,2c2.2,0,4.2-0.6,5.9-1.5s2.9-2.1,3.9-3.2c1-1.1,1.6-2.3,2.1-3.2c0.5-1,0.7-1.7,0.9-2.3c0.1-0.3,0.1-0.5,0.2-0.6
				C255.4,122.8,255.4,122.8,255.4,122.8z"/>
		</g>
	</g>
</g>
<g>
	<g>
		<g>
			<path class="st3" d="M250.8,89.1c0,0-0.1,0-0.2-0.1c-0.1-0.1-0.3-0.2-0.5-0.3c-0.5-0.3-1.1-0.7-1.9-1.3c-1.6-1.3-3.7-3.5-5-7
				c-1.3-3.4-1.5-8.2,0.7-12.6c1-2.2,2.7-4.3,4.8-5.9c2.1-1.6,4.6-2.8,7.3-3.6c2.7-0.8,5.4-1.2,8-1.5c2.6-0.2,5.1-0.4,7.5-0.5
				c2.4-0.2,4.7-0.4,6.8-0.8c2.1-0.4,4-0.9,5.7-1.5c3.4-1.3,5.8-3.1,7.2-4.5c0.7-0.7,1.2-1.3,1.5-1.8c0.1-0.2,0.3-0.4,0.4-0.5
				s0.1-0.2,0.1-0.2s-0.5,1-1.9,2.5s-3.8,3.4-7.2,4.7c-1.7,0.7-3.6,1.2-5.8,1.6c-2.1,0.4-4.4,0.6-6.8,0.8c-4.8,0.4-10.2,0.4-15.5,2
				c-2.6,0.8-5.1,1.9-7.2,3.5c-2.1,1.6-3.7,3.6-4.7,5.7c-2.1,4.3-2,9-0.7,12.3c1.2,3.4,3.3,5.7,4.8,7c0.8,0.7,1.4,1.1,1.9,1.4
				c0.2,0.1,0.4,0.2,0.5,0.3C250.7,89,250.8,89.1,250.8,89.1z"/>
		</g>
	</g>
</g>
<g>
	<g>
		<g>
			<path class="st3" d="M337.6,77.6c0,0-0.2,0.3-0.7,0.4s-1.4-0.3-1.9-1.2c-0.2-0.5-0.2-1.1,0.1-1.7c0.3-0.6,0.9-1,1.6-1.3
				c1.4-0.6,3.3-0.4,4.8,0.7c0.7,0.6,1.4,1.3,1.8,2.3s0.5,2.1,0.2,3.1c-0.2,1.1-0.8,2.1-1.7,2.9c-0.9,0.8-2.1,1.2-3.3,1.4
				c-2.5,0.3-5.1-0.9-6.9-2.7c-0.9-0.9-1.7-2.1-2.2-3.4s-0.6-2.7-0.4-4.1s0.7-2.7,1.3-3.9c0.5-1.2,1-2.5,1.4-3.7
				c0.8-2.5,1.4-4.9,1.6-7.3c0.2-2.4,0.1-4.7-0.4-6.7c-0.5-2.1-1.3-3.9-2.2-5.4c-1.9-3.1-4.4-4.8-6.2-5.7c-0.9-0.4-1.7-0.7-2.2-0.8
				c-0.2-0.1-0.4-0.1-0.6-0.2c-0.1,0-0.2-0.1-0.2-0.1s0.1,0,0.2,0c0.2,0,0.4,0.1,0.6,0.1c0.5,0.1,1.3,0.3,2.2,0.7
				c1.8,0.8,4.4,2.6,6.4,5.7c1,1.5,1.8,3.4,2.3,5.5s0.7,4.4,0.5,6.8c-0.2,2.4-0.7,4.9-1.6,7.4c-0.4,1.2-0.9,2.5-1.4,3.7
				s-1,2.5-1.2,3.9c-0.2,1.3-0.1,2.7,0.4,3.9c0.5,1.2,1.2,2.3,2.1,3.2c1.8,1.8,4.3,2.9,6.6,2.6c1.2-0.1,2.3-0.6,3.1-1.3
				c0.9-0.7,1.4-1.7,1.6-2.7s0.2-2-0.2-2.9c-0.3-0.9-0.9-1.6-1.7-2.2c-1.4-1.1-3.2-1.3-4.5-0.8c-0.6,0.3-1.2,0.7-1.5,1.2
				s-0.3,1.1-0.1,1.5c0.4,0.9,1.3,1.3,1.8,1.2C337.4,77.8,337.6,77.6,337.6,77.6z"/>
		</g>
	</g>
</g>
<g>
	<g>
		<g>
			<path class="st10" d="M312.9,240l14.2-4.9l12.7-19.9c1.3-2,3.3-3.3,5.6-3.8l22.8-4.3c0,0,1.1,2.8-2,4.6c-3,1.7-16.8,4.9-16.8,4.9
				l21.1-0.4c0,0,0.7,3-1.7,4.1c-2.4,1.1-17.4,1.6-17.4,1.6l19.3,2.7c0,0,0.1,3.1-4.3,3.1c-3.5,0-10.8-0.5-13-0.8
				c-0.4-0.1-0.7,0.2-0.8,0.6l0,0c-0.1,0.4,0.2,0.7,0.5,0.8l12.8,3c1.7,0.4,1.8,2.9,0.1,3.3c-0.2,0.1-0.5,0.1-0.7,0.1
				c-2.2-0.2-15.2-1.9-15.2-1.9s-4.6,16.1-7.6,17.4c-3,1.3-9.2,1.7-9.2,1.7l-13.2,5.2L312.9,240z"/>
		</g>
	</g>
	<g>
		<g>
			<g>
				<path class="st11" d="M369.2,216.2c0,0-0.4,0.1-1.1,0.1c-0.8,0-1.8,0.1-3,0.1c-2.6,0.1-6.1,0.2-10,0.3c-1.9,0-3.8,0.1-5.5,0.1
					s-3.2,0.1-4.4,0.6c-1.2,0.5-1.9,1.2-2.2,1.8c-0.4,0.6-0.4,1-0.4,1s0-0.1,0-0.3s0.1-0.5,0.3-0.8c0.3-0.6,1.1-1.5,2.3-2
					c1.2-0.6,2.8-0.7,4.5-0.7c1.7-0.1,3.5-0.1,5.5-0.2c3.9-0.1,7.4-0.2,10-0.2c1.2,0,2.2,0,3,0C368.8,216.1,369.2,216.1,369.2,216.2
					z"/>
			</g>
		</g>
	</g>
	<g>
		<g>
			<g>
				<path class="st11" d="M369.5,224.8c0,0-0.4,0-1-0.1c-0.7-0.1-1.7-0.2-2.8-0.3c-2.3-0.3-5.5-0.8-9.1-1.3c-1.8-0.2-3.5-0.6-5-0.7
					c-1.5-0.1-2.9,0.1-3.9,0.7c-1,0.6-1.6,1.3-2,1.8s-0.5,0.9-0.6,0.9c0,0,0-0.1,0.1-0.3s0.2-0.4,0.3-0.7c0.3-0.6,1-1.3,2-2
					c1-0.6,2.5-1,4.1-0.8c1.6,0.1,3.2,0.4,5,0.7c3.5,0.5,6.8,1,9.1,1.4c1.1,0.2,2,0.3,2.7,0.5C369.1,224.7,369.5,224.8,369.5,224.8z
					"/>
			</g>
		</g>
	</g>
	<g>
		<g>
			<g>
				<path class="st11" d="M358.8,229.7c0,0.1-0.9-0.1-2.2-0.5c-1.4-0.3-3.3-0.8-5.3-1.3c-0.5-0.1-1.1-0.2-1.5-0.2
					c-0.5,0-0.9,0.2-1.3,0.4c-0.8,0.4-1.4,1-1.7,1.6c-0.7,1.2-0.6,2.1-0.7,2.1c0,0-0.1-0.2-0.1-0.6c0-0.4,0.1-1,0.5-1.6
					c0.3-0.6,0.9-1.3,1.8-1.8c0.4-0.2,0.9-0.4,1.5-0.5c0.6,0,1.1,0.1,1.6,0.2c2.1,0.4,4,1,5.3,1.4
					C357.9,229.3,358.8,229.6,358.8,229.7z"/>
			</g>
		</g>
	</g>
</g>
<g>
	<g>
		<path class="st6" d="M207.5,250.7l42.6-5.2l74.7-12.1l9.6,24.2c-28.1,9.7-56.9,18.5-85.1,26.2c-1.9,0.5-5,0.6-7,0.6
			C232.9,284.4,209.6,280.6,207.5,250.7z"/>
	</g>
</g>
<g>
	<g>
		<g>
			<g>
				<path class="st8" d="M334.4,257.5c0,0-0.1-0.1-0.2-0.4s-0.3-0.7-0.5-1.3c-0.5-1.1-1.1-2.8-2-4.9c-1.7-4.2-4.1-10.3-7.1-17.6
					l0.2,0.1c-10.1,1.7-22.7,3.8-36.3,6.1c-8.6,1.5-16.8,2.4-24.2,3.4c-3.7,0.5-7.3,1-10.6,1.5c-1.7,0.3-3.2,0.5-4.8,0.8
					c-1.5,0.3-3,0.5-4.3,1c-2.7,0.8-4.9,2.2-6.6,3.7c-1.7,1.5-2.8,3.1-3.6,4.5s-1.2,2.5-1.5,3.3c-0.1,0.4-0.2,0.7-0.3,0.9
					c-0.1,0.2-0.1,0.3-0.1,0.3s0.1-0.4,0.3-1.2c0.2-0.8,0.6-2,1.4-3.4c0.8-1.4,1.9-3,3.6-4.6c1.7-1.5,3.9-3,6.6-3.9
					c1.4-0.5,2.9-0.7,4.4-1s3.1-0.6,4.8-0.8c3.3-0.5,6.8-1.1,10.6-1.6c7.5-1,15.7-2,24.2-3.4c13.6-2.2,26.2-4.3,36.3-6h0.1v0.1
					c2.9,7.4,5.3,13.4,7,17.7c0.8,2.1,1.5,3.8,1.9,4.9c0.2,0.5,0.4,1,0.5,1.3C334.4,257.4,334.4,257.5,334.4,257.5z"/>
			</g>
		</g>
	</g>
	<g>
		<g>
			<g>
				<path class="st8" d="M230.4,283.1c0,0,0.1,0,0.3,0.1s0.6,0.1,1,0.2c0.9,0.2,2.2,0.5,3.8,0.7c3.3,0.4,8.3,0.6,14.3-0.7
					c1.5-0.3,3-0.7,4.6-1.2c1.6-0.4,3.3-0.9,5-1.4c3.4-1,7.1-2,11-3.1c7.7-2.2,16.2-4.8,25-7.5c14.8-4.6,28.4-9.1,39-12.7l-0.1,0.2
					c-2.9-7.4-5.3-13.5-7-17.7c-0.8-2.1-1.5-3.7-1.9-4.9c-0.2-0.5-0.4-1-0.5-1.3s-0.2-0.4-0.2-0.4s0.1,0.1,0.2,0.4
					c0.1,0.3,0.3,0.7,0.5,1.3c0.5,1.1,1.1,2.8,2,4.8c1.7,4.2,4.1,10.3,7.1,17.6l0.1,0.2l-0.2,0.1c-10.6,3.7-24.1,8.2-39,12.8
					c-8.8,2.8-17.3,5.3-25,7.5c-3.9,1.1-7.5,2.1-11,3.1c-1.7,0.5-3.4,0.9-5,1.4c-1.6,0.4-3.1,0.9-4.6,1.2c-6,1.2-11,1.1-14.3,0.6
					C232.2,283.7,230.4,283.1,230.4,283.1z"/>
			</g>
		</g>
	</g>
</g>
<g>
	<g>
		<g>
			<path class="st8" d="M246.9,245.5c0,0-0.4,0.1-1.1,0.2c-0.8,0.1-1.7,0.2-2.9,0.3c-2.5,0.2-5.9,0.6-9.6,0.9
				c-3.7,0.4-7.1,0.8-9.6,1c-1.2,0.1-2.2,0.2-2.9,0.3s-1.1,0.1-1.1,0.1s0.4-0.1,1.1-0.2c0.7-0.1,1.7-0.3,2.9-0.4
				c2.5-0.3,5.9-0.8,9.6-1.1c3.8-0.4,7.2-0.7,9.7-0.8c1.2-0.1,2.2-0.1,2.9-0.2C246.5,245.4,246.9,245.4,246.9,245.5z"/>
		</g>
	</g>
</g>
<path class="st13" d="M301.5,84.5c0,0,6,12,5,12s-6,1-6,1"/>
<path class="st13" d="M298.5,106.5c0,0,7,1,12-2"/>
<path class="st13" d="M277.5,115.5c0,0,12,8,28,5"/>
</svg>
