<?xml version="1.0" encoding="utf-8"?>
<!-- Generator: Adobe Illustrator 24.1.2, SVG Export Plug-In . SVG Version: 6.00 Build 0)  -->
<svg version="1.1" id="Слой_1" xmlns="http://www.w3.org/2000/svg" xmlns:xlink="http://www.w3.org/1999/xlink" x="0px" y="0px"
	 viewBox="0 0 614 460" style="enable-background:new 0 0 614 460;" xml:space="preserve">
<style type="text/css">
	.st0{opacity:0.46;}
	.st1{clip-path:url(#SVGID_2_);}
	.st2{fill:#FACF90;}
	.st3{fill:#FFECBF;}
	.st4{fill:#EDB17D;}
	.st5{fill:#FFB145;}
	.st6{fill:#F09B39;}
	.st7{clip-path:url(#SVGID_4_);}
	.st8{fill:#263238;}
	.st9{fill:#455A64;}
	.st10{fill:#F5F5F5;}
	.st11{fill:#E0E0E0;}
	.st12{fill:#E8505B;}
	.st13{fill:#FAFAFA;}
	.st14{opacity:0.3;}
	.st15{fill:#465D88;}
	.st16{fill:#4B6068;}
	.st17{fill:#76C6C5;}
	.st18{fill:#267375;}
	.st19{fill:#94A7AF;}
	.st20{fill:#E5AB91;}
	.st21{fill:#BC8579;}
	.st22{fill:#FFFFFF;}
	.st23{fill:none;stroke:#BC8579;stroke-width:0.75;stroke-linecap:round;stroke-linejoin:round;stroke-miterlimit:10;}
	.st24{fill:none;stroke:#263238;stroke-width:0.5;stroke-linecap:round;stroke-linejoin:round;stroke-miterlimit:10;}
	.st25{clip-path:url(#SVGID_6_);}
	.st26{fill:#684136;}
	.st27{fill:#FFBF9D;}
	.st28{fill:#884540;}
	.st29{fill:#54352E;}
	.st30{fill:#3E977B;}
	.st31{fill:#8C5050;}
	.st32{fill:none;stroke:#884540;stroke-width:0.75;stroke-linecap:round;stroke-linejoin:round;stroke-miterlimit:10;}
	.st33{fill:#2B2B2B;}
	.st34{fill:#F7F7F7;}
	.st35{fill:none;stroke:#2B2B2B;stroke-miterlimit:10;}
	.st36{clip-path:url(#SVGID_8_);}
	.st37{fill:#82422C;}
	.st38{fill:#FF9A6C;}
	.st39{fill:#632D1F;}
	.st40{fill:#DE7248;}
	.st41{fill:#B75A3D;}
</style>
<g id="Слой_2_1_">
</g>
<g class="st0">
	<g>
		<defs>
			<path id="SVGID_1_" d="M402,379c26,0,70.9-3.6,75-4c28-3,66,6,87.6-41.2c38.5-84,14.1-151.6-20.1-202.7
				C522.4,98,483.2,79.9,446,73c-79.3-14.6-87-25-190.1-21.6c-41,1.4-179.9,30.8-216.3,79.3c-25.5,33.9-18.4,148.5,82,226.1
				C189,409,217,355.3,317,368C352.5,372.5,385.6,379,402,379z"/>
		</defs>
		<clipPath id="SVGID_2_">
			<use xlink:href="#SVGID_1_"  style="overflow:visible;"/>
		</clipPath>
		<g class="st1">
			<g>
				<g>
					<polygon class="st2" points="955.3,-699.7 912.3,469 -249.8,469 -292.8,-699.7 					"/>
				</g>
			</g>
			<g>
				<g>
					<g>
						<polygon class="st3" points="8.7,314.6 -158.2,314.6 -181.6,-97.2 -0.8,-97.2 						"/>
					</g>
				</g>
			</g>
			<g>
				<g>
					<g>
						<polygon class="st3" points="618,44.3 44.9,44.3 42,14.7 620.9,14.7 						"/>
					</g>
					<g>
						<polygon class="st3" points="605.6,14.7 57.2,14.7 50.6,-67.5 612.2,-67.5 						"/>
					</g>
					<g>
						<path class="st4" d="M69.8-54.9l5.5,53.8L588.1,2l6-56.9H69.8z M584.5-2L78.9-5l-4.7-45.9h515.5L584.5-2z"/>
					</g>
				</g>
				<g>
					<g>
						<polygon class="st3" points="597,355.5 601.4,378.8 523,378.2 527.7,355.5 531.9,355.5 594,355.5 						"/>
					</g>
					<g>
						<polygon class="st4" points="601.3,44.3 600.5,47.7 524.5,48.5 523.5,44.3 						"/>
					</g>
					<g>
						<polygon class="st3" points="600.5,47.7 597,62.6 590.7,62.6 535.3,62.6 527.7,62.6 524.5,48.5 						"/>
					</g>
					<g>
						<polygon class="st3" points="590.8,69 594,355.5 531.9,355.5 535.2,67.9 						"/>
					</g>
					<g>
						<polygon class="st4" points="590.7,62.6 590.8,69 535.2,67.9 535.3,62.6 						"/>
					</g>
					<g>
						<polygon class="st4" points="531.9,355.5 578.5,352.1 577.6,67.1 586.1,67.9 588,351.8 594,354 594,355.5 						"/>
					</g>
				</g>
				<g>
					<g>
						<polygon class="st3" points="138.8,355.5 143.2,378.8 64.8,378.2 69.5,355.5 73.7,355.5 135.8,355.5 						"/>
					</g>
					<g>
						<polygon class="st4" points="143.1,44.3 142.3,47.7 66.2,48.5 65.2,44.3 						"/>
					</g>
					<g>
						<polygon class="st3" points="142.3,47.7 138.8,62.6 132.5,62.6 77.1,62.6 69.5,62.6 66.2,48.5 						"/>
					</g>
					<g>
						<polygon class="st3" points="132.6,69 135.8,355.5 73.7,355.5 77,67.9 						"/>
					</g>
					<g>
						<polygon class="st4" points="132.5,62.6 132.6,69 77,67.9 77.1,62.6 						"/>
					</g>
					<g>
						<polygon class="st4" points="73.7,355.5 120.3,352.1 119.4,67.1 127.9,67.9 129.7,351.8 135.8,354 135.8,355.5 						"/>
					</g>
				</g>
				<g>
					<g>
						<polygon class="st2" points="627.3,426.2 53.8,426.2 50.6,378.8 630.5,378.8 						"/>
					</g>
					<g>
						<polygon class="st2" points="645.1,473.9 36.1,473.9 32.6,426.6 648.5,426.6 						"/>
					</g>
				</g>
				<g>
					<g>
						<polygon class="st4" points="52.5,406 627.9,416.8 627.3,426.2 53.8,426.2 						"/>
					</g>
					<g>
						<polygon class="st4" points="34.7,454.5 645.8,464 645.1,473.9 36.1,473.9 						"/>
					</g>
				</g>
			</g>
			<g>
				<g>
					<polygon class="st5" points="166,379.2 174.7,69 493.9,69 502.6,378.8 					"/>
				</g>
				<g>
					<polygon class="st6" points="326.6,85.4 326.6,379.2 330.5,379.2 332.7,85.4 					"/>
				</g>
				<g>
					<path class="st6" d="M179.4,379.3l0.1-2.1l14.7-291h275.7l0.1,1.9l11,290.7h-2L179.4,379.3z M198.1,90.2l-14.4,285.1l293.3-0.4
						L466.1,90.2H198.1z"/>
				</g>
				<g>
					<polygon class="st3" points="166,379.2 174.7,69 493.9,69 502.6,378.8 482,378.8 470.8,85.4 193.4,85.4 178.5,379.2 					"/>
				</g>
				<g>
					<g>
						<path class="st6" d="M312.6,258.9H205.1l6.4-155.1h101.1V258.9z M209.2,254.9h99.4V107.8h-93.3L209.2,254.9z"/>
					</g>
					<g>
						<path class="st6" d="M312.6,365.3H200.7l3.7-88.7h108.2L312.6,365.3L312.6,365.3z M204.8,361.3h103.8v-80.8H208.2L204.8,361.3
							z"/>
					</g>
				</g>
				<g>
					<g>
						<path class="st6" d="M454.3,258.9H346.8V103.8h101.1L454.3,258.9z M350.8,254.9h99.4l-6.1-147.1h-93.3V254.9z"/>
					</g>
					<g>
						<path class="st6" d="M458.8,365.3h-112v-88.7H455L458.8,365.3z M350.8,361.3h103.8l-3.4-80.8H350.8V361.3z"/>
					</g>
				</g>
			</g>
		</g>
	</g>
</g>
<g>
	<g>
		<defs>
			<path id="SVGID_3_" d="M401.8,379.5c26,0,70.9-3.6,75-4c28-3,66,6,87.6-41.2c38.5-84,14.1-151.6-20.1-202.7
				c-22.1-33.1-61.3-51.2-98.6-58.1c-79.3-14.6-87-25-190.1-21.6c-41,1.4-179.9,30.8-216.3,79.3c-25.5,33.9-18.4,148.5,82,226.1
				c67.5,52.2,95.5-1.5,195.5,11.2C352.4,373,385.4,379.5,401.8,379.5z"/>
		</defs>
		<clipPath id="SVGID_4_">
			<use xlink:href="#SVGID_3_"  style="overflow:visible;"/>
		</clipPath>
		<g class="st7">
			<g>
				<g>
					<g>
						<path class="st8" d="M372.7,381.1c0.4-1.5-10.9-58.2-10.9-58.2l-60.2-8.6c0,0-24.4,14.9-25.2,27.2
							c-0.8,12.3-6.4,39.6-6.4,39.6h58.2l1.8-2.4l1.2,2.2L372.7,381.1z"/>
					</g>
				</g>
				<g>
					<g>
						<g>
							<path class="st9" d="M325.4,369.8c0,0,0,0,0,0.1s0,0.2,0.1,0.3c0.1,0.3,0.3,0.6,0.6,1c0.4,0.4,0.9,0.7,1.6,0.9
								c0.7,0.2,1.6,0.1,2.4-0.2c0.8-0.4,1.6-1.1,2.2-2s1-2,1.2-3.1c0.3-1.2,0.4-2.4,0.6-3.7c0.2-1.3,0.4-2.6,0.5-3.9
								c0.7-5.4,1.4-10.2,1.9-13.8c0.2-1.7,0.4-3.1,0.5-4.2c0.1-0.5,0.1-0.8,0.1-1.1c0-0.3,0-0.4,0-0.4s0,0.1-0.1,0.4
								s-0.1,0.7-0.2,1.1c-0.2,1-0.4,2.4-0.6,4.2c-0.5,3.6-1.2,8.4-2,13.8c-0.2,1.3-0.4,2.7-0.5,3.9c-0.2,1.3-0.3,2.5-0.6,3.6
								c-0.2,1.1-0.6,2.2-1.2,3c-0.6,0.9-1.3,1.5-2.1,1.9c-0.8,0.4-1.6,0.4-2.3,0.3c-0.7-0.1-1.2-0.5-1.6-0.8
								C325.4,370.4,325.4,369.8,325.4,369.8z"/>
						</g>
					</g>
				</g>
				<g>
					<g>
						<g>
							<path class="st9" d="M330.4,335.7c0,0-0.2-0.1-0.7-0.1c-0.4,0-1.1,0.2-1.6,0.9c-0.5,0.6-0.7,1.7-0.3,2.6
								c0.4,1,1.4,1.8,2.7,1.8c0.6,0,1.2-0.1,1.7-0.5c0.5-0.3,0.8-0.8,1-1.3s0.2-1,0.1-1.5s-0.3-0.8-0.6-1.1
								c-0.6-0.6-1.2-0.8-1.6-0.8s-0.7,0.1-0.7,0.1s0.2,0,0.6,0.1s1,0.3,1.5,0.8s0.7,1.4,0.4,2.3c-0.3,0.9-1.3,1.6-2.4,1.5
								s-2-0.7-2.4-1.6s-0.2-1.8,0.2-2.4c0.4-0.6,1-0.8,1.4-0.9C330.2,335.7,330.4,335.7,330.4,335.7z"/>
						</g>
					</g>
				</g>
			</g>
			<g>
				<g>
					<g>
						<path class="st10" d="M291.4,176.2h31.8l3.5,9.3l20.1,27.6l15.8,114l-20.1,3.7c-3.5,0.6-7.1,0.8-10.6,0.4l-30.3-3l-0.9-101.7
							L286,185.8L291.4,176.2z"/>
					</g>
				</g>
				<g>
					<g>
						<g>
							<path class="st8" d="M315.5,196.2c0,0,0,0.1,0.1,0.3s0.2,0.6,0.3,1c0.3,0.9,0.6,2.2,1.1,3.8c0.5,1.7,1.1,3.7,1.8,6.1
								c0.7,2.4,1.5,5.1,2.3,8.1s1.7,6.3,2.6,9.8s1.8,7.3,2.8,11.3c1.9,8,3.8,16.8,5.6,26.1c1.8,9.3,3.2,18.2,4.4,26.3
								c0.6,4.1,1.1,7.9,1.5,11.5c0.5,3.6,0.8,7,1.2,10.1c0.4,3.1,0.6,5.9,0.9,8.3c0.3,2.5,0.4,4.6,0.6,6.3c0.2,1.7,0.3,3.1,0.3,4
								c0,0.4,0.1,0.8,0.1,1s0,0.4,0,0.4s0-0.1,0-0.4c0-0.2,0-0.6-0.1-1c-0.1-0.9-0.2-2.3-0.3-4c-0.1-1.7-0.3-3.8-0.5-6.3
								s-0.5-5.3-0.8-8.3c-0.3-3.1-0.7-6.5-1.1-10.1s-1-7.5-1.5-11.6c-1.2-8.1-2.6-17-4.4-26.4c-1.8-9.3-3.7-18.1-5.6-26.1
								c-1-4-1.9-7.8-2.8-11.3s-1.8-6.8-2.6-9.8c-0.8-3-1.6-5.7-2.3-8.1c-0.7-2.4-1.3-4.4-1.8-6.1c-0.5-1.6-0.9-2.9-1.2-3.8
								c-0.1-0.4-0.2-0.8-0.3-1C315.6,196.3,315.5,196.2,315.5,196.2z"/>
						</g>
					</g>
				</g>
				<g>
					<g>
						<g>
							<path class="st8" d="M353.5,318.2c-0.1,0,0.2,2.7-0.7,5.9c-0.8,3.2-2.4,5.4-2.3,5.4c0,0,0.5-0.5,1-1.4
								c0.6-0.9,1.2-2.3,1.6-3.9s0.5-3.1,0.5-4.2C353.7,318.8,353.6,318.2,353.5,318.2z"/>
						</g>
					</g>
				</g>
				<g>
					<g>
						<g>
							<path class="st8" d="M351.7,329.9c0,0,0.5-0.1,1.2-0.6c0.7-0.4,1.6-1.1,2.4-2s1.4-1.9,1.7-2.6c0.3-0.7,0.4-1.2,0.4-1.2
								c-0.1,0-0.8,1.8-2.4,3.6C353.4,328.9,351.7,329.8,351.7,329.9z"/>
						</g>
					</g>
				</g>
				<g>
					<g>
						<g>
							<path class="st8" d="M327.2,319.2c0,0-0.1,0.7-0.1,1.8c0,1.1,0.2,2.6,0.6,4.3c0.4,1.6,1,3.1,1.5,4c0.5,1,0.9,1.5,0.9,1.5
								s-0.3-0.6-0.7-1.6c-0.4-1-1-2.4-1.4-4s-0.6-3.1-0.7-4.2C327.3,319.8,327.3,319.2,327.2,319.2z"/>
						</g>
					</g>
				</g>
			</g>
			<g>
				<g>
					<g>
						<path class="st8" d="M325.9,183.3c0,0,19.4,8.2,22.2,8.7c2.8,0.5,12.6,3,12.6,3s7.5,13.4,6.8,21.1c-0.7,7.7-5.9,62.9-5.9,62.9
							s8.6,47.7,8.7,51.2c0.2,3.5,7.5,36.8,6.1,36.7c-1.4-0.2-7.9-7.3-7.9-7.3l-21.3-117.2c0,0-5.6-26.9-9.8-35.6
							c-4.2-8.7-11.5-20.1-11.5-20.1L325.9,183.3L325.9,183.3z"/>
					</g>
				</g>
				<g>
					<g>
						<g>
							<path class="st9" d="M354.3,281.6c0,0,0-0.1,0-0.3c0-0.2,0-0.5,0-0.8c0-0.7,0.1-1.8,0.1-3.1c0.1-2.7,0.2-6.6,0.4-11.4
								c0.2-4.8,0.3-10.6,0.5-16.9c0.1-3.2,0.1-6.5,0.1-10c-0.1-3.5-0.8-7.1-1.8-10.6c-1.5-5.9-3.4-11.4-5.3-16.5s-3.7-9.8-5.4-13.9
								l0,0l0,0c-2-1.6-3.8-3.1-5.4-4.5l-0.1,0.2c1.4,0.6,2.8,1.1,4,1.6l0.4,0.1l-0.2-0.3c-1.9-2.4-3.4-4.3-4.5-5.7
								c-0.5-0.6-0.9-1.1-1.2-1.5c-0.1-0.2-0.2-0.3-0.3-0.4c-0.1-0.1-0.1-0.1-0.1-0.1s0,0.1,0.1,0.1c0.1,0.1,0.2,0.2,0.3,0.4
								c0.3,0.4,0.7,0.9,1.2,1.5c1,1.3,2.5,3.3,4.4,5.7l0.1-0.2c-1.2-0.5-2.5-1-4-1.6l-0.7-0.3l0.6,0.5c1.6,1.4,3.4,2.9,5.4,4.5V198
								c1.7,4.1,3.5,8.8,5.4,13.9c1.8,5.1,3.7,10.6,5.3,16.5c0.9,3.6,1.7,7.1,1.8,10.5c0,3.5-0.1,6.8-0.1,10
								c-0.2,6.4-0.3,12.1-0.4,16.9s-0.2,8.7-0.3,11.4c0,1.3-0.1,2.4-0.1,3.1c0,0.3,0,0.6,0,0.8
								C354.3,281.5,354.3,281.6,354.3,281.6z"/>
						</g>
					</g>
				</g>
			</g>
			<g>
				<g>
					<g>
						<g>
							<path class="st9" d="M365.4,218.3c0,0,0,0.1,0,0.2c0,0.1-0.1,0.3-0.1,0.6c-0.1,0.5-0.2,1.2-0.3,2.1c-0.3,1.8-0.6,4.5-1.1,7.8
								c-0.9,6.6-2,15.8-2.6,25.9c-0.3,5.1-0.4,9.9-0.3,14.4c0.1,2.2,0.1,4.3,0.2,6.3c0.1,1,0.1,1.9,0.2,2.8s0.2,1.8,0.2,2.6
								c0.1,1.7,0.3,3.2,0.5,4.5c0.1,0.7,0.2,1.3,0.2,1.8c0.1,0.6,0.2,1.1,0.2,1.5c0.2,0.9,0.3,1.6,0.4,2.1c0,0.2,0.1,0.4,0.1,0.5
								s0,0.2,0,0.2s0-0.1,0-0.2s0-0.3-0.1-0.6c-0.1-0.5-0.2-1.2-0.3-2.1c-0.1-0.5-0.1-1-0.2-1.5c-0.1-0.6-0.1-1.2-0.2-1.8
								c-0.1-1.3-0.3-2.8-0.4-4.5c-0.1-0.8-0.1-1.7-0.2-2.6s-0.1-1.9-0.1-2.8c-0.1-2-0.1-4.1-0.2-6.3c0-4.4,0.1-9.3,0.3-14.3
								c0.6-10.2,1.7-19.3,2.5-25.9c0.4-3.3,0.7-6,0.9-7.8c0.1-0.9,0.2-1.6,0.2-2.1c0-0.2,0-0.4,0.1-0.6
								C365.4,218.3,365.4,218.3,365.4,218.3z"/>
						</g>
					</g>
				</g>
				<g>
					<g>
						<g>
							<path class="st9" d="M369.1,273.3c0,0,0.1-0.3,0.1-0.8s0.1-1.3,0.2-2.2c0.2-1.9,0.6-4.5,1.4-7.3s1.8-5.2,2.6-7
								c0.4-0.9,0.8-1.5,1-2s0.4-0.7,0.4-0.8c0,0-0.2,0.2-0.5,0.7s-0.7,1.1-1.1,2c-0.9,1.7-1.9,4.1-2.7,7c-0.8,2.8-1.2,5.5-1.3,7.4
								c-0.1,1-0.1,1.7-0.1,2.3C369.1,273,369.1,273.3,369.1,273.3z"/>
						</g>
					</g>
				</g>
				<g>
					<g>
						<g>
							<path class="st9" d="M366.8,268.1c0.1,0,0.1-1,0.4-2.6s0.9-3.7,2-5.9c1.1-2.2,2.4-4,3.5-5.2s1.8-1.8,1.8-1.9
								c0,0-0.2,0.1-0.6,0.4c-0.4,0.3-0.8,0.7-1.4,1.3c-1.1,1.2-2.5,2.9-3.6,5.2c-1.1,2.2-1.7,4.4-1.9,6c-0.1,0.8-0.2,1.5-0.2,1.9
								C366.8,267.9,366.8,268.1,366.8,268.1z"/>
						</g>
					</g>
				</g>
			</g>
			<g>
				<g>
					<g>
						<path class="st9" d="M354.3,281.6c0,0,0,0.1,0,0.2c0,0.2,0.1,0.4,0.1,0.6c0.1,0.6,0.2,1.4,0.4,2.4c0.4,2.1,0.9,5,1.5,8.7
							c1.3,7.4,3.1,17.5,5.1,28.6c2,11.2,3.9,21.3,5.2,28.6c0.7,3.6,1.2,6.6,1.6,8.7c0.2,1,0.4,1.8,0.5,2.4c0.1,0.3,0.1,0.5,0.1,0.6
							s0,0.2,0.1,0.2c0,0,0-0.1,0-0.2c0-0.2-0.1-0.4-0.1-0.6c-0.1-0.6-0.2-1.4-0.4-2.4c-0.4-2.1-0.9-5-1.5-8.7
							c-1.3-7.4-3.1-17.5-5.1-28.6c-2-11.2-3.9-21.3-5.2-28.6c-0.7-3.6-1.2-6.6-1.6-8.7c-0.2-1-0.4-1.8-0.5-2.4
							c-0.1-0.3-0.1-0.5-0.1-0.6C354.3,281.7,354.3,281.6,354.3,281.6z"/>
					</g>
				</g>
			</g>
			<g>
				<g>
					<g>
						<path class="st8" d="M289.7,179.4l17.6,38.4c0,0,9.1,24.9,9.8,28c0.7,3.1,9.8,42.4,9.8,42.4l-6,58.2c0,0-0.8,20.3-6.6,22
							c-5.8,1.7-49.6-5.7-49.6-5.7l7.2-48.6c0,0,2.7-37.2,2.7-37.8s-7.9-55.6-7.9-55.6l-5.2-21.3l14.8-6L289.7,179.4z"/>
					</g>
				</g>
				<g>
					<g>
						<g>
							<path class="st9" d="M323.8,278.7c0,0,0-0.1-0.1-0.3c-0.1-0.2-0.2-0.5-0.3-0.8c-0.3-0.7-0.8-1.7-1.4-3c-1.2-2.6-3-6.4-5.2-11
								c-4.4-9.3-10.5-22-17.3-36.1c-5.2-10.8-10-20.7-13.9-28.9l-0.1,0.2c2.1,0,4,0,5.9,0h0.5l-0.4-0.2c-2.2-1.4-4.1-2.6-5.9-3.7
								l0.1,0.1c0.2-3.7,0.3-6.6,0.4-8.6c0-1,0.1-1.8,0.1-2.3c0-0.2,0-0.4,0-0.6c0-0.1,0-0.2,0-0.2s0,0.1,0,0.2c0,0.1,0,0.3,0,0.6
								c0,0.5-0.1,1.3-0.1,2.3c-0.1,2-0.3,4.9-0.5,8.6v0.1h0.1c1.7,1.1,3.7,2.3,5.9,3.7l0.1-0.2c-1.8,0-3.8,0-5.9,0h-0.2l0.1,0.2
								c3.9,8.1,8.7,18.1,13.9,28.9C312.7,255.7,322.9,276.9,323.8,278.7z"/>
						</g>
					</g>
				</g>
				<g>
					<g>
						<g>
							<path class="st9" d="M280.7,235.2c0,0,0.3,0,0.8,0s1.3-0.1,2.2-0.1c1.9-0.1,4.5-0.1,7.3,0.1c2.9,0.2,5.4,0.7,7.2,1
								c0.9,0.2,1.7,0.4,2.2,0.5s0.8,0.2,0.8,0.1c0,0-0.3-0.1-0.8-0.3s-1.2-0.4-2.2-0.6c-1.8-0.4-4.4-0.9-7.3-1.2
								c-2.9-0.2-5.5-0.2-7.4,0c-0.9,0.1-1.7,0.2-2.2,0.2C280.9,235.1,280.7,235.1,280.7,235.2z"/>
						</g>
					</g>
				</g>
				<g>
					<g>
						<path class="st11" d="M281.6,235c-2.4,0.1,0.4-7.3,1.5-10.9c0.2-0.7,0.6-1.5,1.3-1.5c0.4,0,0.8,0.2,1.2,0.5
							c4.7,3.5,8.7,8.2,12.2,12.9C297.8,235.9,286.7,234.8,281.6,235z"/>
					</g>
				</g>
				<g>
					<g>
						<g>
							<path class="st9" d="M318.1,290.9c0,0.1,1.5,0.6,3.4,0.9s3.5,0.1,3.5,0s-1.6-0.1-3.4-0.4
								C319.6,291.2,318.1,290.8,318.1,290.9z"/>
						</g>
					</g>
				</g>
				<g>
					<g>
						<g>
							<path class="st9" d="M272.8,314.2c0,0.1,5.5,1,12.2,2c6.8,1,12.3,1.7,12.3,1.6s-5.5-1-12.2-2
								C278.3,314.9,272.8,314.1,272.8,314.2z"/>
						</g>
					</g>
				</g>
				<g>
					<g>
						<g>
							<path class="st9" d="M298.9,360.4c0,0,0-0.1,0.1-0.2c0.1-0.2,0.2-0.4,0.3-0.6c0.2-0.6,0.5-1.4,1-2.4c0.4-1,0.9-2.3,1.4-3.8
								s1.2-3.2,1.8-5.1c0.6-1.9,1.3-4,2-6.2s1.4-4.7,2.1-7.2c1.4-5.1,2.8-10.7,4-16.7s2.1-11.7,2.8-17c0.3-2.6,0.6-5.1,0.8-7.5
								c0.2-2.3,0.4-4.5,0.5-6.5c0.2-2,0.2-3.8,0.3-5.4c0.1-1.6,0.1-3,0.1-4.1s0-2,0-2.6c0-0.3,0-0.5,0-0.7s0-0.2,0-0.2s0,0.1,0,0.2
								c0,0.2,0,0.4,0,0.7c0,0.6-0.1,1.5-0.1,2.6s-0.1,2.5-0.2,4.1s-0.2,3.4-0.3,5.4c-0.2,2-0.3,4.2-0.6,6.5
								c-0.2,2.3-0.5,4.8-0.9,7.4c-0.7,5.2-1.6,11-2.8,16.9c-1.2,6-2.6,11.6-4,16.7c-0.7,2.5-1.4,5-2.1,7.2s-1.4,4.3-2,6.2
								c-0.6,1.9-1.2,3.6-1.8,5.1c-0.5,1.5-1,2.8-1.4,3.8s-0.7,1.8-0.9,2.4c-0.1,0.3-0.2,0.5-0.2,0.6
								C298.9,360.4,298.9,360.4,298.9,360.4z"/>
						</g>
					</g>
				</g>
				<g>
					<g>
						<g>
							<path class="st9" d="M264.7,362.6c0,0,0.1,0,0.3,0.1c0.2,0,0.5,0.1,0.9,0.1c0.8,0.1,2,0.3,3.5,0.5c3.1,0.4,7.5,1,12.9,1.8
								c5.4,0.7,11.9,1.6,19.1,2.6c1.8,0.2,3.6,0.5,5.5,0.7c0.9,0.1,1.9,0.3,2.9,0.4c0.9,0.1,2,0.3,3,0.2c2-0.3,3.9-1.6,4.8-3.5
								c0.2-0.5,0.4-1,0.5-1.5s0.2-1,0.4-1.5c0.2-1,0.5-2,0.7-3c1.8-8.2,2.6-16.2,3.2-23.4c0.6-7.2,1-13.8,1.4-19.2
								c0.5-5.5,1-9.9,1.4-12.9c0.2-1.5,0.4-2.7,0.5-3.5c0.1-0.4,0.1-0.7,0.1-0.9c0-0.2,0-0.3,0-0.3s0,0.1-0.1,0.3
								c0,0.2-0.1,0.5-0.2,0.9c-0.1,0.8-0.4,2-0.6,3.5c-0.5,3-1,7.5-1.5,12.9c-0.5,5.5-0.9,12-1.5,19.2s-1.4,15.2-3.2,23.4
								c-0.2,1-0.5,2-0.7,3c-0.3,1-0.4,2-0.8,2.9c-0.8,1.8-2.6,3.1-4.5,3.3c-1,0.2-1.9,0-2.9-0.2c-1-0.1-1.9-0.3-2.9-0.4
								c-1.9-0.2-3.7-0.5-5.5-0.7c-7.2-0.9-13.7-1.8-19.1-2.5s-9.8-1.3-12.9-1.7c-1.5-0.2-2.7-0.3-3.5-0.4c-0.4,0-0.7-0.1-0.9-0.1
								C264.8,362.6,264.7,362.6,264.7,362.6z"/>
						</g>
					</g>
				</g>
			</g>
			<g>
				<g>
					<g>
						<g>
							<polygon class="st12" points="322.5,193.5 321.8,202.3 314.1,205.4 305.1,196.7 311.1,193.5 315.5,193.5 319.4,192.1 							
								"/>
						</g>
					</g>
					<g>
						<g>
							<path class="st12" d="M321.8,202.3c0,0,23.7,61.6,27,90.6l0,0l-9.6,21.4l-10.3-15.1l-15-95L321.8,202.3z"/>
						</g>
					</g>
					<g>
						<g>
							<g>
								<path class="st8" d="M314.1,205.7c0.1,0.1,1.5-1.2,3.7-2s4.1-0.8,4.1-0.9c0-0.1-2-0.3-4.2,0.6
									C315.4,204.2,314,205.7,314.1,205.7z"/>
							</g>
						</g>
					</g>
					<g>
						<g>
							<g>
								<path class="st8" d="M310.7,193.5c0,0,0.4,0.6,1.3,1.5s2.1,2,3.6,3c1.5,1.1,3,1.9,4.1,2.4s1.8,0.8,1.8,0.7s-0.6-0.4-1.7-1
									s-2.5-1.4-4-2.5s-2.8-2.1-3.7-2.9C311.3,194,310.7,193.5,310.7,193.5z"/>
							</g>
						</g>
					</g>
					<g>
						<g>
							<g>
								<path class="st8" d="M314.8,205c0,0,0,0.1,0,0.3s0.1,0.5,0.2,0.8c0.2,0.7,0.4,1.8,0.6,3.2c0.6,2.8,1.4,6.8,2.3,11.7
									c1.9,9.9,4.4,23.7,6.6,39c1.1,7.6,2,14.9,2.8,21.6c0.4,3.3,0.8,6.5,1.3,9.4s1.2,5.6,2,8c1.6,4.8,3.8,8.4,5.6,10.5
									c1.8,2.2,3.1,3.1,3.1,3.1s-0.1-0.1-0.2-0.2s-0.4-0.3-0.6-0.6c-0.5-0.5-1.3-1.3-2.2-2.4c-1.8-2.2-3.9-5.7-5.5-10.5
									c-0.8-2.4-1.5-5.1-2-8s-0.9-6.1-1.3-9.4c-0.8-6.6-1.7-13.9-2.8-21.6c-2.2-15.3-4.7-29-6.7-39c-1-5-1.8-9-2.4-11.7
									c-0.3-1.4-0.5-2.4-0.7-3.2c-0.1-0.3-0.1-0.6-0.2-0.8C314.9,205.1,314.9,205,314.8,205z"/>
							</g>
						</g>
					</g>
					<g>
						<g>
							<g>
								<path class="st13" d="M321.8,240.2c0,0,0.5-0.8,1.2-2c0.7-1.3,1.7-3,2.9-4.9c1.2-1.9,2.3-3.6,3.1-4.8c0.8-1.2,1.3-2,1.3-2
									s-0.2,0.2-0.4,0.5c-0.3,0.3-0.6,0.8-1.1,1.4c-0.9,1.2-2,2.9-3.2,4.8c-1.2,1.9-2.2,3.7-2.8,5c-0.3,0.7-0.6,1.2-0.8,1.6
									C321.9,240,321.8,240.2,321.8,240.2z"/>
							</g>
						</g>
					</g>
					<g>
						<g>
							<g>
								<path class="st13" d="M326.2,267.1c0,0,0.2-0.3,0.4-0.8c0.3-0.6,0.7-1.4,1.1-2.3c0.9-1.9,2.2-4.6,3.7-7.4
									c1.5-2.9,2.8-5.5,3.8-7.4c0.5-0.9,0.9-1.6,1.2-2.2c0.3-0.5,0.4-0.8,0.4-0.8s-0.2,0.3-0.5,0.8s-0.8,1.2-1.3,2.2
									c-1.1,1.8-2.5,4.4-3.9,7.3c-1.5,2.9-2.7,5.6-3.6,7.5c-0.4,1-0.8,1.8-1,2.3C326.3,266.8,326.2,267.1,326.2,267.1z"/>
							</g>
						</g>
					</g>
					<g>
						<g>
							<g>
								<path class="st13" d="M329.1,290.9c0.1,0.1,3.3-5,7.1-11.2c3.8-6.3,6.9-11.4,6.8-11.4c-0.1-0.1-3.3,5-7.1,11.2
									C332.1,285.8,329.1,290.9,329.1,290.9z"/>
							</g>
						</g>
					</g>
					<g>
						<g>
							<g>
								<path class="st13" d="M334.8,307.3c0.1,0.1,3.1-4.1,6.6-9.4c3.6-5.2,6.4-9.5,6.3-9.6s-3.1,4.1-6.6,9.4
									C337.5,303,334.7,307.3,334.8,307.3z"/>
							</g>
						</g>
					</g>
					<g>
						<g>
							<g>
								<path class="st13" d="M318.8,223.5c0,0,0.5-0.5,1.1-1.3c0.8-0.9,1.7-2,2.6-3.1c1-1.2,1.9-2.2,2.7-3.1
									c0.7-0.8,1.1-1.3,1.1-1.3s-0.5,0.4-1.3,1.1c-0.7,0.7-1.7,1.8-2.8,3c-1,1.2-1.9,2.4-2.6,3.2
									C319.1,222.9,318.8,223.5,318.8,223.5z"/>
							</g>
						</g>
					</g>
					<g>
						<g>
							<g>
								<path class="st13" d="M320.6,206.9c0.1,0,0.4-0.4,0.8-0.8c0.5-0.4,0.9-0.6,0.9-0.7c0-0.1-0.6,0-1.1,0.5
									C320.7,206.3,320.5,206.9,320.6,206.9z"/>
							</g>
						</g>
					</g>
					<g>
						<g>
							<g>
								<path class="st13" d="M319.6,209.2c0.1,0.1,0.4-0.1,0.7-0.5c0.3-0.3,0.5-0.7,0.5-0.7s-0.4,0.1-0.7,0.5
									C319.8,208.8,319.6,209.1,319.6,209.2z"/>
							</g>
						</g>
					</g>
					<g>
						<g>
							<g>
								<path class="st13" d="M316.1,211.9c0.1,0.1,0.8-0.6,1.6-1.4c0.8-0.9,1.5-1.6,1.4-1.7c-0.1-0.1-0.8,0.6-1.6,1.4
									C316.6,211.1,316,211.9,316.1,211.9z"/>
							</g>
						</g>
					</g>
					<g>
						<g>
							<g>
								<path class="st13" d="M315.8,197.5c0.1,0.1,1.3-1,3.1-2c1.7-1,3.3-1.5,3.3-1.6s-1.7,0.3-3.4,1.3
									C316.9,196.2,315.7,197.4,315.8,197.5z"/>
							</g>
						</g>
					</g>
					<g>
						<g>
							<g>
								<path class="st13" d="M309.2,200.4c0.1,0.1,0.8-1,1.9-2.2s2.1-2,2.1-2c0-0.1-1.2,0.6-2.3,1.8
									C309.7,199.2,309.1,200.4,309.2,200.4z"/>
							</g>
						</g>
					</g>
					<g>
						<g>
							<g>
								<path class="st8" d="M321.8,211.3c0.1,0-0.5-1.9-1.3-4.1c-0.8-2.2-1.6-4-1.7-4s0.5,1.9,1.3,4.1
									C320.9,209.6,321.7,211.3,321.8,211.3z"/>
							</g>
						</g>
					</g>
					<g>
						<g>
							<g>
								<path class="st8" d="M320.9,216.7c0,0-0.1-0.7-0.3-1.9c-0.2-1.2-0.6-2.7-1-4.5c-0.5-1.7-0.9-3.3-1.3-4.4
									c-0.4-1.1-0.6-1.8-0.7-1.8c0,0,0.1,0.7,0.4,1.9c0.3,1.3,0.7,2.8,1.2,4.4c0.4,1.7,0.8,3.2,1.1,4.4
									C320.6,216,320.8,216.7,320.9,216.7z"/>
							</g>
						</g>
					</g>
				</g>
				<g class="st14">
					<g>
						<g>
							<path d="M321.1,202.9L321.1,202.9c-0.4,0.2-0.7,0.3-0.7,0.8s0.1,0.9,0.3,1.3c0.5,1.3,0.9,2.6,1.4,3.9
								c0.1,0.3,0.2,0.8-0.1,0.9c-0.3,0.1-0.6-0.2-0.8-0.4c-0.5-0.7-1.1-1.4-1.6-2.2c0.3,1.2,0.5,2.5,0.8,3.7
								c0.1,0.4,0.1,0.8-0.2,1.1c-0.2,0.2-0.6,0.1-0.8-0.1c-0.2-0.2-0.3-0.5-0.5-0.8c-0.4-0.9-0.7-1.9-1.1-2.8
								c-0.3-0.7-0.5-1.3-1-1.9c-0.4-0.6-1-1-1.7-1.2C316.7,203.7,318.7,203.3,321.1,202.9z"/>
						</g>
					</g>
				</g>
				<g>
					<g>
						<g>
							<path class="st8" d="M325.9,185.6c0,0,0,0.1,0,0.2c0,0.2-0.1,0.4-0.1,0.7c-0.1,0.7-0.2,1.6-0.3,2.7c-0.2,2.4-0.5,5.8-0.9,9.9
								h0.3c-0.6-1.8-1.4-3.7-2.1-5.7v-0.1h-0.1c-1-0.4-2.1-0.9-3.1-1.4h-0.1h-0.1c-1.3,0.4-2.6,0.9-3.9,1.4h0.1c-0.6,0-1.3,0-2,0
								c-0.8,0-1.6,0-2.4,0l0,0l0,0c-3,1.6-5.8,3.2-8.4,4.6h0.2c-3.1-4-5.8-7.4-7.7-9.8c-0.9-1.2-1.7-2.1-2.2-2.8
								c-0.2-0.3-0.4-0.5-0.6-0.7c-0.1-0.2-0.2-0.2-0.2-0.2s0.1,0.1,0.2,0.3s0.3,0.4,0.6,0.8c0.5,0.7,1.2,1.6,2.1,2.8
								c1.9,2.4,4.5,5.8,7.6,9.9l0.1,0.1l0.1-0.1c2.6-1.4,5.4-3,8.5-4.6h-0.1c0.8,0,1.6,0,2.4,0c0.7,0,1.3,0,2,0l0,0l0,0
								c1.3-0.5,2.7-0.9,3.9-1.4h-0.1c1.1,0.5,2.2,0.9,3.2,1.4l-0.1-0.1c0.8,2,1.5,4,2.2,5.7l0.2,0.6l0.1-0.7
								c0.3-4.1,0.6-7.5,0.8-9.9c0.1-1.2,0.2-2.1,0.2-2.8c0-0.3,0-0.5,0-0.7C325.9,185.7,325.9,185.6,325.9,185.6z"/>
						</g>
					</g>
				</g>
			</g>
			<g>
				<g>
					<g>
						<path class="st15" d="M372.7,381.1c0.4-1.5-10.9-58.2-10.9-58.2l-60.2-8.6c0,0-24.4,14.9-25.2,27.2
							c-0.8,12.3-6.4,39.6-6.4,39.6h58.2l1.8-2.4l1.2,2.2L372.7,381.1z"/>
					</g>
				</g>
				<g>
					<g>
						<g>
							<path class="st8" d="M325.5,369.8c0,0,0,0,0,0.1s0,0.2,0.1,0.3c0.1,0.2,0.2,0.6,0.6,1c0.3,0.4,0.9,0.7,1.6,0.9
								c0.7,0.2,1.6,0.1,2.4-0.2c0.8-0.4,1.6-1,2.2-1.9s1-1.9,1.2-3.1c0.2-1.1,0.4-2.3,0.6-3.6c0.2-1.2,0.4-2.5,0.5-3.8
								c0.7-5.2,1.3-10,1.8-13.5c0.2-1.7,0.4-3.1,0.5-4.1c0-0.5,0.1-0.8,0.1-1.1c0-0.3,0-0.4,0-0.4s0,0.1-0.1,0.4
								c0,0.3-0.1,0.7-0.2,1.1c-0.2,1-0.4,2.4-0.6,4.1c-0.5,3.5-1.2,8.2-1.9,13.5c-0.2,1.3-0.4,2.6-0.5,3.8
								c-0.2,1.2-0.3,2.4-0.5,3.6c-0.2,1.1-0.6,2.1-1.1,3c-0.5,0.8-1.3,1.5-2,1.8c-0.8,0.4-1.6,0.4-2.2,0.3
								c-0.7-0.1-1.2-0.5-1.5-0.8C325.6,370.4,325.6,369.8,325.5,369.8z"/>
						</g>
					</g>
				</g>
				<g>
					<g>
						<g>
							<path class="st8" d="M330.4,335.7c0,0-0.2-0.1-0.7-0.1c-0.4,0-1.1,0.2-1.6,0.9c-0.5,0.6-0.7,1.7-0.3,2.6
								c0.4,1,1.4,1.8,2.7,1.8c0.6,0,1.2-0.1,1.7-0.5c0.5-0.3,0.8-0.8,1-1.3s0.2-1,0.1-1.5s-0.3-0.8-0.6-1.1
								c-0.6-0.6-1.2-0.8-1.6-0.8s-0.7,0.1-0.7,0.1s0.2,0,0.6,0.1s1,0.3,1.5,0.8s0.7,1.4,0.4,2.3c-0.3,0.9-1.3,1.6-2.4,1.5
								s-2-0.7-2.4-1.6s-0.2-1.8,0.2-2.4c0.4-0.6,1-0.8,1.4-0.9C330.2,335.7,330.4,335.7,330.4,335.7z"/>
						</g>
					</g>
				</g>
			</g>
			<g>
				<g>
					<g>
						<path class="st10" d="M291.4,176.2h31.8l3.5,9.3l20.1,27.6l15.8,114l-20.1,3.7c-3.5,0.6-7.1,0.8-10.6,0.4l-30.3-3l-0.9-101.7
							L286,185.8L291.4,176.2z"/>
					</g>
				</g>
				<g>
					<g>
						<g>
							<path class="st16" d="M315.5,196.2c0,0,0,0.1,0.1,0.3s0.2,0.6,0.3,1c0.3,0.9,0.6,2.2,1.1,3.8c0.5,1.7,1.1,3.7,1.8,6.1
								c0.7,2.4,1.5,5.1,2.3,8.1s1.7,6.3,2.6,9.8s1.8,7.3,2.8,11.3c1.9,8,3.8,16.8,5.6,26.1c1.8,9.3,3.2,18.2,4.4,26.3
								c0.6,4.1,1.1,7.9,1.5,11.5c0.5,3.6,0.8,7,1.2,10.1c0.4,3.1,0.6,5.9,0.9,8.3c0.3,2.5,0.4,4.6,0.6,6.3c0.2,1.7,0.3,3.1,0.3,4
								c0,0.4,0.1,0.8,0.1,1s0,0.4,0,0.4s0-0.1,0-0.4c0-0.2,0-0.6-0.1-1c-0.1-0.9-0.2-2.3-0.3-4c-0.1-1.7-0.3-3.8-0.5-6.3
								s-0.5-5.3-0.8-8.3c-0.3-3.1-0.7-6.5-1.1-10.1s-1-7.5-1.5-11.6c-1.2-8.1-2.6-17-4.4-26.4c-1.8-9.3-3.7-18.1-5.6-26.1
								c-1-4-1.9-7.8-2.8-11.3s-1.8-6.8-2.6-9.8c-0.8-3-1.6-5.7-2.3-8.1c-0.7-2.4-1.3-4.4-1.8-6.1c-0.5-1.6-0.9-2.9-1.2-3.8
								c-0.1-0.4-0.2-0.8-0.3-1C315.6,196.3,315.5,196.2,315.5,196.2z"/>
						</g>
					</g>
				</g>
				<g>
					<g>
						<g>
							<path class="st16" d="M353.5,318.2c-0.1,0,0.2,2.7-0.7,5.9c-0.8,3.2-2.4,5.4-2.3,5.4c0,0,0.5-0.5,1-1.4
								c0.6-0.9,1.2-2.3,1.6-3.9s0.5-3.1,0.5-4.2C353.7,318.8,353.6,318.2,353.5,318.2z"/>
						</g>
					</g>
				</g>
				<g>
					<g>
						<g>
							<path class="st16" d="M351.7,329.9c0,0,0.5-0.1,1.2-0.6c0.7-0.4,1.6-1.1,2.4-2s1.4-1.9,1.7-2.6c0.3-0.7,0.4-1.2,0.4-1.2
								c-0.1,0-0.8,1.8-2.4,3.6C353.4,328.9,351.7,329.8,351.7,329.9z"/>
						</g>
					</g>
				</g>
				<g>
					<g>
						<g>
							<path class="st16" d="M327.2,319.2c0,0-0.1,0.7-0.1,1.8c0,1.1,0.2,2.6,0.6,4.3c0.4,1.6,1,3.1,1.5,4c0.5,1,0.9,1.5,0.9,1.5
								s-0.3-0.6-0.7-1.6c-0.4-1-1-2.4-1.4-4s-0.6-3.1-0.7-4.2C327.3,319.8,327.3,319.2,327.2,319.2z"/>
						</g>
					</g>
				</g>
			</g>
			<g>
				<g>
					<g>
						<path class="st15" d="M325.9,183.3c0,0,19.4,8.2,22.2,8.7c2.8,0.5,12.6,3,12.6,3s7.5,13.4,6.8,21.1
							c-0.7,7.7-5.9,62.9-5.9,62.9s8.6,47.7,8.7,51.2c0.2,3.5,7.5,36.8,6.1,36.7c-1.4-0.2-7.9-7.3-7.9-7.3l-21.3-117.2
							c0,0-5.6-26.9-9.8-35.6c-4.2-8.7-11.5-20.1-11.5-20.1L325.9,183.3L325.9,183.3z"/>
					</g>
				</g>
				<g>
					<g>
						<g>
							<path class="st8" d="M354.3,281.6c0,0,0-0.1,0-0.3c0-0.2,0-0.5,0-0.8c0-0.7,0.1-1.8,0.1-3.1c0.1-2.7,0.2-6.6,0.4-11.4
								c0.2-4.8,0.3-10.6,0.5-16.9c0.1-3.2,0.1-6.5,0.1-10c-0.1-3.5-0.8-7.1-1.8-10.6c-1.5-5.9-3.4-11.4-5.3-16.5s-3.7-9.8-5.4-13.9
								l0,0l0,0c-2-1.6-3.8-3.1-5.4-4.5l-0.1,0.2c1.4,0.6,2.8,1.1,4,1.6l0.4,0.1l-0.2-0.3c-1.9-2.4-3.4-4.3-4.5-5.7
								c-0.5-0.6-0.9-1.1-1.2-1.5c-0.1-0.2-0.2-0.3-0.3-0.4c-0.1-0.1-0.1-0.1-0.1-0.1s0,0.1,0.1,0.1c0.1,0.1,0.2,0.2,0.3,0.4
								c0.3,0.4,0.7,0.9,1.2,1.5c1,1.3,2.5,3.3,4.4,5.7l0.1-0.2c-1.2-0.5-2.5-1-4-1.6l-0.7-0.3l0.6,0.5c1.6,1.4,3.4,2.9,5.4,4.5V198
								c1.7,4.1,3.5,8.8,5.4,13.9c1.8,5.1,3.7,10.6,5.3,16.5c0.9,3.6,1.7,7.1,1.8,10.5c0,3.5-0.1,6.8-0.1,10
								c-0.2,6.4-0.3,12.1-0.4,16.9s-0.2,8.7-0.3,11.4c0,1.3-0.1,2.4-0.1,3.1c0,0.3,0,0.6,0,0.8
								C354.3,281.5,354.3,281.6,354.3,281.6z"/>
						</g>
					</g>
				</g>
			</g>
			<g>
				<g>
					<g>
						<path class="st9" d="M354.3,281.6c0,0,0,0.1,0,0.2c0,0.2,0.1,0.4,0.1,0.6c0.1,0.6,0.2,1.4,0.4,2.4c0.4,2.1,0.9,5,1.5,8.7
							c1.3,7.4,3.1,17.5,5.1,28.6c2,11.2,3.9,21.3,5.2,28.6c0.7,3.6,1.2,6.6,1.6,8.7c0.2,1,0.4,1.8,0.5,2.4c0.1,0.3,0.1,0.5,0.1,0.6
							s0,0.2,0.1,0.2c0,0,0-0.1,0-0.2c0-0.2-0.1-0.4-0.1-0.6c-0.1-0.6-0.2-1.4-0.4-2.4c-0.4-2.1-0.9-5-1.5-8.7
							c-1.3-7.4-3.1-17.5-5.1-28.6c-2-11.2-3.9-21.3-5.2-28.6c-0.7-3.6-1.2-6.6-1.6-8.7c-0.2-1-0.4-1.8-0.5-2.4
							c-0.1-0.3-0.1-0.5-0.1-0.6C354.3,281.7,354.3,281.6,354.3,281.6z"/>
					</g>
				</g>
			</g>
			<g>
				<g>
					<path class="st15" d="M289.7,179.4l17.6,38.4c0,0,9.1,24.9,9.8,28c0.7,3.1,9.8,42.4,9.8,42.4l-6,58.2c0,0-0.8,20.3-6.6,22
						c-5.8,1.7-49.6-5.7-49.6-5.7l7.2-48.6c0,0,2.7-37.2,2.7-37.8s-7.9-55.6-7.9-55.6l-5.2-21.3l14.8-6L289.7,179.4z"/>
				</g>
			</g>
			<g>
				<g>
					<g>
						<path class="st8" d="M323.8,278.7c0,0,0-0.1-0.1-0.3c-0.1-0.2-0.2-0.5-0.3-0.8c-0.3-0.7-0.8-1.7-1.4-3c-1.2-2.6-3-6.4-5.2-11
							c-4.4-9.3-10.5-22-17.3-36.1c-5.2-10.8-10-20.7-13.9-28.9l-0.1,0.2c2.1,0,4,0,5.9,0h0.5l-0.4-0.2c-2.2-1.4-4.1-2.6-5.9-3.7
							l0.1,0.1c0.2-3.7,0.3-6.6,0.4-8.6c0-1,0.1-1.8,0.1-2.3c0-0.2,0-0.4,0-0.6c0-0.1,0-0.2,0-0.2s0,0.1,0,0.2c0,0.1,0,0.3,0,0.6
							c0,0.5-0.1,1.3-0.1,2.3c-0.1,2-0.3,4.9-0.5,8.6v0.1h0.1c1.7,1.1,3.7,2.3,5.9,3.7l0.1-0.2c-1.8,0-3.8,0-5.9,0h-0.2l0.1,0.2
							c3.9,8.1,8.7,18.1,13.9,28.9C312.7,255.7,322.9,276.9,323.8,278.7z"/>
					</g>
				</g>
			</g>
			<g>
				<g>
					<g>
						<path class="st8" d="M280.7,235.2c0,0,0.3,0,0.8,0s1.3-0.1,2.2-0.1c1.9-0.1,4.5-0.1,7.3,0.1c2.9,0.2,5.4,0.7,7.2,1
							c0.9,0.2,1.7,0.4,2.2,0.5s0.8,0.2,0.8,0.1c0,0-0.3-0.1-0.8-0.3s-1.2-0.4-2.2-0.6c-1.8-0.4-4.4-0.9-7.3-1.2
							c-2.9-0.2-5.5-0.2-7.4,0c-0.9,0.1-1.7,0.2-2.2,0.2C280.9,235.1,280.7,235.1,280.7,235.2z"/>
					</g>
				</g>
			</g>
			<g>
				<g>
					<g>
						<path class="st9" d="M318.1,290.9c0,0.1,1.5,0.6,3.4,0.9s3.5,0.1,3.5,0s-1.6-0.1-3.4-0.4C319.6,291.2,318.1,290.8,318.1,290.9
							z"/>
					</g>
				</g>
			</g>
			<g>
				<g>
					<g>
						<path class="st8" d="M272.8,314.2c0,0.1,5.5,1,12.2,2c6.8,1,12.3,1.7,12.3,1.6s-5.5-1-12.2-2
							C278.3,314.9,272.8,314.1,272.8,314.2z"/>
					</g>
				</g>
			</g>
			<g>
				<g>
					<g>
						<path class="st8" d="M298.9,360.4c0,0,0-0.1,0.1-0.2c0.1-0.2,0.2-0.4,0.3-0.6c0.2-0.6,0.5-1.4,1-2.4c0.4-1,0.9-2.3,1.4-3.8
							s1.2-3.2,1.8-5.1c0.6-1.9,1.3-4,2-6.2s1.4-4.7,2.1-7.2c1.4-5.1,2.8-10.7,4-16.7s2.1-11.7,2.8-17c0.3-2.6,0.6-5.1,0.8-7.5
							c0.2-2.3,0.4-4.5,0.5-6.5c0.2-2,0.2-3.8,0.3-5.4c0.1-1.6,0.1-3,0.1-4.1s0-2,0-2.6c0-0.3,0-0.5,0-0.7s0-0.2,0-0.2s0,0.1,0,0.2
							c0,0.2,0,0.4,0,0.7c0,0.6-0.1,1.5-0.1,2.6s-0.1,2.5-0.2,4.1s-0.2,3.4-0.3,5.4c-0.2,2-0.3,4.2-0.6,6.5
							c-0.2,2.3-0.5,4.8-0.9,7.4c-0.7,5.2-1.6,11-2.8,16.9c-1.2,6-2.6,11.6-4,16.7c-0.7,2.5-1.4,5-2.1,7.2s-1.4,4.3-2,6.2
							c-0.6,1.9-1.2,3.6-1.8,5.1c-0.5,1.5-1,2.8-1.4,3.8s-0.7,1.8-0.9,2.4c-0.1,0.3-0.2,0.5-0.2,0.6
							C298.9,360.4,298.9,360.4,298.9,360.4z"/>
					</g>
				</g>
			</g>
			<g>
				<g>
					<g>
						<path class="st8" d="M264.7,362.6c0,0,0.1,0,0.3,0.1c0.2,0,0.5,0.1,0.9,0.1c0.8,0.1,2,0.3,3.5,0.5c3.1,0.4,7.5,1,12.9,1.8
							c5.4,0.7,11.9,1.6,19.1,2.6c1.8,0.2,3.6,0.5,5.5,0.7c0.9,0.1,1.9,0.3,2.9,0.4c0.9,0.1,2,0.3,3,0.2c2-0.3,3.9-1.6,4.8-3.5
							c0.2-0.5,0.4-1,0.5-1.5s0.2-1,0.4-1.5c0.2-1,0.5-2,0.7-3c1.8-8.2,2.6-16.2,3.2-23.4c0.6-7.2,1-13.8,1.4-19.2
							c0.5-5.5,1-9.9,1.4-12.9c0.2-1.5,0.4-2.7,0.5-3.5c0.1-0.4,0.1-0.7,0.1-0.9c0-0.2,0-0.3,0-0.3s0,0.1-0.1,0.3
							c0,0.2-0.1,0.5-0.2,0.9c-0.1,0.8-0.4,2-0.6,3.5c-0.5,3-1,7.5-1.5,12.9c-0.5,5.5-0.9,12-1.5,19.2s-1.4,15.2-3.2,23.4
							c-0.2,1-0.5,2-0.7,3c-0.3,1-0.4,2-0.8,2.9c-0.8,1.8-2.6,3.1-4.5,3.3c-1,0.2-1.9,0-2.9-0.2c-1-0.1-1.9-0.3-2.9-0.4
							c-1.9-0.2-3.7-0.5-5.5-0.7c-7.2-0.9-13.7-1.8-19.1-2.5s-9.8-1.3-12.9-1.7c-1.5-0.2-2.7-0.3-3.5-0.4c-0.4,0-0.7-0.1-0.9-0.1
							C264.8,362.6,264.7,362.6,264.7,362.6z"/>
					</g>
				</g>
			</g>
			<g>
				<g>
					<g>
						<g>
							<polygon class="st17" points="322.5,193.5 321.8,202.3 314.1,205.4 305.1,196.7 311.1,193.5 315.5,193.5 319.4,192.1 							
								"/>
						</g>
					</g>
					<g>
						<g>
							<path class="st17" d="M321.8,202.3c0,0,23.7,61.6,27,90.6l0,0l-9.6,21.4l-10.3-15.1l-15-95L321.8,202.3z"/>
						</g>
					</g>
					<g>
						<g>
							<g>
								<path class="st18" d="M314.1,205.7c0.1,0.1,1.5-1.2,3.7-2s4.1-0.8,4.1-0.9c0-0.1-2-0.3-4.2,0.6
									C315.4,204.2,314,205.7,314.1,205.7z"/>
							</g>
						</g>
					</g>
					<g>
						<g>
							<g>
								<path class="st18" d="M310.7,193.5c0,0,0.4,0.6,1.3,1.5s2.1,2,3.6,3c1.5,1.1,3,1.9,4.1,2.4s1.8,0.8,1.8,0.7s-0.6-0.4-1.7-1
									s-2.5-1.4-4-2.5s-2.8-2.1-3.7-2.9C311.3,194,310.7,193.5,310.7,193.5z"/>
							</g>
						</g>
					</g>
					<g>
						<g>
							<g>
								<path class="st18" d="M314.8,205c0,0,0,0.1,0,0.3s0.1,0.5,0.2,0.8c0.2,0.7,0.4,1.8,0.6,3.2c0.6,2.8,1.4,6.8,2.3,11.7
									c1.9,9.9,4.4,23.7,6.6,39c1.1,7.6,2,14.9,2.8,21.6c0.4,3.3,0.8,6.5,1.3,9.4s1.2,5.6,2,8c1.6,4.8,3.8,8.4,5.6,10.5
									c1.8,2.2,3.1,3.1,3.1,3.1s-0.1-0.1-0.2-0.2s-0.4-0.3-0.6-0.6c-0.5-0.5-1.3-1.3-2.2-2.4c-1.8-2.2-3.9-5.7-5.5-10.5
									c-0.8-2.4-1.5-5.1-2-8s-0.9-6.1-1.3-9.4c-0.8-6.6-1.7-13.9-2.8-21.6c-2.2-15.3-4.7-29-6.7-39c-1-5-1.8-9-2.4-11.7
									c-0.3-1.4-0.5-2.4-0.7-3.2c-0.1-0.3-0.1-0.6-0.2-0.8C314.9,205.1,314.9,205,314.8,205z"/>
							</g>
						</g>
					</g>
					<g>
						<g>
							<g>
								<path class="st13" d="M321.8,240.2c0,0,0.5-0.8,1.2-2c0.7-1.3,1.7-3,2.9-4.9c1.2-1.9,2.3-3.6,3.1-4.8c0.8-1.2,1.3-2,1.3-2
									s-0.2,0.2-0.4,0.5c-0.3,0.3-0.6,0.8-1.1,1.4c-0.9,1.2-2,2.9-3.2,4.8c-1.2,1.9-2.2,3.7-2.8,5c-0.3,0.7-0.6,1.2-0.8,1.6
									C321.9,240,321.8,240.2,321.8,240.2z"/>
							</g>
						</g>
					</g>
					<g>
						<g>
							<g>
								<path class="st13" d="M326.2,267.1c0,0,0.2-0.3,0.4-0.8c0.3-0.6,0.7-1.4,1.1-2.3c0.9-1.9,2.2-4.6,3.7-7.4
									c1.5-2.9,2.8-5.5,3.8-7.4c0.5-0.9,0.9-1.6,1.2-2.2c0.3-0.5,0.4-0.8,0.4-0.8s-0.2,0.3-0.5,0.8s-0.8,1.2-1.3,2.2
									c-1.1,1.8-2.5,4.4-3.9,7.3c-1.5,2.9-2.7,5.6-3.6,7.5c-0.4,1-0.8,1.8-1,2.3C326.3,266.8,326.2,267.1,326.2,267.1z"/>
							</g>
						</g>
					</g>
					<g>
						<g>
							<g>
								<path class="st13" d="M329.1,290.9c0.1,0.1,3.3-5,7.1-11.2c3.8-6.3,6.9-11.4,6.8-11.4c-0.1-0.1-3.3,5-7.1,11.2
									C332.1,285.8,329.1,290.9,329.1,290.9z"/>
							</g>
						</g>
					</g>
					<g>
						<g>
							<g>
								<path class="st13" d="M334.8,307.3c0.1,0.1,3.1-4.1,6.6-9.4c3.6-5.2,6.4-9.5,6.3-9.6s-3.1,4.1-6.6,9.4
									C337.5,303,334.7,307.3,334.8,307.3z"/>
							</g>
						</g>
					</g>
					<g>
						<g>
							<g>
								<path class="st13" d="M318.8,223.5c0,0,0.5-0.5,1.1-1.3c0.8-0.9,1.7-2,2.6-3.1c1-1.2,1.9-2.2,2.7-3.1
									c0.7-0.8,1.1-1.3,1.1-1.3s-0.5,0.4-1.3,1.1c-0.7,0.7-1.7,1.8-2.8,3c-1,1.2-1.9,2.4-2.6,3.2
									C319.1,222.9,318.8,223.5,318.8,223.5z"/>
							</g>
						</g>
					</g>
					<g>
						<g>
							<g>
								<path class="st13" d="M320.6,206.9c0.1,0,0.4-0.4,0.8-0.8c0.5-0.4,0.9-0.6,0.9-0.7c0-0.1-0.6,0-1.1,0.5
									C320.7,206.3,320.5,206.9,320.6,206.9z"/>
							</g>
						</g>
					</g>
					<g>
						<g>
							<g>
								<path class="st13" d="M319.6,209.2c0.1,0.1,0.4-0.1,0.7-0.5c0.3-0.3,0.5-0.7,0.5-0.7s-0.4,0.1-0.7,0.5
									C319.8,208.8,319.6,209.1,319.6,209.2z"/>
							</g>
						</g>
					</g>
					<g>
						<g>
							<g>
								<path class="st13" d="M316.1,211.9c0.1,0.1,0.8-0.6,1.6-1.4c0.8-0.9,1.5-1.6,1.4-1.7c-0.1-0.1-0.8,0.6-1.6,1.4
									C316.6,211.1,316,211.9,316.1,211.9z"/>
							</g>
						</g>
					</g>
					<g>
						<g>
							<g>
								<path class="st13" d="M315.8,197.5c0.1,0.1,1.3-1,3.1-2c1.7-1,3.3-1.5,3.3-1.6s-1.7,0.3-3.4,1.3
									C316.9,196.2,315.7,197.4,315.8,197.5z"/>
							</g>
						</g>
					</g>
					<g>
						<g>
							<g>
								<path class="st13" d="M309.2,200.4c0.1,0.1,0.8-1,1.9-2.2s2.1-2,2.1-2c0-0.1-1.2,0.6-2.3,1.8
									C309.7,199.2,309.1,200.4,309.2,200.4z"/>
							</g>
						</g>
					</g>
					<g>
						<g>
							<g>
								<path class="st18" d="M321.8,211.3c0.1,0-0.5-1.9-1.3-4.1c-0.8-2.2-1.6-4-1.7-4s0.5,1.9,1.3,4.1
									C320.9,209.6,321.7,211.3,321.8,211.3z"/>
							</g>
						</g>
					</g>
					<g>
						<g>
							<g>
								<path class="st18" d="M320.9,216.7c0,0-0.1-0.7-0.3-1.9c-0.2-1.2-0.6-2.7-1-4.5c-0.5-1.7-0.9-3.3-1.3-4.4
									c-0.4-1.1-0.6-1.8-0.7-1.8c0,0,0.1,0.7,0.4,1.9c0.3,1.3,0.7,2.8,1.2,4.4c0.4,1.7,0.8,3.2,1.1,4.4
									C320.6,216,320.8,216.7,320.9,216.7z"/>
							</g>
						</g>
					</g>
				</g>
				<g>
					<g>
						<g>
							<path class="st19" d="M325.9,185.6c0,0,0,0.1,0,0.2c0,0.2-0.1,0.4-0.1,0.7c-0.1,0.7-0.2,1.6-0.3,2.7
								c-0.2,2.4-0.5,5.8-0.9,9.9h0.3c-0.6-1.8-1.4-3.7-2.1-5.7v-0.1h-0.1c-1-0.4-2.1-0.9-3.1-1.4h-0.1h-0.1
								c-1.3,0.4-2.6,0.9-3.9,1.4h0.1c-0.6,0-1.3,0-2,0c-0.8,0-1.6,0-2.4,0l0,0l0,0c-3,1.6-5.8,3.2-8.4,4.6h0.2
								c-3.1-4-5.8-7.4-7.7-9.8c-0.9-1.2-1.7-2.1-2.2-2.8c-0.2-0.3-0.4-0.5-0.6-0.7c-0.1-0.2-0.2-0.2-0.2-0.2s0.1,0.1,0.2,0.3
								s0.3,0.4,0.6,0.8c0.5,0.7,1.2,1.6,2.1,2.8c1.9,2.4,4.5,5.8,7.6,9.9l0.1,0.1l0.1-0.1c2.6-1.4,5.4-3,8.5-4.6h-0.1
								c0.8,0,1.6,0,2.4,0c0.7,0,1.3,0,2,0l0,0l0,0c1.3-0.5,2.7-0.9,3.9-1.4h-0.1c1.1,0.5,2.2,0.9,3.2,1.4l-0.1-0.1
								c0.8,2,1.5,4,2.2,5.7l0.2,0.6l0.1-0.7c0.3-4.1,0.6-7.5,0.8-9.9c0.1-1.2,0.2-2.1,0.2-2.8c0-0.3,0-0.5,0-0.7
								C325.9,185.7,325.9,185.6,325.9,185.6z"/>
						</g>
					</g>
				</g>
			</g>
			<g>
				<path class="st11" d="M337.1,132.7c1.9-0.6,3.4-2.1,4-3.9c0.6-1.9,0.2-4-1-5.5c-0.7-0.8-1.6-1.5-2-2.5c-0.9-2.1,0.7-4.6,0.3-6.8
					c-0.4-2.1-2.4-3.5-4.4-4.3s-4.2-1.2-5.9-2.4c-1.6-1.2-2.6-2.9-4.1-4.2c-2.1-1.8-5.1-2.4-7.8-1.7c-2.7,0.8-5,2.9-7.8,3.2
					c-2.1,0.2-4.1-0.5-6.1-0.7c-4.7-0.3-9.3,3.1-10.3,7.7c-0.5,2-0.9,3.7-2.2,5.3c-1.7,2.1-4.6,2.8-5.9,5.1
					c-0.8,1.4-0.5,3.1-0.1,4.6c0.5,1.5,1.1,3,1.1,4.6c0,2.5-2,4.8-4.4,5.3c0.4,1.5,1.5,2.8,2.9,3.5c-1,0.6-2.3,0.9-3.5,0.8
					c1,2.9,3.3,5.4,6.1,6.7c2.8,1.3,6.2,1.3,9,0.1"/>
				<path class="st20" d="M291.9,142.8c-0.2-0.1-9.1-2.9-9,6.2c0.1,9.1,9.2,7.1,9.3,6.8C292.2,155.6,291.9,142.8,291.9,142.8z"/>
				<path class="st21" d="M289.3,152.4c0,0-0.2,0.1-0.4,0.2c-0.3,0.1-0.7,0.2-1.2,0c-1-0.3-1.8-1.9-1.9-3.5c0-0.8,0.1-1.6,0.4-2.3
					s0.7-1.1,1.2-1.2c0.5-0.1,0.8,0.2,0.9,0.4c0.1,0.3,0.1,0.4,0.1,0.5c0,0,0.2-0.2,0.1-0.5c0-0.2-0.2-0.4-0.4-0.6
					c-0.2-0.2-0.5-0.3-0.9-0.2c-0.7,0.1-1.3,0.7-1.6,1.4c-0.4,0.7-0.6,1.6-0.5,2.5c0.1,1.8,1,3.5,2.4,3.9c0.6,0.2,1.2,0,1.4-0.3
					C289.3,152.7,289.4,152.5,289.3,152.4z"/>
				<path class="st20" d="M338,161.4c0.2-6.4-0.5-19.7-1.2-31.7c-0.8-12.9-11.4-23-24.3-23.2h-1.3c-13.9,0.6-21.1,12.7-20.2,26.5
					l1.2,45.7l23.7,14.7l8.4-6.5v-10.3C324.3,176.5,337.6,174.7,338,161.4z"/>
				<path class="st8" d="M333.4,140.2c0,1-0.8,1.8-1.9,1.9c-1,0-1.9-0.7-1.9-1.7s0.8-1.8,1.9-1.9
					C332.6,138.4,333.4,139.2,333.4,140.2z"/>
				<path class="st8" d="M312.7,140c0,1-0.8,1.8-1.9,1.9c-1,0-1.9-0.7-1.9-1.7s0.8-1.8,1.9-1.9C311.8,138.2,312.7,139,312.7,140z"/>
				<path class="st21" d="M320.8,151.5c0-0.1,1.3-0.3,3.3-0.5c0.5,0,1-0.1,1.1-0.5s-0.1-0.9-0.3-1.6c-0.5-1.3-1-2.6-1.5-4
					c-2-5.7-3.5-10.4-3.3-10.5s2.1,4.5,4.1,10.2c0.5,1.4,1,2.7,1.4,4c0.2,0.6,0.5,1.3,0.2,2.1c-0.1,0.4-0.5,0.7-0.9,0.7
					c-0.3,0.1-0.6,0.1-0.9,0.1C322.1,151.6,320.8,151.6,320.8,151.5z"/>
				<path class="st11" d="M314.9,132.9c-0.1,0.6-2.2,0.7-4.5,1.3s-4.1,1.7-4.5,1.2c-0.2-0.2,0.1-0.8,0.7-1.4
					c0.7-0.7,1.8-1.4,3.2-1.8c1.4-0.4,2.7-0.4,3.7-0.2C314.5,132.3,315,132.7,314.9,132.9z"/>
				<path class="st11" d="M334.6,134.9c-0.5,0.3-1.7-0.5-3.3-1c-1.6-0.5-3.1-0.6-3.3-1.1c-0.1-0.3,0.3-0.7,1-0.9s1.8-0.3,2.9,0
					c1.1,0.4,2,1,2.4,1.7C334.8,134.2,334.8,134.7,334.6,134.9z"/>
				<path class="st11" d="M322.2,105.4c-4.6-2-9.4-1.2-14.5-0.7c-4,0.4-7.5,1.6-10.8,3.9c-5.2,3.6-7.9,9.4-8.4,15.7
					c-0.5,6.3,0,11.9,1.3,18l0.5-0.1c-0.4,1.5-0.7,3.1-0.2,4.6s2.1,2.7,3.6,2.1c1.7-0.7,1.8-3,1.8-4.8c-0.3-6.2,0-12.3,0.6-18.5
					c0.4-4.6,3.2-10.1,6.9-12.2c8.2-4.6,14.3,0,17.1,1.1c4.6-3.6,9.4-1.3,12,2.1C331.3,111.7,326.8,107.4,322.2,105.4z"/>
				<path class="st22" d="M285.7,120c0,0.3,0.5,0.6,1.6,0.8c1.1,0.2,2.7,0.1,4.6-0.5s3.9-1.6,5.9-2.9s4-2.8,6.2-4.1
					c2.1-1.2,4.2-1.9,6.2-2s3.8,0.3,5.3,0.9c3,1.1,4.5,2.8,5,2.4c0.1-0.1,0.2-0.3,0.1-0.6c0-0.3-0.2-0.7-0.5-1.2
					c-0.5-0.9-1.5-2.2-3.2-3.3c-1.6-1.1-3.9-2-6.7-2.2c-1.4-0.1-2.8,0.1-4.2,0.5c-1.4,0.4-2.8,1-4.1,1.7c-2.6,1.5-4.6,3.2-6.4,4.6
					s-3.4,2.6-4.8,3.4s-2.6,1.3-3.5,1.7C286.3,119.5,285.7,119.7,285.7,120z"/>
				<path class="st22" d="M285.4,127.4c0,0,0.6,0.3,1.7,0.4s2.6,0,4.2-0.5s2.9-1.4,3.7-2.1c0.8-0.7,1.2-1.3,1.2-1.3
					c-0.1,0-0.5,0.4-1.4,1.1c-0.9,0.6-2.1,1.4-3.7,1.9c-1.5,0.5-3,0.6-4.1,0.6C286.1,127.5,285.4,127.3,285.4,127.4z"/>
				<g>
					<g>
						<g>
							<g>
								<path class="st22" d="M281.4,136.5c0,0,0.3,0,0.7-0.2c0.4-0.1,1.1-0.3,1.8-0.7c1.5-0.6,3.5-1.6,5.6-3.1c2-1.5,3.7-3,4.8-4.3
									c0.5-0.6,1-1.1,1.2-1.5c0.3-0.4,0.4-0.6,0.4-0.6c-0.1,0-0.7,0.7-1.8,1.9c-1.1,1.2-2.8,2.7-4.8,4.1c-2,1.4-4,2.5-5.5,3.2
									C282.3,136.1,281.4,136.5,281.4,136.5z"/>
							</g>
						</g>
					</g>
				</g>
				<g>
					<g>
						<g>
							<g>
								<path class="st22" d="M313.1,103.5c0,0.1,0.8,0.3,2,0.9s2.8,1.5,4.1,3c1.3,1.5,1.8,3.4,1.8,4.7c0,1.3-0.4,2.1-0.3,2.1
									c0,0,0.1-0.2,0.3-0.5c0.2-0.4,0.3-0.9,0.4-1.6c0.1-1.4-0.4-3.4-1.7-5c-1.4-1.6-3.1-2.5-4.4-3S313.1,103.5,313.1,103.5z"/>
							</g>
						</g>
					</g>
				</g>
				<g>
					<g>
						<g>
							<g>
								<path class="st22" d="M318,100.6c0,0.1,0.7,0.5,1.6,1.5s2,2.5,2.5,4.5c0.4,2,0.1,3.9-0.3,5.2c-0.4,1.3-0.9,2-0.8,2
									c0,0,0.2-0.1,0.4-0.5c0.2-0.3,0.5-0.8,0.8-1.5c0.5-1.3,0.9-3.3,0.4-5.4s-1.6-3.7-2.7-4.7c-0.5-0.5-1-0.8-1.3-1
									C318.3,100.7,318.1,100.6,318,100.6z"/>
							</g>
						</g>
					</g>
				</g>
				<g>
					<g>
						<g>
							<g>
								<path class="st22" d="M290.3,144.1c0,0.1,1.5,0,3-1s2.2-2.3,2.1-2.4c-0.1-0.1-0.9,1.1-2.4,2
									C291.7,143.7,290.3,144,290.3,144.1z"/>
							</g>
						</g>
					</g>
				</g>
				<g>
					<g>
						<g>
							<g>
								<path class="st22" d="M289.8,145.8c0,0.1,1.6,0.2,3.4-0.7s2.6-2.3,2.5-2.4c-0.1-0.1-1.1,1.1-2.7,2
									C291.3,145.6,289.8,145.7,289.8,145.8z"/>
							</g>
						</g>
					</g>
				</g>
				<g>
					<g>
						<g>
							<g>
								<path class="st22" d="M333.1,118.7c0,0,0.5,0,1.2-0.4s1.6-1.1,2.2-2.2s0.8-2.2,0.8-3s-0.2-1.3-0.2-1.3c-0.1,0,0,0.5-0.1,1.2
									s-0.3,1.8-0.9,2.8s-1.3,1.7-2,2.1C333.5,118.4,333.1,118.6,333.1,118.7z"/>
							</g>
						</g>
					</g>
				</g>
				<g>
					<g>
						<g>
							<g>
								<path class="st22" d="M331.8,116c0.1,0.1,1.2-1,2.1-2.7c0.9-1.6,1.3-3.1,1.2-3.2c-0.1,0-0.7,1.3-1.6,2.9
									C332.6,114.8,331.7,116,331.8,116z"/>
							</g>
						</g>
					</g>
				</g>
				<g>
					<g>
						<g>
							<path class="st21" d="M304.5,138.4c-0.1,0.1,0.6,0.6,1.4,0.9c0.9,0.3,1.7,0.4,1.7,0.3c0-0.1-0.7-0.3-1.5-0.6
								C305.2,138.6,304.6,138.3,304.5,138.4z"/>
						</g>
					</g>
				</g>
				<g>
					<g>
						<g>
							<path class="st21" d="M303.8,141.1c0,0.1,0.9,0.1,2,0.1c1.1-0.1,2-0.2,2-0.3s-0.9-0.1-2-0.1
								C304.7,140.8,303.8,141,303.8,141.1z"/>
						</g>
					</g>
				</g>
				<g>
					<g>
						<g>
							<path class="st21" d="M334.2,139.7c0,0.1,0.5,0.2,1.1,0.2s1.1-0.1,1.1-0.2c0-0.1-0.5-0.2-1.1-0.2S334.2,139.6,334.2,139.7z"
								/>
						</g>
					</g>
				</g>
				<g>
					<g>
						<g>
							<path class="st21" d="M334.7,138.7c0.1,0.1,0.5-0.1,0.9-0.4c0.5-0.3,0.8-0.6,0.7-0.7c-0.1-0.1-0.5,0.1-0.9,0.4
								C335,138.3,334.7,138.6,334.7,138.7z"/>
						</g>
					</g>
				</g>
				<g>
					<g>
						<g>
							<path class="st21" d="M313.7,120.5c0,0.1,0.6,0.2,1.6,0.6s2.3,1.1,3.8,1.7c1.5,0.7,3,1,4.1,1c0.5,0,1-0.1,1.3-0.2
								s0.4-0.2,0.4-0.2c0-0.1-0.7,0.1-1.7,0.1c-1.1,0-2.5-0.4-4-1.1c-1.5-0.6-2.9-1.3-3.9-1.6C314.4,120.5,313.7,120.5,313.7,120.5
								z"/>
						</g>
					</g>
				</g>
				<g>
					<g>
						<g>
							<path class="st21" d="M316.4,120.2c0,0.1,1.7,1,4,1.4c2.4,0.4,4.3-0.1,4.3-0.1c0-0.1-1.9,0.1-4.2-0.2
								C318.2,120.9,316.5,120.1,316.4,120.2z"/>
						</g>
					</g>
				</g>
				<g>
					<g>
						<g>
							<g>
								<g>
									<path class="st9" d="M331.3,145.2c0,0-0.3,0-0.9-0.1s-1.5-0.3-2.4-0.9c-0.5-0.3-1-0.7-1.5-1.1c-0.5-0.5-0.9-1.1-1.2-1.7
										c-0.4-0.7-0.6-1.5-0.7-2.3s0-1.8,0-2.7l-0.2,0.2c2.6,0,5.6,0,8.7,0c2.5,0,4.8,0,7,0l-0.2-0.2c0,1.1,0.1,2.1-0.1,3
										s-0.5,1.8-1,2.5c-0.9,1.5-2.3,2.4-3.4,2.8c-1.2,0.5-2.2,0.4-2.9,0.5c-0.3,0-0.6,0-0.8,0
										C331.4,145.1,331.3,145.1,331.3,145.2c0,0,0.1,0,0.3,0c0.2,0,0.5,0,0.8,0c0.7,0,1.8,0.1,3-0.4c1.2-0.4,2.6-1.3,3.6-2.8
										c0.5-0.8,0.9-1.7,1-2.6c0.2-1,0.1-2,0.1-3.1v-0.2h-0.2c-2.2,0-4.5,0-7,0c-3.1,0-6,0-8.7,0H324v0.2c0,0.9,0,1.9,0.1,2.7
										c0.1,0.9,0.4,1.7,0.8,2.4s0.8,1.3,1.3,1.8s1,0.9,1.5,1.1c1,0.6,1.9,0.7,2.5,0.8c0.3,0.1,0.5,0,0.7,0
										C331.2,145.2,331.3,145.2,331.3,145.2z"/>
								</g>
							</g>
						</g>
						<g>
							<g>
								<g>
									<path class="st9" d="M309.2,145.2c0,0-0.3,0-0.9-0.1s-1.5-0.3-2.4-0.9c-0.5-0.3-1-0.7-1.5-1.1c-0.5-0.5-0.9-1.1-1.2-1.7
										c-0.4-0.7-0.6-1.5-0.7-2.3s0-1.8,0-2.7l-0.2,0.2c2.6,0,5.6,0,8.7,0c2.5,0,4.8,0,7,0l-0.2-0.2c0,1.1,0.1,2.1-0.1,3
										s-0.5,1.8-1,2.5c-0.9,1.5-2.3,2.4-3.4,2.8c-1.2,0.5-2.2,0.4-2.9,0.5c-0.3,0-0.6,0-0.8,0
										C309.3,145.1,309.2,145.1,309.2,145.2c0,0,0.1,0,0.3,0c0.2,0,0.5,0,0.8,0c0.7,0,1.8,0.1,3-0.4c1.2-0.4,2.6-1.3,3.6-2.8
										c0.5-0.8,0.9-1.7,1-2.6c0.2-1,0.1-2,0.1-3.1v-0.2h-0.2c-2.2,0-4.5,0-7,0c-3.1,0-6,0-8.7,0h-0.2v0.2c0,0.9,0,1.9,0.1,2.7
										c0.1,0.9,0.4,1.7,0.8,2.4s0.8,1.3,1.3,1.8s1,0.9,1.5,1.1c1,0.6,1.9,0.7,2.5,0.8c0.3,0.1,0.5,0,0.7,0
										C309.1,145.2,309.2,145.2,309.2,145.2z"/>
								</g>
							</g>
						</g>
						<g>
							<g>
								<g>
									<path class="st9" d="M318,138.4c0.1,0,0.3-0.3,0.8-0.7s1.3-0.8,2.3-0.8s1.8,0.4,2.3,0.7c0.5,0.4,0.8,0.7,0.8,0.7
										s-0.1-0.4-0.7-0.9c-0.5-0.5-1.4-0.9-2.5-0.9s-2,0.5-2.4,1C318.1,137.9,318,138.3,318,138.4z"/>
								</g>
							</g>
						</g>
						<g>
							<g>
								<g>
									<path class="st9" d="M288.8,141.7c0,0.1,0.8-0.1,2-0.4c1.2-0.3,2.9-0.6,4.8-1c1.9-0.3,3.6-0.6,4.8-0.8c1.2-0.2,2-0.3,2-0.4
										c0,0-0.8,0-2,0.1s-3,0.4-4.9,0.7c-1.9,0.4-3.6,0.8-4.8,1.1C289.5,141.4,288.8,141.7,288.8,141.7z"/>
								</g>
							</g>
						</g>
					</g>
					<g>
						<g>
							<g>
								<path class="st22" d="M331.8,144.3c0,0,0.7,0.1,1.7-0.1c1-0.2,2.5-0.8,3.7-1.9c1.2-1.1,1.9-2.5,2.1-3.6s0.1-1.7,0.1-1.7
									c-0.1,0,0,0.7-0.3,1.7s-0.9,2.3-2.1,3.4c-1.1,1.1-2.5,1.6-3.5,1.9C332.5,144.2,331.8,144.2,331.8,144.3z"/>
							</g>
						</g>
					</g>
					<g>
						<g>
							<g>
								<path class="st22" d="M309.5,143.9c0,0,0.6,0,1.6-0.2s2.4-0.6,3.7-1.5c1.3-1,2-2.4,2.1-3.4c0.1-0.5,0-0.9,0-1.2
									c-0.1-0.3-0.1-0.4-0.2-0.4s0.1,0.6-0.1,1.6s-0.9,2.2-2.1,3.1c-1.2,0.9-2.6,1.3-3.5,1.6C310.1,143.7,309.5,143.8,309.5,143.9
									z"/>
							</g>
						</g>
					</g>
				</g>
			</g>
			<g>
				<g>
					<path class="st15" d="M283.6,250.9c0,0,3.9,13.6,4.2,17.4c0.3,3.8,0.8,25.4-2.6,29.2c-3.4,3.7-7,8.6-12.8,9.2
						c-5.9,0.6-8.8,0.2-10.3-2.4s-8-12.7-7.9-17.7s2.3-13.3,2.3-13.3s-1.5-23.2-0.3-24.7s1.2-1.5,1.2-1.5s-4.2-8.4-4.5-11.2
						c-0.3-2.7-1.9-26.8,2.3-31.3c3.3-3.5,6.7-5.4,6.7-5.4l9.4,20.4L283.6,250.9z"/>
				</g>
			</g>
			<g>
				<g>
					<g>
						<path class="st8" d="M258.3,265c0,0,0.3-0.3,0.6-0.8c0.4-0.5,0.9-1.4,1.5-2.4s1.2-2.3,1.8-3.8c0.6-1.5,1.1-3.1,2.1-4.6
							s2.3-2.6,3.5-3.6c1.2-0.9,2.4-1.8,3.4-2.5c0.9-0.7,1.7-1.3,2.3-1.7c0.5-0.4,0.8-0.6,0.8-0.7c0,0-0.3,0.2-0.9,0.6
							c-0.6,0.4-1.4,1-2.3,1.6c-1,0.7-2.1,1.5-3.4,2.5s-2.6,2.1-3.6,3.7c-1,1.6-1.5,3.3-2.1,4.7c-0.5,1.5-1.1,2.8-1.7,3.8
							c-0.5,1.1-1,1.9-1.4,2.4C258.5,264.7,258.3,265,258.3,265z"/>
					</g>
				</g>
			</g>
			<g>
				<g>
					<g>
						<path class="st8" d="M255.9,235.1c0,0.1,0.9-0.1,2.3-0.4c1.4-0.2,3.4-0.5,5.6-0.5c2.2-0.1,4.2,0.1,5.6,0.3s2.3,0.3,2.3,0.3
							s-0.2-0.1-0.6-0.2c-0.4-0.1-1-0.2-1.7-0.3c-1.4-0.2-3.4-0.4-5.7-0.4c-2.2,0.1-4.2,0.3-5.6,0.7c-0.7,0.2-1.3,0.3-1.7,0.4
							C256.1,235,255.9,235.1,255.9,235.1z"/>
					</g>
				</g>
			</g>
			<g>
				<g>
					<g>
						<path class="st15" d="M360.6,195.1c0,0,6.4,4.9,7.5,10.4s2.7,28.8,2.7,28.8s2.7,3.1,2.7,3.6c0,0.4,0.8,9.5,1.2,13.4
							c-0.1,0.4-0.2,0.8-0.2,1.3c0,13.4-0.7,26.7-0.9,40.1c-9.3,1.3-12.2-4.4-12.2-4.4l-2.2-34L360.6,195.1z"/>
					</g>
				</g>
				<g>
					<g>
						<g>
							<path class="st15" d="M369.2,270.2c0.1-1.9,0.5-4.5,1.3-7.4c0.8-2.8,1.8-5.3,2.7-7c0.4-0.9,0.8-1.5,1.1-2
								c0.1-0.1,0.2-0.2,0.2-0.3c0,0.1,0,0.2,0,0.2c0,0.1-0.1,0.1-0.1,0.2c-0.3,0.5-0.6,1.2-1,2c-0.8,1.7-1.8,4.2-2.6,7
								c-0.8,2.8-1.2,5.4-1.4,7.3c-0.1,0.9-0.2,1.7-0.2,2.2s-0.1,0.8-0.1,0.8s0-0.3,0-0.8C369.1,271.9,369.1,271.1,369.2,270.2z"/>
						</g>
					</g>
				</g>
				<g>
					<g>
						<g>
							<path class="st15" d="M366.8,268.1c0.1,0,0.1-1,0.4-2.6s0.9-3.7,2-5.9c1.1-2.2,2.4-4,3.5-5.2s1.8-1.8,1.8-1.9
								c0,0-0.2,0.1-0.6,0.4c-0.4,0.3-0.8,0.7-1.4,1.3c-1.1,1.2-2.5,2.9-3.6,5.2c-1.1,2.2-1.7,4.4-1.9,6c-0.1,0.8-0.2,1.5-0.2,1.9
								C366.8,267.9,366.8,268.1,366.8,268.1z"/>
						</g>
					</g>
				</g>
				<path class="st15" d="M368.1,207.7c0,0,22.3,59.9,9.8,87.8c-2.8,6.3-80.1-7-80.1-7l-11.1-14.6c0,0,57.8-13.2,70.3-9.1l3.6-26.9
					L368.1,207.7z"/>
				<g>
					<g>
						<g>
							<path class="st15" d="M300,278.2c0,0,0.1,0,0.2,0.1c0.1,0,0.3,0.1,0.5,0.2c0.5,0.1,1.2,0.4,2.1,0.6c1.8,0.5,4.4,1.3,7.6,2.2
								c6.4,1.8,15.3,4.2,25.3,6.3c5,1,9.8,1.8,14.2,2.4c2.2,0.3,4.3,0.5,6.2,0.7c1,0.1,1.9,0.2,2.8,0.2c0.9,0.1,1.8,0.1,2.6,0.1
								c1.7,0.1,3.2,0.1,4.5,0.2c0.7,0,1.3,0,1.8,0c0.6,0,1.1,0,1.6,0c0.9,0,1.6,0,2.1,0c0.2,0,0.4,0,0.6,0c0.1,0,0.2,0,0.2,0
								s-0.1,0-0.2,0s-0.3,0-0.6,0c-0.5,0-1.2,0-2.1,0c-0.5,0-1,0-1.6,0s-1.2,0-1.8-0.1c-1.3-0.1-2.8-0.1-4.5-0.2
								c-0.8-0.1-1.7-0.1-2.6-0.2s-1.8-0.2-2.8-0.3c-2-0.2-4-0.4-6.2-0.7c-4.4-0.6-9.1-1.4-14.1-2.4c-10-2-18.9-4.4-25.3-6.2
								c-3.2-0.9-5.8-1.6-7.6-2.1c-0.9-0.2-1.6-0.4-2.1-0.6c-0.2-0.1-0.4-0.1-0.5-0.1C300.1,278.2,300,278.1,300,278.2z"/>
						</g>
					</g>
				</g>
			</g>
			<g>
				<g>
					<path class="st20" d="M377.8,244.9c0,0-12.3,7.6-12.8,8.5c-0.5,1-5,6.5-8.4,8.7c-3.5,2.2-33.3,5-33.3,5l-0.6,21
						c0,0,25.5-11.9,32.6-10.7c7.1,1.2,12.5,3.2,15.7,2.5s11.4-4.7,11.4-4.7s1.6-2.5,0.3-4c0,0,1.2-2.7,1.1-4c0,0,1.5-2.8,0.5-4.1
						c0,0,0.7-4.3-1.7-4.6c-2.4-0.3-7.1,0-9.2-0.4s-2.7-2-2.7-2s0.1-1.1,2-2.2C374.6,253.1,381.9,248.6,377.8,244.9z"/>
				</g>
				<g>
					<g>
						<path class="st21" d="M377.5,266.8c0,0.1,1.8-0.3,3.7-1.3c2-1,3.3-2.1,3.2-2.2c-0.1-0.1-1.6,0.8-3.5,1.8
							C379.1,266,377.4,266.6,377.5,266.8z"/>
					</g>
				</g>
				<g>
					<g>
						<path class="st21" d="M376.5,271.2c0,0.1,2.1-0.2,4.3-1.5c2.2-1.2,3.6-2.8,3.5-2.9s-1.6,1.3-3.7,2.5
							C378.4,270.5,376.5,271.1,376.5,271.2z"/>
					</g>
				</g>
				<g>
					<g>
						<path class="st21" d="M375.6,274.7c0,0.1,2,0,4.1-1s3.4-2.5,3.3-2.6s-1.5,1.1-3.6,2.1C377.4,274.3,375.6,274.6,375.6,274.7z"
							/>
					</g>
				</g>
			</g>
			<path class="st15" d="M345.8,261.4l4.2,20.2c0,0-32.4,8.8-50.1,16.7c-17.7,7.9-36.7-0.3-41.8-5.6c-5.1-5.3,13.2-29.3,13.2-29.3
				S303.4,268.3,345.8,261.4z"/>
			<path class="st23" d="M326,176.1c0,0-16,4.9-25.1-9.8"/>
			<path class="st23" d="M327,160c0,0-6.9-1.4-11.5,0"/>
			<path class="st23" d="M314.5,155.5c0,0-3.5,3.5-4.2,5.6"/>
			<path class="st23" d="M328.1,154.5c0,0,3.5,4.9,4.2,7"/>
			<path class="st24" d="M309.8,266.7c0,0-34-2.3-37.1,1.6"/>
			<path class="st24" d="M343,282.9c0,0-56.2,15.2-66.7,22.6"/>
			<path class="st24" d="M360.3,209.2c0,0,0.4,39.1,0.4,46"/>
		</g>
	</g>
	<g>
		<defs>
			<path id="SVGID_5_" d="M401.8,379.5c26,0,70.9-3.6,75-4c28-3,66,6,87.6-41.2c38.5-84,14.1-151.6-20.1-202.7
				c-22.1-33.1-61.3-51.2-98.6-58.1c-79.3-14.6-87-25-190.1-21.6c-41,1.4-179.9,30.8-216.3,79.3c-25.5,33.9-18.4,148.5,82,226.1
				c67.5,52.2,95.5-1.5,195.5,11.2C352.4,373,385.4,379.5,401.8,379.5z"/>
		</defs>
		<clipPath id="SVGID_6_">
			<use xlink:href="#SVGID_5_"  style="overflow:visible;"/>
		</clipPath>
		<g class="st25">
			<g>
				<g>
					<g>
						<g>
							<path class="st26" d="M245.8,170.3c-0.9-4.9-3-9.4-4.4-14.2c-1.4-4.7-1.3-9.8-2.1-15.1L224,184.6c0.2,5.9,0.4,11.9,0.6,17.8
								c0,1.3,0.2,2.7,1.2,3.5c1.2,0.9,3,0.2,4.3-0.5C241.8,198.4,248.4,183.7,245.8,170.3z"/>
						</g>
					</g>
				</g>
				<g>
					<g>
						<g>
							<g>
								<g>
									<g>
										<path class="st27" d="M205,110.9l-29.1-6.4l-7,2c-16.1,2.7-24.2,22.2-22.2,35.3c2.2,14.5,5.6,32.1,9.6,42.4
											c8.1,20.7,25.2,19.8,25.2,19.8s0.8,5.9,1.8,13.1c1.9,13,14.2,21.8,27.1,19.3l0,0c12.3-2.3,20.5-14,18.4-26.4l-15.4-93
											C212.6,113.1,209,110.4,205,110.9z"/>
									</g>
								</g>
							</g>
						</g>
					</g>
				</g>
				<g>
					<g>
						<g>
							<g>
								<g>
									<g>
										<g>
											<g>
												<g>
													<g>
														<g>
															<g>
																<g>
																	<g>
																		<g>
																			<g>
																				<g>
																					<g>
																						<g>
																							<g>
																								<path class="st8" d="M155.3,156.3c0.3,1.5,1.7,2.4,3.3,2.2c1.5-0.3,2.6-1.6,2.3-3.1s-1.7-2.4-3.3-2.2
																									C156.1,153.5,155.1,154.8,155.3,156.3z"/>
																							</g>
																						</g>
																					</g>
																				</g>
																			</g>
																		</g>
																	</g>
																</g>
															</g>
														</g>
													</g>
												</g>
											</g>
										</g>
									</g>
								</g>
							</g>
							<g>
								<g>
									<g>
										<g>
											<g>
												<g>
													<g>
														<g>
															<g>
																<g>
																	<g>
																		<g>
																			<g>
																				<g>
																					<g>
																						<g>
																							<g>
																								<path class="st28" d="M175.7,168.4c0-0.2-1.9-0.1-5,0.2c-0.8,0.1-1.5,0.1-1.8-0.4s-0.2-1.4,0-2.3
																									c0.3-2,0.6-4.1,1-6.2c1.3-8.9,2.1-16.1,1.7-16.1c-0.4,0-1.7,7.1-3,16c-0.3,2.2-0.6,4.3-0.9,6.3
																									c-0.1,0.9-0.4,2,0.3,3.1c0.3,0.5,1,0.8,1.5,0.8s0.9,0,1.3-0.1C173.9,169,175.8,168.6,175.7,168.4z"/>
																							</g>
																						</g>
																					</g>
																				</g>
																			</g>
																		</g>
																	</g>
																</g>
															</g>
														</g>
													</g>
												</g>
											</g>
										</g>
									</g>
								</g>
							</g>
							<g>
								<g>
									<g>
										<g>
											<g>
												<g>
													<g>
														<g>
															<g>
																<g>
																	<g>
																		<g>
																			<g>
																				<g>
																					<g>
																						<g>
																							<g>
																								<path class="st28" d="M179.1,180c0.5,0.1,0.9-3.2,4.1-5.1c3.1-1.9,6.5-1.1,6.6-1.5c0.1-0.2-0.7-0.7-2.1-1
																									c-1.4-0.2-3.6-0.1-5.5,1.1c-1.9,1.2-2.9,3-3.2,4.3C178.7,179.1,178.9,180,179.1,180z"/>
																							</g>
																						</g>
																					</g>
																				</g>
																			</g>
																		</g>
																	</g>
																</g>
															</g>
														</g>
													</g>
												</g>
											</g>
										</g>
									</g>
								</g>
							</g>
							<g>
								<g>
									<g>
										<g>
											<g>
												<g>
													<g>
														<g>
															<g>
																<g>
																	<g>
																		<g>
																			<g>
																				<g>
																					<g>
																						<g>
																							<g>
																								<g>
																									<g>
																										<path class="st26" d="M159.5,141.2c-0.8-0.3-2.2,1.5-4.2,2.9c-2,1.5-4.1,2.2-4.1,3.1
																											c0,0.4,0.7,0.8,1.8,0.8s2.7-0.4,4.1-1.4c1.4-1,2.3-2.3,2.6-3.4C160,142.1,159.9,141.4,159.5,141.2z"/>
																									</g>
																								</g>
																							</g>
																						</g>
																					</g>
																				</g>
																			</g>
																		</g>
																	</g>
																</g>
															</g>
														</g>
													</g>
												</g>
											</g>
										</g>
									</g>
								</g>
							</g>
							<g>
								<g>
									<g>
										<g>
											<g>
												<g>
													<g>
														<g>
															<g>
																<g>
																	<g>
																		<g>
																			<g>
																				<g>
																					<g>
																						<g>
																							<g>
																								<path class="st8" d="M188.6,149.2c0.3,1.5-0.7,2.9-2.2,3.3c-1.5,0.4-3-0.5-3.3-2s0.7-2.9,2.2-3.3
																									C186.8,146.8,188.2,147.7,188.6,149.2z"/>
																							</g>
																						</g>
																					</g>
																				</g>
																			</g>
																		</g>
																	</g>
																</g>
															</g>
														</g>
													</g>
												</g>
											</g>
										</g>
									</g>
								</g>
							</g>
							<g>
								<g>
									<g>
										<g>
											<g>
												<g>
													<g>
														<g>
															<g>
																<g>
																	<g>
																		<g>
																			<g>
																				<g>
																					<g>
																						<g>
																							<g>
																								<g>
																									<g>
																										<path class="st26" d="M180,138.8c0.6-0.7,3,0,5.8,0.1s5.3-0.4,5.8,0.3c0.2,0.4-0.1,1-1.2,1.7
																											c-1,0.6-2.8,1.2-4.7,1.1c-2-0.1-3.6-0.7-4.6-1.4C180.1,139.9,179.8,139.2,180,138.8z"/>
																									</g>
																								</g>
																							</g>
																						</g>
																					</g>
																				</g>
																			</g>
																		</g>
																	</g>
																</g>
															</g>
														</g>
													</g>
												</g>
											</g>
										</g>
									</g>
								</g>
							</g>
						</g>
					</g>
				</g>
				<g>
					<g>
						<g>
							<g>
								<g>
									<g>
										<g>
											<path class="st26" d="M172.2,96c-38.8,1-27,48.9-27,48.9l0,0c14.5-14.6,27.3-39.9,27.3-39.9l5.8-2L172.2,96z"/>
										</g>
									</g>
								</g>
							</g>
						</g>
					</g>
				</g>
				<g>
					<g>
						<g>
							<g>
								<g>
									<g>
										<g>
											<g>
												<g>
													<g>
														<g>
															<g>
																<g>
																	<g>
																		<g>
																			<g>
																				<path class="st27" d="M215.3,154.3c-0.3-1.6,0.7-5.8,2.2-6.4c4.1-1.6,11.7-2.9,14.2,7.8
																					c3.3,14.6-12,14.9-12.1,14.5C219.4,169.8,216.5,159.8,215.3,154.3z"/>
																			</g>
																		</g>
																	</g>
																</g>
															</g>
														</g>
													</g>
												</g>
											</g>
										</g>
									</g>
								</g>
							</g>
						</g>
					</g>
				</g>
				<g>
					<g>
						<g>
							<g>
								<g>
									<g>
										<g>
											<g>
												<g>
													<g>
														<g>
															<g>
																<g>
																	<g>
																		<g>
																			<g>
																				<g>
																					<path class="st28" d="M222.7,163.6c0.1-0.1,0.3,0.1,0.8,0.2c0.5,0.1,1.2,0.1,1.9-0.4c1.4-0.9,2.2-3.7,1.6-6.3
																						c-0.3-1.3-0.8-2.5-1.5-3.5s-1.5-1.6-2.4-1.5c-0.8,0-1.3,0.6-1.3,1c-0.1,0.5,0.1,0.7,0,0.8c0,0-0.4-0.2-0.4-0.8
																						c0-0.3,0.1-0.7,0.4-1c0.3-0.4,0.8-0.6,1.3-0.7c1.1-0.2,2.4,0.6,3.2,1.7c0.8,1,1.5,2.4,1.8,3.9
																						c0.6,3-0.3,6.1-2.3,7.1c-1,0.5-1.9,0.4-2.4,0.1C222.8,164,222.6,163.6,222.7,163.6z"/>
																				</g>
																			</g>
																		</g>
																	</g>
																</g>
															</g>
														</g>
													</g>
												</g>
											</g>
										</g>
									</g>
								</g>
							</g>
						</g>
					</g>
				</g>
				<g>
					<g>
						<g>
							<path class="st26" d="M240.7,153.2c-0.8-23.7-14.5-52.6-27.4-57.2c-12.9-4.7-41.1-11.6-43.3,6.1c-1.4,11.3,13.7,18.5,24,23.4
								c3.4,1.6,7.1,3,9.5,5.8c3.5,4.2-3.6,22,11.6,29.7c0,0,0-11.2,0.6-11.9c1.5-2,6-3.4,10.6-1.5c5.3,2.2,10.8,17.5-4.3,22.5
								l3.2,19.5C225.4,189.5,241.5,176.9,240.7,153.2z"/>
						</g>
					</g>
				</g>
				<g>
					<g>
						<g>
							<g>
								<path class="st28" d="M192.8,153.4c0,0.1-1.8,0.2-3.9,0.7c-2.1,0.5-3.7,1.2-3.8,1c-0.1-0.1,1.5-1,3.7-1.5
									C191,153.2,192.8,153.3,192.8,153.4z"/>
							</g>
						</g>
					</g>
				</g>
				<g>
					<g>
						<g>
							<g>
								<path class="st28" d="M161.7,161.4c0,0.1-1.7-0.2-3.8,0s-3.7,0.8-3.8,0.7s1.5-0.9,3.7-1.1
									C160,160.7,161.8,161.3,161.7,161.4z"/>
							</g>
						</g>
					</g>
				</g>
				<g>
					<g>
						<g>
							<g>
								<path class="st28" d="M193.1,174.7c-0.1,0,0.2-0.9,0-2c-0.1-1.1-0.6-1.8-0.5-1.9c0.1-0.1,0.8,0.6,1,1.8
									C193.7,173.9,193.2,174.8,193.1,174.7z"/>
							</g>
						</g>
					</g>
				</g>
				<g>
					<g>
						<g>
							<g>
								<path class="st29" d="M238.1,138.4c-0.1,0-0.2-1.1-1.2-2.8s-3.1-3.7-6.1-5.5c-1.5-0.9-3.2-1.7-5.1-2.6
									c-1.9-0.9-3.9-1.8-6-2.8c-4.2-2-8.8-4.2-13.7-6.5c-4.8-2.3-9.5-4.5-13.7-6.5c-2.1-1-4.1-2-6-2.8c-1.9-0.9-3.6-1.7-5.2-2.6
									c-3.1-1.7-5.4-3.5-6.7-5s-1.7-2.5-1.7-2.5c0.1,0,0.5,1,1.8,2.4c1.3,1.5,3.6,3.2,6.7,4.8c1.5,0.8,3.3,1.6,5.2,2.5
									s3.9,1.8,6,2.8c4.2,2,8.8,4.2,13.7,6.5c4.8,2.3,9.5,4.5,13.7,6.5c2.1,1,4.1,2,6,2.8c1.9,0.9,3.6,1.8,5.1,2.7
									c1.5,0.9,2.8,1.9,3.8,2.8c1,1,1.8,1.9,2.3,2.8c0.5,0.9,0.8,1.6,0.9,2.1c0.1,0.2,0.1,0.4,0.1,0.6
									C238.1,138.3,238.1,138.4,238.1,138.4z"/>
							</g>
						</g>
					</g>
				</g>
				<g>
					<g>
						<g>
							<g>
								<path class="st29" d="M233,119.8c0,0-0.2-0.1-0.6-0.3c-0.4-0.2-0.9-0.6-1.6-1c-1.4-0.9-3.5-2.1-6.2-3.3
									c-2.7-1.2-6-2.5-9.8-3.6s-8-2.2-12.4-3.3c-4.4-1.1-8.6-2.3-12.3-3.7c-3.7-1.3-7-2.8-9.5-4.4c-2.6-1.5-4.5-2.9-5.8-4
									c-0.7-0.5-1.1-1-1.4-1.3c-0.3-0.3-0.5-0.5-0.5-0.5s0.2,0.1,0.5,0.4s0.8,0.7,1.5,1.2c1.3,1.1,3.2,2.5,5.8,3.9
									c2.6,1.5,5.8,2.9,9.5,4.2c3.7,1.3,7.9,2.5,12.3,3.6c4.4,1.1,8.6,2.2,12.4,3.4c3.8,1.2,7.1,2.4,9.8,3.7
									c2.7,1.3,4.8,2.5,6.2,3.4c0.7,0.4,1.2,0.9,1.6,1.1C232.8,119.6,233,119.8,233,119.8z"/>
							</g>
						</g>
					</g>
				</g>
				<g>
					<g>
						<g>
							<path class="st26" d="M250.2,193.7c8.3,0,16.5,4.5,21.1,11.4c4.8,7.3,5.5,16.5,7.1,25.2c1.6,8.6,4.9,17.9,12.6,22.1
								c0.9,0.5,2,1,2.2,2c0.3,1.2-0.8,2.4-2.1,2.6c-1.2,0.2-2.5-0.2-3.6-0.7c4.9,6.6,4.7,16.4-0.4,22.8s-14.7,8.7-22.2,5.4
								l-25.4-74.7L250.2,193.7z"/>
						</g>
					</g>
				</g>
				<g>
					<g>
						<g>
							<path class="st30" d="M248.3,187c-2.5-1.4-5.6,0.4-7.6,2.5c-2.8,3-4.5,6.8-6.2,10.5c0.8,2.3-0.9,5,0.6,6.8
								c1.5,1.9,3.8,3.2,6.2,3c3.2-0.3,5.4-3.3,6.7-6.3s2.2-6.1,2.6-9.3C251,191.6,250.7,188.3,248.3,187z"/>
						</g>
					</g>
				</g>
				<g>
					<g>
						<g>
							<path class="st27" d="M84,223.5c0,0,21.1,28.4,29.3,38.6c8.9,11.1,23.3,28.7,23.3,28.7l-3.7,40.5c0,0-22.8-11.1-29.1-23.3
								c-6.3-12.3-36-67.6-36-67.6L84,223.5z"/>
						</g>
					</g>
				</g>
				<g>
					<g>
						<g>
							<path class="st31" d="M226.8,189.9c0,0-15.8,9.9-21.4,13.9c-2.7,1.9-22.5,18.9-22.5,18.9l1.4,5.3c0,0-8.2,27.5-9.7,34.2
								c-1.2,5.3-11.3,110.5-12,119.9h108.7c0,0,0.5-119.3-4-132.4c-6.5-19-30-48.1-30-48.1l-7.8-1.9L226.8,189.9z"/>
						</g>
					</g>
				</g>
				<g>
					<g>
						<g>
							<path class="st31" d="M191.4,243.3c-1.4,0.8-32.2,32.1-32.2,32.1s-7.6,1.8-8.6,7.4l-8.8,2.8c-0.7-1.9-7.8-3-9.1,1.5
								c-0.6,2.1-8.9,33.8-9.3,38.6c-0.4,4.4,13.3,7.5,13.3,7.5l12.2-3.3c0,0,21.2-1.5,24.2-2.3s42.9-13.9,54.5-26.3
								s24.5-25.8,24.5-25.8S213.8,230.7,191.4,243.3z"/>
						</g>
					</g>
				</g>
				<g>
					<g>
						<g>
							<g>
								<path class="st8" d="M132.6,287.2c0,0,0-0.1,0-0.2s0.1-0.3,0.2-0.6c0.2-0.5,0.7-1.1,1.6-1.5c1.8-0.8,4.8-0.7,8.2,0.3h-0.1
									c2.2-0.7,4.6-1.5,7.3-2.3l-0.1,0.1c0.3-0.5,0.6-1,0.9-1.5l0,0c0.6-1.5,1.7-3,3.2-4c1.5-1.1,3.2-1.8,5.1-2.2l-0.1,0.1
									c1.9-1.9,3.9-4,5.9-6c7.7-7.8,14.7-14.9,19.8-20.1c2.5-2.5,4.6-4.6,6-6.1c0.7-0.7,1.3-1.2,1.7-1.6c0.2-0.2,0.3-0.3,0.4-0.4
									c0.1-0.1,0.2-0.1,0.2-0.1s0,0.1-0.1,0.2c-0.1,0.1-0.2,0.3-0.4,0.4c-0.4,0.4-0.9,1-1.6,1.7c-1.4,1.5-3.4,3.6-5.9,6.2
									c-5.1,5.2-12,12.3-19.7,20.2c-2,2.1-4,4.1-5.9,6l0,0h-0.1c-3.6,0.7-6.9,3-8.1,6l0,0l0,0c-0.3,0.5-0.6,1-0.9,1.5v0.1H150
									c-2.7,0.8-5.1,1.6-7.3,2.3l0,0l0,0c-3.3-1-6.3-1.2-8.1-0.4c-0.9,0.4-1.4,1-1.6,1.4C132.7,286.9,132.7,287.2,132.6,287.2z"/>
							</g>
						</g>
					</g>
				</g>
				<g>
					<g>
						<g>
							<g>
								<path class="st8" d="M246.1,277.7c0,0,0,0.1-0.2,0.3c-0.1,0.2-0.3,0.4-0.5,0.7c-0.5,0.7-1.1,1.6-1.9,2.8
									c-0.4,0.6-0.9,1.3-1.4,2s-1.2,1.5-1.8,2.3c-1.3,1.6-2.8,3.6-4.6,5.5c-0.9,1-1.8,2-2.8,3.1s-2.1,2-3.2,3.1
									c-0.6,0.5-1.1,1.1-1.7,1.6c-0.6,0.6-1.2,1.1-1.8,1.6c-1.3,1.1-2.6,2.2-3.9,3.3c-5.5,4.3-11.9,8.6-19,12.4
									c-7.2,3.7-14.4,6.5-21.1,8.6c-1.7,0.5-3.3,0.9-4.9,1.3c-0.4,0.1-0.8,0.2-1.2,0.3c-0.4,0.1-0.8,0.2-1.2,0.3
									c-0.8,0.2-1.6,0.3-2.3,0.5c-1.5,0.3-3,0.7-4.4,0.9c-1.4,0.2-2.8,0.4-4.1,0.6c-2.6,0.4-5,0.5-7.1,0.7c-1,0.1-2,0.2-2.9,0.2
									s-1.7,0-2.5,0c-1.5,0-2.6,0-3.4,0c-0.4,0-0.7,0-0.9,0s-0.3,0-0.3,0s0.1,0,0.3,0s0.5,0,0.9,0c0.8,0,1.9,0,3.4-0.1
									c0.7,0,1.6,0,2.5,0s1.9-0.1,2.9-0.2c2.1-0.2,4.5-0.3,7.1-0.7c1.3-0.2,2.7-0.4,4.1-0.6c1.4-0.2,2.9-0.6,4.4-0.9
									c0.8-0.2,1.5-0.3,2.3-0.5c0.4-0.1,0.8-0.2,1.2-0.3c0.4-0.1,0.8-0.2,1.2-0.3c1.6-0.4,3.2-0.9,4.9-1.4
									c6.7-2.1,13.8-4.9,21-8.6c7.1-3.8,13.5-8.1,19-12.4c1.3-1.1,2.6-2.2,3.9-3.3c0.6-0.5,1.3-1,1.8-1.6c0.6-0.6,1.2-1.1,1.7-1.6
									c1.1-1.1,2.2-2.1,3.2-3.1c1-1.1,1.9-2.1,2.8-3c1.9-1.9,3.3-3.8,4.6-5.4c0.7-0.8,1.3-1.6,1.8-2.3c0.5-0.7,1-1.4,1.4-2
									c0.9-1.2,1.5-2.1,2-2.8c0.2-0.3,0.4-0.5,0.5-0.7C246,277.8,246.1,277.7,246.1,277.7z"/>
							</g>
						</g>
					</g>
				</g>
				<g>
					<g>
						<g>
							<g>
								<path class="st8" d="M249.7,260.5c0,0-0.1-0.2-0.1-0.6c-0.1-0.4-0.1-1-0.3-1.8c-0.3-1.5-0.9-3.7-2.1-6.3
									c-1.2-2.5-2.9-5.4-5.4-8.1c-2.5-2.6-5.8-5.2-9.7-6.8c-3.9-1.7-8-2.3-11.7-2.4c-3.7-0.1-7,0.2-9.8,0.6c-2.8,0.4-5,0.8-6.5,1
									c-0.7,0.1-1.3,0.2-1.8,0.3c-0.4,0.1-0.6,0.1-0.6,0.1s0.2-0.1,0.6-0.2c0.4-0.1,1-0.2,1.8-0.4c1.5-0.3,3.8-0.8,6.5-1.2
									c2.8-0.4,6.1-0.8,9.8-0.7s7.8,0.7,11.8,2.4s7.3,4.2,9.8,6.9s4.3,5.6,5.4,8.2c1.1,2.6,1.7,4.8,2,6.3c0.1,0.8,0.2,1.4,0.2,1.8
									C249.7,260.3,249.7,260.5,249.7,260.5z"/>
							</g>
						</g>
					</g>
				</g>
				<g>
					<g>
						<g>
							<g>
								<path class="st8" d="M229.3,201.5c0,0-0.2,0.2-0.5,0.4c-0.4,0.3-0.8,0.7-1.4,1.2c-1.3,1-3.1,2.5-5.3,4.3
									c-4.5,3.6-10.7,8.5-17.5,14c-5.8,4.6-11.1,8.8-15.3,12.1l-0.2,0.1l-0.1-0.2c-1.7-3.3-3.1-6-4.1-7.9
									c-0.5-0.9-0.8-1.6-1.1-2.2c-0.1-0.2-0.2-0.4-0.3-0.6c-0.1-0.1-0.1-0.2-0.1-0.2s0,0.1,0.1,0.2c0.1,0.2,0.2,0.3,0.3,0.6
									c0.3,0.5,0.7,1.2,1.2,2.1c1,1.9,2.5,4.6,4.2,7.8l-0.3-0.1c4.2-3.3,9.5-7.6,15.3-12.2c6.9-5.4,13.1-10.3,17.6-13.9
									c2.2-1.7,4.1-3.2,5.4-4.2c0.6-0.5,1.1-0.8,1.5-1.1C229.2,201.6,229.3,201.5,229.3,201.5z"/>
							</g>
						</g>
					</g>
				</g>
				<g>
					<g>
						<g>
							<g>
								<path class="st8" d="M222.5,210c0.1,0.1-2.9,5.3-6.7,11.6s-7,11.4-7.1,11.4c-0.1-0.1,2.9-5.2,6.7-11.6
									C219.3,215,222.4,209.9,222.5,210z"/>
							</g>
						</g>
					</g>
				</g>
				<g>
					<g>
						<g>
							<g>
								<path class="st8" d="M233,333.4c-0.1,0,0.7-9.3,1.7-20.8c1.1-11.5,2-20.7,2.1-20.7s-0.7,9.3-1.7,20.8
									C234.1,324.2,233.1,333.5,233,333.4z"/>
							</g>
						</g>
					</g>
				</g>
				<g>
					<g>
						<g>
							<g>
								<path class="st8" d="M136.6,333.4c0,0,0-0.2,0.1-0.5c0.1-0.4,0.2-0.8,0.3-1.4c0.3-1.2,0.7-2.9,1.2-5
									c0.9-4.2,2-10.1,2.7-16.7s0.8-12.5,0.7-16.9c0-2.2-0.1-3.9-0.1-5.1c0-0.6,0-1,0-1.4c0-0.3,0-0.5,0-0.5s0,0.2,0.1,0.5
									c0,0.4,0.1,0.8,0.1,1.4c0.1,1.2,0.2,3,0.3,5.1c0.1,4.3,0,10.3-0.6,16.9c-0.7,6.6-1.8,12.5-2.8,16.7c-0.5,2.1-1,3.8-1.3,5
									c-0.2,0.5-0.3,1-0.4,1.3C136.7,333.3,136.7,333.4,136.6,333.4z"/>
							</g>
						</g>
					</g>
				</g>
				<g>
					<g>
						<g>
							<g>
								<path class="st8" d="M145.9,311.6c0,0,0-0.4,0-1c0-0.7,0-1.6,0-2.8c-0.1-2.3-0.3-5.6-0.8-9.1s-1.3-6.7-1.9-8.9
									c-0.3-1.1-0.6-2-0.8-2.7c-0.2-0.6-0.3-1-0.3-1s0.2,0.3,0.4,0.9s0.6,1.5,0.9,2.6c0.7,2.2,1.5,5.4,2,9s0.7,6.8,0.7,9.2
									c0,1.2,0,2.1-0.1,2.8C146,311.2,146,311.6,145.9,311.6z"/>
							</g>
						</g>
					</g>
				</g>
				<g>
					<g>
						<g>
							<g>
								<path class="st8" d="M156.3,312.4c0,0-0.1-0.4-0.1-1.2c0-0.8,0-1.9-0.1-3.3c-0.1-2.8-0.4-6.6-1.2-10.7
									c-0.7-4.2-1.7-7.9-2.5-10.5c-0.4-1.3-0.8-2.4-1-3.1s-0.4-1.1-0.3-1.2c0,0,0.2,0.4,0.5,1.1s0.7,1.8,1.1,3.1
									c0.9,2.6,1.9,6.3,2.7,10.5c0.7,4.2,1,8,1,10.8c0,1.4,0,2.5,0,3.3C156.4,312,156.4,312.4,156.3,312.4z"/>
							</g>
						</g>
					</g>
				</g>
				<g>
					<g>
						<g>
							<path class="st27" d="M54.3,209c0,0-3.4-3-5.4-2.7c-2.4,0.3-2.3,4.1-2.3,4.1c-0.5,2,4.9,7.6,6.9,10.5
								c2,3,15.7,21.2,15.7,21.2l18.2-13c0,0,0,0-0.8-4.9s-9.1-22.1-9.1-22.1s-9.7-15.9-11.2-17.6c-1.4-1.7-11.5-6.6-11.9-6.8
								c0,0-2.9,3.3-0.3,5.5c1.3,1.1,6.9,5,6.9,5l4.9,8.6v0.7l-5.5-7.8c0,0-2.2-2-4.3-2.3c-2-0.3-5.3,0.8-5.3,0.8s-1.8,1.3-1.1,3.7
								l1,1.2l2.3,0.7l3.9,6.2c0,0-3.5-2-4.9-0.8c-1.3,1.1-1.7,2.5-1.6,4.1C50.8,204.8,54.3,209,54.3,209z"/>
						</g>
					</g>
				</g>
				<g>
					<g>
						<g>
							<g>
								<path class="st28" d="M71.5,197.4c0,0.1-0.9,0.1-1.7,0.7c-0.8,0.5-1.2,1.3-1.3,1.2c-0.1,0,0-0.2,0.1-0.6
									c0.2-0.3,0.5-0.7,1-1s1-0.4,1.3-0.4C71.3,197.3,71.5,197.3,71.5,197.4z"/>
							</g>
						</g>
					</g>
				</g>
				<g>
					<g>
						<g>
							<g>
								<path class="st28" d="M60.3,204.6c-0.1,0.1-1.1-1-2.2-2.5c-1.1-1.4-1.9-2.7-1.8-2.8c0.1-0.1,1.1,1,2.2,2.5
									C59.6,203.2,60.4,204.5,60.3,204.6z"/>
							</g>
						</g>
					</g>
				</g>
				<g>
					<g>
						<g>
							<g>
								<path class="st28" d="M56.4,212.5c-0.1,0.1-0.9-0.9-1.7-2.1c-0.9-1.2-1.5-2.3-1.4-2.3c0.1-0.1,0.9,0.9,1.7,2.1
									C55.9,211.4,56.5,212.4,56.4,212.5z"/>
							</g>
						</g>
					</g>
				</g>
				<g>
					<g>
						<g>
							<g>
								<path class="st8" d="M184.2,228c0,0-0.1,0.5-0.4,1.2c-0.2,0.8-0.6,1.9-1,3.4c-0.8,2.9-1.9,6.9-3.1,11.3
									c-1.2,4.4-2.4,8.4-3.3,11.2c-0.5,1.4-0.9,2.6-1.2,3.3c-0.3,0.8-0.5,1.2-0.5,1.2s0.1-0.5,0.4-1.2c0.3-0.8,0.6-1.9,1.1-3.4
									c0.9-2.8,2-6.8,3.2-11.2s2.3-8.4,3.2-11.2c0.4-1.4,0.8-2.6,1.1-3.4C184,228.4,184.2,227.9,184.2,228z"/>
							</g>
						</g>
					</g>
				</g>
				<path class="st32" d="M183.3,203.2c0,0,18.5,0,30.1-17"/>
			</g>
			<path class="st33" d="M70.5,245.5c0,0,14.9-13.8,18.2-15.7l-1.7-3.3c0,0-19.3,12.2-19.3,14.5S70.5,245.5,70.5,245.5z"/>
			<g>
				<circle class="st33" cx="82.4" cy="230.9" r="5.4"/>
				<circle class="st34" cx="82.4" cy="230.9" r="4.6"/>
				<polyline class="st35" points="81.2,228.2 82,231.3 85.1,229.8 				"/>
			</g>
		</g>
	</g>
	<g>
		<defs>
			<path id="SVGID_7_" d="M401.8,379.5c26,0,70.9-3.6,75-4c28-3,66,6,87.6-41.2c38.5-84,14.1-151.6-20.1-202.7
				c-22.1-33.1-61.3-51.2-98.6-58.1c-79.3-14.6-87-25-190.1-21.6c-41,1.4-179.9,30.8-216.3,79.3c-25.5,33.9-18.4,148.5,82,226.1
				c67.5,52.2,95.5-1.5,195.5,11.2C352.4,373,385.4,379.5,401.8,379.5z"/>
		</defs>
		<clipPath id="SVGID_8_">
			<use xlink:href="#SVGID_7_"  style="overflow:visible;"/>
		</clipPath>
		<g class="st36">
			<g>
				<g>
					<g>
						<path class="st37" d="M404,173.3c5.3-25.5,9.9-55.1,46.8-54.3c0,0,22.9,3.2,34.5,19.4c6.8,9.5,14.5,51.7,17.3,85.1l0,0l0,0
							c0.1,1.4,0,10.9,0.1,12.2l-97,13.1l-8,0.9c0,0-1.1-15.5,0-41.6C398.5,190.6,402.1,182.4,404,173.3z"/>
					</g>
				</g>
				<g>
					<g>
						<path class="st27" d="M456.2,128.4l-2.4-2.1l-24.4,11.3c-3.6,0.4-6.3,3.4-6.2,7.1l4.3,81c0.2,5.5,1.6,10.2,5.1,14.4l3.7,4.4
							c8.5,10.1,24.8,8.4,30.6-3.5c0.4-0.8,0.7-1.6,0.8-2.1c0.1-0.7,0.3-1.2,0.3-1.8c0.4-6.6,0.2-12.2,0.2-12.2
							c0.1-7.2,0.1-10.1,0.1-10.1s15.1-2.5,18.3-22.3c1.6-9.8,0.5-23.2-0.8-36.3C484.1,137.9,470.9,127.6,456.2,128.4z"/>
					</g>
				</g>
				<g>
					<path class="st38" d="M465.8,189.6c-0.5-0.8-1.4-1.3-2.3-1.4c-0.1,0-0.1,0-0.2,0h0.1c-2.4-0.2-5.1-0.3-7,0.6
						c-0.7,0.3-0.9,0.9-1.2,1.6c-0.5,1.1,0.3,2.5,1.5,2.7s2.3-0.8,3.5-0.9c0.9-0.1,2.2-0.2,3.1,0s1.6,0.7,2.3,0
						C466.2,191.5,466.3,190.3,465.8,189.6z"/>
				</g>
				<g>
					<g>
						<path class="st38" d="M455.6,179.8c0,0.1-0.7-0.5-1.9-1.1c-1.2-0.6-3-1.3-5.1-1.4c-2.1-0.1-3.9,0.4-5.2,1c-1.3,0.5-1.9,1-2,1
							c0,0,0.1-0.2,0.5-0.4c0.3-0.2,0.8-0.5,1.4-0.8c1.2-0.6,3.1-1.2,5.3-1.1c2.1,0.1,4,0.8,5.2,1.5c0.6,0.4,1.1,0.7,1.4,0.9
							C455.5,179.6,455.6,179.8,455.6,179.8z"/>
					</g>
				</g>
				<g>
					<g>
						<path class="st13" d="M477.9,149.3c0,0,0.2,0.4,0.4,1.2c0.1,0.4,0.1,0.8,0.2,1.3c0,0.3,0,0.5-0.1,0.8s-0.4,0.6-0.8,0.6
							s-0.7-0.2-0.9-0.4c-0.2-0.2-0.3-0.5-0.4-0.7c-0.2-0.5-0.2-1-0.2-1.3c0-0.8,0.3-1.2,0.3-1.2c0.1,0-0.1,0.5-0.1,1.2
							c0,0.4,0.1,0.8,0.3,1.2c0.2,0.4,0.5,0.9,0.9,0.9c0.5,0,0.6-0.6,0.6-1c0-0.5-0.1-0.9-0.1-1.3
							C477.9,149.8,477.8,149.3,477.9,149.3z"/>
					</g>
				</g>
				<g>
					<g>
						<path class="st8" d="M450.6,170.5c0,1.3-1,2.5-2.4,2.6s-2.6-0.9-2.6-2.3c0-1.3,1-2.5,2.4-2.6
							C449.4,168.2,450.6,169.2,450.6,170.5z"/>
					</g>
				</g>
				<g>
					<g>
						<path class="st8" d="M478,170.5c0,1.3-1,2.5-2.4,2.6s-2.6-0.9-2.6-2.3c0-1.3,1-2.5,2.4-2.6C476.8,168.2,477.9,169.2,478,170.5
							z"/>
					</g>
				</g>
				<g>
					<g>
						<path class="st38" d="M466.4,182.5c0-0.2,1.7-0.4,4.4-0.8c0.7-0.1,1.4-0.2,1.5-0.7c0.2-0.5-0.1-1.3-0.5-2.1
							c-0.7-1.7-1.3-3.5-2.1-5.3c-2.9-7.5-4.9-13.8-4.6-13.9c0.3-0.1,2.9,5.9,5.7,13.5c0.7,1.9,1.3,3.6,2,5.3
							c0.3,0.8,0.7,1.7,0.4,2.7c-0.2,0.5-0.7,0.9-1.1,1s-0.8,0.1-1.2,0.2C468.1,182.6,466.4,182.6,466.4,182.5z"/>
					</g>
				</g>
				<g>
					<g>
						<path class="st38" d="M468.3,214.7c0,0-13.3,0.9-26.5-7c0,0,6.7,13.7,26.4,11.8L468.3,214.7z"/>
					</g>
				</g>
				<g>
					<g>
						<path class="st37" d="M443.4,162.9c0.1-0.8,2.6-0.7,5.4-1.5c2.8-0.7,5-1.9,5.4-1.3c0.2,0.3-0.1,1-0.9,1.9
							c-0.8,0.8-2.2,1.7-3.9,2.1c-1.7,0.4-3.3,0.3-4.4,0C443.9,163.7,443.3,163.2,443.4,162.9z"/>
					</g>
				</g>
				<g>
					<g>
						<path class="st37" d="M473.6,161.1c0.5-0.6,2.4,0.1,4.6,0.1c2.3,0.2,4.2-0.3,4.6,0.3c0.2,0.3-0.1,0.9-1,1.5
							c-0.8,0.6-2.2,1-3.8,0.9c-1.6-0.1-2.9-0.7-3.7-1.3C473.7,162.1,473.4,161.4,473.6,161.1z"/>
					</g>
				</g>
				<g>
					<g>
						<path class="st37" d="M425.5,179.2c0,0,10.6-1.5,28.6-31.9c6.5-11.1,9-21.5,9-21.5l-9.3-0.9c0,0-27.1,9.1-27.5,9.5
							s-6.2,14.6-6.2,14.6L425.5,179.2z"/>
					</g>
				</g>
				<g>
					<g>
						<path class="st27" d="M428.9,177.7c0-1.5-1.7-4.9-3.2-5.2c-3.9-0.6-10.9-0.3-10.9,9.6c-0.1,13.5,13.5,10.8,13.5,10.4
							C428.3,192.2,428.9,182.8,428.9,177.7z"/>
					</g>
				</g>
				<g>
					<g>
						<path class="st38" d="M424.2,187.4c-0.1,0-0.2,0.2-0.6,0.3c-0.4,0.2-1.1,0.3-1.8,0c-1.4-0.5-2.6-2.8-2.7-5.2
							c0-1.2,0.2-2.4,0.7-3.4c0.4-1,1.1-1.7,1.8-1.8c0.7-0.2,1.2,0.3,1.4,0.7c0.2,0.4,0.1,0.6,0.2,0.7c0,0,0.3-0.2,0.2-0.8
							c-0.1-0.3-0.2-0.6-0.5-0.8c-0.3-0.3-0.8-0.4-1.3-0.4c-1,0.1-2,1-2.5,2.1s-0.9,2.4-0.8,3.8c0.1,2.7,1.4,5.3,3.4,5.8
							c0.9,0.3,1.7,0,2.1-0.3C424.2,187.7,424.2,187.4,424.2,187.4z"/>
					</g>
				</g>
				<g>
					<g>
						<path class="st39" d="M406.5,228.2c0,0,0-0.1,0-0.3s0-0.5-0.1-1c-0.1-0.9-0.2-2.1-0.3-3.7c-0.3-3.2-0.7-7.8-1.3-13.5
							c-0.3-2.9-0.5-6-0.7-9.3c-0.2-3.4-0.3-7,0-10.8c0.1-1.9,0.4-3.8,0.7-5.8c0.4-2,0.9-3.9,1.5-5.9c1.3-3.9,3.3-7.8,6.2-11.1
							c2.9-3.3,6.5-5.8,10-7.9c3.5-2.1,7-4,10.1-6.2c6.3-4.2,11.1-9.1,14.6-13.6c3.6-4.5,5.9-8.5,7.3-11.3c0.7-1.4,1.3-2.5,1.6-3.3
							c0.2-0.4,0.3-0.7,0.4-0.9c0.1-0.2,0.1-0.3,0.1-0.3s0,0.1-0.1,0.3c-0.1,0.2-0.2,0.5-0.4,0.9c-0.3,0.8-0.8,1.9-1.5,3.4
							c-1.4,2.9-3.7,6.9-7.3,11.4c-3.5,4.5-8.4,9.4-14.7,13.7c-3.1,2.2-6.6,4.1-10.1,6.2c-3.5,2.1-7.1,4.6-9.9,7.9
							c-2.8,3.3-4.8,7.1-6.1,11c-0.7,1.9-1.2,3.9-1.5,5.8c-0.4,1.9-0.6,3.9-0.8,5.7c-0.3,3.8-0.2,7.4,0,10.7
							c0.2,3.4,0.4,6.5,0.6,9.3c0.5,5.7,0.9,10.3,1.1,13.5c0.1,1.6,0.2,2.8,0.2,3.7c0,0.4,0,0.7,0,1
							C406.5,228.1,406.5,228.2,406.5,228.2z"/>
					</g>
				</g>
			</g>
			<g>
				<g>
					<path class="st40" d="M515.1,381l-15.4-63.6c0,0,0.2-3.5,3.7-16.3c3.4-12.8-3.4-27.4-3.4-27.4l-6-40.7c-2.7-2.8-24.5-5-24.5-5
						s-2.3,9.9-18.1,11.5c-15.8,1.5-24.5-11.5-24.5-11.5c-11.2-0.6-24.7-0.6-24.7-0.6l0.9,37.9l2.5,56.6l-10.6,59L515.1,381
						L515.1,381z"/>
				</g>
				<g>
					<path class="st40" d="M403.1,227.5c0,0-19.3,2-19,28.2c0.2,22.2,2.8,47.1,2.8,47.1l37.1-15L413.4,251
						C413.4,250.4,403.1,227.5,403.1,227.5z"/>
				</g>
				<g>
					<path class="st40" d="M513.9,251.1c-3.7-7.9-6.4-11.7-11.1-15.3c-2.2-1.7-14.2-4.8-14.2-4.8v35.5l7.2,35.5l35.1-11.1
						C530.8,290.9,518.8,261.5,513.9,251.1z"/>
				</g>
				<g>
					<g>
						<path class="st41" d="M491.1,260.5c0,0,0.1,0.1,0.4,0.4c0.2,0.3,0.6,0.7,1.1,1.2c0.9,1.1,2.1,2.6,3.5,4.7
							c2.7,4.1,5.7,10.4,7,17.9c0.7,3.7,0.9,7.3,0.7,10.6c-0.2,3.3-0.7,6.2-1.1,8.6c-0.5,2.4-1,4.4-1.3,5.7
							c-0.2,0.6-0.3,1.2-0.4,1.5s-0.2,0.5-0.2,0.5s0-0.2,0.1-0.5c0.1-0.4,0.2-0.9,0.3-1.6c0.3-1.3,0.7-3.3,1.2-5.7
							c0.5-2.4,0.9-5.3,1.1-8.6c0.1-3.2-0.1-6.8-0.7-10.5c-1.3-7.4-4.3-13.7-6.9-17.8c-1.3-2.1-2.5-3.7-3.4-4.8
							c-0.4-0.5-0.8-0.9-1-1.2C491.2,260.7,491.1,260.5,491.1,260.5z"/>
					</g>
				</g>
				<g>
					<g>
						<path class="st41" d="M493.5,263.7c-0.1,0,0.4-1.8,1.1-4s1.4-4,1.5-3.9c0.1,0-0.4,1.8-1.1,4
							C494.3,262,493.6,263.7,493.5,263.7z"/>
					</g>
				</g>
				<g>
					<g>
						<path class="st41" d="M410.2,248.3c0.1,0,3.1,8.9,6.7,20c3.6,11.1,6.4,20.1,6.3,20.1s-3.1-8.9-6.7-20
							C412.9,257.4,410.1,248.4,410.2,248.3z"/>
					</g>
				</g>
			</g>
			<g>
				<g>
					<path class="st27" d="M439.5,318.1c0,0-18.1-9.2-22.3-10.3c-4.3-1.1-17.7,1.9-17.8,5.1c-0.2,3.2,0,5.1,0,5.1s-4,2.8-2.3,5.7
						c1.7,2.9,3.4,2.9,3.4,2.9s-2.4,2.1-1.1,4.1c1.4,2,2.7,4.4,2.7,4.4s-0.6,2.6,1,3.7s12.4,2.7,20.2,2.3c7.8-0.5,11.6-1.5,11.6-1.5
						L439.5,318.1z"/>
				</g>
				<g>
					<g>
						<path class="st27" d="M527.9,291.8c0.6,1.7,6.2,33.2,5.7,44.2c-0.5,11.2-6.2,17.1-17.6,16.1c-11.4-1-63.4-8.2-76.4-20.4
							l-7.5-4.6l8-18c0,0,11.9,6.1,19.9,8.4s43.6,0.1,43.6,0.1l-1.2-12.1l0.8-5.9l0,0L527.9,291.8z"/>
					</g>
					<g>
						<g>
							<path class="st38" d="M518.4,333.2c-0.1,0-0.2-1.3-0.8-3.4c-0.7-2-2-4.7-4.4-7c-2.3-2.3-5.1-3.6-7.1-4.2
								c-2.1-0.6-3.4-0.7-3.4-0.7s0.3,0,0.9,0c0.6,0.1,1.5,0.2,2.5,0.5c2.1,0.5,4.9,1.8,7.3,4.2c2.4,2.3,3.8,5.1,4.4,7.2
								c0.3,1,0.5,1.9,0.5,2.5C518.4,332.9,518.4,333.2,518.4,333.2z"/>
						</g>
					</g>
				</g>
				<g>
					<g>
						<path class="st27" d="M445.9,231.2l-18.2,66.3l-4.9-9.2L392,300.8c1.6,4,3.8,10.2,8,18.1c13.3,25.3,30.9,26.8,41.8,23.4
							s17.8-40,20.1-55.7c2.7-18.1,3.2-57.1,3.2-57.1L445.9,231.2z"/>
					</g>
					<g>
						<g>
							<path class="st38" d="M424.8,326.4c0,0-0.2-0.4-0.4-1.1c-0.1-0.4-0.3-0.8-0.4-1.4c-0.1-0.5-0.3-1.1-0.4-1.8
								c-0.1-0.7-0.3-1.4-0.4-2.2c-0.1-0.8-0.2-1.7-0.2-2.6c-0.1-1.8,0-3.9,0.2-6c0.5-4.2,1.6-7.9,2.6-10.5c0.2-0.7,0.5-1.2,0.7-1.7
								s0.4-0.9,0.6-1.3c0.3-0.7,0.6-1.1,0.6-1.1s-0.1,0.4-0.4,1.1c-0.2,0.4-0.3,0.8-0.5,1.3s-0.4,1.1-0.7,1.7
								c-0.9,2.6-2,6.3-2.5,10.5c-0.3,2.1-0.3,4.1-0.3,5.9c0,0.9,0.1,1.8,0.2,2.6c0.1,0.8,0.2,1.6,0.3,2.2c0.1,0.7,0.3,1.3,0.4,1.8
								s0.2,1,0.4,1.4C424.7,325.9,424.8,326.4,424.8,326.4z"/>
						</g>
					</g>
					<g>
						<g>
							<path class="st38" d="M457.6,307.7c0,0,0,0.1,0,0.4s-0.1,0.6-0.2,1.1c-0.1,1-0.4,2.3-0.7,4c-0.7,3.4-1.8,8-3.5,13
								s-4,9.3-6.2,12c-1.1,1.4-2.1,2.3-2.9,2.9c-0.4,0.3-0.7,0.5-1,0.6c-0.2,0.1-0.3,0.2-0.4,0.2c0,0,0.1-0.1,0.3-0.2
								c0.2-0.1,0.5-0.3,0.9-0.6c0.8-0.6,1.8-1.5,2.8-2.9c2.1-2.7,4.3-7,6-12s2.9-9.6,3.6-13c0.4-1.7,0.7-3,0.9-4
								c0.1-0.4,0.2-0.8,0.2-1.1C457.5,307.9,457.5,307.7,457.6,307.7z"/>
						</g>
					</g>
					<g>
						<g>
							<g>
								<path class="st27" d="M464.7,242.6c0,0,0.5-11.2,0.7-15.7c0.2-4.4-7-21.9-7.1-22.3c-0.2-0.4-1-5.9-1-5.9s1.6,0.8,3.1-1.3
									c0.9-1.2-0.6-5.1-1.9-6c-1.3-0.8-3.5-0.1-3.5-0.1s0-2.5-3.8-2.4c0,0-0.5-3.9-8.5-2.6c0,0,0.1-1-2.3-0.8s-9.2,1.6-9.6,3.2
									c-0.5,1.6,1.5,11.2,1.5,13.8s0.1,2.9,1.2,5.3c1.1,2.4,10.4,17.6,12.6,20.9l-2.6,11"/>
							</g>
							<g>
								<g>
									<path class="st38" d="M443.5,239.7c0,0,0-0.1,0-0.2c0-0.1,0.1-0.3,0.1-0.6c0.1-0.5,0.3-1.2,0.5-2.1
										c0.4-1.9,1.1-4.6,1.9-8.1v0.1c-1.7-2.5-3.6-5.6-5.7-9s-4.5-7.2-6.9-11.5c-0.3-0.5-0.5-1.1-0.8-1.7
										c-0.3-0.6-0.5-1.2-0.5-1.8c-0.1-1.3,0-2.6-0.2-3.8c-0.3-2.6-0.7-5.2-1.1-8c-0.1-0.7-0.2-1.4-0.2-2.1
										c-0.1-0.7-0.1-1.4,0-2.2c0.1-0.4,0.4-0.7,0.7-0.9c0.3-0.2,0.6-0.4,1-0.5c0.7-0.3,1.3-0.5,2-0.8c1.4-0.4,2.8-0.7,4.3-1
										c0.7-0.1,1.5-0.2,2.2-0.2c0.4,0,0.8,0,1.2,0.1c0.4,0.1,0.8,0.3,0.9,0.9l-0.2-0.2c0.4-0.1,0.9-0.1,1.3-0.2
										c0.5,0,0.9-0.1,1.4-0.1c1.2,0,2.4,0.1,3.5,0.5s2.2,1.2,2.4,2.5l-0.2-0.2c0.9,0,1.8,0.1,2.6,0.5c0.8,0.4,1.4,1.2,1.5,2.1
										L455,191c0.6-0.2,1.2-0.3,1.8-0.3c0.6,0,1.3,0.1,1.8,0.4c0.5,0.4,0.9,0.9,1.2,1.4c0.3,0.5,0.5,1.1,0.7,1.6
										c0.2,0.6,0.3,1.1,0.4,1.7c0,0.3,0,0.6-0.1,0.9c-0.1,0.3-0.2,0.6-0.4,0.8c-0.4,0.5-0.8,0.9-1.4,1.1c-0.6,0.2-1.2,0.3-1.8,0
										l0.2-0.2c0.3,1.6,0.5,3.2,0.8,4.8c0.1,0.4,0.1,0.8,0.2,1.1c0.1,0.4,0.3,0.7,0.4,1.1c0.3,0.7,0.6,1.4,0.8,2.1
										c1.1,2.8,2.1,5.5,3,8.1s1.7,5,2.2,7.4c0.1,0.6,0.3,1.2,0.4,1.7c0,0.3,0.1,0.6,0.1,0.8c0,0.3,0,0.6,0,0.8
										c0,1.1-0.1,2.1-0.1,3.1c-0.2,4-0.4,7.1-0.5,9.3c-0.1,1.1-0.1,1.9-0.1,2.5c0,0.3,0,0.5,0,0.6s0,0.2,0,0.2s0-0.1,0-0.2
										c0-0.2,0-0.4,0-0.6c0-0.6,0-1.4,0.1-2.5c0.1-2.2,0.2-5.3,0.4-9.3c0-1,0.1-2,0.1-3.1c0-0.3,0-0.5,0-0.8s-0.1-0.6-0.1-0.8
										c-0.1-0.6-0.2-1.1-0.4-1.7c-0.6-2.3-1.4-4.7-2.3-7.3s-1.9-5.3-3-8.1c-0.3-0.7-0.6-1.4-0.9-2.1c-0.1-0.4-0.3-0.7-0.4-1.1
										c-0.1-0.4-0.2-0.8-0.3-1.2c-0.3-1.6-0.5-3.2-0.8-4.8v-0.3l0.3,0.1c0.4,0.2,1,0.2,1.5,0s0.9-0.6,1.2-1
										c0.4-0.4,0.4-0.9,0.4-1.5c0-0.5-0.2-1.1-0.3-1.6c-0.2-0.5-0.4-1.1-0.7-1.6c-0.3-0.5-0.6-1-1.1-1.3s-1-0.4-1.6-0.3
										c-0.6,0-1.2,0.1-1.7,0.3l-0.2,0.1v-0.2c0-0.7-0.6-1.5-1.3-1.8c-0.7-0.4-1.5-0.5-2.4-0.5H451v-0.2c-0.1-0.5-0.4-1-0.8-1.3
										c-0.4-0.4-0.9-0.6-1.4-0.9c-1.1-0.4-2.2-0.5-3.4-0.5c-0.5,0-0.9,0-1.4,0.1s-0.9,0.1-1.3,0.2h-0.2V186
										c0-0.2-0.3-0.5-0.6-0.5c-0.3-0.1-0.7-0.1-1-0.1c-0.7,0-1.5,0.1-2.2,0.2c-1.4,0.2-2.9,0.6-4.2,1c-0.7,0.2-1.4,0.4-2,0.7
										c-0.3,0.1-0.6,0.3-0.9,0.5s-0.5,0.4-0.6,0.7c-0.1,0.6,0,1.4,0,2c0.1,0.7,0.1,1.4,0.2,2.1c0.3,2.7,0.8,5.4,1.1,8
										c0.2,1.3,0.1,2.6,0.2,3.8s0.8,2.3,1.3,3.4c2.3,4.2,4.7,8.1,6.8,11.5c2.1,3.4,4,6.5,5.6,9l0,0l0,0c-0.8,3.5-1.5,6.2-2,8.1
										c-0.2,0.9-0.4,1.6-0.5,2.1c-0.1,0.2-0.1,0.4-0.1,0.5C443.5,239.7,443.5,239.7,443.5,239.7z"/>
								</g>
							</g>
						</g>
						<g>
							<g>
								<g>
									<path class="st38" d="M456.8,195.4c0,0,0.2,0.1,0.4,0.5c0.2,0.3,0.3,0.8,0.4,1.4c0.1,1.1,0,1.9-0.1,2
										c-0.1,0-0.2-0.9-0.3-1.9C457.1,196.2,456.7,195.4,456.8,195.4z"/>
								</g>
							</g>
							<g>
								<g>
									<path class="st38" d="M455,191.5c0,0-0.6,0.5-1.7,1c-0.6,0.3-1.3,0.5-1.8,1.1c-0.6,0.6-0.8,1.4-0.8,2.3
										c-0.1,1.9,0.2,3.5,0.5,4.8c0.2,1.2,0.5,1.9,0.4,2c0,0-0.3-0.7-0.7-1.9c-0.3-1.2-0.7-2.9-0.6-4.8c0-0.5,0.1-1,0.2-1.4
										c0.2-0.5,0.4-0.8,0.7-1.1c0.6-0.6,1.4-0.9,1.9-1.1C454.3,191.8,455,191.4,455,191.5z"/>
								</g>
							</g>
							<g>
								<g>
									<path class="st38" d="M451.2,189c0,0-0.2,0.1-0.7,0.2c-0.5,0.1-1.1,0.3-2,0.5s-1.8,0.4-2.9,0.7c-0.5,0.1-1.1,0.3-1.4,0.8
										s-0.4,1.1-0.5,1.7c0,0.6,0.1,1.3,0.1,1.9c0,0.6,0.1,1.2,0.1,1.8c0.1,1.1,0.1,2.1,0.2,3s0.1,1.5,0.1,2s0,0.7,0,0.7
										s-0.1-0.3-0.1-0.7c-0.1-0.5-0.1-1.2-0.2-2c-0.1-0.9-0.2-1.9-0.3-3c-0.1-0.6-0.1-1.2-0.2-1.8c0-0.6-0.1-1.2-0.1-1.9
										s0.1-1.4,0.5-1.9c0.4-0.6,1.1-0.8,1.6-0.9c1.1-0.2,2.1-0.4,3-0.6c0.8-0.2,1.5-0.3,2-0.4C450.9,189,451.2,189,451.2,189z"/>
								</g>
							</g>
							<g>
								<g>
									<path class="st38" d="M446.5,209.8c0,0-0.3,0-0.7-0.3c-0.4-0.3-0.9-0.8-1.2-1.4c-0.3-0.7-0.3-1.4-0.1-1.8
										c0.1-0.5,0.3-0.7,0.3-0.7c0.1,0-0.3,1.1,0.2,2.4C445.5,209.2,446.6,209.7,446.5,209.8z"/>
								</g>
							</g>
							<g>
								<g>
									<path class="st38" d="M454.7,209.5c0,0-0.3,0-0.7-0.3c-0.4-0.3-0.9-0.8-1.2-1.4c-0.3-0.7-0.5-1.3-0.4-1.8
										c0-0.5,0.1-0.8,0.2-0.8s0,1.2,0.6,2.4C453.7,208.8,454.8,209.4,454.7,209.5z"/>
								</g>
							</g>
							<g>
								<g>
									<path class="st38" d="M441,210.8c0,0-0.3-0.1-0.7-0.5c-0.4-0.4-0.9-1-1.2-1.9c-0.3-0.8-0.3-1.6-0.2-2.2
										c0.1-0.6,0.2-0.9,0.3-0.9c0.1,0-0.3,1.4,0.3,2.9C439.9,209.9,441,210.8,441,210.8z"/>
								</g>
							</g>
							<g>
								<g>
									<path class="st38" d="M443,186.4c0,0-0.3,0.1-0.7,0.3c-0.5,0.2-1.1,0.4-1.9,0.8c-0.4,0.2-0.8,0.4-1.3,0.6
										c-0.5,0.2-0.9,0.5-1.3,0.8c-0.9,0.7-1.5,1.8-1.3,3.1s0.4,2.5,0.6,3.6s0.4,2.1,0.5,3s0.3,1.5,0.3,2c0.1,0.5,0.1,0.7,0.1,0.7
										s-0.1-0.3-0.2-0.7c-0.1-0.5-0.3-1.2-0.4-2c-0.2-0.9-0.4-1.9-0.6-3s-0.5-2.3-0.7-3.7c-0.1-0.7,0-1.4,0.3-2s0.7-1.1,1.2-1.4
										c0.5-0.4,1-0.6,1.4-0.8c0.5-0.2,0.9-0.4,1.3-0.5C441.9,186.5,443,186.3,443,186.4z"/>
								</g>
							</g>
						</g>
					</g>
					<g>
						<g>
							<path class="st38" d="M423,341.9c0,0-0.1,0-0.4-0.1s-0.6-0.3-1.1-0.4c-0.9-0.4-2.2-1-3.8-1.8c-3.1-1.7-7.1-4.7-10.5-9
								c-3.4-4.2-5.8-8.6-7.4-11.7c-0.8-1.6-1.4-2.9-1.9-3.8c-0.2-0.4-0.4-0.8-0.5-1s-0.2-0.4-0.1-0.4c0,0,0.1,0.1,0.2,0.3
								c0.1,0.3,0.3,0.6,0.5,1c0.5,0.9,1.2,2.2,2,3.7c1.7,3.1,4.1,7.4,7.5,11.6s7.3,7.2,10.4,9c1.5,0.9,2.8,1.5,3.7,1.9
								c0.4,0.2,0.8,0.4,1,0.5C422.9,341.8,423,341.9,423,341.9z"/>
						</g>
					</g>
				</g>
			</g>
			<g>
				<path class="st17" d="M426.1,194c0,2.1-1.7,3.7-3.7,3.7c-2.1,0-3.7-1.7-3.7-3.7c0-2.1,1.7-3.7,3.7-3.7S426.1,192,426.1,194z"/>
			</g>
			<g>
				<g>
					<g>
						<g>
							<path class="st37" d="M509.2,242.2c-3.3-6.4-5.9-13.8-7-24.1l-33.9,0.6c0.3,12.5-2.1,27.4-2.4,39.2c12.3,1.2,21.8,1,34.4-0.7
								c0.3-3.4-1.8-6.6-1.5-10c1,2.5,4.4,4.7,5.4,7.2c3.4-1.3,9.4-5.2,9.4-5.2C513.6,249.6,510.8,245.3,509.2,242.2z"/>
						</g>
					</g>
				</g>
				<g>
					<g>
						<path class="st39" d="M485.5,253.5c0,0,0-0.2-0.1-0.5c0-0.4-0.1-0.8-0.2-1.4c-0.2-1.2-0.3-3-0.5-5.2
							c-0.4-4.4-0.7-10.5-0.6-17.2s0.5-12.8,0.9-17.2c0.2-2.2,0.4-4,0.6-5.2c0.1-0.6,0.1-1,0.2-1.4c0-0.3,0.1-0.5,0.1-0.5
							s0,0.2,0,0.5c0,0.4-0.1,0.8-0.1,1.4c-0.1,1.2-0.3,3-0.5,5.2c-0.4,4.4-0.7,10.5-0.8,17.2c0,6.7,0.2,12.8,0.5,17.2
							c0.2,2.2,0.3,4,0.4,5.2c0,0.6,0.1,1.1,0.1,1.4C485.5,253.3,485.5,253.5,485.5,253.5z"/>
					</g>
				</g>
				<g>
					<g>
						<path class="st39" d="M506.3,247.6c0,0,0,0-0.1-0.1s-0.2-0.3-0.3-0.5c-0.2-0.4-0.5-1-0.9-1.7c-0.4-0.8-0.9-1.7-1.4-2.8
							s-1.2-2.3-1.8-3.8c-0.6-1.4-1.3-2.9-2-4.6c-0.7-1.7-1.4-3.5-2.1-5.4c-1.4-3.8-2.8-8.1-4-12.7c-1.2-4.6-2.1-9-2.8-13
							c-0.3-2-0.6-3.9-0.8-5.7c-0.2-1.8-0.4-3.5-0.5-5c-0.2-1.5-0.2-2.9-0.3-4.2c-0.1-1.2-0.1-2.3-0.1-3.1s0-1.5,0-2
							c0-0.2,0-0.4,0-0.5s0-0.2,0-0.2s0,0.1,0,0.2c0,0.1,0,0.3,0,0.5c0,0.5,0.1,1.1,0.1,2s0.1,1.9,0.2,3.1c0.1,1.2,0.2,2.6,0.4,4.1
							c0.2,1.5,0.3,3.2,0.6,5c0.2,1.8,0.5,3.7,0.9,5.7c0.7,4,1.6,8.4,2.8,12.9c1.2,4.5,2.6,8.8,4,12.6c0.7,1.9,1.4,3.7,2.1,5.4
							s1.3,3.2,2,4.6c0.6,1.4,1.2,2.7,1.7,3.8s1,2.1,1.4,2.8c0.4,0.8,0.7,1.3,0.9,1.8c0.1,0.2,0.2,0.3,0.2,0.5
							C506.3,247.6,506.3,247.6,506.3,247.6z"/>
					</g>
				</g>
			</g>
		</g>
	</g>
</g>
</svg>
