<?xml version="1.0" encoding="utf-8"?>
<!-- Generator: Adobe Illustrator 24.1.2, SVG Export Plug-In . SVG Version: 6.00 Build 0)  -->
<svg version="1.1" id="Слой_1" xmlns="http://www.w3.org/2000/svg" xmlns:xlink="http://www.w3.org/1999/xlink" x="0px" y="0px"
	 viewBox="0 0 764 396" style="enable-background:new 0 0 764 396;" xml:space="preserve">
<style type="text/css">
	.st0{opacity:0.3;fill:#9BC1F9;enable-background:new    ;}
	.st1{fill:#E25A44;}
	.st2{fill:#FCF5EB;}
	.st3{fill:#184655;}
	.st4{fill:#86B1F2;}
	.st5{fill:#F47458;}
	.st6{fill:#FFFFFF;}
	.st7{opacity:0.3;fill:#F7CC7F;enable-background:new    ;}
	.st8{fill:#355389;}
	.st9{fill:#3C8F7C;}
	.st10{fill:#50BFA5;}
	.st11{fill:#C6D9DB;}
	.st12{fill:#A1B4B5;}
	.st13{fill:#577D7D;}
	.st14{fill:#759696;}
	.st15{fill:#052C3D;}
	.st16{fill:#5C7579;}
	.st17{fill:#084561;}
	.st18{fill:#0F2E35;}
	.st19{fill:#5C767D;}
	.st20{fill:#0E2E35;}
	.st21{fill:#5E4C40;}
	.st22{fill:#9B7E64;}
	.st23{fill:#725A47;}
	.st24{fill:#CCAA85;}
	.st25{fill:#D1B599;}
	.st26{fill:#B59472;}
	.st27{fill:#2E3552;}
</style>
<g id="Слой_2_1_">
</g>
<path class="st0" d="M77.9,381h600.8c49.8-32.9,24.2-131.8-17.4-151.8c-44.8-21.6,26.3-96.2-42.6-120.5
	c-45-15.8-106.1,1.9-135.9-32.2c-35-40-93.2-88.7-201.6-50.9C197.6,54.8,243,111.1,106.3,128c-70.3,8.7-56.7,83.2-50.2,98.6
	c5.7,13.4,43.5,34.7-9,64C-30,333.7,76.1,380.2,77.9,381z"/>
<g>
	<rect x="649.5" y="193.6" class="st1" width="1.1" height="7.2"/>
	<rect x="641.2" y="193.6" class="st1" width="1.1" height="7.2"/>
	<rect x="632.8" y="193.6" class="st1" width="1.1" height="7.2"/>
	<rect x="624.4" y="193.6" class="st1" width="1.1" height="7.2"/>
	<rect x="650.6" y="257.1" class="st2" width="9.7" height="120.7"/>
	<rect x="616" y="193.6" class="st1" width="1.1" height="7.2"/>
	<rect x="607.7" y="193.6" class="st1" width="1.1" height="7.2"/>
	<rect x="599.3" y="193.6" class="st1" width="1.1" height="7.2"/>
	<rect x="590.9" y="193.6" class="st1" width="1.1" height="7.2"/>
	<rect x="541.4" y="192.6" class="st2" width="42.1" height="7.2"/>
	<rect x="650.3" y="208.8" class="st2" width="68.5" height="39.6"/>
	<rect x="650.3" y="208.8" class="st2" width="8.1" height="39.6"/>
	<rect x="617.2" y="206.9" class="st3" width="104.7" height="3.8"/>
	<rect x="700.6" y="216.2" class="st4" width="15.6" height="20.9"/>
	<rect x="681.1" y="216.1" class="st4" width="15.6" height="20.9"/>
	<rect x="661.9" y="216.2" class="st4" width="15.6" height="20.9"/>
	<rect x="464.4" y="208.8" class="st2" width="68.5" height="39.6"/>
	<rect x="524.8" y="208.8" class="st2" width="8.1" height="39.6"/>
	<rect x="650.2" y="248.9" class="st2" width="86.5" height="132"/>
	<rect x="617.1" y="247.1" class="st3" width="122.9" height="3.8"/>
	<rect x="697.2" y="257.1" class="st4" width="33.3" height="20.9"/>
	<rect x="697.3" y="281.4" class="st4" width="33.3" height="20.9"/>
	<rect x="697.2" y="305.6" class="st4" width="33.3" height="20.9"/>
	<rect x="697.3" y="329.8" class="st4" width="33.3" height="20.9"/>
	<rect x="697.2" y="354.1" class="st4" width="33.3" height="20.9"/>
	<rect x="660.3" y="257.1" class="st4" width="33.3" height="20.9"/>
	<rect x="660.4" y="281.4" class="st4" width="33.3" height="20.9"/>
	<rect x="660.3" y="305.6" class="st4" width="33.3" height="20.9"/>
	<rect x="660.4" y="329.8" class="st4" width="33.3" height="20.9"/>
	<rect x="660.3" y="354.1" class="st4" width="33.3" height="20.9"/>
	<rect x="446.3" y="249" class="st2" width="86.5" height="132"/>
	<rect x="445.3" y="377.8" class="st5" width="87.6" height="3.1"/>
	<rect x="649.9" y="377.8" class="st5" width="87.6" height="3.1"/>
	<rect x="524.8" y="249" class="st2" width="8.1" height="132"/>
	<rect x="461.3" y="206.9" class="st3" width="104.7" height="3.8"/>
	<rect x="532.9" y="201.6" class="st2" width="117.7" height="45.6"/>
	<rect x="532.9" y="251.3" class="st2" width="117.7" height="129.7"/>
	<rect x="539.9" y="262.2" class="st4" width="103.7" height="65.1"/>
	<rect x="452.4" y="257" class="st4" width="33.3" height="20.9"/>
	<rect x="452.5" y="281.3" class="st4" width="33.3" height="20.9"/>
	<rect x="452.4" y="305.5" class="st4" width="33.3" height="20.9"/>
	<rect x="452.4" y="329.8" class="st4" width="33.3" height="20.9"/>
	<rect x="452.4" y="354" class="st4" width="33.3" height="20.9"/>
	<rect x="489.3" y="257.1" class="st4" width="33.3" height="20.9"/>
	<rect x="467" y="216.2" class="st4" width="15.6" height="20.9"/>
	<rect x="486.5" y="216.1" class="st4" width="15.6" height="20.9"/>
	<rect x="505.6" y="216.2" class="st4" width="15.6" height="20.9"/>
	<rect x="489.3" y="281.3" class="st4" width="33.3" height="20.9"/>
	<rect x="489.3" y="305.5" class="st4" width="33.3" height="20.9"/>
	<rect x="489.3" y="329.8" class="st4" width="33.3" height="20.9"/>
	<rect x="489.3" y="354" class="st4" width="33.3" height="20.9"/>
	<rect x="575.7" y="348.4" class="st1" width="33.8" height="32.8"/>
	<rect x="466.5" y="236.3" class="st3" width="16.5" height="1.1"/>
	<rect x="486" y="236.3" class="st3" width="16.5" height="1.1"/>
	<rect x="505.2" y="236.3" class="st3" width="16.5" height="1.1"/>
	<rect x="661.3" y="236.3" class="st3" width="16.5" height="1.1"/>
	<rect x="680.8" y="236.3" class="st3" width="16.5" height="1.1"/>
	<rect x="700" y="236.3" class="st3" width="16.5" height="1.1"/>
	<rect x="446.3" y="257.1" class="st2" width="6.1" height="118.8"/>
	<rect x="488.9" y="276.9" class="st3" width="34.1" height="1.1"/>
	<rect x="452" y="301.1" class="st3" width="34.1" height="1.1"/>
	<rect x="488.9" y="301.1" class="st3" width="34.1" height="1.1"/>
	<rect x="452" y="325.4" class="st3" width="34.1" height="1.1"/>
	<rect x="488.9" y="325.4" class="st3" width="34.1" height="1.1"/>
	<rect x="452" y="349.6" class="st3" width="34.1" height="1.1"/>
	<rect x="488.9" y="349.6" class="st3" width="34.1" height="1.1"/>
	<rect x="539.8" y="327.3" class="st3" width="105.5" height="1.1"/>
	<rect x="452" y="373.9" class="st3" width="34.1" height="1.1"/>
	<rect x="488.9" y="373.9" class="st3" width="34.1" height="1.1"/>
	<rect x="452" y="276.9" class="st3" width="34.1" height="1.1"/>
	<rect x="485.7" y="256.9" class="st2" width="3.6" height="118.9"/>
	<rect x="451.2" y="350.7" class="st2" width="71.8" height="3.3"/>
	<rect x="451.2" y="326.5" class="st2" width="71.8" height="3.3"/>
	<rect x="451.2" y="302.2" class="st2" width="71.8" height="3.3"/>
	<rect x="451.2" y="278" class="st2" width="71.8" height="3.3"/>
	<rect x="693.7" y="256.9" class="st2" width="3.6" height="118.9"/>
	<rect x="659.2" y="350.7" class="st2" width="71.8" height="3.3"/>
	<rect x="659.2" y="326.5" class="st2" width="71.8" height="3.3"/>
	<rect x="659.2" y="302.2" class="st2" width="71.8" height="3.3"/>
	<rect x="659.2" y="278" class="st2" width="71.8" height="3.3"/>
	<rect x="696.8" y="276.9" class="st3" width="34.1" height="1.1"/>
	<rect x="659.9" y="301.1" class="st3" width="34.1" height="1.1"/>
	<rect x="696.8" y="301.1" class="st3" width="34.1" height="1.1"/>
	<rect x="659.9" y="325.4" class="st3" width="34.1" height="1.1"/>
	<rect x="696.8" y="325.4" class="st3" width="34.1" height="1.1"/>
	<rect x="659.9" y="349.6" class="st3" width="34.1" height="1.1"/>
	<rect x="696.8" y="349.6" class="st3" width="34.1" height="1.1"/>
	<rect x="659.9" y="373.9" class="st3" width="34.1" height="1.1"/>
	<rect x="696.8" y="373.9" class="st3" width="34.1" height="1.1"/>
	<rect x="659.9" y="276.9" class="st3" width="34.1" height="1.1"/>
	<rect x="532.9" y="201.6" class="st2" width="117.7" height="9.1"/>
	<rect x="530.3" y="199.8" class="st3" width="122.9" height="3.8"/>
	<rect x="540.3" y="188.8" class="st3" width="44.2" height="3.8"/>
	<rect x="537.5" y="339" class="st3" width="108.4" height="9.4"/>
	<rect x="592.4" y="348.4" class="st5" width="0.3" height="32.8"/>
	<rect x="637.4" y="348.4" class="st5" width="6.1" height="32.5"/>
	<rect x="539.8" y="348.4" class="st5" width="6.1" height="32.5"/>
	<rect x="578.1" y="350.1" class="st4" width="12.1" height="23.7"/>
	<rect x="594.8" y="350.2" class="st4" width="12.1" height="23.7"/>
	<rect x="565" y="261.5" class="st2" width="0.9" height="69.2"/>
	<rect x="617.7" y="261.5" class="st2" width="0.9" height="69.2"/>
	<rect x="591" y="261.5" class="st2" width="0.9" height="69.2"/>
	<rect x="538.6" y="295.6" class="st2" width="107.7" height="0.9"/>
	<rect x="651.6" y="319.6" class="st2" width="8.8" height="57.2"/>
	<path class="st6" d="M610.3,295.9c0,10.1-8.2,18.4-18.4,18.4c-10.1,0-18.4-8.2-18.4-18.4c0-10.1,8.2-18.4,18.4-18.4
		C602,277.5,610.3,285.7,610.3,295.9z"/>
	<ellipse class="st1" cx="591.9" cy="295.9" rx="16.7" ry="16.7"/>
	<polygon class="st6" points="593.7,284.8 590.3,284.7 590.2,294.2 580.8,294.2 580.8,297.6 590.2,297.6 590.1,307 593.5,307 
		593.6,297.6 603,297.5 603,294.2 593.6,294.2 	"/>
	<rect x="583.5" y="193.6" class="st1" width="67.1" height="1.1"/>
	<rect x="650.6" y="250.9" class="st2" width="8.1" height="129.4"/>
	<rect x="540.3" y="213.8" class="st7" width="7.6" height="2.9"/>
	<rect x="534.3" y="218.3" class="st7" width="7.6" height="2.9"/>
	<rect x="539.1" y="223.1" class="st7" width="7.8" height="2.5"/>
	<rect x="544.1" y="218.5" class="st7" width="7.6" height="2.5"/>
	<rect x="558.9" y="231.4" class="st7" width="7.6" height="2.9"/>
	<rect x="552.8" y="235.9" class="st7" width="7.6" height="2.9"/>
	<rect x="557.6" y="240.7" class="st7" width="7.8" height="2.5"/>
	<rect x="562.7" y="236.2" class="st7" width="7.6" height="2.5"/>
	<rect x="592.1" y="223.4" class="st7" width="6.2" height="2.2"/>
	<rect x="596.2" y="219.8" class="st7" width="6.2" height="2.2"/>
	<rect x="581" y="235.4" class="st7" width="6.2" height="2.2"/>
	<rect x="585.1" y="231.8" class="st7" width="6.2" height="2.2"/>
	<rect x="560.4" y="356.2" class="st7" width="6.2" height="2.2"/>
	<rect x="564.5" y="352.6" class="st7" width="6.2" height="2.2"/>
	<rect x="626.2" y="355.1" class="st7" width="6.2" height="2.2"/>
	<rect x="629.3" y="359.1" class="st7" width="6.2" height="2.2"/>
	<rect x="625.5" y="214.9" class="st7" width="7.6" height="2.9"/>
	<rect x="648.1" y="222.6" class="st7" width="2.5" height="2.9"/>
	<rect x="645.4" y="218" class="st7" width="5.3" height="2.9"/>
	<rect x="629.3" y="218.7" class="st7" width="7.6" height="2.9"/>
	<rect x="572.7" y="220.6" class="st7" width="7.6" height="2.9"/>
	<rect x="568.1" y="215.3" class="st7" width="7.6" height="2.9"/>
	<rect x="635.8" y="238.3" class="st7" width="7.6" height="2.9"/>
	<rect x="631.2" y="232.9" class="st7" width="7.6" height="2.9"/>
	<rect x="626.6" y="223.1" class="st7" width="7.8" height="2.5"/>
	<rect x="613.8" y="365.4" class="st7" width="7.6" height="2.9"/>
	<rect x="617.5" y="369.3" class="st7" width="7.6" height="2.9"/>
	<rect x="614.8" y="373.8" class="st7" width="7.8" height="2.5"/>
	<rect x="555.8" y="366.1" class="st7" width="7.6" height="2.9"/>
	<rect x="552" y="369.9" class="st7" width="7.6" height="2.9"/>
	<rect x="554.5" y="374.3" class="st7" width="7.8" height="2.5"/>
	<rect x="620.2" y="219.2" class="st7" width="7.6" height="2.5"/>
	<rect x="606.1" y="230.6" class="st7" width="7.6" height="2.9"/>
	<rect x="609.9" y="234.4" class="st7" width="7.6" height="2.9"/>
	<rect x="607.1" y="238.9" class="st7" width="7.8" height="2.5"/>
	<rect x="600.8" y="234.9" class="st7" width="7.6" height="2.5"/>
	<rect x="443" y="247" class="st3" width="175.9" height="3.8"/>
</g>
<g>
	<rect x="32.6" y="350.7" class="st8" width="1.9" height="20.9"/>
	<polygon class="st9" points="33.5,310.1 27.4,359.9 39.7,359.9 	"/>
	<polygon class="st10" points="29.6,341.9 38.4,349.4 38.1,346.7 29.9,339.6 	"/>
	<polygon class="st10" points="31,330.9 36.3,332.8 36.1,330.7 31.2,329.1 	"/>
</g>
<g>
	<path class="st9" d="M64.1,373.6c-0.1-0.6-0.2-1.2-0.2-1.8c0-7,6.5-12.6,14.6-12.6s14.6,5.7,14.6,12.6c0,0.6-0.1,1.2-0.2,1.8H64.1z
		"/>
	<path class="st10" d="M47.6,370.5c-0.1-0.8-0.2-1.7-0.2-2.6c0-9.8,6.5-17.8,14.6-17.8s14.6,8,14.6,17.8c0,0.9-0.1,1.7-0.2,2.6H47.6
		z"/>
	<path class="st10" d="M53,381.4c0.1-0.6,0.2-1.2,0.2-1.8c0-7-6.5-12.6-14.6-12.6S24,372.7,24,379.6c0,0.6,0.1,1.2,0.2,1.8H53z"/>
	<path class="st9" d="M76.3,381.4c0.1-0.8,0.2-1.7,0.2-2.6c0-9.8-8.3-17.8-18.5-17.8s-18.5,8-18.5,17.8c0,0.9,0.1,1.7,0.2,2.6H76.3z
		"/>
	<path class="st10" d="M62.1,361c5.1,0,9.7,2.5,12.7,6.5c1.5-0.4,3.2-0.6,4.9-0.6c9.1,0,16.4,5.7,16.4,12.6c0,0.6-0.1,1.2-0.2,1.8
		h-50c-0.1-0.8-0.2-1.7-0.2-2.6C45.7,369,53.1,361,62.1,361z"/>
</g>
<g>
	<polygon class="st11" points="113.4,381.7 290,381.7 293.7,71 109.7,71 	"/>
	<path class="st12" d="M336.8,120.4l-5.4,261.3H290l3.1-261.3C293.1,120.4,336.8,120.4,336.8,120.4z M66.6,120.4L72,381.7h41.3
		l-3.1-261.3C110.2,120.4,66.6,120.4,66.6,120.4z"/>
	<polygon class="st13" points="290.3,377.4 333.4,377.4 334.6,381.7 290.3,381.7 	"/>
	<polygon class="st13" points="113.4,377.4 70.2,377.4 69.1,381.7 113.4,381.7 	"/>
	<polygon class="st14" points="293.1,120.4 341,120.4 341.6,116.1 293.1,116.7 	"/>
	<polygon class="st14" points="110.3,120.4 62.4,120.4 61.8,116.1 110.2,116.7 	"/>
	<polygon class="st14" points="107.1,67 296.2,67 295.9,71 107.5,71 	"/>
	<g>
		<g>
			<g>
				<path id="XMLID_64_" class="st4" d="M145,283.4c0.1,12.3,0.1,24.6,0.2,37c-3.1,0-4.7,0-7.8,0s-4.7,0-7.8,0
					c-0.2-12.3-0.3-24.6-0.5-37c3.2,0,4.7,0,7.9,0S141.8,283.4,145,283.4z"/>
				<path class="st3" d="M132.9,298.3c0.1,4.4,0.1,6.6,0.2,11c-1.4,0-2.1,0-3.6,0c0,0.3,0,0.4,0,0.7c1.4,0,2.1,0,3.6,0
					c0.1,4.1,0.1,6.2,0.2,10.3c0.2,0,0.3,0,0.5,0c0-4.1,0-6.2-0.1-10.3c1.3,0,2,0,3.3,0c0.1,4.1,0.1,6.2,0.1,10.3c0.1,0,0.2,0,0.3,0
					s0.2,0,0.3,0c0-4.1,0-6.2,0-10.3c1.3,0,2,0,3.3,0c0.1,4.1,0.1,6.2,0.1,10.3c0.2,0,0.3,0,0.5,0c0-4.1,0-6.2,0-10.3
					c1.4,0,2.1,0,3.6,0c0-0.3,0-0.4,0-0.7c-1.4,0-2.1,0-3.6,0c0-4.4,0-6.6,0-11c1.4,0,2.1,0,3.5,0c0-0.3,0-0.5,0-0.9
					c-1.4,0-2.1,0-3.5,0c0-5.6,0-8.5,0-14.1c-0.4,0-0.6,0-0.9,0c0.1,5.6,0.1,8.5,0.2,14.1c-1.3,0-1.9,0-3.2,0c0-5.6,0-8.5-0.1-14.1
					c-0.2,0-0.3,0-0.5,0s-0.3,0-0.5,0c0.1,5.6,0.1,8.5,0.2,14.1c-1.3,0-1.9,0-3.2,0c0-5.6,0-8.5-0.1-14.1c-0.4,0-0.6,0-0.9,0
					c0.1,5.6,0.1,8.5,0.2,14.1c-1.4,0-2.1,0-3.5,0c0,0.3,0,0.5,0,0.9C130.7,298.3,131.4,298.3,132.9,298.3z M137.6,309.3
					c0-4.4,0-6.6,0-11c1.3,0,1.9,0,3.2,0c0.1,4.4,0.1,6.6,0.1,11C139.6,309.3,138.9,309.3,137.6,309.3z M133.7,309.3
					c0-4.4,0-6.6-0.1-11c1.3,0,1.9,0,3.2,0c0.1,4.4,0.1,6.6,0.2,11C135.7,309.3,135,309.3,133.7,309.3z"/>
			</g>
		</g>
	</g>
	<g>
		<g>
			<g>
				<path id="XMLID_63_" class="st4" d="M171,283.4c0.1,12.3,0.1,24.6,0.2,37c-3.1,0-4.7,0-7.8,0s-4.7,0-7.8,0
					c-0.2-12.3-0.3-24.6-0.5-37c3.2,0,4.7,0,7.9,0S167.8,283.4,171,283.4z"/>
				<path class="st3" d="M158.9,298.3c0.1,4.4,0.1,6.6,0.2,11c-1.4,0-2.1,0-3.6,0c0,0.3,0,0.4,0,0.7c1.4,0,2.1,0,3.6,0
					c0.1,4.1,0.1,6.2,0.2,10.3c0.2,0,0.3,0,0.5,0c0-4.1,0-6.2-0.1-10.3c1.3,0,2,0,3.3,0c0.1,4.1,0.1,6.2,0.1,10.3c0.1,0,0.2,0,0.3,0
					s0.2,0,0.3,0c0-4.1,0-6.2,0-10.3c1.3,0,2,0,3.3,0c0.1,4.1,0.1,6.2,0.1,10.3c0.2,0,0.3,0,0.5,0c0-4.1,0-6.2,0-10.3
					c1.4,0,2.1,0,3.6,0c0-0.3,0-0.4,0-0.7c-1.4,0-2.1,0-3.6,0c0-4.4,0-6.6,0-11c1.4,0,2.1,0,3.5,0c0-0.3,0-0.5,0-0.9
					c-1.4,0-2.1,0-3.5,0c0-5.6,0-8.5,0-14.1c-0.4,0-0.6,0-0.9,0c0.1,5.6,0.1,8.5,0.2,14.1c-1.3,0-1.9,0-3.2,0c0-5.6,0-8.5-0.1-14.1
					c-0.2,0-0.3,0-0.5,0s-0.3,0-0.5,0c0.1,5.6,0.1,8.5,0.2,14.1c-1.3,0-1.9,0-3.2,0c0-5.6,0-8.5-0.1-14.1c-0.4,0-0.6,0-0.9,0
					c0.1,5.6,0.1,8.5,0.2,14.1c-1.4,0-2.1,0-3.5,0c0,0.3,0,0.5,0,0.9C156.7,298.3,157.4,298.3,158.9,298.3z M163.6,309.3
					c0-4.4,0-6.6,0-11c1.3,0,1.9,0,3.2,0c0.1,4.4,0.1,6.6,0.1,11C165.6,309.3,164.9,309.3,163.6,309.3z M159.7,309.3
					c0-4.4,0-6.6-0.1-11c1.3,0,1.9,0,3.2,0c0.1,4.4,0.1,6.6,0.2,11C161.7,309.3,161,309.3,159.7,309.3z"/>
			</g>
		</g>
	</g>
	<g>
		<g>
			<g>
				<path id="XMLID_62_" class="st4" d="M197,283.4c0.1,12.3,0.1,24.6,0.2,37c-3.1,0-4.7,0-7.8,0s-4.7,0-7.8,0
					c-0.2-12.3-0.3-24.6-0.5-37c3.2,0,4.7,0,7.9,0S193.8,283.4,197,283.4z"/>
				<path class="st3" d="M184.9,298.3c0.1,4.4,0.1,6.6,0.2,11c-1.4,0-2.1,0-3.6,0c0,0.3,0,0.4,0,0.7c1.4,0,2.1,0,3.6,0
					c0.1,4.1,0.1,6.2,0.2,10.3c0.2,0,0.3,0,0.5,0c0-4.1,0-6.2-0.1-10.3c1.3,0,2,0,3.3,0c0.1,4.1,0.1,6.2,0.1,10.3c0.1,0,0.2,0,0.3,0
					s0.2,0,0.3,0c0-4.1,0-6.2,0-10.3c1.3,0,2,0,3.3,0c0.1,4.1,0.1,6.2,0.1,10.3c0.2,0,0.3,0,0.5,0c0-4.1,0-6.2,0-10.3
					c1.4,0,2.1,0,3.6,0c0-0.3,0-0.4,0-0.7c-1.4,0-2.1,0-3.6,0c0-4.4,0-6.6,0-11c1.4,0,2.1,0,3.5,0c0-0.3,0-0.5,0-0.9
					c-1.4,0-2.1,0-3.5,0c0-5.6,0-8.5,0-14.1c-0.4,0-0.6,0-0.9,0c0.1,5.6,0.1,8.5,0.2,14.1c-1.3,0-1.9,0-3.2,0c0-5.6,0-8.5-0.1-14.1
					c-0.2,0-0.3,0-0.5,0s-0.3,0-0.5,0c0.1,5.6,0.1,8.5,0.2,14.1c-1.3,0-1.9,0-3.2,0c0-5.6,0-8.5-0.1-14.1c-0.4,0-0.6,0-0.9,0
					c0.1,5.6,0.1,8.5,0.2,14.1c-1.4,0-2.1,0-3.5,0c0,0.3,0,0.5,0,0.9C182.7,298.3,183.4,298.3,184.9,298.3z M189.6,309.3
					c0-4.4,0-6.6,0-11c1.3,0,1.9,0,3.2,0c0.1,4.4,0.1,6.6,0.1,11C191.6,309.3,190.9,309.3,189.6,309.3z M185.7,309.3
					c0-4.4,0-6.6-0.1-11c1.3,0,1.9,0,3.2,0c0.1,4.4,0.1,6.6,0.2,11C187.7,309.3,187,309.3,185.7,309.3z"/>
			</g>
		</g>
	</g>
	<g>
		<g>
			<g>
				<path id="XMLID_61_" class="st4" d="M223,283.4c0.1,12.3,0.1,24.6,0.2,37c-3.1,0-4.7,0-7.8,0s-4.7,0-7.8,0
					c-0.2-12.3-0.3-24.6-0.5-37c3.2,0,4.7,0,7.9,0S219.8,283.4,223,283.4z"/>
				<path class="st3" d="M210.9,298.3c0.1,4.4,0.1,6.6,0.2,11c-1.4,0-2.1,0-3.6,0c0,0.3,0,0.4,0,0.7c1.4,0,2.1,0,3.6,0
					c0.1,4.1,0.1,6.2,0.2,10.3c0.2,0,0.3,0,0.5,0c0-4.1,0-6.2-0.1-10.3c1.3,0,2,0,3.3,0c0.1,4.1,0.1,6.2,0.1,10.3c0.1,0,0.2,0,0.3,0
					s0.2,0,0.3,0c0-4.1,0-6.2,0-10.3c1.3,0,2,0,3.3,0c0.1,4.1,0.1,6.2,0.1,10.3c0.2,0,0.3,0,0.5,0c0-4.1,0-6.2,0-10.3
					c1.4,0,2.1,0,3.6,0c0-0.3,0-0.4,0-0.7c-1.4,0-2.1,0-3.6,0c0-4.4,0-6.6,0-11c1.4,0,2.1,0,3.5,0c0-0.3,0-0.5,0-0.9
					c-1.4,0-2.1,0-3.5,0c0-5.6,0-8.5,0-14.1c-0.4,0-0.6,0-0.9,0c0.1,5.6,0.1,8.5,0.2,14.1c-1.3,0-1.9,0-3.2,0c0-5.6,0-8.5-0.1-14.1
					c-0.2,0-0.3,0-0.5,0s-0.3,0-0.5,0c0.1,5.6,0.1,8.5,0.2,14.1c-1.3,0-1.9,0-3.2,0c0-5.6,0-8.5-0.1-14.1c-0.4,0-0.6,0-0.9,0
					c0.1,5.6,0.1,8.5,0.2,14.1c-1.4,0-2.1,0-3.5,0c0,0.3,0,0.5,0,0.9C208.7,298.3,209.4,298.3,210.9,298.3z M215.6,309.3
					c0-4.4,0-6.6,0-11c1.3,0,1.9,0,3.2,0c0.1,4.4,0.1,6.6,0.1,11C217.6,309.3,216.9,309.3,215.6,309.3z M211.7,309.3
					c0-4.4,0-6.6-0.1-11c1.3,0,1.9,0,3.2,0c0.1,4.4,0.1,6.6,0.2,11C213.7,309.3,213,309.3,211.7,309.3z"/>
			</g>
		</g>
	</g>
	<g>
		<g>
			<g>
				<path id="XMLID_60_" class="st4" d="M249,283.4c0.1,12.3,0.1,24.6,0.2,37c-3.1,0-4.7,0-7.8,0s-4.7,0-7.8,0
					c-0.2-12.3-0.3-24.6-0.5-37c3.2,0,4.7,0,7.9,0S245.8,283.4,249,283.4z"/>
				<path class="st3" d="M236.9,298.3c0.1,4.4,0.1,6.6,0.2,11c-1.4,0-2.1,0-3.6,0c0,0.3,0,0.4,0,0.7c1.4,0,2.1,0,3.6,0
					c0.1,4.1,0.1,6.2,0.2,10.3c0.2,0,0.3,0,0.5,0c0-4.1,0-6.2-0.1-10.3c1.3,0,2,0,3.3,0c0.1,4.1,0.1,6.2,0.1,10.3c0.1,0,0.2,0,0.3,0
					s0.2,0,0.3,0c0-4.1,0-6.2,0-10.3c1.3,0,2,0,3.3,0c0.1,4.1,0.1,6.2,0.1,10.3c0.2,0,0.3,0,0.5,0c0-4.1,0-6.2,0-10.3
					c1.4,0,2.1,0,3.6,0c0-0.3,0-0.4,0-0.7c-1.4,0-2.1,0-3.6,0c0-4.4,0-6.6,0-11c1.4,0,2.1,0,3.5,0c0-0.3,0-0.5,0-0.9
					c-1.4,0-2.1,0-3.5,0c0-5.6,0-8.5,0-14.1c-0.4,0-0.6,0-0.9,0c0.1,5.6,0.1,8.5,0.2,14.1c-1.3,0-1.9,0-3.2,0c0-5.6,0-8.5-0.1-14.1
					c-0.2,0-0.3,0-0.5,0s-0.3,0-0.5,0c0.1,5.6,0.1,8.5,0.2,14.1c-1.3,0-1.9,0-3.2,0c0-5.6,0-8.5-0.1-14.1c-0.4,0-0.6,0-0.9,0
					c0.1,5.6,0.1,8.5,0.2,14.1c-1.4,0-2.1,0-3.5,0c0,0.3,0,0.5,0,0.9C234.7,298.3,235.4,298.3,236.9,298.3z M241.6,309.3
					c0-4.4,0-6.6,0-11c1.3,0,1.9,0,3.2,0c0.1,4.4,0.1,6.6,0.1,11C243.6,309.3,242.9,309.3,241.6,309.3z M237.7,309.3
					c0-4.4,0-6.6-0.1-11c1.3,0,1.9,0,3.2,0c0.1,4.4,0.1,6.6,0.2,11C239.7,309.3,239,309.3,237.7,309.3z"/>
			</g>
		</g>
	</g>
	<g>
		<g>
			<g>
				<path id="XMLID_59_" class="st4" d="M275,283.4c0.1,12.3,0.1,24.6,0.2,37c-3.1,0-4.7,0-7.8,0c-3.1,0-4.7,0-7.8,0
					c-0.2-12.3-0.3-24.6-0.5-37c3.2,0,4.7,0,7.9,0S271.8,283.4,275,283.4z"/>
				<path class="st3" d="M262.9,298.3c0.1,4.4,0.1,6.6,0.2,11c-1.4,0-2.1,0-3.6,0c0,0.3,0,0.4,0,0.7c1.4,0,2.1,0,3.6,0
					c0.1,4.1,0.1,6.2,0.2,10.3c0.2,0,0.3,0,0.5,0c0-4.1,0-6.2-0.1-10.3c1.3,0,2,0,3.3,0c0.1,4.1,0.1,6.2,0.1,10.3c0.1,0,0.2,0,0.3,0
					s0.2,0,0.3,0c0-4.1,0-6.2,0-10.3c1.3,0,2,0,3.3,0c0.1,4.1,0.1,6.2,0.1,10.3c0.2,0,0.3,0,0.5,0c0-4.1,0-6.2,0-10.3
					c1.4,0,2.1,0,3.6,0c0-0.3,0-0.4,0-0.7c-1.4,0-2.1,0-3.6,0c0-4.4,0-6.6,0-11c1.4,0,2.1,0,3.5,0c0-0.3,0-0.5,0-0.9
					c-1.4,0-2.1,0-3.5,0c0-5.6,0-8.5,0-14.1c-0.4,0-0.6,0-0.9,0c0.1,5.6,0.1,8.5,0.2,14.1c-1.3,0-1.9,0-3.2,0c0-5.6,0-8.5-0.1-14.1
					c-0.2,0-0.3,0-0.5,0s-0.3,0-0.5,0c0.1,5.6,0.1,8.5,0.2,14.1c-1.3,0-1.9,0-3.2,0c0-5.6,0-8.5-0.1-14.1c-0.4,0-0.6,0-0.9,0
					c0.1,5.6,0.1,8.5,0.2,14.1c-1.4,0-2.1,0-3.5,0c0,0.3,0,0.5,0,0.9C260.7,298.3,261.4,298.3,262.9,298.3z M267.6,309.3
					c0-4.4,0-6.6,0-11c1.3,0,1.9,0,3.2,0c0.1,4.4,0.1,6.6,0.1,11C269.6,309.3,268.9,309.3,267.6,309.3z M263.7,309.3
					c0-4.4,0-6.6-0.1-11c1.3,0,1.9,0,3.2,0c0.1,4.4,0.1,6.6,0.2,11C265.7,309.3,265,309.3,263.7,309.3z"/>
			</g>
		</g>
	</g>
	<g>
		<g>
			<g>
				<path id="XMLID_58_" class="st4" d="M321,301.4c0.1,12.3,0.1,24.6,0.2,37c-3.1,0-4.7,0-7.8,0c-3.1,0-4.7,0-7.8,0
					c-0.2-12.3-0.3-24.6-0.5-37c3.2,0,4.7,0,7.9,0S317.8,301.4,321,301.4z"/>
				<path class="st3" d="M308.9,316.3c0.1,4.4,0.1,6.6,0.2,11c-1.4,0-2.1,0-3.6,0c0,0.3,0,0.4,0,0.7c1.4,0,2.1,0,3.6,0
					c0.1,4.1,0.1,6.2,0.2,10.3c0.2,0,0.3,0,0.5,0c0-4.1,0-6.2-0.1-10.3c1.3,0,2,0,3.3,0c0.1,4.1,0.1,6.2,0.1,10.3c0.1,0,0.2,0,0.3,0
					s0.2,0,0.3,0c0-4.1,0-6.2,0-10.3c1.3,0,2,0,3.3,0c0.1,4.1,0.1,6.2,0.1,10.3c0.2,0,0.3,0,0.5,0c0-4.1,0-6.2,0-10.3
					c1.4,0,2.1,0,3.6,0c0-0.3,0-0.4,0-0.7c-1.4,0-2.1,0-3.6,0c0-4.4,0-6.6,0-11c1.4,0,2.1,0,3.5,0c0-0.3,0-0.5,0-0.9
					c-1.4,0-2.1,0-3.5,0c0-5.6,0-8.5,0-14.1c-0.4,0-0.6,0-0.9,0c0.1,5.6,0.1,8.5,0.2,14.1c-1.3,0-1.9,0-3.2,0c0-5.6,0-8.5-0.1-14.1
					c-0.2,0-0.3,0-0.5,0s-0.3,0-0.5,0c0.1,5.6,0.1,8.5,0.2,14.1c-1.3,0-1.9,0-3.2,0c0-5.6,0-8.5-0.1-14.1c-0.4,0-0.6,0-0.9,0
					c0.1,5.6,0.1,8.5,0.2,14.1c-1.4,0-2.1,0-3.5,0c0,0.3,0,0.5,0,0.9C306.7,316.3,307.4,316.3,308.9,316.3z M313.6,327.3
					c0-4.4,0-6.6,0-11c1.3,0,1.9,0,3.2,0c0.1,4.4,0.1,6.6,0.1,11C315.6,327.3,314.9,327.3,313.6,327.3z M309.7,327.3
					c0-4.4,0-6.6-0.1-11c1.3,0,1.9,0,3.2,0c0.1,4.4,0.1,6.6,0.2,11C311.7,327.3,311,327.3,309.7,327.3z"/>
			</g>
		</g>
	</g>
	<g>
		<g>
			<g>
				<path id="XMLID_57_" class="st4" d="M321,247.4c0.1,12.3,0.1,24.6,0.2,37c-3.1,0-4.7,0-7.8,0c-3.1,0-4.7,0-7.8,0
					c-0.2-12.3-0.3-24.6-0.5-37c3.2,0,4.7,0,7.9,0S317.8,247.4,321,247.4z"/>
				<path class="st3" d="M308.9,262.3c0.1,4.4,0.1,6.6,0.2,11c-1.4,0-2.1,0-3.6,0c0,0.3,0,0.4,0,0.7c1.4,0,2.1,0,3.6,0
					c0.1,4.1,0.1,6.2,0.2,10.3c0.2,0,0.3,0,0.5,0c0-4.1,0-6.2-0.1-10.3c1.3,0,2,0,3.3,0c0.1,4.1,0.1,6.2,0.1,10.3c0.1,0,0.2,0,0.3,0
					s0.2,0,0.3,0c0-4.1,0-6.2,0-10.3c1.3,0,2,0,3.3,0c0.1,4.1,0.1,6.2,0.1,10.3c0.2,0,0.3,0,0.5,0c0-4.1,0-6.2,0-10.3
					c1.4,0,2.1,0,3.6,0c0-0.3,0-0.4,0-0.7c-1.4,0-2.1,0-3.6,0c0-4.4,0-6.6,0-11c1.4,0,2.1,0,3.5,0c0-0.3,0-0.5,0-0.9
					c-1.4,0-2.1,0-3.5,0c0-5.6,0-8.5,0-14.1c-0.4,0-0.6,0-0.9,0c0.1,5.6,0.1,8.5,0.2,14.1c-1.3,0-1.9,0-3.2,0c0-5.6,0-8.5-0.1-14.1
					c-0.2,0-0.3,0-0.5,0s-0.3,0-0.5,0c0.1,5.6,0.1,8.5,0.2,14.1c-1.3,0-1.9,0-3.2,0c0-5.6,0-8.5-0.1-14.1c-0.4,0-0.6,0-0.9,0
					c0.1,5.6,0.1,8.5,0.2,14.1c-1.4,0-2.1,0-3.5,0c0,0.3,0,0.5,0,0.9C306.7,262.3,307.4,262.3,308.9,262.3z M313.6,273.3
					c0-4.4,0-6.6,0-11c1.3,0,1.9,0,3.2,0c0.1,4.4,0.1,6.6,0.1,11C315.6,273.3,314.9,273.3,313.6,273.3z M309.7,273.3
					c0-4.4,0-6.6-0.1-11c1.3,0,1.9,0,3.2,0c0.1,4.4,0.1,6.6,0.2,11C311.7,273.3,311,273.3,309.7,273.3z"/>
			</g>
		</g>
	</g>
	<g>
		<g>
			<g>
				<path id="XMLID_56_" class="st4" d="M321,193.4c0.1,12.3,0.1,24.6,0.2,37c-3.1,0-4.7,0-7.8,0c-3.1,0-4.7,0-7.8,0
					c-0.2-12.3-0.3-24.6-0.5-37c3.2,0,4.7,0,7.9,0S317.8,193.4,321,193.4z"/>
				<path class="st3" d="M308.9,208.3c0.1,4.4,0.1,6.6,0.2,11c-1.4,0-2.1,0-3.6,0c0,0.3,0,0.4,0,0.7c1.4,0,2.1,0,3.6,0
					c0.1,4.1,0.1,6.2,0.2,10.3c0.2,0,0.3,0,0.5,0c0-4.1,0-6.2-0.1-10.3c1.3,0,2,0,3.3,0c0.1,4.1,0.1,6.2,0.1,10.3c0.1,0,0.2,0,0.3,0
					s0.2,0,0.3,0c0-4.1,0-6.2,0-10.3c1.3,0,2,0,3.3,0c0.1,4.1,0.1,6.2,0.1,10.3c0.2,0,0.3,0,0.5,0c0-4.1,0-6.2,0-10.3
					c1.4,0,2.1,0,3.6,0c0-0.3,0-0.4,0-0.7c-1.4,0-2.1,0-3.6,0c0-4.4,0-6.6,0-11c1.4,0,2.1,0,3.5,0c0-0.3,0-0.5,0-0.9
					c-1.4,0-2.1,0-3.5,0c0-5.6,0-8.5,0-14.1c-0.4,0-0.6,0-0.9,0c0.1,5.6,0.1,8.5,0.2,14.1c-1.3,0-1.9,0-3.2,0c0-5.6,0-8.5-0.1-14.1
					c-0.2,0-0.3,0-0.5,0s-0.3,0-0.5,0c0.1,5.6,0.1,8.5,0.2,14.1c-1.3,0-1.9,0-3.2,0c0-5.6,0-8.5-0.1-14.1c-0.4,0-0.6,0-0.9,0
					c0.1,5.6,0.1,8.5,0.2,14.1c-1.4,0-2.1,0-3.5,0c0,0.3,0,0.5,0,0.9C306.7,208.3,307.4,208.3,308.9,208.3z M313.6,219.3
					c0-4.4,0-6.6,0-11c1.3,0,1.9,0,3.2,0c0.1,4.4,0.1,6.6,0.1,11C315.6,219.3,314.9,219.3,313.6,219.3z M309.7,219.3
					c0-4.4,0-6.6-0.1-11c1.3,0,1.9,0,3.2,0c0.1,4.4,0.1,6.6,0.2,11C311.7,219.3,311,219.3,309.7,219.3z"/>
			</g>
		</g>
	</g>
	<g>
		<g>
			<g>
				<path id="XMLID_55_" class="st4" d="M321,139.4c0.1,12.3,0.1,24.6,0.2,37c-3.1,0-4.7,0-7.8,0c-3.1,0-4.7,0-7.8,0
					c-0.2-12.3-0.3-24.6-0.5-37c3.2,0,4.7,0,7.9,0S317.8,139.4,321,139.4z"/>
				<path class="st3" d="M308.9,154.3c0.1,4.4,0.1,6.6,0.2,11c-1.4,0-2.1,0-3.6,0c0,0.3,0,0.4,0,0.7c1.4,0,2.1,0,3.6,0
					c0.1,4.1,0.1,6.2,0.2,10.3c0.2,0,0.3,0,0.5,0c0-4.1,0-6.2-0.1-10.3c1.3,0,2,0,3.3,0c0.1,4.1,0.1,6.2,0.1,10.3c0.1,0,0.2,0,0.3,0
					s0.2,0,0.3,0c0-4.1,0-6.2,0-10.3c1.3,0,2,0,3.3,0c0.1,4.1,0.1,6.2,0.1,10.3c0.2,0,0.3,0,0.5,0c0-4.1,0-6.2,0-10.3
					c1.4,0,2.1,0,3.6,0c0-0.3,0-0.4,0-0.7c-1.4,0-2.1,0-3.6,0c0-4.4,0-6.6,0-11c1.4,0,2.1,0,3.5,0c0-0.3,0-0.5,0-0.9
					c-1.4,0-2.1,0-3.5,0c0-5.6,0-8.5,0-14.1c-0.4,0-0.6,0-0.9,0c0.1,5.6,0.1,8.5,0.2,14.1c-1.3,0-1.9,0-3.2,0c0-5.6,0-8.5-0.1-14.1
					c-0.2,0-0.3,0-0.5,0s-0.3,0-0.5,0c0.1,5.6,0.1,8.5,0.2,14.1c-1.3,0-1.9,0-3.2,0c0-5.6,0-8.5-0.1-14.1c-0.4,0-0.6,0-0.9,0
					c0.1,5.6,0.1,8.5,0.2,14.1c-1.4,0-2.1,0-3.5,0c0,0.3,0,0.5,0,0.9C306.7,154.3,307.4,154.3,308.9,154.3z M313.6,165.3
					c0-4.4,0-6.6,0-11c1.3,0,1.9,0,3.2,0c0.1,4.4,0.1,6.6,0.1,11C315.6,165.3,314.9,165.3,313.6,165.3z M309.7,165.3
					c0-4.4,0-6.6-0.1-11c1.3,0,1.9,0,3.2,0c0.1,4.4,0.1,6.6,0.2,11C311.7,165.3,311,165.3,309.7,165.3z"/>
			</g>
		</g>
	</g>
	<g>
		<g>
			<g>
				<path id="XMLID_54_" class="st4" d="M98,300.4c0.1,12.3,0.1,24.6,0.2,37c-3.1,0-4.7,0-7.8,0c-3.1,0-4.7,0-7.8,0
					c-0.2-12.3-0.3-24.6-0.5-37c3.2,0,4.7,0,7.9,0S94.8,300.4,98,300.4z"/>
				<path class="st3" d="M85.9,315.3c0.1,4.4,0.1,6.6,0.2,11c-1.4,0-2.1,0-3.6,0c0,0.3,0,0.4,0,0.7c1.4,0,2.1,0,3.6,0
					c0.1,4.1,0.1,6.2,0.2,10.3c0.2,0,0.3,0,0.5,0c0-4.1,0-6.2-0.1-10.3c1.3,0,2,0,3.3,0c0.1,4.1,0.1,6.2,0.1,10.3c0.1,0,0.2,0,0.3,0
					s0.2,0,0.3,0c0-4.1,0-6.2,0-10.3c1.3,0,2,0,3.3,0c0.1,4.1,0.1,6.2,0.1,10.3c0.2,0,0.3,0,0.5,0c0-4.1,0-6.2,0-10.3
					c1.4,0,2.1,0,3.6,0c0-0.3,0-0.4,0-0.7c-1.4,0-2.1,0-3.6,0c0-4.4,0-6.6,0-11c1.4,0,2.1,0,3.5,0c0-0.3,0-0.5,0-0.9
					c-1.4,0-2.1,0-3.5,0c0-5.6,0-8.5,0-14.1c-0.4,0-0.6,0-0.9,0c0.1,5.6,0.1,8.5,0.2,14.1c-1.3,0-1.9,0-3.2,0c0-5.6,0-8.5-0.1-14.1
					c-0.2,0-0.3,0-0.5,0s-0.3,0-0.5,0c0.1,5.6,0.1,8.5,0.2,14.1c-1.3,0-1.9,0-3.2,0c0-5.6,0-8.5-0.1-14.1c-0.4,0-0.6,0-0.9,0
					c0.1,5.6,0.1,8.5,0.2,14.1c-1.4,0-2.1,0-3.5,0c0,0.3,0,0.5,0,0.9C83.7,315.3,84.4,315.3,85.9,315.3z M90.6,326.3
					c0-4.4,0-6.6,0-11c1.3,0,1.9,0,3.2,0c0.1,4.4,0.1,6.6,0.1,11C92.6,326.3,91.9,326.3,90.6,326.3z M86.7,326.3c0-4.4,0-6.6-0.1-11
					c1.3,0,1.9,0,3.2,0c0.1,4.4,0.1,6.6,0.2,11C88.7,326.3,88,326.3,86.7,326.3z"/>
			</g>
		</g>
	</g>
	<g>
		<g>
			<g>
				<path id="XMLID_53_" class="st4" d="M98,246.4c0.1,12.3,0.1,24.6,0.2,37c-3.1,0-4.7,0-7.8,0c-3.1,0-4.7,0-7.8,0
					c-0.2-12.3-0.3-24.6-0.5-37c3.2,0,4.7,0,7.9,0S94.8,246.4,98,246.4z"/>
				<path class="st3" d="M85.9,261.3c0.1,4.4,0.1,6.6,0.2,11c-1.4,0-2.1,0-3.6,0c0,0.3,0,0.4,0,0.7c1.4,0,2.1,0,3.6,0
					c0.1,4.1,0.1,6.2,0.2,10.3c0.2,0,0.3,0,0.5,0c0-4.1,0-6.2-0.1-10.3c1.3,0,2,0,3.3,0c0.1,4.1,0.1,6.2,0.1,10.3c0.1,0,0.2,0,0.3,0
					s0.2,0,0.3,0c0-4.1,0-6.2,0-10.3c1.3,0,2,0,3.3,0c0.1,4.1,0.1,6.2,0.1,10.3c0.2,0,0.3,0,0.5,0c0-4.1,0-6.2,0-10.3
					c1.4,0,2.1,0,3.6,0c0-0.3,0-0.4,0-0.7c-1.4,0-2.1,0-3.6,0c0-4.4,0-6.6,0-11c1.4,0,2.1,0,3.5,0c0-0.3,0-0.5,0-0.9
					c-1.4,0-2.1,0-3.5,0c0-5.6,0-8.5,0-14.1c-0.4,0-0.6,0-0.9,0c0.1,5.6,0.1,8.5,0.2,14.1c-1.3,0-1.9,0-3.2,0c0-5.6,0-8.5-0.1-14.1
					c-0.2,0-0.3,0-0.5,0s-0.3,0-0.5,0c0.1,5.6,0.1,8.5,0.2,14.1c-1.3,0-1.9,0-3.2,0c0-5.6,0-8.5-0.1-14.1c-0.4,0-0.6,0-0.9,0
					c0.1,5.6,0.1,8.5,0.2,14.1c-1.4,0-2.1,0-3.5,0c0,0.3,0,0.5,0,0.9C83.7,261.3,84.4,261.3,85.9,261.3z M90.6,272.3
					c0-4.4,0-6.6,0-11c1.3,0,1.9,0,3.2,0c0.1,4.4,0.1,6.6,0.1,11C92.6,272.3,91.9,272.3,90.6,272.3z M86.7,272.3c0-4.4,0-6.6-0.1-11
					c1.3,0,1.9,0,3.2,0c0.1,4.4,0.1,6.6,0.2,11C88.7,272.3,88,272.3,86.7,272.3z"/>
			</g>
		</g>
	</g>
	<g>
		<g>
			<g>
				<path id="XMLID_52_" class="st4" d="M98,192.4c0.1,12.3,0.1,24.6,0.2,37c-3.1,0-4.7,0-7.8,0c-3.1,0-4.7,0-7.8,0
					c-0.2-12.3-0.3-24.6-0.5-37c3.2,0,4.7,0,7.9,0S94.8,192.4,98,192.4z"/>
				<path class="st3" d="M85.9,207.3c0.1,4.4,0.1,6.6,0.2,11c-1.4,0-2.1,0-3.6,0c0,0.3,0,0.4,0,0.7c1.4,0,2.1,0,3.6,0
					c0.1,4.1,0.1,6.2,0.2,10.3c0.2,0,0.3,0,0.5,0c0-4.1,0-6.2-0.1-10.3c1.3,0,2,0,3.3,0c0.1,4.1,0.1,6.2,0.1,10.3c0.1,0,0.2,0,0.3,0
					s0.2,0,0.3,0c0-4.1,0-6.2,0-10.3c1.3,0,2,0,3.3,0c0.1,4.1,0.1,6.2,0.1,10.3c0.2,0,0.3,0,0.5,0c0-4.1,0-6.2,0-10.3
					c1.4,0,2.1,0,3.6,0c0-0.3,0-0.4,0-0.7c-1.4,0-2.1,0-3.6,0c0-4.4,0-6.6,0-11c1.4,0,2.1,0,3.5,0c0-0.3,0-0.5,0-0.9
					c-1.4,0-2.1,0-3.5,0c0-5.6,0-8.5,0-14.1c-0.4,0-0.6,0-0.9,0c0.1,5.6,0.1,8.5,0.2,14.1c-1.3,0-1.9,0-3.2,0c0-5.6,0-8.5-0.1-14.1
					c-0.2,0-0.3,0-0.5,0s-0.3,0-0.5,0c0.1,5.6,0.1,8.5,0.2,14.1c-1.3,0-1.9,0-3.2,0c0-5.6,0-8.5-0.1-14.1c-0.4,0-0.6,0-0.9,0
					c0.1,5.6,0.1,8.5,0.2,14.1c-1.4,0-2.1,0-3.5,0c0,0.3,0,0.5,0,0.9C83.7,207.3,84.4,207.3,85.9,207.3z M90.6,218.3
					c0-4.4,0-6.6,0-11c1.3,0,1.9,0,3.2,0c0.1,4.4,0.1,6.6,0.1,11C92.6,218.3,91.9,218.3,90.6,218.3z M86.7,218.3c0-4.4,0-6.6-0.1-11
					c1.3,0,1.9,0,3.2,0c0.1,4.4,0.1,6.6,0.2,11C88.7,218.3,88,218.3,86.7,218.3z"/>
			</g>
		</g>
	</g>
	<g>
		<g>
			<g>
				<path id="XMLID_51_" class="st4" d="M98,138.4c0.1,12.3,0.1,24.6,0.2,37c-3.1,0-4.7,0-7.8,0c-3.1,0-4.7,0-7.8,0
					c-0.2-12.3-0.3-24.6-0.5-37c3.2,0,4.7,0,7.9,0S94.8,138.4,98,138.4z"/>
				<path class="st3" d="M85.9,153.3c0.1,4.4,0.1,6.6,0.2,11c-1.4,0-2.1,0-3.6,0c0,0.3,0,0.4,0,0.7c1.4,0,2.1,0,3.6,0
					c0.1,4.1,0.1,6.2,0.2,10.3c0.2,0,0.3,0,0.5,0c0-4.1,0-6.2-0.1-10.3c1.3,0,2,0,3.3,0c0.1,4.1,0.1,6.2,0.1,10.3c0.1,0,0.2,0,0.3,0
					s0.2,0,0.3,0c0-4.1,0-6.2,0-10.3c1.3,0,2,0,3.3,0c0.1,4.1,0.1,6.2,0.1,10.3c0.2,0,0.3,0,0.5,0c0-4.1,0-6.2,0-10.3
					c1.4,0,2.1,0,3.6,0c0-0.3,0-0.4,0-0.7c-1.4,0-2.1,0-3.6,0c0-4.4,0-6.6,0-11c1.4,0,2.1,0,3.5,0c0-0.3,0-0.5,0-0.9
					c-1.4,0-2.1,0-3.5,0c0-5.6,0-8.5,0-14.1c-0.4,0-0.6,0-0.9,0c0.1,5.6,0.1,8.5,0.2,14.1c-1.3,0-1.9,0-3.2,0c0-5.6,0-8.5-0.1-14.1
					c-0.2,0-0.3,0-0.5,0s-0.3,0-0.5,0c0.1,5.6,0.1,8.5,0.2,14.1c-1.3,0-1.9,0-3.2,0c0-5.6,0-8.5-0.1-14.1c-0.4,0-0.6,0-0.9,0
					c0.1,5.6,0.1,8.5,0.2,14.1c-1.4,0-2.1,0-3.5,0c0,0.3,0,0.5,0,0.9C83.7,153.3,84.4,153.3,85.9,153.3z M90.6,164.3
					c0-4.4,0-6.6,0-11c1.3,0,1.9,0,3.2,0c0.1,4.4,0.1,6.6,0.1,11C92.6,164.3,91.9,164.3,90.6,164.3z M86.7,164.3c0-4.4,0-6.6-0.1-11
					c1.3,0,1.9,0,3.2,0c0.1,4.4,0.1,6.6,0.2,11C88.7,164.3,88,164.3,86.7,164.3z"/>
			</g>
		</g>
	</g>
	<g>
		<g>
			<g>
				<path id="XMLID_50_" class="st4" d="M145,228.5c0.1,12.3,0.1,24.6,0.2,37c-3.1,0-4.7,0-7.8,0s-4.7,0-7.8,0
					c-0.2-12.3-0.3-24.6-0.5-37c3.2,0,4.7,0,7.9,0S141.8,228.5,145,228.5z"/>
				<path class="st3" d="M132.9,243.5c0.1,4.4,0.1,6.6,0.2,11c-1.4,0-2.1,0-3.6,0c0,0.3,0,0.4,0,0.7c1.4,0,2.1,0,3.6,0
					c0.1,4.1,0.1,6.2,0.2,10.3c0.2,0,0.3,0,0.5,0c0-4.1,0-6.2-0.1-10.3c1.3,0,2,0,3.3,0c0.1,4.1,0.1,6.2,0.1,10.3c0.1,0,0.2,0,0.3,0
					s0.2,0,0.3,0c0-4.1,0-6.2,0-10.3c1.3,0,2,0,3.3,0c0.1,4.1,0.1,6.2,0.1,10.3c0.2,0,0.3,0,0.5,0c0-4.1,0-6.2,0-10.3
					c1.4,0,2.1,0,3.6,0c0-0.3,0-0.4,0-0.7c-1.4,0-2.1,0-3.6,0c0-4.4,0-6.6,0-11c1.4,0,2.1,0,3.5,0c0-0.3,0-0.5,0-0.9
					c-1.4,0-2.1,0-3.5,0c0-5.6,0-8.5,0-14.1c-0.4,0-0.6,0-0.9,0c0.1,5.6,0.1,8.5,0.2,14.1c-1.3,0-1.9,0-3.2,0c0-5.6,0-8.5-0.1-14.1
					c-0.2,0-0.3,0-0.5,0s-0.3,0-0.5,0c0.1,5.6,0.1,8.5,0.2,14.1c-1.3,0-1.9,0-3.2,0c0-5.6,0-8.5-0.1-14.1c-0.4,0-0.6,0-0.9,0
					c0.1,5.6,0.1,8.5,0.2,14.1c-1.4,0-2.1,0-3.5,0c0,0.3,0,0.5,0,0.9C130.7,243.5,131.4,243.5,132.9,243.5z M137.6,254.5
					c0-4.4,0-6.6,0-11c1.3,0,1.9,0,3.2,0c0.1,4.4,0.1,6.6,0.1,11C139.6,254.5,138.9,254.5,137.6,254.5z M133.7,254.5
					c0-4.4,0-6.6-0.1-11c1.3,0,1.9,0,3.2,0c0.1,4.4,0.1,6.6,0.2,11C135.7,254.5,135,254.5,133.7,254.5z"/>
			</g>
		</g>
	</g>
	<g>
		<g>
			<g>
				<path id="XMLID_49_" class="st4" d="M171,228.5c0.1,12.3,0.1,24.6,0.2,37c-3.1,0-4.7,0-7.8,0s-4.7,0-7.8,0
					c-0.2-12.3-0.3-24.6-0.5-37c3.2,0,4.7,0,7.9,0S167.8,228.5,171,228.5z"/>
				<path class="st3" d="M158.9,243.5c0.1,4.4,0.1,6.6,0.2,11c-1.4,0-2.1,0-3.6,0c0,0.3,0,0.4,0,0.7c1.4,0,2.1,0,3.6,0
					c0.1,4.1,0.1,6.2,0.2,10.3c0.2,0,0.3,0,0.5,0c0-4.1,0-6.2-0.1-10.3c1.3,0,2,0,3.3,0c0.1,4.1,0.1,6.2,0.1,10.3c0.1,0,0.2,0,0.3,0
					s0.2,0,0.3,0c0-4.1,0-6.2,0-10.3c1.3,0,2,0,3.3,0c0.1,4.1,0.1,6.2,0.1,10.3c0.2,0,0.3,0,0.5,0c0-4.1,0-6.2,0-10.3
					c1.4,0,2.1,0,3.6,0c0-0.3,0-0.4,0-0.7c-1.4,0-2.1,0-3.6,0c0-4.4,0-6.6,0-11c1.4,0,2.1,0,3.5,0c0-0.3,0-0.5,0-0.9
					c-1.4,0-2.1,0-3.5,0c0-5.6,0-8.5,0-14.1c-0.4,0-0.6,0-0.9,0c0.1,5.6,0.1,8.5,0.2,14.1c-1.3,0-1.9,0-3.2,0c0-5.6,0-8.5-0.1-14.1
					c-0.2,0-0.3,0-0.5,0s-0.3,0-0.5,0c0.1,5.6,0.1,8.5,0.2,14.1c-1.3,0-1.9,0-3.2,0c0-5.6,0-8.5-0.1-14.1c-0.4,0-0.6,0-0.9,0
					c0.1,5.6,0.1,8.5,0.2,14.1c-1.4,0-2.1,0-3.5,0c0,0.3,0,0.5,0,0.9C156.7,243.5,157.4,243.5,158.9,243.5z M163.6,254.5
					c0-4.4,0-6.6,0-11c1.3,0,1.9,0,3.2,0c0.1,4.4,0.1,6.6,0.1,11C165.6,254.5,164.9,254.5,163.6,254.5z M159.7,254.5
					c0-4.4,0-6.6-0.1-11c1.3,0,1.9,0,3.2,0c0.1,4.4,0.1,6.6,0.2,11C161.7,254.5,161,254.5,159.7,254.5z"/>
			</g>
		</g>
	</g>
	<g>
		<g>
			<g>
				<path id="XMLID_48_" class="st4" d="M197,228.5c0.1,12.3,0.1,24.6,0.2,37c-3.1,0-4.7,0-7.8,0s-4.7,0-7.8,0
					c-0.2-12.3-0.3-24.6-0.5-37c3.2,0,4.7,0,7.9,0S193.8,228.5,197,228.5z"/>
				<path class="st3" d="M184.9,243.5c0.1,4.4,0.1,6.6,0.2,11c-1.4,0-2.1,0-3.6,0c0,0.3,0,0.4,0,0.7c1.4,0,2.1,0,3.6,0
					c0.1,4.1,0.1,6.2,0.2,10.3c0.2,0,0.3,0,0.5,0c0-4.1,0-6.2-0.1-10.3c1.3,0,2,0,3.3,0c0.1,4.1,0.1,6.2,0.1,10.3c0.1,0,0.2,0,0.3,0
					s0.2,0,0.3,0c0-4.1,0-6.2,0-10.3c1.3,0,2,0,3.3,0c0.1,4.1,0.1,6.2,0.1,10.3c0.2,0,0.3,0,0.5,0c0-4.1,0-6.2,0-10.3
					c1.4,0,2.1,0,3.6,0c0-0.3,0-0.4,0-0.7c-1.4,0-2.1,0-3.6,0c0-4.4,0-6.6,0-11c1.4,0,2.1,0,3.5,0c0-0.3,0-0.5,0-0.9
					c-1.4,0-2.1,0-3.5,0c0-5.6,0-8.5,0-14.1c-0.4,0-0.6,0-0.9,0c0.1,5.6,0.1,8.5,0.2,14.1c-1.3,0-1.9,0-3.2,0c0-5.6,0-8.5-0.1-14.1
					c-0.2,0-0.3,0-0.5,0s-0.3,0-0.5,0c0.1,5.6,0.1,8.5,0.2,14.1c-1.3,0-1.9,0-3.2,0c0-5.6,0-8.5-0.1-14.1c-0.4,0-0.6,0-0.9,0
					c0.1,5.6,0.1,8.5,0.2,14.1c-1.4,0-2.1,0-3.5,0c0,0.3,0,0.5,0,0.9C182.7,243.5,183.4,243.5,184.9,243.5z M189.6,254.5
					c0-4.4,0-6.6,0-11c1.3,0,1.9,0,3.2,0c0.1,4.4,0.1,6.6,0.1,11C191.6,254.5,190.9,254.5,189.6,254.5z M185.7,254.5
					c0-4.4,0-6.6-0.1-11c1.3,0,1.9,0,3.2,0c0.1,4.4,0.1,6.6,0.2,11C187.7,254.5,187,254.5,185.7,254.5z"/>
			</g>
		</g>
	</g>
	<g>
		<g>
			<g>
				<path id="XMLID_47_" class="st4" d="M223,228.5c0.1,12.3,0.1,24.6,0.2,37c-3.1,0-4.7,0-7.8,0s-4.7,0-7.8,0
					c-0.2-12.3-0.3-24.6-0.5-37c3.2,0,4.7,0,7.9,0S219.8,228.5,223,228.5z"/>
				<path class="st3" d="M210.9,243.5c0.1,4.4,0.1,6.6,0.2,11c-1.4,0-2.1,0-3.6,0c0,0.3,0,0.4,0,0.7c1.4,0,2.1,0,3.6,0
					c0.1,4.1,0.1,6.2,0.2,10.3c0.2,0,0.3,0,0.5,0c0-4.1,0-6.2-0.1-10.3c1.3,0,2,0,3.3,0c0.1,4.1,0.1,6.2,0.1,10.3c0.1,0,0.2,0,0.3,0
					s0.2,0,0.3,0c0-4.1,0-6.2,0-10.3c1.3,0,2,0,3.3,0c0.1,4.1,0.1,6.2,0.1,10.3c0.2,0,0.3,0,0.5,0c0-4.1,0-6.2,0-10.3
					c1.4,0,2.1,0,3.6,0c0-0.3,0-0.4,0-0.7c-1.4,0-2.1,0-3.6,0c0-4.4,0-6.6,0-11c1.4,0,2.1,0,3.5,0c0-0.3,0-0.5,0-0.9
					c-1.4,0-2.1,0-3.5,0c0-5.6,0-8.5,0-14.1c-0.4,0-0.6,0-0.9,0c0.1,5.6,0.1,8.5,0.2,14.1c-1.3,0-1.9,0-3.2,0c0-5.6,0-8.5-0.1-14.1
					c-0.2,0-0.3,0-0.5,0s-0.3,0-0.5,0c0.1,5.6,0.1,8.5,0.2,14.1c-1.3,0-1.9,0-3.2,0c0-5.6,0-8.5-0.1-14.1c-0.4,0-0.6,0-0.9,0
					c0.1,5.6,0.1,8.5,0.2,14.1c-1.4,0-2.1,0-3.5,0c0,0.3,0,0.5,0,0.9C208.7,243.5,209.4,243.5,210.9,243.5z M215.6,254.5
					c0-4.4,0-6.6,0-11c1.3,0,1.9,0,3.2,0c0.1,4.4,0.1,6.6,0.1,11C217.6,254.5,216.9,254.5,215.6,254.5z M211.7,254.5
					c0-4.4,0-6.6-0.1-11c1.3,0,1.9,0,3.2,0c0.1,4.4,0.1,6.6,0.2,11C213.7,254.5,213,254.5,211.7,254.5z"/>
			</g>
		</g>
	</g>
	<g>
		<g>
			<g>
				<path id="XMLID_46_" class="st4" d="M249,228.5c0.1,12.3,0.1,24.6,0.2,37c-3.1,0-4.7,0-7.8,0s-4.7,0-7.8,0
					c-0.2-12.3-0.3-24.6-0.5-37c3.2,0,4.7,0,7.9,0S245.8,228.5,249,228.5z"/>
				<path class="st3" d="M236.9,243.5c0.1,4.4,0.1,6.6,0.2,11c-1.4,0-2.1,0-3.6,0c0,0.3,0,0.4,0,0.7c1.4,0,2.1,0,3.6,0
					c0.1,4.1,0.1,6.2,0.2,10.3c0.2,0,0.3,0,0.5,0c0-4.1,0-6.2-0.1-10.3c1.3,0,2,0,3.3,0c0.1,4.1,0.1,6.2,0.1,10.3c0.1,0,0.2,0,0.3,0
					s0.2,0,0.3,0c0-4.1,0-6.2,0-10.3c1.3,0,2,0,3.3,0c0.1,4.1,0.1,6.2,0.1,10.3c0.2,0,0.3,0,0.5,0c0-4.1,0-6.2,0-10.3
					c1.4,0,2.1,0,3.6,0c0-0.3,0-0.4,0-0.7c-1.4,0-2.1,0-3.6,0c0-4.4,0-6.6,0-11c1.4,0,2.1,0,3.5,0c0-0.3,0-0.5,0-0.9
					c-1.4,0-2.1,0-3.5,0c0-5.6,0-8.5,0-14.1c-0.4,0-0.6,0-0.9,0c0.1,5.6,0.1,8.5,0.2,14.1c-1.3,0-1.9,0-3.2,0c0-5.6,0-8.5-0.1-14.1
					c-0.2,0-0.3,0-0.5,0s-0.3,0-0.5,0c0.1,5.6,0.1,8.5,0.2,14.1c-1.3,0-1.9,0-3.2,0c0-5.6,0-8.5-0.1-14.1c-0.4,0-0.6,0-0.9,0
					c0.1,5.6,0.1,8.5,0.2,14.1c-1.4,0-2.1,0-3.5,0c0,0.3,0,0.5,0,0.9C234.7,243.5,235.4,243.5,236.9,243.5z M241.6,254.5
					c0-4.4,0-6.6,0-11c1.3,0,1.9,0,3.2,0c0.1,4.4,0.1,6.6,0.1,11C243.6,254.5,242.9,254.5,241.6,254.5z M237.7,254.5
					c0-4.4,0-6.6-0.1-11c1.3,0,1.9,0,3.2,0c0.1,4.4,0.1,6.6,0.2,11C239.7,254.5,239,254.5,237.7,254.5z"/>
			</g>
		</g>
	</g>
	<g>
		<g>
			<g>
				<path id="XMLID_45_" class="st4" d="M275,228.5c0.1,12.3,0.1,24.6,0.2,37c-3.1,0-4.7,0-7.8,0c-3.1,0-4.7,0-7.8,0
					c-0.2-12.3-0.3-24.6-0.5-37c3.2,0,4.7,0,7.9,0S271.8,228.5,275,228.5z"/>
				<path class="st3" d="M262.9,243.5c0.1,4.4,0.1,6.6,0.2,11c-1.4,0-2.1,0-3.6,0c0,0.3,0,0.4,0,0.7c1.4,0,2.1,0,3.6,0
					c0.1,4.1,0.1,6.2,0.2,10.3c0.2,0,0.3,0,0.5,0c0-4.1,0-6.2-0.1-10.3c1.3,0,2,0,3.3,0c0.1,4.1,0.1,6.2,0.1,10.3c0.1,0,0.2,0,0.3,0
					s0.2,0,0.3,0c0-4.1,0-6.2,0-10.3c1.3,0,2,0,3.3,0c0.1,4.1,0.1,6.2,0.1,10.3c0.2,0,0.3,0,0.5,0c0-4.1,0-6.2,0-10.3
					c1.4,0,2.1,0,3.6,0c0-0.3,0-0.4,0-0.7c-1.4,0-2.1,0-3.6,0c0-4.4,0-6.6,0-11c1.4,0,2.1,0,3.5,0c0-0.3,0-0.5,0-0.9
					c-1.4,0-2.1,0-3.5,0c0-5.6,0-8.5,0-14.1c-0.4,0-0.6,0-0.9,0c0.1,5.6,0.1,8.5,0.2,14.1c-1.3,0-1.9,0-3.2,0c0-5.6,0-8.5-0.1-14.1
					c-0.2,0-0.3,0-0.5,0s-0.3,0-0.5,0c0.1,5.6,0.1,8.5,0.2,14.1c-1.3,0-1.9,0-3.2,0c0-5.6,0-8.5-0.1-14.1c-0.4,0-0.6,0-0.9,0
					c0.1,5.6,0.1,8.5,0.2,14.1c-1.4,0-2.1,0-3.5,0c0,0.3,0,0.5,0,0.9C260.7,243.5,261.4,243.5,262.9,243.5z M267.6,254.5
					c0-4.4,0-6.6,0-11c1.3,0,1.9,0,3.2,0c0.1,4.4,0.1,6.6,0.1,11C269.6,254.5,268.9,254.5,267.6,254.5z M263.7,254.5
					c0-4.4,0-6.6-0.1-11c1.3,0,1.9,0,3.2,0c0.1,4.4,0.1,6.6,0.2,11C265.7,254.5,265,254.5,263.7,254.5z"/>
			</g>
		</g>
	</g>
	<g>
		<g>
			<g>
				<path id="XMLID_44_" class="st4" d="M145,172.4c0.1,12.3,0.1,24.6,0.2,37c-3.1,0-4.7,0-7.8,0s-4.7,0-7.8,0
					c-0.2-12.3-0.3-24.6-0.5-37c3.2,0,4.7,0,7.9,0S141.8,172.4,145,172.4z"/>
				<path class="st3" d="M132.9,187.3c0.1,4.4,0.1,6.6,0.2,11c-1.4,0-2.1,0-3.6,0c0,0.3,0,0.4,0,0.7c1.4,0,2.1,0,3.6,0
					c0.1,4.1,0.1,6.2,0.2,10.3c0.2,0,0.3,0,0.5,0c0-4.1,0-6.2-0.1-10.3c1.3,0,2,0,3.3,0c0.1,4.1,0.1,6.2,0.1,10.3c0.1,0,0.2,0,0.3,0
					s0.2,0,0.3,0c0-4.1,0-6.2,0-10.3c1.3,0,2,0,3.3,0c0.1,4.1,0.1,6.2,0.1,10.3c0.2,0,0.3,0,0.5,0c0-4.1,0-6.2,0-10.3
					c1.4,0,2.1,0,3.6,0c0-0.3,0-0.4,0-0.7c-1.4,0-2.1,0-3.6,0c0-4.4,0-6.6,0-11c1.4,0,2.1,0,3.5,0c0-0.3,0-0.5,0-0.9
					c-1.4,0-2.1,0-3.5,0c0-5.6,0-8.5,0-14.1c-0.4,0-0.6,0-0.9,0c0.1,5.6,0.1,8.5,0.2,14.1c-1.3,0-1.9,0-3.2,0c0-5.6,0-8.5-0.1-14.1
					c-0.2,0-0.3,0-0.5,0s-0.3,0-0.5,0c0.1,5.6,0.1,8.5,0.2,14.1c-1.3,0-1.9,0-3.2,0c0-5.6,0-8.5-0.1-14.1c-0.4,0-0.6,0-0.9,0
					c0.1,5.6,0.1,8.5,0.2,14.1c-1.4,0-2.1,0-3.5,0c0,0.3,0,0.5,0,0.9C130.7,187.3,131.4,187.3,132.9,187.3z M137.6,198.3
					c0-4.4,0-6.6,0-11c1.3,0,1.9,0,3.2,0c0.1,4.4,0.1,6.6,0.1,11C139.6,198.3,138.9,198.3,137.6,198.3z M133.7,198.3
					c0-4.4,0-6.6-0.1-11c1.3,0,1.9,0,3.2,0c0.1,4.4,0.1,6.6,0.2,11C135.7,198.3,135,198.3,133.7,198.3z"/>
			</g>
		</g>
	</g>
	<g>
		<g>
			<g>
				<path id="XMLID_43_" class="st4" d="M171,172.4c0.1,12.3,0.1,24.6,0.2,37c-3.1,0-4.7,0-7.8,0s-4.7,0-7.8,0
					c-0.2-12.3-0.3-24.6-0.5-37c3.2,0,4.7,0,7.9,0S167.8,172.4,171,172.4z"/>
				<path class="st3" d="M158.9,187.3c0.1,4.4,0.1,6.6,0.2,11c-1.4,0-2.1,0-3.6,0c0,0.3,0,0.4,0,0.7c1.4,0,2.1,0,3.6,0
					c0.1,4.1,0.1,6.2,0.2,10.3c0.2,0,0.3,0,0.5,0c0-4.1,0-6.2-0.1-10.3c1.3,0,2,0,3.3,0c0.1,4.1,0.1,6.2,0.1,10.3c0.1,0,0.2,0,0.3,0
					s0.2,0,0.3,0c0-4.1,0-6.2,0-10.3c1.3,0,2,0,3.3,0c0.1,4.1,0.1,6.2,0.1,10.3c0.2,0,0.3,0,0.5,0c0-4.1,0-6.2,0-10.3
					c1.4,0,2.1,0,3.6,0c0-0.3,0-0.4,0-0.7c-1.4,0-2.1,0-3.6,0c0-4.4,0-6.6,0-11c1.4,0,2.1,0,3.5,0c0-0.3,0-0.5,0-0.9
					c-1.4,0-2.1,0-3.5,0c0-5.6,0-8.5,0-14.1c-0.4,0-0.6,0-0.9,0c0.1,5.6,0.1,8.5,0.2,14.1c-1.3,0-1.9,0-3.2,0c0-5.6,0-8.5-0.1-14.1
					c-0.2,0-0.3,0-0.5,0s-0.3,0-0.5,0c0.1,5.6,0.1,8.5,0.2,14.1c-1.3,0-1.9,0-3.2,0c0-5.6,0-8.5-0.1-14.1c-0.4,0-0.6,0-0.9,0
					c0.1,5.6,0.1,8.5,0.2,14.1c-1.4,0-2.1,0-3.5,0c0,0.3,0,0.5,0,0.9C156.7,187.3,157.4,187.3,158.9,187.3z M163.6,198.3
					c0-4.4,0-6.6,0-11c1.3,0,1.9,0,3.2,0c0.1,4.4,0.1,6.6,0.1,11C165.6,198.3,164.9,198.3,163.6,198.3z M159.7,198.3
					c0-4.4,0-6.6-0.1-11c1.3,0,1.9,0,3.2,0c0.1,4.4,0.1,6.6,0.2,11C161.7,198.3,161,198.3,159.7,198.3z"/>
			</g>
		</g>
	</g>
	<g>
		<g>
			<g>
				<path id="XMLID_42_" class="st4" d="M197,172.4c0.1,12.3,0.1,24.6,0.2,37c-3.1,0-4.7,0-7.8,0s-4.7,0-7.8,0
					c-0.2-12.3-0.3-24.6-0.5-37c3.2,0,4.7,0,7.9,0S193.8,172.4,197,172.4z"/>
				<path class="st3" d="M184.9,187.3c0.1,4.4,0.1,6.6,0.2,11c-1.4,0-2.1,0-3.6,0c0,0.3,0,0.4,0,0.7c1.4,0,2.1,0,3.6,0
					c0.1,4.1,0.1,6.2,0.2,10.3c0.2,0,0.3,0,0.5,0c0-4.1,0-6.2-0.1-10.3c1.3,0,2,0,3.3,0c0.1,4.1,0.1,6.2,0.1,10.3c0.1,0,0.2,0,0.3,0
					s0.2,0,0.3,0c0-4.1,0-6.2,0-10.3c1.3,0,2,0,3.3,0c0.1,4.1,0.1,6.2,0.1,10.3c0.2,0,0.3,0,0.5,0c0-4.1,0-6.2,0-10.3
					c1.4,0,2.1,0,3.6,0c0-0.3,0-0.4,0-0.7c-1.4,0-2.1,0-3.6,0c0-4.4,0-6.6,0-11c1.4,0,2.1,0,3.5,0c0-0.3,0-0.5,0-0.9
					c-1.4,0-2.1,0-3.5,0c0-5.6,0-8.5,0-14.1c-0.4,0-0.6,0-0.9,0c0.1,5.6,0.1,8.5,0.2,14.1c-1.3,0-1.9,0-3.2,0c0-5.6,0-8.5-0.1-14.1
					c-0.2,0-0.3,0-0.5,0s-0.3,0-0.5,0c0.1,5.6,0.1,8.5,0.2,14.1c-1.3,0-1.9,0-3.2,0c0-5.6,0-8.5-0.1-14.1c-0.4,0-0.6,0-0.9,0
					c0.1,5.6,0.1,8.5,0.2,14.1c-1.4,0-2.1,0-3.5,0c0,0.3,0,0.5,0,0.9C182.7,187.3,183.4,187.3,184.9,187.3z M189.6,198.3
					c0-4.4,0-6.6,0-11c1.3,0,1.9,0,3.2,0c0.1,4.4,0.1,6.6,0.1,11C191.6,198.3,190.9,198.3,189.6,198.3z M185.7,198.3
					c0-4.4,0-6.6-0.1-11c1.3,0,1.9,0,3.2,0c0.1,4.4,0.1,6.6,0.2,11C187.7,198.3,187,198.3,185.7,198.3z"/>
			</g>
		</g>
	</g>
	<g>
		<g>
			<g>
				<path id="XMLID_41_" class="st4" d="M223,172.4c0.1,12.3,0.1,24.6,0.2,37c-3.1,0-4.7,0-7.8,0s-4.7,0-7.8,0
					c-0.2-12.3-0.3-24.6-0.5-37c3.2,0,4.7,0,7.9,0S219.8,172.4,223,172.4z"/>
				<path class="st3" d="M210.9,187.3c0.1,4.4,0.1,6.6,0.2,11c-1.4,0-2.1,0-3.6,0c0,0.3,0,0.4,0,0.7c1.4,0,2.1,0,3.6,0
					c0.1,4.1,0.1,6.2,0.2,10.3c0.2,0,0.3,0,0.5,0c0-4.1,0-6.2-0.1-10.3c1.3,0,2,0,3.3,0c0.1,4.1,0.1,6.2,0.1,10.3c0.1,0,0.2,0,0.3,0
					s0.2,0,0.3,0c0-4.1,0-6.2,0-10.3c1.3,0,2,0,3.3,0c0.1,4.1,0.1,6.2,0.1,10.3c0.2,0,0.3,0,0.5,0c0-4.1,0-6.2,0-10.3
					c1.4,0,2.1,0,3.6,0c0-0.3,0-0.4,0-0.7c-1.4,0-2.1,0-3.6,0c0-4.4,0-6.6,0-11c1.4,0,2.1,0,3.5,0c0-0.3,0-0.5,0-0.9
					c-1.4,0-2.1,0-3.5,0c0-5.6,0-8.5,0-14.1c-0.4,0-0.6,0-0.9,0c0.1,5.6,0.1,8.5,0.2,14.1c-1.3,0-1.9,0-3.2,0c0-5.6,0-8.5-0.1-14.1
					c-0.2,0-0.3,0-0.5,0s-0.3,0-0.5,0c0.1,5.6,0.1,8.5,0.2,14.1c-1.3,0-1.9,0-3.2,0c0-5.6,0-8.5-0.1-14.1c-0.4,0-0.6,0-0.9,0
					c0.1,5.6,0.1,8.5,0.2,14.1c-1.4,0-2.1,0-3.5,0c0,0.3,0,0.5,0,0.9C208.7,187.3,209.4,187.3,210.9,187.3z M215.6,198.3
					c0-4.4,0-6.6,0-11c1.3,0,1.9,0,3.2,0c0.1,4.4,0.1,6.6,0.1,11C217.6,198.3,216.9,198.3,215.6,198.3z M211.7,198.3
					c0-4.4,0-6.6-0.1-11c1.3,0,1.9,0,3.2,0c0.1,4.4,0.1,6.6,0.2,11C213.7,198.3,213,198.3,211.7,198.3z"/>
			</g>
		</g>
	</g>
	<g>
		<g>
			<g>
				<path id="XMLID_40_" class="st4" d="M249,172.4c0.1,12.3,0.1,24.6,0.2,37c-3.1,0-4.7,0-7.8,0s-4.7,0-7.8,0
					c-0.2-12.3-0.3-24.6-0.5-37c3.2,0,4.7,0,7.9,0S245.8,172.4,249,172.4z"/>
				<path class="st3" d="M236.9,187.3c0.1,4.4,0.1,6.6,0.2,11c-1.4,0-2.1,0-3.6,0c0,0.3,0,0.4,0,0.7c1.4,0,2.1,0,3.6,0
					c0.1,4.1,0.1,6.2,0.2,10.3c0.2,0,0.3,0,0.5,0c0-4.1,0-6.2-0.1-10.3c1.3,0,2,0,3.3,0c0.1,4.1,0.1,6.2,0.1,10.3c0.1,0,0.2,0,0.3,0
					s0.2,0,0.3,0c0-4.1,0-6.2,0-10.3c1.3,0,2,0,3.3,0c0.1,4.1,0.1,6.2,0.1,10.3c0.2,0,0.3,0,0.5,0c0-4.1,0-6.2,0-10.3
					c1.4,0,2.1,0,3.6,0c0-0.3,0-0.4,0-0.7c-1.4,0-2.1,0-3.6,0c0-4.4,0-6.6,0-11c1.4,0,2.1,0,3.5,0c0-0.3,0-0.5,0-0.9
					c-1.4,0-2.1,0-3.5,0c0-5.6,0-8.5,0-14.1c-0.4,0-0.6,0-0.9,0c0.1,5.6,0.1,8.5,0.2,14.1c-1.3,0-1.9,0-3.2,0c0-5.6,0-8.5-0.1-14.1
					c-0.2,0-0.3,0-0.5,0s-0.3,0-0.5,0c0.1,5.6,0.1,8.5,0.2,14.1c-1.3,0-1.9,0-3.2,0c0-5.6,0-8.5-0.1-14.1c-0.4,0-0.6,0-0.9,0
					c0.1,5.6,0.1,8.5,0.2,14.1c-1.4,0-2.1,0-3.5,0c0,0.3,0,0.5,0,0.9C234.7,187.3,235.4,187.3,236.9,187.3z M241.6,198.3
					c0-4.4,0-6.6,0-11c1.3,0,1.9,0,3.2,0c0.1,4.4,0.1,6.6,0.1,11C243.6,198.3,242.9,198.3,241.6,198.3z M237.7,198.3
					c0-4.4,0-6.6-0.1-11c1.3,0,1.9,0,3.2,0c0.1,4.4,0.1,6.6,0.2,11C239.7,198.3,239,198.3,237.7,198.3z"/>
			</g>
		</g>
	</g>
	<g>
		<g>
			<g>
				<path id="XMLID_39_" class="st4" d="M275,172.4c0.1,12.3,0.1,24.6,0.2,37c-3.1,0-4.7,0-7.8,0c-3.1,0-4.7,0-7.8,0
					c-0.2-12.3-0.3-24.6-0.5-37c3.2,0,4.7,0,7.9,0S271.8,172.4,275,172.4z"/>
				<path class="st3" d="M262.9,187.3c0.1,4.4,0.1,6.6,0.2,11c-1.4,0-2.1,0-3.6,0c0,0.3,0,0.4,0,0.7c1.4,0,2.1,0,3.6,0
					c0.1,4.1,0.1,6.2,0.2,10.3c0.2,0,0.3,0,0.5,0c0-4.1,0-6.2-0.1-10.3c1.3,0,2,0,3.3,0c0.1,4.1,0.1,6.2,0.1,10.3c0.1,0,0.2,0,0.3,0
					s0.2,0,0.3,0c0-4.1,0-6.2,0-10.3c1.3,0,2,0,3.3,0c0.1,4.1,0.1,6.2,0.1,10.3c0.2,0,0.3,0,0.5,0c0-4.1,0-6.2,0-10.3
					c1.4,0,2.1,0,3.6,0c0-0.3,0-0.4,0-0.7c-1.4,0-2.1,0-3.6,0c0-4.4,0-6.6,0-11c1.4,0,2.1,0,3.5,0c0-0.3,0-0.5,0-0.9
					c-1.4,0-2.1,0-3.5,0c0-5.6,0-8.5,0-14.1c-0.4,0-0.6,0-0.9,0c0.1,5.6,0.1,8.5,0.2,14.1c-1.3,0-1.9,0-3.2,0c0-5.6,0-8.5-0.1-14.1
					c-0.2,0-0.3,0-0.5,0s-0.3,0-0.5,0c0.1,5.6,0.1,8.5,0.2,14.1c-1.3,0-1.9,0-3.2,0c0-5.6,0-8.5-0.1-14.1c-0.4,0-0.6,0-0.9,0
					c0.1,5.6,0.1,8.5,0.2,14.1c-1.4,0-2.1,0-3.5,0c0,0.3,0,0.5,0,0.9C260.7,187.3,261.4,187.3,262.9,187.3z M267.6,198.3
					c0-4.4,0-6.6,0-11c1.3,0,1.9,0,3.2,0c0.1,4.4,0.1,6.6,0.1,11C269.6,198.3,268.9,198.3,267.6,198.3z M263.7,198.3
					c0-4.4,0-6.6-0.1-11c1.3,0,1.9,0,3.2,0c0.1,4.4,0.1,6.6,0.2,11C265.7,198.3,265,198.3,263.7,198.3z"/>
			</g>
		</g>
	</g>
	<g>
		<g>
			<g>
				<path id="XMLID_38_" class="st4" d="M145,116.4c0.1,12.3,0.1,24.6,0.2,37c-3.1,0-4.7,0-7.8,0s-4.7,0-7.8,0
					c-0.2-12.3-0.3-24.6-0.5-37c3.2,0,4.7,0,7.9,0S141.8,116.4,145,116.4z"/>
				<path class="st3" d="M132.9,131.3c0.1,4.4,0.1,6.6,0.2,11c-1.4,0-2.1,0-3.6,0c0,0.3,0,0.4,0,0.7c1.4,0,2.1,0,3.6,0
					c0.1,4.1,0.1,6.2,0.2,10.3c0.2,0,0.3,0,0.5,0c0-4.1,0-6.2-0.1-10.3c1.3,0,2,0,3.3,0c0.1,4.1,0.1,6.2,0.1,10.3c0.1,0,0.2,0,0.3,0
					s0.2,0,0.3,0c0-4.1,0-6.2,0-10.3c1.3,0,2,0,3.3,0c0.1,4.1,0.1,6.2,0.1,10.3c0.2,0,0.3,0,0.5,0c0-4.1,0-6.2,0-10.3
					c1.4,0,2.1,0,3.6,0c0-0.3,0-0.4,0-0.7c-1.4,0-2.1,0-3.6,0c0-4.4,0-6.6,0-11c1.4,0,2.1,0,3.5,0c0-0.3,0-0.5,0-0.9
					c-1.4,0-2.1,0-3.5,0c0-5.6,0-8.5,0-14.1c-0.4,0-0.6,0-0.9,0c0.1,5.6,0.1,8.5,0.2,14.1c-1.3,0-1.9,0-3.2,0c0-5.6,0-8.5-0.1-14.1
					c-0.2,0-0.3,0-0.5,0s-0.3,0-0.5,0c0.1,5.6,0.1,8.5,0.2,14.1c-1.3,0-1.9,0-3.2,0c0-5.6,0-8.5-0.1-14.1c-0.4,0-0.6,0-0.9,0
					c0.1,5.6,0.1,8.5,0.2,14.1c-1.4,0-2.1,0-3.5,0c0,0.3,0,0.5,0,0.9C130.7,131.3,131.4,131.3,132.9,131.3z M137.6,142.3
					c0-4.4,0-6.6,0-11c1.3,0,1.9,0,3.2,0c0.1,4.4,0.1,6.6,0.1,11C139.6,142.3,138.9,142.3,137.6,142.3z M133.7,142.3
					c0-4.4,0-6.6-0.1-11c1.3,0,1.9,0,3.2,0c0.1,4.4,0.1,6.6,0.2,11C135.7,142.3,135,142.3,133.7,142.3z"/>
			</g>
		</g>
	</g>
	<g>
		<g>
			<g>
				<path id="XMLID_37_" class="st4" d="M171,116.4c0.1,12.3,0.1,24.6,0.2,37c-3.1,0-4.7,0-7.8,0s-4.7,0-7.8,0
					c-0.2-12.3-0.3-24.6-0.5-37c3.2,0,4.7,0,7.9,0S167.8,116.4,171,116.4z"/>
				<path class="st3" d="M158.9,131.3c0.1,4.4,0.1,6.6,0.2,11c-1.4,0-2.1,0-3.6,0c0,0.3,0,0.4,0,0.7c1.4,0,2.1,0,3.6,0
					c0.1,4.1,0.1,6.2,0.2,10.3c0.2,0,0.3,0,0.5,0c0-4.1,0-6.2-0.1-10.3c1.3,0,2,0,3.3,0c0.1,4.1,0.1,6.2,0.1,10.3c0.1,0,0.2,0,0.3,0
					s0.2,0,0.3,0c0-4.1,0-6.2,0-10.3c1.3,0,2,0,3.3,0c0.1,4.1,0.1,6.2,0.1,10.3c0.2,0,0.3,0,0.5,0c0-4.1,0-6.2,0-10.3
					c1.4,0,2.1,0,3.6,0c0-0.3,0-0.4,0-0.7c-1.4,0-2.1,0-3.6,0c0-4.4,0-6.6,0-11c1.4,0,2.1,0,3.5,0c0-0.3,0-0.5,0-0.9
					c-1.4,0-2.1,0-3.5,0c0-5.6,0-8.5,0-14.1c-0.4,0-0.6,0-0.9,0c0.1,5.6,0.1,8.5,0.2,14.1c-1.3,0-1.9,0-3.2,0c0-5.6,0-8.5-0.1-14.1
					c-0.2,0-0.3,0-0.5,0s-0.3,0-0.5,0c0.1,5.6,0.1,8.5,0.2,14.1c-1.3,0-1.9,0-3.2,0c0-5.6,0-8.5-0.1-14.1c-0.4,0-0.6,0-0.9,0
					c0.1,5.6,0.1,8.5,0.2,14.1c-1.4,0-2.1,0-3.5,0c0,0.3,0,0.5,0,0.9C156.7,131.3,157.4,131.3,158.9,131.3z M163.6,142.3
					c0-4.4,0-6.6,0-11c1.3,0,1.9,0,3.2,0c0.1,4.4,0.1,6.6,0.1,11C165.6,142.3,164.9,142.3,163.6,142.3z M159.7,142.3
					c0-4.4,0-6.6-0.1-11c1.3,0,1.9,0,3.2,0c0.1,4.4,0.1,6.6,0.2,11C161.7,142.3,161,142.3,159.7,142.3z"/>
			</g>
		</g>
	</g>
	<g>
		<g>
			<g>
				<path id="XMLID_36_" class="st4" d="M197,116.4c0.1,12.3,0.1,24.6,0.2,37c-3.1,0-4.7,0-7.8,0s-4.7,0-7.8,0
					c-0.2-12.3-0.3-24.6-0.5-37c3.2,0,4.7,0,7.9,0S193.8,116.4,197,116.4z"/>
				<path class="st3" d="M184.9,131.3c0.1,4.4,0.1,6.6,0.2,11c-1.4,0-2.1,0-3.6,0c0,0.3,0,0.4,0,0.7c1.4,0,2.1,0,3.6,0
					c0.1,4.1,0.1,6.2,0.2,10.3c0.2,0,0.3,0,0.5,0c0-4.1,0-6.2-0.1-10.3c1.3,0,2,0,3.3,0c0.1,4.1,0.1,6.2,0.1,10.3c0.1,0,0.2,0,0.3,0
					s0.2,0,0.3,0c0-4.1,0-6.2,0-10.3c1.3,0,2,0,3.3,0c0.1,4.1,0.1,6.2,0.1,10.3c0.2,0,0.3,0,0.5,0c0-4.1,0-6.2,0-10.3
					c1.4,0,2.1,0,3.6,0c0-0.3,0-0.4,0-0.7c-1.4,0-2.1,0-3.6,0c0-4.4,0-6.6,0-11c1.4,0,2.1,0,3.5,0c0-0.3,0-0.5,0-0.9
					c-1.4,0-2.1,0-3.5,0c0-5.6,0-8.5,0-14.1c-0.4,0-0.6,0-0.9,0c0.1,5.6,0.1,8.5,0.2,14.1c-1.3,0-1.9,0-3.2,0c0-5.6,0-8.5-0.1-14.1
					c-0.2,0-0.3,0-0.5,0s-0.3,0-0.5,0c0.1,5.6,0.1,8.5,0.2,14.1c-1.3,0-1.9,0-3.2,0c0-5.6,0-8.5-0.1-14.1c-0.4,0-0.6,0-0.9,0
					c0.1,5.6,0.1,8.5,0.2,14.1c-1.4,0-2.1,0-3.5,0c0,0.3,0,0.5,0,0.9C182.7,131.3,183.4,131.3,184.9,131.3z M189.6,142.3
					c0-4.4,0-6.6,0-11c1.3,0,1.9,0,3.2,0c0.1,4.4,0.1,6.6,0.1,11C191.6,142.3,190.9,142.3,189.6,142.3z M185.7,142.3
					c0-4.4,0-6.6-0.1-11c1.3,0,1.9,0,3.2,0c0.1,4.4,0.1,6.6,0.2,11C187.7,142.3,187,142.3,185.7,142.3z"/>
			</g>
		</g>
	</g>
	<g>
		<g>
			<g>
				<path id="XMLID_35_" class="st4" d="M223,116.4c0.1,12.3,0.1,24.6,0.2,37c-3.1,0-4.7,0-7.8,0s-4.7,0-7.8,0
					c-0.2-12.3-0.3-24.6-0.5-37c3.2,0,4.7,0,7.9,0S219.8,116.4,223,116.4z"/>
				<path class="st3" d="M210.9,131.3c0.1,4.4,0.1,6.6,0.2,11c-1.4,0-2.1,0-3.6,0c0,0.3,0,0.4,0,0.7c1.4,0,2.1,0,3.6,0
					c0.1,4.1,0.1,6.2,0.2,10.3c0.2,0,0.3,0,0.5,0c0-4.1,0-6.2-0.1-10.3c1.3,0,2,0,3.3,0c0.1,4.1,0.1,6.2,0.1,10.3c0.1,0,0.2,0,0.3,0
					s0.2,0,0.3,0c0-4.1,0-6.2,0-10.3c1.3,0,2,0,3.3,0c0.1,4.1,0.1,6.2,0.1,10.3c0.2,0,0.3,0,0.5,0c0-4.1,0-6.2,0-10.3
					c1.4,0,2.1,0,3.6,0c0-0.3,0-0.4,0-0.7c-1.4,0-2.1,0-3.6,0c0-4.4,0-6.6,0-11c1.4,0,2.1,0,3.5,0c0-0.3,0-0.5,0-0.9
					c-1.4,0-2.1,0-3.5,0c0-5.6,0-8.5,0-14.1c-0.4,0-0.6,0-0.9,0c0.1,5.6,0.1,8.5,0.2,14.1c-1.3,0-1.9,0-3.2,0c0-5.6,0-8.5-0.1-14.1
					c-0.2,0-0.3,0-0.5,0s-0.3,0-0.5,0c0.1,5.6,0.1,8.5,0.2,14.1c-1.3,0-1.9,0-3.2,0c0-5.6,0-8.5-0.1-14.1c-0.4,0-0.6,0-0.9,0
					c0.1,5.6,0.1,8.5,0.2,14.1c-1.4,0-2.1,0-3.5,0c0,0.3,0,0.5,0,0.9C208.7,131.3,209.4,131.3,210.9,131.3z M215.6,142.3
					c0-4.4,0-6.6,0-11c1.3,0,1.9,0,3.2,0c0.1,4.4,0.1,6.6,0.1,11C217.6,142.3,216.9,142.3,215.6,142.3z M211.7,142.3
					c0-4.4,0-6.6-0.1-11c1.3,0,1.9,0,3.2,0c0.1,4.4,0.1,6.6,0.2,11C213.7,142.3,213,142.3,211.7,142.3z"/>
			</g>
		</g>
	</g>
	<g>
		<g>
			<g>
				<path id="XMLID_34_" class="st4" d="M249,116.4c0.1,12.3,0.1,24.6,0.2,37c-3.1,0-4.7,0-7.8,0s-4.7,0-7.8,0
					c-0.2-12.3-0.3-24.6-0.5-37c3.2,0,4.7,0,7.9,0S245.8,116.4,249,116.4z"/>
				<path class="st3" d="M236.9,131.3c0.1,4.4,0.1,6.6,0.2,11c-1.4,0-2.1,0-3.6,0c0,0.3,0,0.4,0,0.7c1.4,0,2.1,0,3.6,0
					c0.1,4.1,0.1,6.2,0.2,10.3c0.2,0,0.3,0,0.5,0c0-4.1,0-6.2-0.1-10.3c1.3,0,2,0,3.3,0c0.1,4.1,0.1,6.2,0.1,10.3c0.1,0,0.2,0,0.3,0
					s0.2,0,0.3,0c0-4.1,0-6.2,0-10.3c1.3,0,2,0,3.3,0c0.1,4.1,0.1,6.2,0.1,10.3c0.2,0,0.3,0,0.5,0c0-4.1,0-6.2,0-10.3
					c1.4,0,2.1,0,3.6,0c0-0.3,0-0.4,0-0.7c-1.4,0-2.1,0-3.6,0c0-4.4,0-6.6,0-11c1.4,0,2.1,0,3.5,0c0-0.3,0-0.5,0-0.9
					c-1.4,0-2.1,0-3.5,0c0-5.6,0-8.5,0-14.1c-0.4,0-0.6,0-0.9,0c0.1,5.6,0.1,8.5,0.2,14.1c-1.3,0-1.9,0-3.2,0c0-5.6,0-8.5-0.1-14.1
					c-0.2,0-0.3,0-0.5,0s-0.3,0-0.5,0c0.1,5.6,0.1,8.5,0.2,14.1c-1.3,0-1.9,0-3.2,0c0-5.6,0-8.5-0.1-14.1c-0.4,0-0.6,0-0.9,0
					c0.1,5.6,0.1,8.5,0.2,14.1c-1.4,0-2.1,0-3.5,0c0,0.3,0,0.5,0,0.9C234.7,131.3,235.4,131.3,236.9,131.3z M241.6,142.3
					c0-4.4,0-6.6,0-11c1.3,0,1.9,0,3.2,0c0.1,4.4,0.1,6.6,0.1,11C243.6,142.3,242.9,142.3,241.6,142.3z M237.7,142.3
					c0-4.4,0-6.6-0.1-11c1.3,0,1.9,0,3.2,0c0.1,4.4,0.1,6.6,0.2,11C239.7,142.3,239,142.3,237.7,142.3z"/>
			</g>
		</g>
	</g>
	<g>
		<g>
			<g>
				<path id="XMLID_33_" class="st4" d="M275,116.4c0.1,12.3,0.1,24.6,0.2,37c-3.1,0-4.7,0-7.8,0c-3.1,0-4.7,0-7.8,0
					c-0.2-12.3-0.3-24.6-0.5-37c3.2,0,4.7,0,7.9,0C270.2,116.4,271.8,116.4,275,116.4z"/>
				<path class="st3" d="M262.9,131.3c0.1,4.4,0.1,6.6,0.2,11c-1.4,0-2.1,0-3.6,0c0,0.3,0,0.4,0,0.7c1.4,0,2.1,0,3.6,0
					c0.1,4.1,0.1,6.2,0.2,10.3c0.2,0,0.3,0,0.5,0c0-4.1,0-6.2-0.1-10.3c1.3,0,2,0,3.3,0c0.1,4.1,0.1,6.2,0.1,10.3c0.1,0,0.2,0,0.3,0
					s0.2,0,0.3,0c0-4.1,0-6.2,0-10.3c1.3,0,2,0,3.3,0c0.1,4.1,0.1,6.2,0.1,10.3c0.2,0,0.3,0,0.5,0c0-4.1,0-6.2,0-10.3
					c1.4,0,2.1,0,3.6,0c0-0.3,0-0.4,0-0.7c-1.4,0-2.1,0-3.6,0c0-4.4,0-6.6,0-11c1.4,0,2.1,0,3.5,0c0-0.3,0-0.5,0-0.9
					c-1.4,0-2.1,0-3.5,0c0-5.6,0-8.5,0-14.1c-0.4,0-0.6,0-0.9,0c0.1,5.6,0.1,8.5,0.2,14.1c-1.3,0-1.9,0-3.2,0c0-5.6,0-8.5-0.1-14.1
					c-0.2,0-0.3,0-0.5,0s-0.3,0-0.5,0c0.1,5.6,0.1,8.5,0.2,14.1c-1.3,0-1.9,0-3.2,0c0-5.6,0-8.5-0.1-14.1c-0.4,0-0.6,0-0.9,0
					c0.1,5.6,0.1,8.5,0.2,14.1c-1.4,0-2.1,0-3.5,0c0,0.3,0,0.5,0,0.9C260.7,131.3,261.4,131.3,262.9,131.3z M267.6,142.3
					c0-4.4,0-6.6,0-11c1.3,0,1.9,0,3.2,0c0.1,4.4,0.1,6.6,0.1,11C269.6,142.3,268.9,142.3,267.6,142.3z M263.7,142.3
					c0-4.4,0-6.6-0.1-11c1.3,0,1.9,0,3.2,0c0.1,4.4,0.1,6.6,0.2,11C265.7,142.3,265,142.3,263.7,142.3z"/>
			</g>
		</g>
	</g>
	<path class="st15" d="M276.5,88l-0.1,7.8h-5.1V88H276.5z M259.3,88v7.8h5.1l0.1-7.8H259.3z M247.2,88v7.8h5.1l0.1-7.8H247.2z
		 M235.2,88v7.8h5.1l0.1-7.8H235.2z M223.2,88v7.8h5.1l0.1-7.8H223.2z M211.1,88v7.8h5.1l0.1-7.8H211.1z M199.1,88v7.8h5.1V88H199.1
		z M187.1,88l0.1,7.8h5.1V88H187.1z M175,88l0.1,7.8h5.1V88H175z M163,88l0.1,7.8h5.1V88H163z M150.9,88l0.1,7.8h5.1V88H150.9z
		 M138.9,88l0.1,7.8h5.1V88H138.9z M126.9,88l0.1,7.8h5.1V88H126.9z"/>
	<path class="st4" d="M128.8,95.3l-0.1-5.2h2.5v5.2H128.8z M140.8,95.3l-0.1-5.2h2.5v5.2H140.8z M152.7,95.3v-5.2h2.5v5.2H152.7z
		 M164.6,95.3v-5.2h2.5v5.2H164.6z M176.6,95.3v-5.2h2.5v5.2H176.6z M188.5,95.3v-5.2h2.5v5.2H188.5z M200.4,95.3v-5.2h2.5v5.2
		H200.4z M212.4,95.3v-5.2h2.5v5.2H212.4z M224.3,95.3v-5.2h2.5v5.2H224.3z M236.3,95.3v-5.2h2.5v5.2H236.3z M248.2,95.3v-5.2h2.5
		v5.2H248.2z M260.1,95.3v-5.2h2.5l-0.1,5.2H260.1z M272.1,95.3v-5.2h2.5l-0.1,5.2H272.1z"/>
	<polygon class="st14" points="111.9,375 293.7,375 294.7,381.7 111,381.7 	"/>
	<g>
		<polygon class="st14" points="173.1,372.2 230.6,372.2 230.9,375.3 172.8,375.3 		"/>
	</g>
	<g>
		<polygon class="st3" points="171.5,375.3 232.2,375.3 232.6,378.5 171.2,378.5 		"/>
	</g>
	<g>
		<polygon class="st14" points="170,378.5 233.7,378.5 234.1,381.7 169.7,381.7 		"/>
	</g>
	<g>
		<polygon class="st3" points="173.4,331.2 230.3,331.2 231.2,328.1 172.5,328.1 		"/>
	</g>
	<rect x="178" y="331.2" class="st14" width="48.6" height="41"/>
	<rect x="179.6" y="333.2" class="st16" width="45.4" height="39"/>
	<rect x="202" y="333.1" class="st14" width="1" height="39"/>
	<rect x="185.6" y="342.3" class="st17" width="11" height="7.2"/>
	<rect x="208.6" y="342.3" class="st17" width="11" height="7.2"/>
	<g>
		<polygon class="st18" points="187.6,346.4 187.3,346.4 186,346.4 186,346.8 187.4,346.8 187.6,346.8 189.1,346.8 189.4,346.8 
			190.9,346.8 191.2,346.8 192.6,346.8 192.9,346.8 194.4,346.8 194.7,346.8 196.2,346.8 196.2,346.8 196.2,346.4 196.2,346.4 
			194.7,346.4 194.4,346.4 192.9,346.4 192.6,346.4 191.2,346.4 190.9,346.4 189.4,346.4 189.1,346.4 		"/>
		<path class="st18" d="M187.6,346.8v2.2h-0.2v-2.2H187.6z M187.3,342.9v3.5h0.3v-3.5H187.3z M189.1,346.8v2.2h0.2v-2.2H189.1z
			 M189.1,342.9v3.5h0.3v-3.5H189.1z M190.9,346.8v2.2h0.2v-2.2H190.9z M190.8,342.9v3.5h0.3v-3.5H190.8z M192.6,346.8v2.2h0.2v-2.2
			H192.6z M192.6,342.9v3.5h0.3v-3.5H192.6z M194.4,346.8v2.2h0.2v-2.2H194.4z M194.4,342.9v3.5h0.3v-3.5H194.4z"/>
		<path class="st14" d="M197.3,341.6l-0.2,8.3H185l-0.2-8.3H197.3z M186,346.8l0.1,2.2h1.3h0.2h1.5h0.2h1.5h0.2h1.5h0.2h1.5h0.2h1.5
			l0.1-2.2v-0.3l0.1-3.5h-1.5h-0.4H193h-0.4h-1.4h-0.4h-1.4H189h-1.4h-0.4h-1.4l0.1,3.5L186,346.8z"/>
		<polygon class="st19" points="196.3,342.9 185.9,342.9 186.1,349 186.2,349 186.1,343.1 196.3,343.1 		"/>
	</g>
	<g>
		<polygon class="st18" points="210.6,346.4 210.3,346.4 209,346.4 209,346.8 210.4,346.8 210.6,346.8 212.1,346.8 212.4,346.8 
			213.9,346.8 214.2,346.8 215.6,346.8 215.9,346.8 217.4,346.8 217.7,346.8 219.2,346.8 219.2,346.8 219.2,346.4 219.2,346.4 
			217.7,346.4 217.4,346.4 215.9,346.4 215.6,346.4 214.2,346.4 213.9,346.4 212.4,346.4 212.1,346.4 		"/>
		<path class="st18" d="M210.6,346.8v2.2h-0.2v-2.2H210.6z M210.3,342.9v3.5h0.3v-3.5H210.3z M212.1,346.8v2.2h0.2v-2.2H212.1z
			 M212.1,342.9v3.5h0.3v-3.5H212.1z M213.9,346.8v2.2h0.2v-2.2H213.9z M213.8,342.9v3.5h0.3v-3.5H213.8z M215.6,346.8v2.2h0.2v-2.2
			H215.6z M215.6,342.9v3.5h0.3v-3.5H215.6z M217.4,346.8v2.2h0.2v-2.2H217.4z M217.4,342.9v3.5h0.3v-3.5H217.4z"/>
		<path class="st14" d="M220.3,341.6l-0.2,8.3H208l-0.2-8.3H220.3z M209,346.8l0.1,2.2h1.3h0.2h1.5h0.2h1.5h0.2h1.5h0.2h1.5h0.2h1.5
			l0.1-2.2v-0.3l0.1-3.5h-1.5h-0.4H216h-0.4h-1.4h-0.4h-1.4H212h-1.4h-0.4h-1.4l0.1,3.5L209,346.8z"/>
		<polygon class="st19" points="219.3,342.9 208.9,342.9 209.1,349 209.2,349 209.1,343.1 219.3,343.1 		"/>
	</g>
	<g>
		<polygon class="st4" points="240.3,356.8 272.8,356.8 273.4,333.2 239.7,333.2 		"/>
		<path class="st3" d="M243.3,350.3v6.5h0.6v-6.5h4.4v6.5h0.6v-6.5h4.4v6.5h0.6v-6.5h4.4v6.5h0.6v-6.5h4.4v6.5h0.6v-6.5h4.4v6.5h0.6
			v-6.5h3.8v-0.6h-3.8v-6.2h3.9v-0.6h-3.9v-9.7h-0.8v9.7h-4.4v-9.7h-0.8v9.7h-4.4v-9.7h-0.8v9.7H254v-9.7h-0.8v9.7H249v-9.7h-0.8
			v9.7h-4.4v-9.7H243v9.7h-3.3v0.6h3.3v6.2h-3.2v0.6H243.3z M264.1,349.7v-6.2h4.4v6.2H264.1z M259.1,349.7v-6.2h4.4v6.2H259.1z
			 M254,349.7v-6.2h4.4v6.2H254z M249,349.7v-6.2h4.4v6.2H249z M243.9,349.7v-6.2h4.4v6.2H243.9z"/>
		<g>
			<polygon class="st14" points="238.1,333.3 274.5,333.3 275,330.2 237.5,330.2 			"/>
		</g>
		<g>
			<polygon class="st14" points="239.6,359.3 273,359.3 273.5,356.8 239.1,356.8 			"/>
		</g>
	</g>
	<g>
		<polygon class="st4" points="132.3,356.8 164.8,356.8 165.4,333.2 131.7,333.2 		"/>
		<path class="st3" d="M135.3,350.3v6.5h0.6v-6.5h4.4v6.5h0.6v-6.5h4.4v6.5h0.6v-6.5h4.4v6.5h0.6v-6.5h4.4v6.5h0.6v-6.5h4.4v6.5h0.6
			v-6.5h3.8v-0.6h-3.8v-6.2h3.9v-0.6h-3.9v-9.7h-0.8v9.7h-4.4v-9.7h-0.8v9.7h-4.4v-9.7h-0.8v9.7H146v-9.7h-0.8v9.7H141v-9.7h-0.8
			v9.7h-4.4v-9.7H135v9.7h-3.3v0.6h3.3v6.2h-3.2v0.6H135.3z M156.1,349.7v-6.2h4.4v6.2H156.1z M151.1,349.7v-6.2h4.4v6.2H151.1z
			 M146,349.7v-6.2h4.4v6.2H146z M141,349.7v-6.2h4.4v6.2H141z M135.9,349.7v-6.2h4.4v6.2H135.9z"/>
		<g>
			<polygon class="st14" points="130.1,333.3 166.5,333.3 167,330.2 129.5,330.2 			"/>
		</g>
		<g>
			<polygon class="st14" points="131.6,359.3 165,359.3 165.5,356.8 131.1,356.8 			"/>
		</g>
	</g>
</g>
<g>
	<g>
		<rect x="738.7" y="353.3" class="st8" width="1.5" height="25.7"/>
		<polygon class="st9" points="739.8,307.6 732.6,359.4 747,359.4 		"/>
		<polygon class="st10" points="733.1,356.1 746,352 745.8,350.6 733.3,354.5 		"/>
		<polygon class="st10" points="735.3,339.7 743.9,337 743.7,335.6 735.5,338.2 		"/>
	</g>
	<g>
		<rect x="726.3" y="355.1" class="st8" width="1.2" height="13.8"/>
		<polygon class="st9" points="726.9,328.4 722.9,361.2 731,361.2 		"/>
		<polygon class="st10" points="724.3,349.3 730.1,354.3 729.9,352.5 724.5,347.9 		"/>
		<polygon class="st10" points="725.2,342.1 728.8,343.3 728.6,342 725.4,340.9 		"/>
	</g>
	<g>
		<path class="st9" d="M706.2,373.4c0.1-0.6,0.2-1.2,0.2-1.8c0-7-6.5-12.6-14.6-12.6s-14.6,5.7-14.6,12.6c0,0.6,0.1,1.2,0.2,1.8
			H706.2z"/>
		<path class="st10" d="M722.7,370.3c0.1-0.8,0.2-1.7,0.2-2.6c0-9.8-6.5-17.8-14.6-17.8s-14.6,8-14.6,17.8c0,0.9,0.1,1.7,0.2,2.6
			H722.7z"/>
		<path class="st10" d="M717.4,381.2c-0.1-0.6-0.2-1.2-0.2-1.8c0-7,6.5-12.6,14.6-12.6s14.6,5.7,14.6,12.6c0,0.6-0.1,1.2-0.2,1.8
			H717.4z"/>
		<path class="st9" d="M694,381.2c-0.1-0.8-0.2-1.7-0.2-2.6c0-9.8,8.3-17.8,18.5-17.8s18.5,8,18.5,17.8c0,0.9-0.1,1.7-0.2,2.6H694z"
			/>
		<path class="st10" d="M708.2,360.8c-5.1,0-9.7,2.5-12.7,6.5c-1.5-0.4-3.2-0.6-4.9-0.6c-9.1,0-16.4,5.7-16.4,12.6
			c0,0.6,0.1,1.2,0.2,1.8h50c0.1-0.8,0.2-1.7,0.2-2.6C724.6,368.8,717.3,360.8,708.2,360.8z"/>
	</g>
	<g>
		<g>
			<path class="st20" d="M63.6,354.6c-1.8-4.6-3.5-9.1-4.7-13.9c-3.8-14.6-2.9-25.3-2.8-30.4c0-0.7-1.1-0.9-1.2-0.2
				c-0.3,2.4-0.4,4.8-0.4,7.3c0,4.1,0.2,8.2,0.7,12.3c-2.8,0.7-5.5-0.4-7.6-2.3c-3.7-3.4-5.1-7.9-5.7-13c-0.1-0.5-0.1-1-0.5-1.3
				c-0.1-0.3-0.5-0.3-0.6,0c-0.6,0.6-0.3,1.8-0.2,2.6c1.2,10.7,7.7,15.9,12.9,15.8c0.6,0,1.3,0,1.9-0.2c0.4,2.6,0.9,5.1,1.5,7.6
				c1.1,4.8,2.7,9.4,4.5,14c6,15.7,7.9,23.7,9.5,28.2c0.3,0.9,1.6,0.5,1.4-0.4C72.3,380.5,67.6,365.1,63.6,354.6z"/>
			<path class="st20" d="M87.5,313.4c-0.1-0.3-0.3-0.6-0.3-0.9c-0.1-0.4-0.8-0.5-0.8,0c0,0.3-0.2,0.4-0.2,0.7
				c-0.2,0.9,0.3,5.7-0.9,13.2c-0.3,2-0.6,4-1.3,5.8c-1.1,3.1-3,6.4-5.4,8.4c-0.1-4.4-0.3-8.7-0.9-13.1c-0.3-2.6-0.7-5.2-1.2-7.8
				c-0.2-1.3-0.5-2.5-0.8-3.7c-0.3-1.3-0.6-2.6-1.2-3.7c-0.2-0.4-0.7-0.2-0.7,0.2c0,1.2,0.2,2.2,0.5,3.3c0.2,1.1,0.5,2.2,0.7,3.4
				c1.5,8.3,2.1,15.8,2.1,24.1c-2.6-3.2-4.8-7.1-6.4-10.9c-2-4.6-3.3-9.5-3.9-14.4c-0.2-1.4-0.3-2.8-0.3-4.2c0-0.7,0-1.5,0-2.2
				c0-0.4-0.2-1.5-0.8-1.2c-0.6,0.3-0.5,1-0.6,1.6s-0.1,1.3,0,1.9c0,1.2,0.1,2.5,0.2,3.7c0.8,8.9,4.2,17.8,9.3,25
				c0.8,1.1,1.6,2.3,2.5,3.2c-0.2,14.3-2.3,32.4-2.4,33.8c0,0.3,0.1,0.6,0.1,1c0.1,0.6,0.9,0.5,1.1,0c0.3-0.9,0.3-1.3,0.8-6.5
				c0.9-9.3,1.9-30.6,1.8-31.5c3-2.2,5.2-5.5,6.6-9.1c0.7-1.9,1.2-3.8,1.5-5.8C87.7,321.3,87.6,314.5,87.5,313.4z"/>
		</g>
		<path class="st3" d="M66.6,301.7c0.1-1,0.2-2.1,0.2-3.2c0-12-7.4-21.6-16.6-21.6c-9.1,0-16.6,9.7-16.6,21.6c0,1.1,0.1,2.1,0.2,3.2
			H66.6z"/>
		<path class="st9" d="M85.3,296.4c0.1-1.5,0.2-2.9,0.2-4.5c0-16.9-7.4-30.5-16.6-30.5c-9.1,0-16.6,13.7-16.6,30.5
			c0,1.5,0.1,3,0.2,4.5H85.3z"/>
		<path class="st3" d="M52.8,315.1c-0.1-1.5-0.2-2.9-0.2-4.5c0-16.9,9.4-30.5,21-30.5s21,13.7,21,30.5c0,1.5-0.1,3-0.2,4.5H52.8z"/>
		<path class="st9" d="M68.9,280.1c-5.8,0-11,4.3-14.4,11.1c-1.7-0.6-3.6-1-5.5-1c-10.3,0-18.6,9.7-18.6,21.6c0,1.1,0.1,2.1,0.2,3.2
			h56.7c0.1-1.5,0.2-2.9,0.2-4.5C87.5,293.8,79.2,280.1,68.9,280.1z"/>
	</g>
	<g>
		<path class="st20" d="M723.5,314.6c-0.1-0.4-0.7-0.7-1-0.4c-0.3,0.4-0.3,0.1-0.5,0.9c-0.6,2.3-1.6,4.5-2.9,6.5
			c-2.4,3.7-5,5.6-8,7.5c1-2.9,1.5-6.1,1.2-9.2c-0.1-1.2-0.3-2.3-0.9-3.4c-0.2-0.3-0.7-0.2-0.7,0.1c-0.1,1.6,0.5,2.9,0.3,5.8
			c-0.5,7-4.6,14.3-8.9,19.5c-0.1-8.7-0.8-18.7-3.5-27.5c-0.4-1.4-1-2.8-1.6-4.2c-0.1-0.3-0.6-0.2-0.5,0.1c0.1,0.5,1.6,6.5,1.7,7
			c1.6,6.7,2.3,14.2,2.5,21c-4.4-5-7.6-10.9-9.5-17.1c-0.6-1.8-0.9-3.7-1.6-5.5c-0.1-0.2-0.5-0.3-0.5,0c-0.2,2.7,1.4,7.4,2.4,10
			c2.1,5.2,5,9.9,8.8,14.1c0.1,0.2-0.5,41-0.2,41.5c0.3,0.9,2,1.5,2-0.1c0-0.6,0.1-25.5,0.1-37c0.5-0.3,0.7-0.8,1.9-2.2
			c2.6-3.3,5.1-7.4,6.6-11.3c1.2-0.1,9.2-4.2,12.4-13.5c0.1-0.3,0.5-1.5,0.5-1.8C723.6,315,723.5,314.8,723.5,314.6z"/>
		<path class="st3" d="M695.5,301.2c0.1-1.3,0.1-2.6,0.1-3.9c0-14.8-6.3-26.7-14-26.7s-14,12-14,26.7c0,1.3,0.1,2.6,0.1,3.9H695.5z"
			/>
		<path class="st9" d="M711.4,294.7c0.1-1.8,0.1-3.6,0.1-5.5c0-20.8-6.3-37.7-14-37.7s-14,16.9-14,37.7c0,1.9,0.1,3.7,0.1,5.5H711.4
			z"/>
		<path class="st9" d="M706.2,317.8c-0.1-1.3-0.1-2.6-0.1-3.9c0-14.8,6.3-26.7,14-26.7s14,12,14,26.7c0,1.3-0.1,2.6-0.1,3.9H706.2z"
			/>
		<path class="st3" d="M683.8,317.8c-0.1-1.8-0.2-3.6-0.2-5.5c0-20.8,7.9-37.7,17.7-37.7s17.7,16.9,17.7,37.7c0,1.9-0.1,3.7-0.2,5.5
			H683.8z"/>
		<path class="st9" d="M697.5,274.6c-4.9,0-9.3,5.4-12.2,13.8c-1.5-0.8-3-1.2-4.7-1.2c-8.7,0-15.7,12-15.7,26.7
			c0,1.3,0.1,2.6,0.2,3.9h48c0.1-1.8,0.2-3.6,0.2-5.5C713.2,291.4,706.2,274.6,697.5,274.6z"/>
	</g>
</g>
<g>
	<rect x="46.6" y="350.3" class="st8" width="1.3" height="14.7"/>
	<polygon class="st9" points="47.4,324.1 43.3,353.8 51.5,353.8 	"/>
	<polygon class="st10" points="43.5,351.9 50.9,349.6 50.8,348.8 43.7,351 	"/>
	<polygon class="st10" points="44.8,342.5 49.8,341 49.6,340.2 45,341.6 	"/>
</g>
<g>
	<rect x="293" y="208.8" class="st21" width="177" height="160.8"/>
	<rect x="285.5" y="211" class="st22" width="195.2" height="19.9"/>
	<rect x="285.5" y="224.8" class="st23" width="195.2" height="2.5"/>
	<rect x="280.4" y="203.7" class="st24" width="205.5" height="20.9"/>
	<rect x="280.4" y="348.7" class="st25" width="205.5" height="20.9"/>
	<rect x="280.4" y="355.4" class="st23" width="205.5" height="3.7"/>
	<rect x="268.9" y="358" class="st24" width="228.5" height="23.3"/>
	<rect x="268.9" y="363.8" class="st23" width="228.5" height="5.8"/>
	<rect x="255.5" y="365.6" class="st24" width="255.2" height="15.6"/>
	<rect x="255.5" y="377.2" class="st23" width="255.2" height="3.9"/>
	<path class="st26" d="M491.9,210.4c1.6-1.5,1.6-3.9,0-5.4L385,130.1c-1.6-1.5-4.3-1.5-5.9,0l-103.7,72c-1.6,1.5-1.6,3.9,0,5.4
		L491.9,210.4z"/>
	<path class="st25" d="M474,204.9c1.4-1.3,1.4-3.3,0-4.5l-89.5-62.5c-1.4-1.2-3.6-1.2-5,0l-87.4,60.9c-1.4,1.3-1.4,3.3,0,4.5
		L474,204.9z"/>
	<path class="st25" d="M474,200.4l-35.5-24.8c-4,2.5-8.2,4.3-12.4,5.5c-40.8,14.2-85,18.1-128.7,14l-5.3,3.7c-1.4,1.3-1.4,3.3,0,4.5
		l181.8,1.6C475.4,203.7,475.4,201.6,474,200.4z"/>
	<g>
		<path class="st23" d="M379.6,141.1c1.4-1.3,3.6-1.3,5,0l89.5,62.5c0.2,0.2,0.4,0.4,0.6,0.7c0.7-1.2,0.6-2.8-0.6-3.8L384.6,138
			c-1.4-1.2-3.6-1.2-5,0l-87.4,60.9c-1.1,1-1.3,2.6-0.6,3.9c0.2-0.3,0.3-0.5,0.6-0.7L379.6,141.1z"/>
	</g>
	<g>
		<rect x="286.7" y="230.8" class="st25" width="16.2" height="115.8"/>
		<rect x="299.2" y="230.8" class="st22" width="1.6" height="115.8"/>
		<rect x="294" y="230.8" class="st22" width="1.6" height="115.8"/>
		<rect x="288.7" y="230.8" class="st22" width="1.6" height="115.8"/>
	</g>
	<path class="st24" d="M303.1,234.9H286c-1.1,0-2.1-0.9-2.1-2.1l0,0c0-1.1,0.9-2.1,2.1-2.1h17.1c1.1,0,2.1,0.9,2.1,2.1l0,0
		C305.2,234,304.3,234.9,303.1,234.9z"/>
	<path class="st24" d="M303.1,348.7H286c-1.1,0-2.1-0.9-2.1-2.1l0,0c0-1.1,0.9-2.1,2.1-2.1h17.1c1.1,0,2.1,0.9,2.1,2.1l0,0
		C305.2,347.8,304.3,348.7,303.1,348.7z"/>
	<g>
		<rect x="330.6" y="230.8" class="st25" width="16.2" height="115.8"/>
		<rect x="343.1" y="230.8" class="st22" width="1.6" height="115.8"/>
		<rect x="337.9" y="230.8" class="st22" width="1.6" height="115.8"/>
		<rect x="332.7" y="230.8" class="st22" width="1.6" height="115.8"/>
	</g>
	<path class="st24" d="M347,234.9h-17c-1.1,0-2.1-0.9-2.1-2.1l0,0c0-1.1,0.9-2.1,2.1-2.1h17c1.1,0,2.1,0.9,2.1,2.1l0,0
		C349.1,234,348.2,234.9,347,234.9z"/>
	<path class="st24" d="M347,348.7h-17c-1.1,0-2.1-0.9-2.1-2.1l0,0c0-1.1,0.9-2.1,2.1-2.1h17c1.1,0,2.1,0.9,2.1,2.1l0,0
		C349.1,347.8,348.2,348.7,347,348.7z"/>
	<g>
		<rect x="374.5" y="230.8" class="st25" width="16.2" height="115.8"/>
		<rect x="387" y="230.8" class="st22" width="1.6" height="115.8"/>
		<rect x="381.8" y="230.8" class="st22" width="1.6" height="115.8"/>
		<rect x="376.6" y="230.8" class="st22" width="1.6" height="115.8"/>
	</g>
	<path class="st24" d="M391,234.9h-17.1c-1.1,0-2.1-0.9-2.1-2.1l0,0c0-1.1,0.9-2.1,2.1-2.1H391c1.1,0,2.1,0.9,2.1,2.1l0,0
		C393,234,392.1,234.9,391,234.9z"/>
	<path class="st24" d="M391,348.7h-17.1c-1.1,0-2.1-0.9-2.1-2.1l0,0c0-1.1,0.9-2.1,2.1-2.1H391c1.1,0,2.1,0.9,2.1,2.1l0,0
		C393,347.8,392.1,348.7,391,348.7z"/>
	<g>
		<rect x="418.4" y="230.8" class="st25" width="16.2" height="115.8"/>
		<rect x="430.9" y="230.8" class="st22" width="1.6" height="115.8"/>
		<rect x="425.7" y="230.8" class="st22" width="1.6" height="115.8"/>
		<rect x="420.5" y="230.8" class="st22" width="1.6" height="115.8"/>
	</g>
	<path class="st24" d="M434.9,234.9h-17.1c-1.1,0-2.1-0.9-2.1-2.1l0,0c0-1.1,0.9-2.1,2.1-2.1h17.1c1.1,0,2.1,0.9,2.1,2.1l0,0
		C436.9,234,436,234.9,434.9,234.9z"/>
	<path class="st24" d="M434.9,348.7h-17.1c-1.1,0-2.1-0.9-2.1-2.1l0,0c0-1.1,0.9-2.1,2.1-2.1h17.1c1.1,0,2.1,0.9,2.1,2.1l0,0
		C436.9,347.8,436,348.7,434.9,348.7z"/>
	<rect x="462.3" y="230.8" class="st25" width="16.2" height="115.8"/>
	<rect x="474.8" y="230.8" class="st22" width="1.6" height="115.8"/>
	<rect x="469.6" y="230.8" class="st22" width="1.6" height="115.8"/>
	<rect x="464.4" y="230.8" class="st22" width="1.6" height="115.8"/>
	<path class="st24" d="M478.8,234.9h-17.1c-1.1,0-2.1-0.9-2.1-2.1l0,0c0-1.1,0.9-2.1,2.1-2.1h17.1c1.1,0,2.1,0.9,2.1,2.1l0,0
		C480.8,234,479.9,234.9,478.8,234.9z"/>
	<g>
		<path class="st22" d="M303.1,230.8H286c-1.1,0-2.1,0.9-2.1,2.1c0,0.4,0.1,0.7,0.3,1c0.4-0.6,1-1,1.8-1h17.1c0.7,0,1.4,0.4,1.8,1
			c0.2-0.3,0.3-0.7,0.3-1C305.2,231.7,304.3,230.8,303.1,230.8z"/>
		<path class="st22" d="M347,230.8h-17c-1.1,0-2.1,0.9-2.1,2.1c0,0.4,0.1,0.7,0.3,1c0.4-0.6,1-1,1.8-1h17c0.7,0,1.4,0.4,1.8,1
			c0.2-0.3,0.3-0.7,0.3-1C349.1,231.7,348.2,230.8,347,230.8z"/>
		<path class="st22" d="M391,230.8h-17.1c-1.1,0-2.1,0.9-2.1,2.1c0,0.4,0.1,0.7,0.3,1c0.4-0.6,1-1,1.8-1H391c0.7,0,1.4,0.4,1.8,1
			c0.2-0.3,0.3-0.7,0.3-1C393,231.7,392.1,230.8,391,230.8z"/>
		<path class="st22" d="M434.9,230.8h-17.1c-1.1,0-2.1,0.9-2.1,2.1c0,0.4,0.1,0.7,0.3,1c0.4-0.6,1-1,1.8-1h17.1c0.7,0,1.4,0.4,1.8,1
			c0.2-0.3,0.3-0.7,0.3-1C436.9,231.7,436,230.8,434.9,230.8z"/>
		<path class="st22" d="M461.7,232.9h17.1c0.7,0,1.4,0.4,1.8,1c0.2-0.3,0.3-0.7,0.3-1c0-1.1-0.9-2.1-2.1-2.1h-17.1
			c-1.1,0-2.1,0.9-2.1,2.1c0,0.4,0.1,0.7,0.3,1C460.3,233.3,461,232.9,461.7,232.9z"/>
	</g>
	<path class="st24" d="M478.8,348.7h-17.1c-1.1,0-2.1-0.9-2.1-2.1l0,0c0-1.1,0.9-2.1,2.1-2.1h17.1c1.1,0,2.1,0.9,2.1,2.1l0,0
		C480.8,347.8,479.9,348.7,478.8,348.7z"/>
	<g>
		<path class="st23" d="M303.1,344.6H286c-1.1,0-2.1,0.9-2.1,2.1c0,0.4,0.1,0.7,0.3,1c0.4-0.6,1-1,1.8-1h17.1c0.7,0,1.4,0.4,1.8,1
			c0.2-0.3,0.3-0.7,0.3-1C305.2,345.5,304.3,344.6,303.1,344.6z"/>
		<path class="st23" d="M347,344.6h-17c-1.1,0-2.1,0.9-2.1,2.1c0,0.4,0.1,0.7,0.3,1c0.4-0.6,1-1,1.8-1h17c0.7,0,1.4,0.4,1.8,1
			c0.2-0.3,0.3-0.7,0.3-1C349.1,345.5,348.2,344.6,347,344.6z"/>
		<path class="st23" d="M391,344.6h-17.1c-1.1,0-2.1,0.9-2.1,2.1c0,0.4,0.1,0.7,0.3,1c0.4-0.6,1-1,1.8-1H391c0.7,0,1.4,0.4,1.8,1
			c0.2-0.3,0.3-0.7,0.3-1C393,345.5,392.1,344.6,391,344.6z"/>
		<path class="st23" d="M434.9,344.6h-17.1c-1.1,0-2.1,0.9-2.1,2.1c0,0.4,0.1,0.7,0.3,1c0.4-0.6,1-1,1.8-1h17.1c0.7,0,1.4,0.4,1.8,1
			c0.2-0.3,0.3-0.7,0.3-1C436.9,345.5,436,344.6,434.9,344.6z"/>
		<path class="st23" d="M461.7,346.7h17.1c0.7,0,1.4,0.4,1.8,1c0.2-0.3,0.3-0.7,0.3-1c0-1.1-0.9-2.1-2.1-2.1h-17.1
			c-1.1,0-2.1,0.9-2.1,2.1c0,0.4,0.1,0.7,0.3,1C460.3,347.1,461,346.7,461.7,346.7z"/>
	</g>
</g>
<path class="st27" d="M750.2,382.3H15.8c-0.5,0-0.8-0.3-0.8-0.8l0,0c0-0.4,0.4-0.8,0.8-0.8h734.3c0.5,0,0.8,0.3,0.8,0.8l0,0
	C751,382,750.6,382.3,750.2,382.3z"/>
<rect x="331.7" y="186.1" class="st7" width="8.8" height="3.1"/>
<rect x="337.5" y="181" class="st7" width="8.8" height="3.1"/>
<rect x="416.2" y="180.6" class="st7" width="8.8" height="3.1"/>
<rect x="420.5" y="186.3" class="st7" width="8.8" height="3.1"/>
<rect x="393.4" y="183.2" class="st7" width="10.8" height="4.2"/>
<rect x="398.8" y="188.7" class="st7" width="10.8" height="4.2"/>
<rect x="394.9" y="195.1" class="st7" width="11.1" height="3.5"/>
<rect x="384.8" y="157.7" class="st7" width="10.8" height="4.2"/>
<rect x="380.9" y="164.1" class="st7" width="11.1" height="3.5"/>
<rect x="357.8" y="186.7" class="st7" width="10.8" height="4.2"/>
<rect x="353.9" y="193.1" class="st7" width="11.1" height="3.5"/>
<rect x="356.2" y="160.1" class="st7" width="10.8" height="4.2"/>
<rect x="350.8" y="165.6" class="st7" width="10.8" height="4.2"/>
<rect x="354.4" y="171.9" class="st7" width="11.1" height="3.5"/>
</svg>
