<?xml version="1.0" encoding="utf-8"?>
<!-- Generator: Adobe Illustrator 24.1.2, SVG Export Plug-In . SVG Version: 6.00 Build 0)  -->
<svg version="1.1" id="Слой_1" xmlns="http://www.w3.org/2000/svg" xmlns:xlink="http://www.w3.org/1999/xlink" x="0px" y="0px"
	 viewBox="0 0 1235 384" style="enable-background:new 0 0 1235 384;" xml:space="preserve">
<style type="text/css">
	.st0{clip-path:url(#SVGID_2_);fill:#F0E8D8;}
	.st1{clip-path:url(#SVGID_4_);fill:#B8D9CB;}
	.st2{clip-path:url(#SVGID_6_);fill:#B8D9CB;}
	.st3{clip-path:url(#SVGID_8_);fill:#B8D9CB;}
	.st4{clip-path:url(#SVGID_10_);fill:#B8D9CB;}
	.st5{clip-path:url(#SVGID_12_);fill:#297185;}
	.st6{clip-path:url(#SVGID_14_);}
	.st7{fill:#4D3D35;}
	.st8{clip-path:url(#SVGID_16_);}
	.st9{fill:#A15B48;}
	.st10{fill:#B36D59;}
	.st11{clip-path:url(#SVGID_18_);}
	.st12{clip-path:url(#SVGID_20_);fill:#3B241A;}
	.st13{clip-path:url(#SVGID_22_);fill:#3B241A;}
	.st14{clip-path:url(#SVGID_24_);fill:#FFE7D6;}
	.st15{clip-path:url(#SVGID_26_);fill:#FFAD73;}
	.st16{clip-path:url(#SVGID_28_);fill:#FFAD73;}
	.st17{clip-path:url(#SVGID_30_);fill:#F29350;}
	.st18{clip-path:url(#SVGID_32_);fill:#382213;}
	.st19{clip-path:url(#SVGID_34_);fill:#382213;}
	.st20{clip-path:url(#SVGID_36_);fill:#FFE7D6;}
	.st21{clip-path:url(#SVGID_38_);fill:#FFE7D6;}
	.st22{clip-path:url(#SVGID_40_);fill:#FFAD73;}
	.st23{clip-path:url(#SVGID_42_);fill:#FFAD73;}
	.st24{clip-path:url(#SVGID_44_);fill:#FFAD73;}
	.st25{clip-path:url(#SVGID_46_);fill:#3B7D9C;}
	.st26{clip-path:url(#SVGID_48_);fill:#3B241A;}
	.st27{clip-path:url(#SVGID_50_);fill:#A15B48;}
	.st28{clip-path:url(#SVGID_52_);fill:#FFAD73;}
	.st29{clip-path:url(#SVGID_54_);fill:#FFAD73;}
	.st30{clip-path:url(#SVGID_56_);fill:#F29350;}
	.st31{clip-path:url(#SVGID_58_);fill:#382213;}
	.st32{clip-path:url(#SVGID_60_);fill:#382213;}
	.st33{clip-path:url(#SVGID_62_);fill:#A15B48;}
	.st34{clip-path:url(#SVGID_64_);fill:#A15B48;}
	.st35{clip-path:url(#SVGID_66_);}
	.st36{fill:#FFAD73;}
	.st37{fill:#F29350;}
	.st38{fill:#382213;}
	.st39{fill:#784024;}
	.st40{clip-path:url(#SVGID_68_);fill:#FFFFFF;}
	.st41{clip-path:url(#SVGID_70_);fill:#FFFFFF;}
	.st42{clip-path:url(#SVGID_72_);fill:#FFAD73;}
	.st43{clip-path:url(#SVGID_74_);fill:#FFAD73;}
	.st44{clip-path:url(#SVGID_76_);fill:#FFFFFF;}
	.st45{clip-path:url(#SVGID_78_);fill:#FFAD73;}
	.st46{clip-path:url(#SVGID_80_);fill:#FFFFFF;}
	.st47{clip-path:url(#SVGID_82_);}
	.st48{fill:#D4B27B;}
	.st49{clip-path:url(#SVGID_84_);fill:#A61B1B;}
	.st50{clip-path:url(#SVGID_86_);fill:#FFE7D6;}
	.st51{clip-path:url(#SVGID_88_);fill:#FFE7D6;}
	.st52{clip-path:url(#SVGID_90_);fill:#FFAD73;}
	.st53{clip-path:url(#SVGID_92_);fill:#F29350;}
	.st54{clip-path:url(#SVGID_94_);fill:#F29350;}
	.st55{clip-path:url(#SVGID_96_);fill:#FFE7D6;}
	.st56{clip-path:url(#SVGID_98_);fill:#FFE7D6;}
	.st57{clip-path:url(#SVGID_100_);fill:#FFE7D6;}
	.st58{clip-path:url(#SVGID_102_);fill:#A15B48;}
	.st59{clip-path:url(#SVGID_104_);fill:#50A38D;}
	.st60{clip-path:url(#SVGID_106_);fill:#50A38D;}
	.st61{clip-path:url(#SVGID_108_);fill:#50A38D;}
	.st62{clip-path:url(#SVGID_110_);fill:#B36D59;}
	.st63{clip-path:url(#SVGID_112_);}
	.st64{clip-path:url(#SVGID_114_);}
	.st65{clip-path:url(#SVGID_116_);}
	.st66{clip-path:url(#SVGID_118_);fill:#A15B48;}
	.st67{clip-path:url(#SVGID_120_);fill:#A61B1B;}
	.st68{clip-path:url(#SVGID_122_);fill:#A15B48;}
	.st69{clip-path:url(#SVGID_124_);fill:#A61B1B;}
	.st70{clip-path:url(#SVGID_126_);fill:#A61B1B;}
	.st71{clip-path:url(#SVGID_128_);}
	.st72{fill:#804433;}
	.st73{clip-path:url(#SVGID_130_);fill:#FFAD73;}
	.st74{clip-path:url(#SVGID_132_);fill:#FFAD73;}
	.st75{clip-path:url(#SVGID_134_);fill:#FFAD73;}
	.st76{clip-path:url(#SVGID_136_);fill:#F29350;}
	.st77{clip-path:url(#SVGID_138_);fill:#382213;}
	.st78{clip-path:url(#SVGID_140_);fill:#382213;}
	.st79{clip-path:url(#SVGID_142_);fill:#F29350;}
	.st80{clip-path:url(#SVGID_144_);fill:#784024;}
	.st81{clip-path:url(#SVGID_146_);fill:#784024;}
	.st82{clip-path:url(#SVGID_148_);fill:#FFAD73;}
	.st83{clip-path:url(#SVGID_150_);}
	.st84{clip-path:url(#SVGID_152_);fill:#FFAD73;}
	.st85{clip-path:url(#SVGID_154_);fill:#784024;}
	.st86{clip-path:url(#SVGID_156_);fill:#FFFFFF;}
	.st87{clip-path:url(#SVGID_158_);}
	.st88{fill:#3B241A;}
	.st89{clip-path:url(#SVGID_160_);fill:#4D3D35;}
	.st90{clip-path:url(#SVGID_162_);fill:#3B241A;}
	.st91{clip-path:url(#SVGID_164_);fill:#3B241A;}
	.st92{clip-path:url(#SVGID_166_);fill:#F29350;}
	.st93{clip-path:url(#SVGID_168_);fill:#FFE7D6;}
	.st94{clip-path:url(#SVGID_170_);fill:#FFE7D6;}
	.st95{clip-path:url(#SVGID_172_);fill:#FFAD73;}
	.st96{clip-path:url(#SVGID_174_);fill:#F29350;}
	.st97{clip-path:url(#SVGID_176_);fill:#382213;}
	.st98{clip-path:url(#SVGID_178_);fill:#382213;}
	.st99{clip-path:url(#SVGID_180_);fill:#3B241A;}
	.st100{clip-path:url(#SVGID_182_);fill:#3B241A;}
	.st101{clip-path:url(#SVGID_184_);fill:#FFAD73;}
	.st102{clip-path:url(#SVGID_186_);fill:#FFAD73;}
	.st103{clip-path:url(#SVGID_188_);fill:#FFFFFF;}
	.st104{clip-path:url(#SVGID_190_);fill:#4D3D35;}
	.st105{clip-path:url(#SVGID_192_);fill:#F29350;}
	.st106{clip-path:url(#SVGID_194_);fill:#F29350;}
	.st107{clip-path:url(#SVGID_196_);fill:#FFAD73;}
	.st108{clip-path:url(#SVGID_198_);fill:#FFAD73;}
	.st109{clip-path:url(#SVGID_200_);fill:#F29350;}
	.st110{clip-path:url(#SVGID_202_);fill:#382213;}
	.st111{clip-path:url(#SVGID_204_);fill:#382213;}
	.st112{clip-path:url(#SVGID_206_);fill:#F29350;}
	.st113{clip-path:url(#SVGID_208_);fill:#FFE7D6;}
	.st114{clip-path:url(#SVGID_210_);fill:#FFE7D6;}
	.st115{clip-path:url(#SVGID_212_);fill:#FFAD73;}
	.st116{clip-path:url(#SVGID_214_);fill:#FFAD73;}
	.st117{clip-path:url(#SVGID_216_);fill:#FFE7D6;}
	.st118{clip-path:url(#SVGID_218_);fill:#FFFFFF;}
	.st119{clip-path:url(#SVGID_220_);}
	.st120{fill:#DE3518;}
	.st121{clip-path:url(#SVGID_222_);fill:#4D3D35;}
	.st122{clip-path:url(#SVGID_224_);fill:#3B241A;}
	.st123{clip-path:url(#SVGID_226_);fill:#3B241A;}
	.st124{clip-path:url(#SVGID_228_);fill:#3B241A;}
	.st125{clip-path:url(#SVGID_230_);fill:#3B241A;}
	.st126{clip-path:url(#SVGID_232_);fill:#A15B48;}
	.st127{clip-path:url(#SVGID_234_);fill:#A15B48;}
	.st128{clip-path:url(#SVGID_236_);fill:#A15B48;}
	.st129{clip-path:url(#SVGID_238_);fill:#A15B48;}
	.st130{clip-path:url(#SVGID_240_);fill:#A15B48;}
	.st131{clip-path:url(#SVGID_242_);}
	.st132{clip-path:url(#SVGID_244_);}
	.st133{clip-path:url(#SVGID_246_);}
	.st134{clip-path:url(#SVGID_248_);}
	.st135{clip-path:url(#SVGID_250_);}
	.st136{clip-path:url(#SVGID_252_);}
	.st137{clip-path:url(#SVGID_254_);}
	.st138{clip-path:url(#SVGID_256_);}
	.st139{clip-path:url(#SVGID_258_);}
	.st140{clip-path:url(#SVGID_260_);}
	.st141{clip-path:url(#SVGID_262_);fill:#FFE7D6;}
	.st142{clip-path:url(#SVGID_264_);fill:#F29350;}
	.st143{clip-path:url(#SVGID_266_);fill:#3B241A;}
	.st144{clip-path:url(#SVGID_268_);fill:#3B241A;}
	.st145{clip-path:url(#SVGID_270_);fill:#3B241A;}
	.st146{clip-path:url(#SVGID_272_);fill:#FFE7D6;}
	.st147{clip-path:url(#SVGID_274_);fill:#FFE7D6;}
	.st148{clip-path:url(#SVGID_276_);fill:#FFE7D6;}
	.st149{clip-path:url(#SVGID_278_);fill:#FFE7D6;}
	.st150{clip-path:url(#SVGID_280_);fill:#FFE7D6;}
	.st151{clip-path:url(#SVGID_282_);fill:#804433;}
	.st152{clip-path:url(#SVGID_284_);fill:#804433;}
	.st153{clip-path:url(#SVGID_286_);}
	.st154{clip-path:url(#SVGID_288_);}
	.st155{clip-path:url(#SVGID_290_);}
	.st156{clip-path:url(#SVGID_292_);}
	.st157{clip-path:url(#SVGID_294_);}
	.st158{clip-path:url(#SVGID_296_);fill:#FFE7D6;}
	.st159{clip-path:url(#SVGID_298_);}
	.st160{fill:#297185;}
	.st161{clip-path:url(#SVGID_300_);}
	.st162{fill:#133E4D;}
	.st163{clip-path:url(#SVGID_302_);}
	.st164{clip-path:url(#SVGID_304_);}
	.st165{clip-path:url(#SVGID_306_);}
	.st166{clip-path:url(#SVGID_308_);}
	.st167{clip-path:url(#SVGID_310_);}
	.st168{clip-path:url(#SVGID_312_);}
	.st169{clip-path:url(#SVGID_314_);}
	.st170{clip-path:url(#SVGID_316_);fill:#4D3D35;}
	.st171{clip-path:url(#SVGID_318_);fill:#3B241A;}
	.st172{clip-path:url(#SVGID_320_);fill:#804433;}
	.st173{clip-path:url(#SVGID_322_);}
	.st174{fill:#6E381D;}
	.st175{clip-path:url(#SVGID_324_);}
	.st176{fill:#FFE7D6;}
	.st177{clip-path:url(#SVGID_326_);}
	.st178{fill:#50A38D;}
	.st179{clip-path:url(#SVGID_328_);}
	.st180{clip-path:url(#SVGID_330_);}
	.st181{fill:#574424;}
	.st182{clip-path:url(#SVGID_332_);}
	.st183{fill:#A61B1B;}
	.st184{clip-path:url(#SVGID_334_);}
	.st185{clip-path:url(#SVGID_336_);}
	.st186{fill:#3B7D9C;}
	.st187{clip-path:url(#SVGID_338_);}
	.st188{fill:#FFFFFF;}
	.st189{fill:#B8D9CB;}
	.st190{clip-path:url(#SVGID_340_);fill:#D4B27B;}
	.st191{clip-path:url(#SVGID_342_);fill:#735E3D;}
	.st192{clip-path:url(#SVGID_344_);fill:#3B7D9C;}
	.st193{clip-path:url(#SVGID_346_);fill:#3B7D9C;}
	.st194{clip-path:url(#SVGID_348_);fill:#FFE7D6;}
	.st195{clip-path:url(#SVGID_350_);fill:#F29350;}
	.st196{clip-path:url(#SVGID_352_);fill:#F29350;}
	.st197{clip-path:url(#SVGID_354_);fill:#FFE7D6;}
	.st198{clip-path:url(#SVGID_356_);fill:#FFE7D6;}
	.st199{clip-path:url(#SVGID_358_);fill:#FFE7D6;}
	.st200{clip-path:url(#SVGID_360_);fill:#FFE7D6;}
	.st201{clip-path:url(#SVGID_362_);fill:#FFE7D6;}
	.st202{clip-path:url(#SVGID_364_);fill:#FFE7D6;}
	.st203{clip-path:url(#SVGID_366_);}
	.st204{clip-path:url(#SVGID_368_);}
	.st205{clip-path:url(#SVGID_370_);}
	.st206{clip-path:url(#SVGID_372_);fill:#4D3D35;}
	.st207{clip-path:url(#SVGID_374_);fill:#C8E1D6;}
	.st208{clip-path:url(#SVGID_376_);fill:#133E4D;}
</style>
<g id="Слой_2_1_">
</g>
<g>
	<defs>
		<rect id="SVGID_1_" x="5" y="8" width="1221" height="370"/>
	</defs>
	<clipPath id="SVGID_2_">
		<use xlink:href="#SVGID_1_"  style="overflow:visible;"/>
	</clipPath>
	<rect x="5" y="8.3" class="st0" width="1221" height="345.5"/>
</g>
<g>
	<defs>
		<rect id="SVGID_3_" x="5" y="8" width="1221" height="370"/>
	</defs>
	<clipPath id="SVGID_4_">
		<use xlink:href="#SVGID_3_"  style="overflow:visible;"/>
	</clipPath>
	<rect x="390.4" y="8.3" class="st1" width="50.1" height="335.3"/>
</g>
<g>
	<defs>
		<rect id="SVGID_5_" x="5" y="8" width="1221" height="370"/>
	</defs>
	<clipPath id="SVGID_6_">
		<use xlink:href="#SVGID_5_"  style="overflow:visible;"/>
	</clipPath>
	<rect x="501.2" y="8.3" class="st2" width="50.1" height="335.3"/>
</g>
<g>
	<defs>
		<rect id="SVGID_7_" x="5" y="8" width="1221" height="370"/>
	</defs>
	<clipPath id="SVGID_8_">
		<use xlink:href="#SVGID_7_"  style="overflow:visible;"/>
	</clipPath>
	<rect x="612.1" y="8.3" class="st3" width="50.1" height="335.3"/>
</g>
<g>
	<defs>
		<rect id="SVGID_9_" x="5" y="8" width="1221" height="370"/>
	</defs>
	<clipPath id="SVGID_10_">
		<use xlink:href="#SVGID_9_"  style="overflow:visible;"/>
	</clipPath>
	<rect x="723" y="8.3" class="st4" width="50.1" height="335.3"/>
</g>
<g>
	<defs>
		<rect id="SVGID_11_" x="5" y="8" width="1221" height="370"/>
	</defs>
	<clipPath id="SVGID_12_">
		<use xlink:href="#SVGID_11_"  style="overflow:visible;"/>
	</clipPath>
	<path class="st5" d="M293.5-67.5c0,0-10.1,3-14.4,8.5c-4.2,5.5-15.2,74.3-16.5,80.1s-10.1,26-9,41.8c1.1,15.9,0.8,35.7-3,41.6
		s-11.5,22.2-10.7,25.7s10.9,8.9,12.6,11.1c1.6,2.2-2.5,6.9,3.3,10.3c5.7,3.4,13.7,0,17.5,3.7s7.4,6.3,10.1,5.8s5.7-74.3,6.8-79.2
		c1.1-4.9,3.3-16,3.3-16V-67.5z"/>
</g>
<g>
	<defs>
		<rect id="SVGID_13_" x="5" y="8" width="1221" height="370"/>
	</defs>
	<clipPath id="SVGID_14_">
		<use xlink:href="#SVGID_13_"  style="overflow:visible;"/>
	</clipPath>
	<g class="st6">
		<rect x="291.2" y="-71.8" class="st7" width="4.5" height="275.6"/>
	</g>
</g>
<g>
	<defs>
		<rect id="SVGID_15_" x="5" y="8" width="1221" height="370"/>
	</defs>
	<clipPath id="SVGID_16_">
		<use xlink:href="#SVGID_15_"  style="overflow:visible;"/>
	</clipPath>
	<g class="st8">
		<rect x="104.7" y="8" class="st9" width="67.1" height="334.8"/>
		<rect x="115.8" y="8" class="st10" width="44.8" height="334.8"/>
	</g>
</g>
<g>
	<defs>
		<rect id="SVGID_17_" x="5" y="8" width="1221" height="370"/>
	</defs>
	<clipPath id="SVGID_18_">
		<use xlink:href="#SVGID_17_"  style="overflow:visible;"/>
	</clipPath>
	<g class="st11">
		<rect x="1024.5" y="8" class="st9" width="67.1" height="334.8"/>
		<rect x="1035.7" y="8" class="st10" width="44.8" height="334.8"/>
	</g>
</g>
<g>
	<defs>
		<rect id="SVGID_19_" x="5" y="8" width="1221" height="370"/>
	</defs>
	<clipPath id="SVGID_20_">
		<use xlink:href="#SVGID_19_"  style="overflow:visible;"/>
	</clipPath>
	<path class="st12" d="M49.1,161h52.2c7.9,0,14.4,6.4,14.4,14.4l2.2,67H32.5l2.2-67C34.7,167.4,41.1,161,49.1,161z"/>
</g>
<g>
	<defs>
		<rect id="SVGID_21_" x="5" y="8" width="1221" height="370"/>
	</defs>
	<clipPath id="SVGID_22_">
		<use xlink:href="#SVGID_21_"  style="overflow:visible;"/>
	</clipPath>
	<path class="st13" d="M1048.2,161h52.2c7.9,0,14.4,6.4,14.4,14.4l2.2,67h-85.3l2.2-67C1033.8,167.4,1040.3,161,1048.2,161z"/>
</g>
<g>
	<defs>
		<rect id="SVGID_23_" x="5" y="8" width="1221" height="370"/>
	</defs>
	<clipPath id="SVGID_24_">
		<use xlink:href="#SVGID_23_"  style="overflow:visible;"/>
	</clipPath>
	<path class="st14" d="M1059.5,153.5c0,0,0.1,4.8-0.9,6.6s-2.3,2.4-2.8,4.9s-0.1,4.8,0.8,6.5c1,1.8-0.6,3.8,0.3,6.6s2.7,7.2,8.4,8.3
		c5.7,1.1,21.6-0.3,24.2-2s5.1-5.5,3.9-8.2s-2.9-4.8-2.9-7.2c0-2.5,0.9-3.6,0.3-6.6c-0.5-2.7-2.2-4.6-2.7-5.8s-0.4-4.4-0.4-4.4
		s-11.2-9.4-11.5-9.4s-11.8-2.6-13.3-1.2C1061.4,142.8,1059.5,153.5,1059.5,153.5z"/>
</g>
<g>
	<defs>
		<rect id="SVGID_25_" x="5" y="8" width="1221" height="370"/>
	</defs>
	<clipPath id="SVGID_26_">
		<use xlink:href="#SVGID_25_"  style="overflow:visible;"/>
	</clipPath>
	<polygon class="st15" points="1081,163.6 1081,176.4 1075.9,182.5 1067.8,176.2 1067.8,164 	"/>
</g>
<g>
	<defs>
		<rect id="SVGID_27_" x="5" y="8" width="1221" height="370"/>
	</defs>
	<clipPath id="SVGID_28_">
		<use xlink:href="#SVGID_27_"  style="overflow:visible;"/>
	</clipPath>
	<path class="st16" d="M1085.6,140.8c0,0,0,6.6,0,8.8c0,1-0.1,3.2-0.4,5.6c-0.4,2.8-1.6,6.2-2.8,8.4c-1.1,2-5.4,4.9-7.7,4.8
		c-1.2,0-5.8-1.6-7.9-5.1c-0.7-1.2-2.8-5.7-3.5-9.1c-0.3-1.7-0.6-3.1-0.6-3.8c-0.1-2.3,1.5-11.3,1.5-11.3s8.6-4.2,10.3-4.1
		C1076.1,135.1,1085.6,140.8,1085.6,140.8z"/>
</g>
<g>
	<defs>
		<rect id="SVGID_29_" x="5" y="8" width="1221" height="370"/>
	</defs>
	<clipPath id="SVGID_30_">
		<use xlink:href="#SVGID_29_"  style="overflow:visible;"/>
	</clipPath>
	<path class="st17" d="M1077.5,169.2c0.1,1-2.5,1.7-4.4,1.5c-1.4-0.1-3.9-0.8-5.3-1.2v-4.7c0,0,3.6,3.2,5.9,3.4
		C1076.1,168.5,1077.4,168.2,1077.5,169.2z"/>
</g>
<g>
	<defs>
		<rect id="SVGID_31_" x="5" y="8" width="1221" height="370"/>
	</defs>
	<clipPath id="SVGID_32_">
		<use xlink:href="#SVGID_31_"  style="overflow:visible;"/>
	</clipPath>
	<path class="st18" d="M1068.6,152.7c-0.1-0.2-0.4-0.3-0.6-0.2c-0.3,0.3-0.4,1-0.2,1.3c0.1,0.2,0.3,0.5,0.5,0.6
		c0.3,0,0.4-0.5,0.4-0.7C1068.7,153.5,1068.7,153,1068.6,152.7z"/>
</g>
<g>
	<defs>
		<rect id="SVGID_33_" x="5" y="8" width="1221" height="370"/>
	</defs>
	<clipPath id="SVGID_34_">
		<use xlink:href="#SVGID_33_"  style="overflow:visible;"/>
	</clipPath>
	<path class="st19" d="M1081.2,152.7c-0.1-0.2-0.4-0.3-0.6-0.2c-0.3,0.3-0.4,1-0.2,1.3c0.1,0.2,0.3,0.5,0.5,0.6
		c0.3,0,0.4-0.5,0.4-0.7C1081.3,153.5,1081.3,153,1081.2,152.7z"/>
</g>
<g>
	<defs>
		<rect id="SVGID_35_" x="5" y="8" width="1221" height="370"/>
	</defs>
	<clipPath id="SVGID_36_">
		<use xlink:href="#SVGID_35_"  style="overflow:visible;"/>
	</clipPath>
	<path class="st20" d="M1078.9,149.5c0.7-0.3,1.5-0.2,2.2-0.1c0.5,0.1,1.6,0.2,1.9,0.5s0.1,0.8-0.5,0.8c-1.1,0-2.3-0.1-3.4-0.1
		C1078.2,150.7,1078.2,149.8,1078.9,149.5z"/>
</g>
<g>
	<defs>
		<rect id="SVGID_37_" x="5" y="8" width="1221" height="370"/>
	</defs>
	<clipPath id="SVGID_38_">
		<use xlink:href="#SVGID_37_"  style="overflow:visible;"/>
	</clipPath>
	<path class="st21" d="M1069.5,149.4c-0.7-0.3-1.5-0.2-2.2,0c-0.5,0.1-1.6,0.2-1.8,0.5c-0.3,0.3-0.1,0.8,0.5,0.8
		c1.1,0,2.3-0.2,3.4-0.2C1070.3,150.6,1070.2,149.7,1069.5,149.4z"/>
</g>
<g>
	<defs>
		<rect id="SVGID_39_" x="5" y="8" width="1221" height="370"/>
	</defs>
	<clipPath id="SVGID_40_">
		<use xlink:href="#SVGID_39_"  style="overflow:visible;"/>
	</clipPath>
	<path class="st22" d="M1085.3,150.6c0,0,0.4-0.4,1,0.2c0.6,0.6,0.2,3.6-0.2,4.9c-0.4,1.3-2,2.1-2,2.1L1085.3,150.6z"/>
</g>
<g>
	<defs>
		<rect id="SVGID_41_" x="5" y="8" width="1221" height="370"/>
	</defs>
	<clipPath id="SVGID_42_">
		<use xlink:href="#SVGID_41_"  style="overflow:visible;"/>
	</clipPath>
	<path class="st23" d="M1063,150.6c0,0-0.4-0.4-1,0.2c-0.6,0.6-0.2,3.6,0.2,4.9c0.4,1.3,2,2.1,2,2.1L1063,150.6z"/>
</g>
<g>
	<defs>
		<rect id="SVGID_43_" x="5" y="8" width="1221" height="370"/>
	</defs>
	<clipPath id="SVGID_44_">
		<use xlink:href="#SVGID_43_"  style="overflow:visible;"/>
	</clipPath>
	<polygon class="st24" points="1067.8,171.5 1059.2,176.8 1074.1,193.9 1089.5,177.6 1081,170.8 	"/>
</g>
<g>
	<defs>
		<rect id="SVGID_45_" x="5" y="8" width="1221" height="370"/>
	</defs>
	<clipPath id="SVGID_46_">
		<use xlink:href="#SVGID_45_"  style="overflow:visible;"/>
	</clipPath>
	<path class="st25" d="M1060.2,176.2c0,0,12.3,16.2,13.9,16.2c1,0,13.7-16.2,13.7-16.2s8.9,4.2,11.3,6s0.5,8.9,0,14.5
		s-3.9,12.5-3.2,18.9c0.7,6.4,1.8,15.9,2.1,16.3c0.3,0.4-44.4,0-44.4,0s1.8-9.3,1.8-16.8c0-6.8-4.6-17.2-4.9-23.1
		c-0.2-5.9-1.6-8.7,0-9.9C1052.1,180.8,1060.2,176.2,1060.2,176.2z"/>
</g>
<g>
	<defs>
		<rect id="SVGID_47_" x="5" y="8" width="1221" height="370"/>
	</defs>
	<clipPath id="SVGID_48_">
		<use xlink:href="#SVGID_47_"  style="overflow:visible;"/>
	</clipPath>
	<path class="st26" d="M1149.9,161h52.2c7.9,0,14.4,6.4,14.4,14.4l2.2,67h-85.3l2.2-67C1135.5,167.4,1141.9,161,1149.9,161z"/>
</g>
<g>
	<defs>
		<rect id="SVGID_49_" x="5" y="8" width="1221" height="370"/>
	</defs>
	<clipPath id="SVGID_50_">
		<use xlink:href="#SVGID_49_"  style="overflow:visible;"/>
	</clipPath>
	<path class="st27" d="M59.2,172.5c0,0,3.8,2.3,8.9,3.3s8.5,1.5,12.3,1.1c9.4-1.1,12.2-4.9,12.2-4.9S87,156.4,87,155.7
		s-3.7-6.2-7.6-6s-11.3,2.4-13.1,3.8c-1.8,1.4-4.4,4.7-4.1,6.2C62.3,161.2,59.2,172.5,59.2,172.5z"/>
</g>
<g>
	<defs>
		<rect id="SVGID_51_" x="5" y="8" width="1221" height="370"/>
	</defs>
	<clipPath id="SVGID_52_">
		<use xlink:href="#SVGID_51_"  style="overflow:visible;"/>
	</clipPath>
	<polygon class="st28" points="81.4,163.6 81.4,176.4 76.3,182.5 68.2,176.2 68.2,164 	"/>
</g>
<g>
	<defs>
		<rect id="SVGID_53_" x="5" y="8" width="1221" height="370"/>
	</defs>
	<clipPath id="SVGID_54_">
		<use xlink:href="#SVGID_53_"  style="overflow:visible;"/>
	</clipPath>
	<path class="st29" d="M85.9,140.8c0,0,0,6.6,0,8.8c0,1-0.1,3.2-0.4,5.6c-0.4,2.8-1.6,6.2-2.8,8.4c-1.1,2-5.4,4.9-7.7,4.8
		c-1.2,0-5.8-1.6-7.9-5.1c-0.7-1.2-2.8-5.7-3.5-9.1c-0.3-1.7-0.6-3.1-0.6-3.8c-0.1-2.3,1.5-11.3,1.5-11.3s8.6-4.2,10.3-4.1
		C76.5,135.1,85.9,140.8,85.9,140.8z"/>
</g>
<g>
	<defs>
		<rect id="SVGID_55_" x="5" y="8" width="1221" height="370"/>
	</defs>
	<clipPath id="SVGID_56_">
		<use xlink:href="#SVGID_55_"  style="overflow:visible;"/>
	</clipPath>
	<path class="st30" d="M77.9,169.2c0.1,1-2.5,1.7-4.4,1.5c-1.4-0.1-3.9-0.8-5.3-1.2v-4.7c0,0,3.6,3.2,5.9,3.4
		C76.5,168.5,77.8,168.2,77.9,169.2z"/>
</g>
<g>
	<defs>
		<rect id="SVGID_57_" x="5" y="8" width="1221" height="370"/>
	</defs>
	<clipPath id="SVGID_58_">
		<use xlink:href="#SVGID_57_"  style="overflow:visible;"/>
	</clipPath>
	<path class="st31" d="M69,152.7c-0.1-0.2-0.4-0.3-0.6-0.2c-0.3,0.3-0.4,1-0.2,1.3c0.1,0.2,0.3,0.5,0.5,0.6c0.3,0,0.4-0.5,0.4-0.7
		C69.1,153.5,69.1,153,69,152.7z"/>
</g>
<g>
	<defs>
		<rect id="SVGID_59_" x="5" y="8" width="1221" height="370"/>
	</defs>
	<clipPath id="SVGID_60_">
		<use xlink:href="#SVGID_59_"  style="overflow:visible;"/>
	</clipPath>
	<path class="st32" d="M81.5,152.7c-0.1-0.2-0.4-0.3-0.6-0.2c-0.3,0.3-0.4,1-0.2,1.3c0.1,0.2,0.3,0.5,0.5,0.6c0.3,0,0.4-0.5,0.4-0.7
		C81.7,153.5,81.7,153,81.5,152.7z"/>
</g>
<g>
	<defs>
		<rect id="SVGID_61_" x="5" y="8" width="1221" height="370"/>
	</defs>
	<clipPath id="SVGID_62_">
		<use xlink:href="#SVGID_61_"  style="overflow:visible;"/>
	</clipPath>
	<path class="st33" d="M79.3,149.7c0.7-0.2,1.5-0.1,2.2,0c0.5,0.1,1.5,0.2,1.8,0.5s0,0.6-0.5,0.6c-1.1,0-2.2-0.2-3.4-0.2
		C78.6,150.6,78.6,149.9,79.3,149.7z"/>
</g>
<g>
	<defs>
		<rect id="SVGID_63_" x="5" y="8" width="1221" height="370"/>
	</defs>
	<clipPath id="SVGID_64_">
		<use xlink:href="#SVGID_63_"  style="overflow:visible;"/>
	</clipPath>
	<path class="st34" d="M69.9,149.7c-0.7-0.2-1.5-0.1-2.2,0c-0.5,0.1-1.5,0.2-1.8,0.5s0,0.6,0.5,0.6c1.1,0,2.2-0.2,3.4-0.2
		C70.7,150.6,70.6,149.9,69.9,149.7z"/>
</g>
<g>
	<defs>
		<rect id="SVGID_65_" x="5" y="8" width="1221" height="370"/>
	</defs>
	<clipPath id="SVGID_66_">
		<use xlink:href="#SVGID_65_"  style="overflow:visible;"/>
	</clipPath>
	<g class="st35">
		<polygon class="st36" points="1181,161.2 1181,174 1175.9,180.1 1167.8,173.8 1167.8,161.6 		"/>
		<path class="st36" d="M1185.5,138.3c0,0,0,6.6,0,8.8c0,1-0.1,3.2-0.4,5.6c-0.4,2.8-1,5.9-2.1,8.2c-0.7,1.4-6.3,6-8.6,5.9
			c-1.2,0-6.6-2.6-8.7-6.1c-0.7-1.2-1.8-5.5-2.5-8.9c-0.3-1.7-0.6-3.1-0.6-3.8c-0.1-2.3,1.5-11.3,1.5-11.3s8.6-4.2,10.3-4.1
			C1176,132.7,1185.5,138.3,1185.5,138.3z"/>
		<path class="st37" d="M1177.5,167.7c0.1,1-2.5,1.7-4.4,1.5c-1.4-0.1-3.9-0.8-5.3-1.2v-4.3c0,0,3.6,2.8,5.9,3.1
			C1176,167,1177.4,166.6,1177.5,167.7z"/>
		<path class="st38" d="M1168.3,148.8c-0.1-0.2-0.4-0.3-0.6-0.2c-0.3,0.3-0.4,1-0.2,1.3c0.1,0.2,0.3,0.5,0.5,0.6
			c0.3,0,0.4-0.5,0.4-0.7C1168.4,149.6,1168.4,149.1,1168.3,148.8z"/>
		<path class="st38" d="M1180.9,148.8c-0.1-0.2-0.4-0.3-0.6-0.2c-0.3,0.3-0.4,1-0.2,1.3c0.1,0.2,0.3,0.5,0.5,0.6
			c0.3,0,0.4-0.5,0.4-0.7C1181,149.6,1181,149.1,1180.9,148.8z"/>
		<path class="st37" d="M1176.3,153.6c-0.2-0.7-0.5-1.3-0.7-2c-0.2-0.5-0.5-1.1-0.5-1.7c0-0.7-1.1-0.7-1.1,0c0,0.9,0.5,1.8,0.7,2.6
			c0.1,0.4,0.4,0.8,0.5,1.3c0.2,0.7-0.2,1-0.5,1.5c-0.3,0.6,0.6,1.2,0.9,0.6C1176.1,155.1,1176.7,154.6,1176.3,153.6z"/>
		<path class="st39" d="M1169.8,145.7c-0.7-0.3-1.5-0.2-2.2-0.1c-0.5,0.1-1.6,0.1-1.9,0.5c-0.3,0.3-0.1,0.8,0.4,0.8
			c1.1,0,2.3-0.1,3.4-0.1C1170.4,146.9,1170.5,146,1169.8,145.7z"/>
		<path class="st39" d="M1178.6,145.7c0.7-0.3,1.5-0.2,2.2-0.1c0.5,0.1,1.6,0.1,1.9,0.5c0.3,0.3,0.1,0.8-0.4,0.8
			c-1.1,0-2.3-0.1-3.4-0.1C1177.9,146.9,1177.9,146,1178.6,145.7z"/>
		<path class="st36" d="M1185.3,148.1c0,0,0.4-0.4,1,0.2c0.6,0.6,0.2,3.6-0.2,4.9c-0.4,1.3-2,2.1-2,2.1L1185.3,148.1z"/>
		<path class="st36" d="M1163,148.1c0,0-0.4-0.4-1,0.2c-0.6,0.6-0.2,3.6,0.2,4.9c0.4,1.3,2,2.1,2,2.1L1163,148.1z"/>
		<path class="st37" d="M1177.2,158.5c-1.4,0-2.9,0.3-4.4,0c-0.7-0.2-1,0.9-0.3,1.1c1.5,0.3,3.1,0.1,4.7,0.1
			C1177.9,159.6,1177.9,158.6,1177.2,158.5z"/>
		<path class="st39" d="M1162.6,148c0,0,1.1-1.5,1.3-3.4c0.2-1.9,0.8-6.6,0.8-6.6s1.4,0.5,4.5,1.5s6.2-0.2,8-0.2s2.5,2.1,4.3,3.4
			s3,1.2,3.6,2c0.5,0.8,0.5,3.2,0.5,3.2s1.1-0.7,2-3c1-2.2,0.5-3.8,0-5.8s1.5-5.1,0.6-7c-1.1-2.3-3.3-2.3-6-2.7
			c-2.6-0.4-5.1-2.8-8.6-2.2c-3.2,0.5-3.2,2-5.1,3.3s-4,0.7-5.9,4.3C1160.7,138.5,1162.6,148,1162.6,148z"/>
	</g>
</g>
<g>
	<defs>
		<rect id="SVGID_67_" x="5" y="8" width="1221" height="370"/>
	</defs>
	<clipPath id="SVGID_68_">
		<use xlink:href="#SVGID_67_"  style="overflow:visible;"/>
	</clipPath>
	<path class="st40" d="M1144.8,184.5c0,0-2.7,2.7-4.1,5.2s-6,33.9-5.7,37.3s13.5,9.4,13.5,9.4l5.7-6.6L1144.8,184.5z"/>
</g>
<g>
	<defs>
		<rect id="SVGID_69_" x="5" y="8" width="1221" height="370"/>
	</defs>
	<clipPath id="SVGID_70_">
		<use xlink:href="#SVGID_69_"  style="overflow:visible;"/>
	</clipPath>
	<path class="st41" d="M1206.9,183.5c0,0,2.7,2.7,4.1,5.2s5.7,33.9,5.7,37.3c0,4.7-11.5,14.4-11.5,14.4l-7.8-11.5L1206.9,183.5z"/>
</g>
<g>
	<defs>
		<rect id="SVGID_71_" x="5" y="8" width="1221" height="370"/>
	</defs>
	<clipPath id="SVGID_72_">
		<use xlink:href="#SVGID_71_"  style="overflow:visible;"/>
	</clipPath>
	<path class="st42" d="M85.7,150.6c0,0,0.4-0.4,1,0.2c0.6,0.6,0.2,3.6-0.2,4.9c-0.4,1.3-2,2.1-2,2.1L85.7,150.6z"/>
</g>
<g>
	<defs>
		<rect id="SVGID_73_" x="5" y="8" width="1221" height="370"/>
	</defs>
	<clipPath id="SVGID_74_">
		<use xlink:href="#SVGID_73_"  style="overflow:visible;"/>
	</clipPath>
	<path class="st43" d="M63.4,150.6c0,0-0.4-0.4-1,0.2c-0.6,0.6-0.2,3.6,0.2,4.9c0.4,1.3,2,2.1,2,2.1L63.4,150.6z"/>
</g>
<g>
	<defs>
		<rect id="SVGID_75_" x="5" y="8" width="1221" height="370"/>
	</defs>
	<clipPath id="SVGID_76_">
		<use xlink:href="#SVGID_75_"  style="overflow:visible;"/>
	</clipPath>
	<path class="st44" d="M66.8,170.3c0.5-0.3,7.3,2.8,8,3s7-2.8,7.4-2.6c0.5,0.2,1.6,3.1,2,3.5c0.3,0.3,6.3,2.7,6.3,2.7L74.8,199
		c0,0-15.7-20.5-15.9-20.8s6-4,6.5-4.6C65.9,173,66.3,170.6,66.8,170.3z"/>
</g>
<g>
	<defs>
		<rect id="SVGID_77_" x="5" y="8" width="1221" height="370"/>
	</defs>
	<clipPath id="SVGID_78_">
		<use xlink:href="#SVGID_77_"  style="overflow:visible;"/>
	</clipPath>
	<path class="st45" d="M1045.2,205c0,0,1.4,12,1.6,15.5s3.8,9.7,3.8,9.7l9.1,0.5c0,0-2.4-9.5-2.5-11.8s-0.3-12.8-0.3-12.8
		L1045.2,205z"/>
</g>
<g>
	<defs>
		<rect id="SVGID_79_" x="5" y="8" width="1221" height="370"/>
	</defs>
	<clipPath id="SVGID_80_">
		<use xlink:href="#SVGID_79_"  style="overflow:visible;"/>
	</clipPath>
	<path class="st46" d="M1166.5,168.4c0.5-0.3,7.3,2.8,8,3s7-2.8,7.4-2.6c0.5,0.2,1.6,3.1,2,3.5c0.3,0.3,6.3,2.7,6.3,2.7l-15.7,22.1
		c0,0-15.7-20.5-15.9-20.8c-0.2-0.3,6-4,6.5-4.6C1165.6,171.1,1165.9,168.7,1166.5,168.4z"/>
</g>
<g>
	<defs>
		<rect id="SVGID_81_" x="5" y="8" width="1221" height="370"/>
	</defs>
	<clipPath id="SVGID_82_">
		<use xlink:href="#SVGID_81_"  style="overflow:visible;"/>
	</clipPath>
	<g class="st47">
		<path class="st48" d="M1174.8,173.2h-0.5c-0.5,0-0.9,0.3-1,0.8l-0.7,2.5c-0.2,0.7,0.3,1.4,1,1.4h1.8c0.7,0,1.2-0.7,1-1.4l-0.7-2.5
			C1175.8,173.6,1175.3,173.2,1174.8,173.2z"/>
		<polygon class="st48" points="1173.7,177.3 1171.1,192.1 1175.1,198.4 1178.4,192.4 1175.5,177.1 		"/>
	</g>
</g>
<g>
	<defs>
		<rect id="SVGID_83_" x="5" y="8" width="1221" height="370"/>
	</defs>
	<clipPath id="SVGID_84_">
		<use xlink:href="#SVGID_83_"  style="overflow:visible;"/>
	</clipPath>
	<path class="st49" d="M1163,172c1.2,0,11.3,18,12,18s10.2-16.9,11.9-17.1c2.2-0.1,20.8,8.4,21,9.8c0.2,1.4-8.5,50.4-8.5,50.4
		l-47,0.6c0,0-9-47.4-8.7-49.2C1144,182.8,1161.8,172,1163,172z"/>
</g>
<g>
	<defs>
		<rect id="SVGID_85_" x="5" y="8" width="1221" height="370"/>
	</defs>
	<clipPath id="SVGID_86_">
		<use xlink:href="#SVGID_85_"  style="overflow:visible;"/>
	</clipPath>
	<path class="st50" d="M1182.4,172.5c-0.8,0.7-1.6,1.4-2.5,2.1c-0.4,0.3-0.8,0.6-1.2,0.9c-0.2,0.2-0.4,0.5-0.7,0.6
		c-0.4,0-0.8,0.6-0.4,0.9l0,0c0.1,0.1,0.4,0.2,0.5,0.1c0.8-0.3,1.5-1.1,2.2-1.6c0.9-0.7,1.9-1.4,2.7-2.2
		C1183.6,172.8,1182.9,172,1182.4,172.5z"/>
</g>
<g>
	<defs>
		<rect id="SVGID_87_" x="5" y="8" width="1221" height="370"/>
	</defs>
	<clipPath id="SVGID_88_">
		<use xlink:href="#SVGID_87_"  style="overflow:visible;"/>
	</clipPath>
	<path class="st51" d="M1171.4,176.5c-0.4-0.8-1.3-1.2-2.1-1.7c-1.2-0.7-2.1-1.8-3.1-2.7c-0.5-0.5-1.3,0.3-0.8,0.8
		c0.9,0.8,1.8,1.7,2.8,2.5c0.7,0.5,1.8,0.9,2.2,1.7C1170.8,177.7,1171.7,177.2,1171.4,176.5z"/>
</g>
<g>
	<defs>
		<rect id="SVGID_89_" x="5" y="8" width="1221" height="370"/>
	</defs>
	<clipPath id="SVGID_90_">
		<use xlink:href="#SVGID_89_"  style="overflow:visible;"/>
	</clipPath>
	<path class="st52" d="M1105.2,205c0,0-1.4,12-1.6,15.5s-3.8,9.7-3.8,9.7l-9.1,0.5c0,0,2.4-9.5,2.5-11.8s0.3-12.8,0.3-12.8
		L1105.2,205z"/>
</g>
<g>
	<defs>
		<rect id="SVGID_91_" x="5" y="8" width="1221" height="370"/>
	</defs>
	<clipPath id="SVGID_92_">
		<use xlink:href="#SVGID_91_"  style="overflow:visible;"/>
	</clipPath>
	<path class="st53" d="M77.4,161.4c-1.4,0-2.9,0.3-4.4,0c-0.7-0.2-1,0.9-0.3,1.1c1.5,0.3,3.1,0.1,4.7,0.1
		C78.1,162.5,78.1,161.4,77.4,161.4z"/>
</g>
<g>
	<defs>
		<rect id="SVGID_93_" x="5" y="8" width="1221" height="370"/>
	</defs>
	<clipPath id="SVGID_94_">
		<use xlink:href="#SVGID_93_"  style="overflow:visible;"/>
	</clipPath>
	<path class="st54" d="M76.6,157.5c-0.2-1.1-0.8-2.1-0.9-3.1c-0.1-0.7-1.1-0.4-1.1,0.2c0.1,0.8,0.5,1.5,0.7,2.2
		c0.1,0.3,0.2,0.7,0.2,1c0,0.6-0.3,0.8-0.5,1.3c-0.3,0.5,0.3,1.1,0.8,0.7l0.1-0.1c0.1-0.1,0.2-0.2,0.2-0.3
		C76.5,158.9,76.7,158.4,76.6,157.5z"/>
</g>
<g>
	<defs>
		<rect id="SVGID_95_" x="5" y="8" width="1221" height="370"/>
	</defs>
	<clipPath id="SVGID_96_">
		<use xlink:href="#SVGID_95_"  style="overflow:visible;"/>
	</clipPath>
	<path class="st55" d="M83,174.6c-1.3,0.9-2.5,2.1-3.7,3.2c-0.9,0.8-1.6,0.9-2.3-0.2c-0.5-0.8-1.1-1.6-1.5-2.4
		c-0.2-0.3-0.4-0.3-0.7-0.2c-0.2-0.1-0.4-0.1-0.6,0.1c-0.5,0.6-0.9,1.4-1.3,2.1c-0.3,0.6-0.5,1.4-1.3,1c-0.9-0.4-1.8-1.5-2.5-2.1
		c-0.9-0.8-1.8-1.7-2.6-2.6c-0.5-0.5-1.2,0.3-0.8,0.8c1.1,1.2,2.3,2.4,3.6,3.5c0.6,0.6,1.7,1.9,2.6,2c1.3,0.2,2.2-2.4,2.9-3.5
		c0.5,0.9,1.1,1.9,1.7,2.7c0.4,0.6,0.9,1,1.6,0.9c0.8-0.1,1.5-0.8,2.1-1.3c1.1-1,2.1-2.1,3.3-2.9C84.1,175.2,83.6,174.2,83,174.6z"
		/>
</g>
<g>
	<defs>
		<rect id="SVGID_97_" x="5" y="8" width="1221" height="370"/>
	</defs>
	<clipPath id="SVGID_98_">
		<use xlink:href="#SVGID_97_"  style="overflow:visible;"/>
	</clipPath>
	<path class="st56" d="M75.2,181.1c0-0.1-0.1-0.2-0.1-0.2l0,0c-0.1-0.4-0.5-0.5-0.7-0.3c-0.4,0.1-0.4,0.5-0.3,0.8l0,0l0,0
		c0,0.1,0.1,0.2,0.1,0.2c0.2,0.2,0.3,0.2,0.5,0.1l0,0c0,0,0,0,0.1,0C75.1,181.7,75.3,181.4,75.2,181.1z"/>
</g>
<g>
	<defs>
		<rect id="SVGID_99_" x="5" y="8" width="1221" height="370"/>
	</defs>
	<clipPath id="SVGID_100_">
		<use xlink:href="#SVGID_99_"  style="overflow:visible;"/>
	</clipPath>
	<path class="st57" d="M75.2,186.8c0-0.1-0.1-0.2-0.1-0.2l0,0c-0.1-0.4-0.5-0.5-0.7-0.3c-0.4,0.1-0.4,0.5-0.3,0.8l0,0l0,0
		c0,0.1,0.1,0.2,0.1,0.2c0.2,0.2,0.3,0.2,0.5,0.1l0,0c0,0,0,0,0.1,0C75.1,187.3,75.3,187,75.2,186.8z"/>
</g>
<g>
	<defs>
		<rect id="SVGID_101_" x="5" y="8" width="1221" height="370"/>
	</defs>
	<clipPath id="SVGID_102_">
		<use xlink:href="#SVGID_101_"  style="overflow:visible;"/>
	</clipPath>
	<path class="st58" d="M91.7,162.3c0-3.5,0.5-4.3,0.3-6.8c-0.2-3.1-1.6-4-1.9-6.5c-0.3-2.6-0.4-5.6-1-7.7c-0.6-2.1-2.5-3.7-4.8-5.3
		c-3.9-2.7-10-3.7-14.9-2.2c-2.8,0.9-5.5,2.1-8.5,7.9c-1,1.9-2.7,6.5-2.7,9.6c0,3.5,0.8,5.4,0.3,8.8s-1.4,3.6-1.6,7.8
		c-0.2,3.5,3.6,7,6.7,4.4c1.5-1.3,0.1-4.5,0.5-7.1c0.3-2.6,2.1-3.6,2.2-5.6c0.2-2-1.4-3.6-1.7-5.8c-0.3-2.3,0.5-4.1,2.9-6.7
		c1.1-1.1,1-3.2,1.1-4.4c0.9,0.7,3.3,1.8,4.9,2.3c4.7,1.4,7.4,0.1,9,1.4c1.6,1.3,1,6.8,2,10.1c0.8,2.5,1.9,4.3,0.9,6.5
		c-1,2.3,0.8,8.5,2.3,8.7c1.5,0.3,3.1,2.3,4.7,0.2C94,170.1,91.7,165.8,91.7,162.3z"/>
</g>
<g>
	<defs>
		<rect id="SVGID_103_" x="5" y="8" width="1221" height="370"/>
	</defs>
	<clipPath id="SVGID_104_">
		<use xlink:href="#SVGID_103_"  style="overflow:visible;"/>
	</clipPath>
	<path class="st59" d="M86.6,175.3l-11.7,21c0,0-11.5-20.7-12.3-20.6c-0.8,0.1-8.6,4.7-9.4,5.5c-0.8,0.8,0.5,20.5,2.7,28.9
		S55,230.9,55,230.9l39.6,0.9c0,0-1.4-18.7-0.9-21s5.8-27.4,4.9-29.6C97.6,178.9,86.6,175.3,86.6,175.3z"/>
</g>
<g>
	<defs>
		<rect id="SVGID_105_" x="5" y="8" width="1221" height="370"/>
	</defs>
	<clipPath id="SVGID_106_">
		<use xlink:href="#SVGID_105_"  style="overflow:visible;"/>
	</clipPath>
	<path class="st60" d="M53.1,181.1c0,0-6.6,4.7-7.2,7.5s-7.5,30.9-8.1,34.6c-0.5,3.7,5.6,6.6,5.6,6.6h11.8l6.9-27.2L53.1,181.1z"/>
</g>
<g>
	<defs>
		<rect id="SVGID_107_" x="5" y="8" width="1221" height="370"/>
	</defs>
	<clipPath id="SVGID_108_">
		<use xlink:href="#SVGID_107_"  style="overflow:visible;"/>
	</clipPath>
	<path class="st61" d="M97.2,179.8c0,0,6.6,3.7,8.1,8.3c0.8,2.7,5.9,31.2,6.3,34.9s-5.9,6.3-5.9,6.3L94,228.7l-5.5-27.5L97.2,179.8z
		"/>
</g>
<g>
	<defs>
		<rect id="SVGID_109_" x="5" y="8" width="1221" height="370"/>
	</defs>
	<clipPath id="SVGID_110_">
		<use xlink:href="#SVGID_109_"  style="overflow:visible;"/>
	</clipPath>
	<rect x="329.2" y="7" class="st62" width="525.4" height="252.2"/>
</g>
<g>
	<defs>
		<rect id="SVGID_111_" x="5" y="8" width="1221" height="370"/>
	</defs>
	<clipPath id="SVGID_112_">
		<use xlink:href="#SVGID_111_"  style="overflow:visible;"/>
	</clipPath>
	<g class="st63">
		<path class="st9" d="M504,223H399.3V31.9c0-1.9,1.6-3.5,3.5-3.5h97.8c1.9,0,3.5,1.6,3.5,3.5L504,223L504,223z"/>
		<path class="st10" d="M498.5,223h-93.6V36.9c0-1.9,1.6-3.5,3.5-3.5H495c1.9,0,3.5,1.6,3.5,3.5V223z"/>
	</g>
</g>
<g>
	<defs>
		<rect id="SVGID_113_" x="5" y="8" width="1221" height="370"/>
	</defs>
	<clipPath id="SVGID_114_">
		<use xlink:href="#SVGID_113_"  style="overflow:visible;"/>
	</clipPath>
	<g class="st64">
		<path class="st9" d="M644.3,223H539.5V31.9c0-1.9,1.6-3.5,3.5-3.5h97.8c1.9,0,3.5,1.6,3.5,3.5V223z"/>
		<path class="st10" d="M638.7,223h-93.6V36.9c0-1.9,1.6-3.5,3.5-3.5h86.6c1.9,0,3.5,1.6,3.5,3.5V223z"/>
	</g>
</g>
<g>
	<defs>
		<rect id="SVGID_115_" x="5" y="8" width="1221" height="370"/>
	</defs>
	<clipPath id="SVGID_116_">
		<use xlink:href="#SVGID_115_"  style="overflow:visible;"/>
	</clipPath>
	<g class="st65">
		<path class="st9" d="M784.6,223H679.8V31.9c0-1.9,1.6-3.5,3.5-3.5h97.8c1.9,0,3.5,1.6,3.5,3.5V223z"/>
		<path class="st10" d="M779,223h-93.6V36.9c0-1.9,1.6-3.5,3.5-3.5h86.6c1.9,0,3.5,1.6,3.5,3.5V223z"/>
	</g>
</g>
<g>
	<defs>
		<rect id="SVGID_117_" x="5" y="8" width="1221" height="370"/>
	</defs>
	<clipPath id="SVGID_118_">
		<use xlink:href="#SVGID_117_"  style="overflow:visible;"/>
	</clipPath>
	<rect x="344.3" y="7" class="st66" width="28.3" height="199.2"/>
</g>
<g>
	<defs>
		<rect id="SVGID_119_" x="5" y="8" width="1221" height="370"/>
	</defs>
	<clipPath id="SVGID_120_">
		<use xlink:href="#SVGID_119_"  style="overflow:visible;"/>
	</clipPath>
	<path class="st67" d="M564.9,75.1h52.2c7.9,0,14.4,6.4,14.4,14.4l2.2,67h-85.3l2.2-67C550.6,81.6,557,75.1,564.9,75.1z"/>
</g>
<g>
	<defs>
		<rect id="SVGID_121_" x="5" y="8" width="1221" height="370"/>
	</defs>
	<clipPath id="SVGID_122_">
		<use xlink:href="#SVGID_121_"  style="overflow:visible;"/>
	</clipPath>
	<rect x="811.3" y="7" class="st68" width="28.3" height="199.2"/>
</g>
<g>
	<defs>
		<rect id="SVGID_123_" x="5" y="8" width="1221" height="370"/>
	</defs>
	<clipPath id="SVGID_124_">
		<use xlink:href="#SVGID_123_"  style="overflow:visible;"/>
	</clipPath>
	<path class="st69" d="M341.9,133.1h52.2c7.9,0,14.4,6.4,14.4,14.4l2.2,67h-85.3l2.2-67C327.5,139.5,334,133.1,341.9,133.1z"/>
</g>
<g>
	<defs>
		<rect id="SVGID_125_" x="5" y="8" width="1221" height="370"/>
	</defs>
	<clipPath id="SVGID_126_">
		<use xlink:href="#SVGID_125_"  style="overflow:visible;"/>
	</clipPath>
	<path class="st70" d="M789.4,133.1h52.2c7.9,0,14.4,6.4,14.4,14.4l2.2,67h-85.3l2.2-67C775.1,139.5,781.5,133.1,789.4,133.1z"/>
</g>
<g>
	<defs>
		<rect id="SVGID_127_" x="5" y="8" width="1221" height="370"/>
	</defs>
	<clipPath id="SVGID_128_">
		<use xlink:href="#SVGID_127_"  style="overflow:visible;"/>
	</clipPath>
	<g class="st71">
		<path class="st72" d="M818.6,130.4L818.6,130.4c-0.7,0-1.2-0.5-1.2-1.2V17.1c0-0.7,0.5-1.2,1.2-1.2l0,0c0.7,0,1.2,0.5,1.2,1.2
			v112.2C819.8,129.9,819.3,130.4,818.6,130.4z"/>
		<path class="st72" d="M823.2,130.4L823.2,130.4c-0.7,0-1.2-0.5-1.2-1.2V17.1c0-0.7,0.5-1.2,1.2-1.2l0,0c0.7,0,1.2,0.5,1.2,1.2
			v112.2C824.3,129.9,823.8,130.4,823.2,130.4z"/>
		<path class="st72" d="M827.7,130.4L827.7,130.4c-0.7,0-1.2-0.5-1.2-1.2V17.1c0-0.7,0.5-1.2,1.2-1.2l0,0c0.7,0,1.2,0.5,1.2,1.2
			v112.2C828.9,129.9,828.4,130.4,827.7,130.4z"/>
		<path class="st72" d="M832.3,130.4L832.3,130.4c-0.7,0-1.2-0.5-1.2-1.2V17.1c0-0.7,0.5-1.2,1.2-1.2l0,0c0.7,0,1.2,0.5,1.2,1.2
			v112.2C833.4,129.9,832.9,130.4,832.3,130.4z"/>
	</g>
</g>
<g>
	<defs>
		<rect id="SVGID_129_" x="5" y="8" width="1221" height="370"/>
	</defs>
	<clipPath id="SVGID_130_">
		<use xlink:href="#SVGID_129_"  style="overflow:visible;"/>
	</clipPath>
	<polygon class="st73" points="373.3,141.3 373.3,154.1 368.2,160.2 360.1,153.9 360.1,141.7 	"/>
</g>
<g>
	<defs>
		<rect id="SVGID_131_" x="5" y="8" width="1221" height="370"/>
	</defs>
	<clipPath id="SVGID_132_">
		<use xlink:href="#SVGID_131_"  style="overflow:visible;"/>
	</clipPath>
	<polygon class="st74" points="824,140 824,152.8 818.9,159 810.8,152.6 810.8,140.5 	"/>
</g>
<g>
	<defs>
		<rect id="SVGID_133_" x="5" y="8" width="1221" height="370"/>
	</defs>
	<clipPath id="SVGID_134_">
		<use xlink:href="#SVGID_133_"  style="overflow:visible;"/>
	</clipPath>
	<path class="st75" d="M828.5,117.2c0,0,0,6.6,0,8.8c0,1-0.1,3.2-0.4,5.6c-0.4,2.8-1,5.9-2.1,8.2c-0.7,1.4-6.3,6-8.6,5.9
		c-1.2,0-6.6-2.6-8.7-6.1c-0.7-1.2-1.8-5.5-2.5-8.9c-0.3-1.7-0.6-3.1-0.6-3.8c-0.1-2.3,1.5-11.3,1.5-11.3s8.6-4.2,10.3-4.1
		C819.1,111.5,828.5,117.2,828.5,117.2z"/>
</g>
<g>
	<defs>
		<rect id="SVGID_135_" x="5" y="8" width="1221" height="370"/>
	</defs>
	<clipPath id="SVGID_136_">
		<use xlink:href="#SVGID_135_"  style="overflow:visible;"/>
	</clipPath>
	<path class="st76" d="M820.5,146.5c0.1,1-2.5,1.7-4.4,1.5c-1.4-0.1-3.9-0.8-5.3-1.2v-4.3c0,0,3.6,2.8,5.9,3.1
		C819.1,145.8,820.4,145.5,820.5,146.5z"/>
</g>
<g>
	<defs>
		<rect id="SVGID_137_" x="5" y="8" width="1221" height="370"/>
	</defs>
	<clipPath id="SVGID_138_">
		<use xlink:href="#SVGID_137_"  style="overflow:visible;"/>
	</clipPath>
	<path class="st77" d="M811.3,127.6c-0.1-0.2-0.4-0.3-0.6-0.2c-0.3,0.3-0.4,1-0.2,1.3c0.1,0.2,0.3,0.5,0.5,0.6
		c0.3,0,0.4-0.5,0.4-0.7C811.5,128.4,811.4,127.9,811.3,127.6z"/>
</g>
<g>
	<defs>
		<rect id="SVGID_139_" x="5" y="8" width="1221" height="370"/>
	</defs>
	<clipPath id="SVGID_140_">
		<use xlink:href="#SVGID_139_"  style="overflow:visible;"/>
	</clipPath>
	<path class="st78" d="M823.9,127.6c-0.1-0.2-0.4-0.3-0.6-0.2c-0.3,0.3-0.4,1-0.2,1.3c0.1,0.2,0.3,0.5,0.5,0.6
		c0.3,0,0.4-0.5,0.4-0.7C824,128.4,824,127.9,823.9,127.6z"/>
</g>
<g>
	<defs>
		<rect id="SVGID_141_" x="5" y="8" width="1221" height="370"/>
	</defs>
	<clipPath id="SVGID_142_">
		<use xlink:href="#SVGID_141_"  style="overflow:visible;"/>
	</clipPath>
	<path class="st79" d="M819.4,132.5c-0.2-0.7-0.5-1.3-0.7-2c-0.2-0.5-0.5-1.1-0.5-1.7c0-0.7-1.1-0.7-1.1,0c0,0.9,0.5,1.8,0.7,2.6
		c0.1,0.4,0.4,0.8,0.5,1.3c0.2,0.7-0.2,1-0.5,1.5c-0.3,0.6,0.6,1.2,0.9,0.6C819.2,133.9,819.7,133.5,819.4,132.5z"/>
</g>
<g>
	<defs>
		<rect id="SVGID_143_" x="5" y="8" width="1221" height="370"/>
	</defs>
	<clipPath id="SVGID_144_">
		<use xlink:href="#SVGID_143_"  style="overflow:visible;"/>
	</clipPath>
	<path class="st80" d="M812.8,124.5c-0.7-0.3-1.5-0.2-2.2-0.1c-0.5,0.1-1.6,0.1-1.9,0.5c-0.3,0.3-0.1,0.8,0.4,0.8
		c1.1,0,2.3-0.1,3.4-0.1C813.5,125.7,813.5,124.8,812.8,124.5z"/>
</g>
<g>
	<defs>
		<rect id="SVGID_145_" x="5" y="8" width="1221" height="370"/>
	</defs>
	<clipPath id="SVGID_146_">
		<use xlink:href="#SVGID_145_"  style="overflow:visible;"/>
	</clipPath>
	<path class="st81" d="M821.6,124.5c0.7-0.3,1.5-0.2,2.2-0.1c0.5,0.1,1.6,0.1,1.9,0.5c0.3,0.3,0.1,0.8-0.4,0.8
		c-1.1,0-2.3-0.1-3.4-0.1C821,125.7,820.9,124.8,821.6,124.5z"/>
</g>
<g>
	<defs>
		<rect id="SVGID_147_" x="5" y="8" width="1221" height="370"/>
	</defs>
	<clipPath id="SVGID_148_">
		<use xlink:href="#SVGID_147_"  style="overflow:visible;"/>
	</clipPath>
	<path class="st82" d="M828.3,127c0,0,0.4-0.4,1,0.2s0.2,3.6-0.2,4.9c-0.4,1.3-2,2.1-2,2.1L828.3,127z"/>
</g>
<g>
	<defs>
		<rect id="SVGID_149_" x="5" y="8" width="1221" height="370"/>
	</defs>
	<clipPath id="SVGID_150_">
		<use xlink:href="#SVGID_149_"  style="overflow:visible;"/>
	</clipPath>
	<g class="st83">
		<path class="st72" d="M351.6,130.4L351.6,130.4c-0.7,0-1.2-0.5-1.2-1.2V17.1c0-0.7,0.5-1.2,1.2-1.2l0,0c0.7,0,1.2,0.5,1.2,1.2
			v112.2C352.8,129.9,352.3,130.4,351.6,130.4z"/>
		<path class="st72" d="M356.2,130.4L356.2,130.4c-0.7,0-1.2-0.5-1.2-1.2V17.1c0-0.7,0.5-1.2,1.2-1.2l0,0c0.7,0,1.2,0.5,1.2,1.2
			v112.2C357.4,129.9,356.8,130.4,356.2,130.4z"/>
		<path class="st72" d="M360.7,130.4L360.7,130.4c-0.7,0-1.2-0.5-1.2-1.2V17.1c0-0.7,0.5-1.2,1.2-1.2l0,0c0.7,0,1.2,0.5,1.2,1.2
			v112.2C361.9,129.9,361.4,130.4,360.7,130.4z"/>
		<path class="st72" d="M365.3,130.4L365.3,130.4c-0.7,0-1.2-0.5-1.2-1.2V17.1c0-0.7,0.5-1.2,1.2-1.2l0,0c0.7,0,1.2,0.5,1.2,1.2
			v112.2C366.5,129.9,366,130.4,365.3,130.4z"/>
	</g>
</g>
<g>
	<defs>
		<rect id="SVGID_151_" x="5" y="8" width="1221" height="370"/>
	</defs>
	<clipPath id="SVGID_152_">
		<use xlink:href="#SVGID_151_"  style="overflow:visible;"/>
	</clipPath>
	<path class="st84" d="M806,127c0,0-0.4-0.4-1,0.2s-0.2,3.6,0.2,4.9c0.4,1.3,2,2.1,2,2.1L806,127z"/>
</g>
<g>
	<defs>
		<rect id="SVGID_153_" x="5" y="8" width="1221" height="370"/>
	</defs>
	<clipPath id="SVGID_154_">
		<use xlink:href="#SVGID_153_"  style="overflow:visible;"/>
	</clipPath>
	<path class="st85" d="M805.6,126.8c0,0,1-0.7,1.1-2.3c0.1-4.1,0.5-6.9,10.8-6.9c1.9,0,7.9,0,8.8,1.6c0.7,1.1,1.3,4.4,1.3,5.4
		s1,2.4,1,2.4s0.8-5.2,1.1-8.2s-1-5.2-2.1-6.1c-1.1-1-1.8-2.3-3.3-3.2c-1.6-0.9-7-3-10.1-2s-3.9,0.7-6.3,1.3
		c-2.4,0.6-3.9,2.2-3.7,4.1c0.3,1.9-0.4,2.1-0.2,4.6C804.2,119.8,805.6,126.8,805.6,126.8z"/>
</g>
<g>
	<defs>
		<rect id="SVGID_155_" x="5" y="8" width="1221" height="370"/>
	</defs>
	<clipPath id="SVGID_156_">
		<use xlink:href="#SVGID_155_"  style="overflow:visible;"/>
	</clipPath>
	<path class="st86" d="M809.4,146.7c0.5-0.3,7.3,2.8,8,3s7-2.8,7.4-2.6c0.5,0.2,1.6,3.1,2,3.5c0.3,0.3,6.3,2.7,6.3,2.7l-15.7,22.1
		c0,0-15.7-20.5-15.9-20.8s6-4,6.5-4.6C808.5,149.4,808.9,147.1,809.4,146.7z"/>
</g>
<g>
	<defs>
		<rect id="SVGID_157_" x="5" y="8" width="1221" height="370"/>
	</defs>
	<clipPath id="SVGID_158_">
		<use xlink:href="#SVGID_157_"  style="overflow:visible;"/>
	</clipPath>
	<g class="st87">
		<path class="st88" d="M817.8,151.6h-0.5c-0.5,0-0.9,0.3-1,0.8l-0.7,2.5c-0.2,0.7,0.3,1.4,1,1.4h1.8c0.7,0,1.2-0.7,1-1.4l-0.7-2.5
			C818.7,151.9,818.3,151.6,817.8,151.6z"/>
		<polygon class="st88" points="816.6,155.6 814,170.4 818,176.7 821.3,170.7 818.4,155.4 		"/>
	</g>
</g>
<g>
	<defs>
		<rect id="SVGID_159_" x="5" y="8" width="1221" height="370"/>
	</defs>
	<clipPath id="SVGID_160_">
		<use xlink:href="#SVGID_159_"  style="overflow:visible;"/>
	</clipPath>
	<path class="st89" d="M805.9,150.3c1.2,0,11.3,18,12,18s10.2-16.9,11.9-17.1c2.2-0.1,20.8,8.4,21,9.8c0.2,1.4-8.5,50.4-8.5,50.4
		l-47,0.6c0,0-9-47.4-8.7-49.2C787,161.1,804.7,150.3,805.9,150.3z"/>
</g>
<g>
	<defs>
		<rect id="SVGID_161_" x="5" y="8" width="1221" height="370"/>
	</defs>
	<clipPath id="SVGID_162_">
		<use xlink:href="#SVGID_161_"  style="overflow:visible;"/>
	</clipPath>
	<path class="st90" d="M850.6,160.7c0.8,0.6,8.5,8.7,13.6,16.1c3,4.3,8.5,11.5,8.4,16.4s-5.3,6.8-7.8,6.9c-2.6,0.1-27.1,0-27.1,0
		l11.5-40.3C849.2,159.8,849.8,160,850.6,160.7z"/>
</g>
<g>
	<defs>
		<rect id="SVGID_163_" x="5" y="8" width="1221" height="370"/>
	</defs>
	<clipPath id="SVGID_164_">
		<use xlink:href="#SVGID_163_"  style="overflow:visible;"/>
	</clipPath>
	<path class="st91" d="M787,162.2c-0.5,0.5-7.1,7.2-12.2,14.5c-3,4.3-8.5,11.5-8.4,16.4s5.3,6.8,7.8,6.9c2.6,0.1,27.1,0,27.1,0
		L789,160.5C789.1,160.6,787.5,161.7,787,162.2z"/>
</g>
<g>
	<defs>
		<rect id="SVGID_165_" x="5" y="8" width="1221" height="370"/>
	</defs>
	<clipPath id="SVGID_166_">
		<use xlink:href="#SVGID_165_"  style="overflow:visible;"/>
	</clipPath>
	<path class="st92" d="M820.2,137.4c-1.4,0-2.9,0.3-4.4,0c-0.7-0.2-1,0.9-0.3,1.1c1.5,0.3,3.1,0.1,4.7,0.1
		C820.9,138.5,820.9,137.4,820.2,137.4z"/>
</g>
<g>
	<defs>
		<rect id="SVGID_167_" x="5" y="8" width="1221" height="370"/>
	</defs>
	<clipPath id="SVGID_168_">
		<use xlink:href="#SVGID_167_"  style="overflow:visible;"/>
	</clipPath>
	<path class="st93" d="M825.3,150.9c-0.8,0.7-1.6,1.4-2.5,2.1c-0.4,0.3-0.8,0.6-1.2,0.9c-0.2,0.2-0.4,0.5-0.7,0.6
		c-0.4,0-0.8,0.6-0.4,0.9l0,0c0.1,0.1,0.4,0.2,0.5,0.1c0.8-0.3,1.5-1.1,2.2-1.6c0.9-0.7,1.9-1.4,2.7-2.2
		C826.6,151.1,825.8,150.4,825.3,150.9z"/>
</g>
<g>
	<defs>
		<rect id="SVGID_169_" x="5" y="8" width="1221" height="370"/>
	</defs>
	<clipPath id="SVGID_170_">
		<use xlink:href="#SVGID_169_"  style="overflow:visible;"/>
	</clipPath>
	<path class="st94" d="M814.3,154.9c-0.4-0.8-1.3-1.2-2.1-1.7c-1.2-0.7-2.1-1.8-3.1-2.7c-0.5-0.5-1.3,0.3-0.8,0.8
		c0.9,0.8,1.8,1.7,2.8,2.5c0.7,0.5,1.8,0.9,2.2,1.7C813.7,156,814.7,155.5,814.3,154.9z"/>
</g>
<g>
	<defs>
		<rect id="SVGID_171_" x="5" y="8" width="1221" height="370"/>
	</defs>
	<clipPath id="SVGID_172_">
		<use xlink:href="#SVGID_171_"  style="overflow:visible;"/>
	</clipPath>
	<path class="st95" d="M377.8,118.5c0,0,0,6.6,0,8.8c0,1-0.1,3.2-0.4,5.6c-0.4,2.8-1.6,6.2-2.8,8.4c-1.1,2-5.4,4.9-7.7,4.8
		c-1.2,0-5.8-1.6-7.9-5.1c-0.7-1.2-2.8-5.7-3.5-9.1c-0.3-1.7-0.6-3.1-0.6-3.8c-0.1-2.3,1.5-11.3,1.5-11.3s8.6-4.2,10.3-4.1
		C368.3,112.8,377.8,118.5,377.8,118.5z"/>
</g>
<g>
	<defs>
		<rect id="SVGID_173_" x="5" y="8" width="1221" height="370"/>
	</defs>
	<clipPath id="SVGID_174_">
		<use xlink:href="#SVGID_173_"  style="overflow:visible;"/>
	</clipPath>
	<path class="st96" d="M369.8,146.9c0.1,1-2.5,1.7-4.4,1.5c-1.4-0.1-3.9-0.8-5.3-1.2v-4.7c0,0,3.6,3.2,5.9,3.4
		C368.3,146.2,369.7,145.9,369.8,146.9z"/>
</g>
<g>
	<defs>
		<rect id="SVGID_175_" x="5" y="8" width="1221" height="370"/>
	</defs>
	<clipPath id="SVGID_176_">
		<use xlink:href="#SVGID_175_"  style="overflow:visible;"/>
	</clipPath>
	<path class="st97" d="M360.9,130.4c-0.1-0.2-0.4-0.3-0.6-0.2c-0.3,0.3-0.4,1-0.2,1.3c0.1,0.2,0.3,0.5,0.5,0.6
		c0.3,0,0.4-0.5,0.4-0.7C361,131.2,361,130.7,360.9,130.4z"/>
</g>
<g>
	<defs>
		<rect id="SVGID_177_" x="5" y="8" width="1221" height="370"/>
	</defs>
	<clipPath id="SVGID_178_">
		<use xlink:href="#SVGID_177_"  style="overflow:visible;"/>
	</clipPath>
	<path class="st98" d="M373.4,130.4c-0.1-0.2-0.4-0.3-0.6-0.2c-0.3,0.3-0.4,1-0.2,1.3c0.1,0.2,0.3,0.5,0.5,0.6
		c0.3,0,0.4-0.5,0.4-0.7C373.6,131.2,373.6,130.7,373.4,130.4z"/>
</g>
<g>
	<defs>
		<rect id="SVGID_179_" x="5" y="8" width="1221" height="370"/>
	</defs>
	<clipPath id="SVGID_180_">
		<use xlink:href="#SVGID_179_"  style="overflow:visible;"/>
	</clipPath>
	<path class="st99" d="M371.2,127.4c0.7-0.2,1.5-0.1,2.2,0c0.5,0.1,1.5,0.2,1.8,0.5c0.3,0.3,0,0.6-0.5,0.6c-1.1,0-2.2-0.2-3.4-0.2
		C370.4,128.3,370.5,127.6,371.2,127.4z"/>
</g>
<g>
	<defs>
		<rect id="SVGID_181_" x="5" y="8" width="1221" height="370"/>
	</defs>
	<clipPath id="SVGID_182_">
		<use xlink:href="#SVGID_181_"  style="overflow:visible;"/>
	</clipPath>
	<path class="st100" d="M361.8,127.4c-0.7-0.2-1.5-0.1-2.2,0c-0.5,0.1-1.5,0.2-1.8,0.5c-0.3,0.3,0,0.6,0.5,0.6
		c1.1,0,2.2-0.2,3.4-0.2C362.6,128.3,362.5,127.6,361.8,127.4z"/>
</g>
<g>
	<defs>
		<rect id="SVGID_183_" x="5" y="8" width="1221" height="370"/>
	</defs>
	<clipPath id="SVGID_184_">
		<use xlink:href="#SVGID_183_"  style="overflow:visible;"/>
	</clipPath>
	<path class="st101" d="M377.6,128.3c0,0,0.4-0.4,1,0.2c0.6,0.6,0.2,3.6-0.2,4.9c-0.4,1.3-2,2.1-2,2.1L377.6,128.3z"/>
</g>
<g>
	<defs>
		<rect id="SVGID_185_" x="5" y="8" width="1221" height="370"/>
	</defs>
	<clipPath id="SVGID_186_">
		<use xlink:href="#SVGID_185_"  style="overflow:visible;"/>
	</clipPath>
	<path class="st102" d="M355.3,128.3c0,0-0.4-0.4-1,0.2c-0.6,0.6-0.2,3.6,0.2,4.9c0.4,1.3,2,2.1,2,2.1L355.3,128.3z"/>
</g>
<g>
	<defs>
		<rect id="SVGID_187_" x="5" y="8" width="1221" height="370"/>
	</defs>
	<clipPath id="SVGID_188_">
		<use xlink:href="#SVGID_187_"  style="overflow:visible;"/>
	</clipPath>
	<path class="st103" d="M358.7,148c0.5-0.3,7.3,2.8,8,3s7-2.8,7.4-2.6c0.5,0.2,1.6,3.1,2,3.5c0.3,0.3,6.3,2.7,6.3,2.7l-15.7,22.1
		c0,0-15.7-20.5-15.9-20.8c-0.2-0.3,6-4,6.5-4.6C357.8,150.7,358.1,148.3,358.7,148z"/>
</g>
<g>
	<defs>
		<rect id="SVGID_189_" x="5" y="8" width="1221" height="370"/>
	</defs>
	<clipPath id="SVGID_190_">
		<use xlink:href="#SVGID_189_"  style="overflow:visible;"/>
	</clipPath>
	<path class="st104" d="M355.2,151.6c1.2,0,11.3,18,12,18s10.2-16.9,11.9-17.1c2.2-0.1,20.8,8.4,21,9.8c0.2,1.4-8.5,50.4-8.5,50.4
		l-47,0.6c0,0-9-47.4-8.7-49.2C336.3,162.4,354,151.6,355.2,151.6z"/>
</g>
<g>
	<defs>
		<rect id="SVGID_191_" x="5" y="8" width="1221" height="370"/>
	</defs>
	<clipPath id="SVGID_192_">
		<use xlink:href="#SVGID_191_"  style="overflow:visible;"/>
	</clipPath>
	<path class="st105" d="M369.3,139.1c-1.4,0-2.9,0.3-4.4,0c-0.7-0.2-1,0.9-0.3,1.1c1.5,0.3,3.1,0.1,4.7,0.1
		C370,140.2,370,139.1,369.3,139.1z"/>
</g>
<g>
	<defs>
		<rect id="SVGID_193_" x="5" y="8" width="1221" height="370"/>
	</defs>
	<clipPath id="SVGID_194_">
		<use xlink:href="#SVGID_193_"  style="overflow:visible;"/>
	</clipPath>
	<path class="st106" d="M368.5,135.2c-0.2-1.1-0.8-2.1-0.9-3.1c-0.1-0.7-1.1-0.4-1.1,0.2c0.1,0.8,0.5,1.5,0.7,2.2
		c0.1,0.3,0.2,0.7,0.2,1c0,0.6-0.3,0.8-0.5,1.3c-0.3,0.5,0.3,1.1,0.8,0.7l0.1-0.1c0.1-0.1,0.2-0.2,0.2-0.3
		C368.4,136.5,368.6,136.1,368.5,135.2z"/>
</g>
<g>
	<defs>
		<rect id="SVGID_195_" x="5" y="8" width="1221" height="370"/>
	</defs>
	<clipPath id="SVGID_196_">
		<use xlink:href="#SVGID_195_"  style="overflow:visible;"/>
	</clipPath>
	<polygon class="st107" points="596.3,89.1 596.3,101.9 591.2,108 583.2,101.7 583.2,89.5 	"/>
</g>
<g>
	<defs>
		<rect id="SVGID_197_" x="5" y="8" width="1221" height="370"/>
	</defs>
	<clipPath id="SVGID_198_">
		<use xlink:href="#SVGID_197_"  style="overflow:visible;"/>
	</clipPath>
	<path class="st108" d="M600.9,66.3c0,0,0,6.6,0,8.8c0,1-0.1,3.2-0.4,5.6c-0.4,2.8-1,5.9-2.1,8.2c-0.7,1.4-6.3,6-8.6,5.9
		c-1.2,0-6.6-2.6-8.7-6.1c-0.7-1.2-1.8-5.5-2.5-8.9c-0.3-1.7-0.6-3.1-0.6-3.8c-0.1-2.3,1.5-11.3,1.5-11.3s8.6-4.2,10.3-4.1
		C591.4,60.6,600.9,66.3,600.9,66.3z"/>
</g>
<g>
	<defs>
		<rect id="SVGID_199_" x="5" y="8" width="1221" height="370"/>
	</defs>
	<clipPath id="SVGID_200_">
		<use xlink:href="#SVGID_199_"  style="overflow:visible;"/>
	</clipPath>
	<path class="st109" d="M592.8,95.6c0.1,1-2.5,1.7-4.4,1.5c-1.4-0.1-3.9-0.8-5.3-1.2v-4.3c0,0,3.6,2.8,5.9,3.1
		C591.4,94.9,592.8,94.6,592.8,95.6z"/>
</g>
<g>
	<defs>
		<rect id="SVGID_201_" x="5" y="8" width="1221" height="370"/>
	</defs>
	<clipPath id="SVGID_202_">
		<use xlink:href="#SVGID_201_"  style="overflow:visible;"/>
	</clipPath>
	<path class="st110" d="M583.6,76.7c-0.1-0.2-0.4-0.3-0.6-0.2c-0.3,0.3-0.4,1-0.2,1.3c0.1,0.2,0.3,0.5,0.5,0.6
		c0.3,0,0.4-0.5,0.4-0.7C583.8,77.5,583.8,77,583.6,76.7z"/>
</g>
<g>
	<defs>
		<rect id="SVGID_203_" x="5" y="8" width="1221" height="370"/>
	</defs>
	<clipPath id="SVGID_204_">
		<use xlink:href="#SVGID_203_"  style="overflow:visible;"/>
	</clipPath>
	<path class="st111" d="M596.2,76.7c-0.1-0.2-0.4-0.3-0.6-0.2c-0.3,0.3-0.4,1-0.2,1.3c0.1,0.2,0.3,0.5,0.5,0.6
		c0.3,0,0.4-0.5,0.4-0.7C596.4,77.5,596.3,77,596.2,76.7z"/>
</g>
<g>
	<defs>
		<rect id="SVGID_205_" x="5" y="8" width="1221" height="370"/>
	</defs>
	<clipPath id="SVGID_206_">
		<use xlink:href="#SVGID_205_"  style="overflow:visible;"/>
	</clipPath>
	<path class="st112" d="M591.7,81.6c-0.2-0.7-0.5-1.3-0.7-2c-0.2-0.5-0.5-1.1-0.5-1.7c0-0.7-1.1-0.7-1.1,0c0,0.9,0.5,1.8,0.7,2.6
		c0.1,0.4,0.4,0.8,0.5,1.3c0.2,0.7-0.2,1-0.5,1.5c-0.3,0.6,0.6,1.2,0.9,0.6C591.5,83,592,82.5,591.7,81.6z"/>
</g>
<g>
	<defs>
		<rect id="SVGID_207_" x="5" y="8" width="1221" height="370"/>
	</defs>
	<clipPath id="SVGID_208_">
		<use xlink:href="#SVGID_207_"  style="overflow:visible;"/>
	</clipPath>
	<path class="st113" d="M585.1,73.4c-0.7-0.4-1.5-0.3-2.2-0.1c-0.5,0.1-1.6,0.2-1.9,0.7c-0.3,0.4-0.1,1.1,0.4,1.1
		c1.1,0,2.3-0.2,3.4-0.1C585.8,75,585.8,73.8,585.1,73.4z"/>
</g>
<g>
	<defs>
		<rect id="SVGID_209_" x="5" y="8" width="1221" height="370"/>
	</defs>
	<clipPath id="SVGID_210_">
		<use xlink:href="#SVGID_209_"  style="overflow:visible;"/>
	</clipPath>
	<path class="st114" d="M593.9,73.4c0.7-0.4,1.5-0.3,2.2-0.1c0.5,0.1,1.6,0.2,1.9,0.7c0.3,0.4,0.1,1.1-0.4,1.1
		c-1.1,0-2.3-0.2-3.4-0.1C593.3,75,593.2,73.8,593.9,73.4z"/>
</g>
<g>
	<defs>
		<rect id="SVGID_211_" x="5" y="8" width="1221" height="370"/>
	</defs>
	<clipPath id="SVGID_212_">
		<use xlink:href="#SVGID_211_"  style="overflow:visible;"/>
	</clipPath>
	<path class="st115" d="M600.6,76.1c0,0,0.4-0.4,1,0.2s0.2,3.6-0.2,4.9s-2,2.1-2,2.1L600.6,76.1z"/>
</g>
<g>
	<defs>
		<rect id="SVGID_213_" x="5" y="8" width="1221" height="370"/>
	</defs>
	<clipPath id="SVGID_214_">
		<use xlink:href="#SVGID_213_"  style="overflow:visible;"/>
	</clipPath>
	<path class="st116" d="M578.3,76.1c0,0-0.4-0.4-1,0.2s-0.2,3.6,0.2,4.9s2,2.1,2,2.1L578.3,76.1z"/>
</g>
<g>
	<defs>
		<rect id="SVGID_215_" x="5" y="8" width="1221" height="370"/>
	</defs>
	<clipPath id="SVGID_216_">
		<use xlink:href="#SVGID_215_"  style="overflow:visible;"/>
	</clipPath>
	<path class="st117" d="M577.9,75.9c0,0,1-0.7,1.1-2.3c0.1-1.6,0.3-5.9,1.1-7s2.6-1.8,4.4-1.5c1.8,0.3,3.3,1.8,5.3,1.6
		c1.9-0.2,2.9-1.3,4-1.7c1.1-0.4,4-0.1,4.9,1.4c0.7,1.1,1.2,6.3,1.2,7.2c0,1,1,2.4,1,2.4s0.8-7.4,1.1-10.4s0.4-4.4-0.7-5.4
		c-1.1-1-3.2-0.9-4.7-1.8c-1.6-0.9-7-3-10.1-2s-3.9,0.7-6.3,1.3c-2.4,0.6-3.9,2.2-3.7,4.1c0.3,1.9-0.4,2.1-0.2,4.6
		C576.5,68.9,577.9,75.9,577.9,75.9z"/>
</g>
<g>
	<defs>
		<rect id="SVGID_217_" x="5" y="8" width="1221" height="370"/>
	</defs>
	<clipPath id="SVGID_218_">
		<use xlink:href="#SVGID_217_"  style="overflow:visible;"/>
	</clipPath>
	<path class="st118" d="M581.7,95.8c0.5-0.3,7.3,2.8,8,3s7-2.8,7.4-2.6c0.5,0.2,1.6,3.1,2,3.5c0.3,0.3,6.3,2.7,6.3,2.7l-15.7,22.1
		c0,0-15.7-20.5-15.9-20.8s6-4,6.5-4.6S581.2,96.1,581.7,95.8z"/>
</g>
<g>
	<defs>
		<rect id="SVGID_219_" x="5" y="8" width="1221" height="370"/>
	</defs>
	<clipPath id="SVGID_220_">
		<use xlink:href="#SVGID_219_"  style="overflow:visible;"/>
	</clipPath>
	<g class="st119">
		<path class="st120" d="M590.1,100.6h-0.5c-0.5,0-0.9,0.3-1,0.8l-0.7,2.5c-0.2,0.7,0.3,1.4,1,1.4h1.8c0.7,0,1.2-0.7,1-1.4l-0.7-2.5
			C591,101,590.6,100.6,590.1,100.6z"/>
		<polygon class="st120" points="588.9,104.7 586.3,119.5 590.3,125.8 593.6,119.8 590.8,104.5 		"/>
	</g>
</g>
<g>
	<defs>
		<rect id="SVGID_221_" x="5" y="8" width="1221" height="370"/>
	</defs>
	<clipPath id="SVGID_222_">
		<use xlink:href="#SVGID_221_"  style="overflow:visible;"/>
	</clipPath>
	<path class="st121" d="M578.3,99.4c1.2,0,11.3,18,12,18s10.2-16.9,11.9-17.1c2.2-0.1,20.8,8.4,21,9.8s-8.5,50.4-8.5,50.4l-47,0.6
		c0,0-9-47.4-8.7-49.2C559.3,110.2,577,99.4,578.3,99.4z"/>
</g>
<g>
	<defs>
		<rect id="SVGID_223_" x="5" y="8" width="1221" height="370"/>
	</defs>
	<clipPath id="SVGID_224_">
		<use xlink:href="#SVGID_223_"  style="overflow:visible;"/>
	</clipPath>
	<path class="st122" d="M622.9,109.8c0.5,0.5,8.6,8.6,13.7,15.9c3,4.3,8.5,11.5,8.4,16.4s-5.3,6.8-7.8,6.9c-2.6,0.1-27.1,0-27.1,0
		l11.8-40.1C621.8,109,622.4,109.3,622.9,109.8z"/>
</g>
<g>
	<defs>
		<rect id="SVGID_225_" x="5" y="8" width="1221" height="370"/>
	</defs>
	<clipPath id="SVGID_226_">
		<use xlink:href="#SVGID_225_"  style="overflow:visible;"/>
	</clipPath>
	<path class="st123" d="M559.5,111.3c-1.1,1.2-7.3,7.2-12.3,14.5c-3,4.3-8.5,11.5-8.4,16.4s5.3,6.8,7.8,6.9c2.6,0.1,27.1,0,27.1,0
		l-11.9-39.7C561.7,109.4,560.6,110.1,559.5,111.3z"/>
</g>
<g>
	<defs>
		<rect id="SVGID_227_" x="5" y="8" width="1221" height="370"/>
	</defs>
	<clipPath id="SVGID_228_">
		<use xlink:href="#SVGID_227_"  style="overflow:visible;"/>
	</clipPath>
	<path class="st124" d="M335.9,163.7c-1.1,1.1-7,7.2-12,14.5c-3,4.3-8.5,11.5-8.4,16.4s5.3,6.8,7.8,6.9c2.6,0.1,27.1,0,27.1,0
		l-11.8-39.9C338.5,161.7,337,162.6,335.9,163.7z"/>
</g>
<g>
	<defs>
		<rect id="SVGID_229_" x="5" y="8" width="1221" height="370"/>
	</defs>
	<clipPath id="SVGID_230_">
		<use xlink:href="#SVGID_229_"  style="overflow:visible;"/>
	</clipPath>
	<path class="st125" d="M399.9,162c1,0.8,7.3,7.2,12.3,14.5c3,4.3,8.5,11.5,8.4,16.4s-5.3,6.8-7.8,6.9c-2.6,0.1-27.1,0-27.1,0
		l11.6-39.5C397.3,160.4,398.9,161.2,399.9,162z"/>
</g>
<g>
	<defs>
		<rect id="SVGID_231_" x="5" y="8" width="1221" height="370"/>
	</defs>
	<clipPath id="SVGID_232_">
		<use xlink:href="#SVGID_231_"  style="overflow:visible;"/>
	</clipPath>
	<path class="st126" d="M726.6,329.8H457.3v-180c0-0.6,0.5-1.1,1.1-1.1h267.2c0.6,0,1.1,0.5,1.1,1.1L726.6,329.8L726.6,329.8z"/>
</g>
<g>
	<defs>
		<rect id="SVGID_233_" x="5" y="8" width="1221" height="370"/>
	</defs>
	<clipPath id="SVGID_234_">
		<use xlink:href="#SVGID_233_"  style="overflow:visible;"/>
	</clipPath>
	<path class="st127" d="M460.6,329.8H257.9V200.4c0-0.6,0.5-1.1,1.1-1.1h201.5v130.5H460.6z"/>
</g>
<g>
	<defs>
		<rect id="SVGID_235_" x="5" y="8" width="1221" height="370"/>
	</defs>
	<clipPath id="SVGID_236_">
		<use xlink:href="#SVGID_235_"  style="overflow:visible;"/>
	</clipPath>
	<path class="st128" d="M176.2,342.8H5V228.7h170.2c0.6,0,1.1,0.5,1.1,1.1v113H176.2z"/>
</g>
<g>
	<defs>
		<rect id="SVGID_237_" x="5" y="8" width="1221" height="370"/>
	</defs>
	<clipPath id="SVGID_238_">
		<use xlink:href="#SVGID_237_"  style="overflow:visible;"/>
	</clipPath>
	<path class="st129" d="M995.6,342.8h230.5V228.7H996.7c-0.6,0-1.1,0.5-1.1,1.1L995.6,342.8L995.6,342.8z"/>
</g>
<g>
	<defs>
		<rect id="SVGID_239_" x="5" y="8" width="1221" height="370"/>
	</defs>
	<clipPath id="SVGID_240_">
		<use xlink:href="#SVGID_239_"  style="overflow:visible;"/>
	</clipPath>
	<path class="st130" d="M723.3,329.8h202.6V200.4c0-0.6-0.5-1.1-1.1-1.1H723.3V329.8z"/>
</g>
<g>
	<defs>
		<rect id="SVGID_241_" x="5" y="8" width="1221" height="370"/>
	</defs>
	<clipPath id="SVGID_242_">
		<use xlink:href="#SVGID_241_"  style="overflow:visible;"/>
	</clipPath>
	<g class="st131">
		<path class="st72" d="M265.4,206.2h28.4v118.5h-29.5V207.3C264.3,206.7,264.8,206.2,265.4,206.2z"/>
		<rect x="267.4" y="235.5" class="st9" width="23.3" height="89.2"/>
	</g>
</g>
<g>
	<defs>
		<rect id="SVGID_243_" x="5" y="8" width="1221" height="370"/>
	</defs>
	<clipPath id="SVGID_244_">
		<use xlink:href="#SVGID_243_"  style="overflow:visible;"/>
	</clipPath>
	<g class="st132">
		<path class="st72" d="M918.6,206.2h-28.4v118.5h29.5V207.3C919.7,206.7,919.2,206.2,918.6,206.2z"/>
		<rect x="893.3" y="235.5" class="st9" width="23.3" height="89.2"/>
	</g>
</g>
<g>
	<defs>
		<rect id="SVGID_245_" x="5" y="8" width="1221" height="370"/>
	</defs>
	<clipPath id="SVGID_246_">
		<use xlink:href="#SVGID_245_"  style="overflow:visible;"/>
	</clipPath>
	<g class="st133">
		<path class="st72" d="M718.9,155.4h-28.4v169.4H720V156.4C719.9,155.8,719.5,155.4,718.9,155.4z"/>
		<rect x="693.6" y="184.7" class="st9" width="23.3" height="140"/>
	</g>
</g>
<g>
	<defs>
		<rect id="SVGID_247_" x="5" y="8" width="1221" height="370"/>
	</defs>
	<clipPath id="SVGID_248_">
		<use xlink:href="#SVGID_247_"  style="overflow:visible;"/>
	</clipPath>
	<g class="st134">
		<path class="st72" d="M465,155.4h28.4v169.4h-29.5V156.4C463.9,155.8,464.4,155.4,465,155.4z"/>
		<rect x="467" y="184.7" class="st9" width="23.3" height="140"/>
	</g>
</g>
<g>
	<defs>
		<rect id="SVGID_249_" x="5" y="8" width="1221" height="370"/>
	</defs>
	<clipPath id="SVGID_250_">
		<use xlink:href="#SVGID_249_"  style="overflow:visible;"/>
	</clipPath>
	<g class="st135">
		<rect x="293.9" y="206.2" class="st72" width="170.1" height="29.3"/>
		<rect x="293.9" y="209.2" class="st9" width="170.1" height="23.3"/>
	</g>
</g>
<g>
	<defs>
		<rect id="SVGID_251_" x="5" y="8" width="1221" height="370"/>
	</defs>
	<clipPath id="SVGID_252_">
		<use xlink:href="#SVGID_251_"  style="overflow:visible;"/>
	</clipPath>
	<g class="st136">
		<rect x="720" y="206.2" class="st72" width="170.4" height="29.3"/>
		<rect x="720" y="209.2" class="st9" width="170.4" height="23.3"/>
	</g>
</g>
<g>
	<defs>
		<rect id="SVGID_253_" x="5" y="8" width="1221" height="370"/>
	</defs>
	<clipPath id="SVGID_254_">
		<use xlink:href="#SVGID_253_"  style="overflow:visible;"/>
	</clipPath>
	<g class="st137">
		<rect x="493.5" y="155.3" class="st72" width="197" height="29.3"/>
		<rect x="493.5" y="158.3" class="st9" width="197" height="23.3"/>
	</g>
</g>
<g>
	<defs>
		<rect id="SVGID_255_" x="5" y="8" width="1221" height="370"/>
	</defs>
	<clipPath id="SVGID_256_">
		<use xlink:href="#SVGID_255_"  style="overflow:visible;"/>
	</clipPath>
	<g class="st138">
		<path class="st72" d="M169,234.7h-28.4v108.1h29.5v-107C170.1,235.1,169.6,234.7,169,234.7z"/>
		<rect x="143.7" y="264" class="st9" width="23.3" height="78.8"/>
	</g>
</g>
<g>
	<defs>
		<rect id="SVGID_257_" x="5" y="8" width="1221" height="370"/>
	</defs>
	<clipPath id="SVGID_258_">
		<use xlink:href="#SVGID_257_"  style="overflow:visible;"/>
	</clipPath>
	<g class="st139">
		<rect x="4" y="234.7" class="st72" width="136.8" height="29.3"/>
		<rect x="4" y="237.7" class="st9" width="136.8" height="23.3"/>
	</g>
</g>
<g>
	<defs>
		<rect id="SVGID_259_" x="5" y="8" width="1221" height="370"/>
	</defs>
	<clipPath id="SVGID_260_">
		<use xlink:href="#SVGID_259_"  style="overflow:visible;"/>
	</clipPath>
	<g class="st140">
		<g>
			<path class="st72" d="M1003.4,234.7h28.4v108.1h-29.5v-107C1002.4,235.1,1002.8,234.7,1003.4,234.7z"/>
			<rect x="1005.5" y="264" class="st9" width="23.3" height="78.8"/>
		</g>
		<g>
			<rect x="1031.6" y="234.7" class="st72" width="194.5" height="29.3"/>
			<rect x="1031.6" y="237.7" class="st9" width="194.5" height="23.3"/>
		</g>
		<g>
			<path class="st72" d="M1010.3,338.2L1010.3,338.2c-0.7,0-1.2-0.5-1.2-1.2v-64.3c0-0.7,0.5-1.2,1.2-1.2l0,0c0.7,0,1.2,0.5,1.2,1.2
				V337C1011.5,337.7,1010.9,338.2,1010.3,338.2z"/>
			<path class="st72" d="M1014.8,338.2L1014.8,338.2c-0.7,0-1.2-0.5-1.2-1.2v-64.3c0-0.7,0.5-1.2,1.2-1.2l0,0c0.7,0,1.2,0.5,1.2,1.2
				V337C1016,337.7,1015.5,338.2,1014.8,338.2z"/>
			<path class="st72" d="M1019.4,338.2L1019.4,338.2c-0.7,0-1.2-0.5-1.2-1.2v-64.3c0-0.7,0.5-1.2,1.2-1.2l0,0c0.7,0,1.2,0.5,1.2,1.2
				V337C1020.6,337.7,1020,338.2,1019.4,338.2z"/>
			<path class="st72" d="M1023.9,338.2L1023.9,338.2c-0.7,0-1.2-0.5-1.2-1.2v-64.3c0-0.7,0.5-1.2,1.2-1.2l0,0c0.7,0,1.2,0.5,1.2,1.2
				V337C1025.1,337.7,1024.6,338.2,1023.9,338.2z"/>
		</g>
	</g>
</g>
<g>
	<defs>
		<rect id="SVGID_261_" x="5" y="8" width="1221" height="370"/>
	</defs>
	<clipPath id="SVGID_262_">
		<use xlink:href="#SVGID_261_"  style="overflow:visible;"/>
	</clipPath>
	<path class="st141" d="M578.9,74.1c0,0,2.6,9.8,2.9,10.2c0.3,0.4,3.2,0.1,4.9,0s7.8,0.1,8.9,0.2c1.1,0.2,2.7-2.1,3.2-4.4
		c0.5-2.4,1.1-6,1.1-6l0.9,1.8l-0.8,6.9c0,0-0.6,4.6-0.9,5.3c-0.4,0.9-0.9,2.2-1.7,2.9c-1.1,1-4.5,3.2-5.6,3.7
		c-1.3,0.7-2.1,0.6-3.3,0.2c-0.9-0.3-3.9-1.9-4.6-2.4c-0.6-0.5-2-1.4-2.5-2.1s-0.9-1.2-1.2-1.8s-1.1-5.6-1.1-5.6l-1.3-7.2l0.6-1.8
		h0.5V74.1z"/>
</g>
<g>
	<defs>
		<rect id="SVGID_263_" x="5" y="8" width="1221" height="370"/>
	</defs>
	<clipPath id="SVGID_264_">
		<use xlink:href="#SVGID_263_"  style="overflow:visible;"/>
	</clipPath>
	<path class="st142" d="M592.5,86.5c-1.4,0-2.9,0.3-4.4,0c-0.7-0.2-1,0.9-0.3,1.1c1.5,0.3,3.1,0.1,4.7,0.1
		C593.2,87.6,593.2,86.5,592.5,86.5z"/>
</g>
<g>
	<defs>
		<rect id="SVGID_265_" x="5" y="8" width="1221" height="370"/>
	</defs>
	<clipPath id="SVGID_266_">
		<use xlink:href="#SVGID_265_"  style="overflow:visible;"/>
	</clipPath>
	<path class="st143" d="M600.2,75.8c-0.1-0.9-7.3-0.6-8.7-0.3c-0.8,0.2-2.5,0.6-3.9,0s-6-0.3-6-0.3s-2.3,0-2.4,0.8
		c-0.1,0.8,0.2,4.4,4.5,4.4c4.4,0,4.1-2.5,4.4-2.9c0.3-0.4,1.1-0.5,2.5-0.4s-0.3,3.3,5.1,3.3C601,80.5,600.4,77.2,600.2,75.8z
		 M583.6,79.6c-2.9-0.1-3.2-2.1-3.3-2.9c0-0.2,0.1-0.4,0.3-0.4c1.3,0,6.2-0.1,6.4,0C587.3,76.5,587.4,79.6,583.6,79.6z M595.6,79.6
		c-2.9,0-3.2-2.1-3.3-2.9c0-0.2,0.1-0.4,0.3-0.4c1.3,0,6.2-0.1,6.4,0C599.2,76.5,599.6,79.6,595.6,79.6z"/>
</g>
<g>
	<defs>
		<rect id="SVGID_267_" x="5" y="8" width="1221" height="370"/>
	</defs>
	<clipPath id="SVGID_268_">
		<use xlink:href="#SVGID_267_"  style="overflow:visible;"/>
	</clipPath>
	<path class="st144" d="M354.9,128.1c0,0,2.1-1.9,2.9-4.1c0.7-2.2,1.2-4.5,1.2-4.5s4.3,3.4,7.4,4s4.9,0,7.2,0.9
		c2.3,0.9,4.3,3.8,4.3,3.8s1.2-4.4,1-6.9c-0.2-2.6-2-6.7-5-8.5s-6.9-2.6-10.5-1.9c-2.9,0.6-6.2,1.3-8.2,5.4
		C352.6,121.8,354.9,128.1,354.9,128.1z"/>
</g>
<g>
	<defs>
		<rect id="SVGID_269_" x="5" y="8" width="1221" height="370"/>
	</defs>
	<clipPath id="SVGID_270_">
		<use xlink:href="#SVGID_269_"  style="overflow:visible;"/>
	</clipPath>
	<path class="st145" d="M360.3,108.4c0.1-2.8,2.8-5,6.2-5s6.1,2.2,6.2,5c0.3,7.3-2.8,5-6.2,5S360,114.6,360.3,108.4z"/>
</g>
<g>
	<defs>
		<rect id="SVGID_271_" x="5" y="8" width="1221" height="370"/>
	</defs>
	<clipPath id="SVGID_272_">
		<use xlink:href="#SVGID_271_"  style="overflow:visible;"/>
	</clipPath>
	<path class="st146" d="M597.6,99.9c-0.8,0.7-1.6,1.4-2.5,2.1c-0.4,0.3-0.8,0.6-1.2,0.9c-0.2,0.2-0.4,0.5-0.7,0.6
		c-0.4,0-0.8,0.6-0.4,0.9l0,0c0.1,0.1,0.4,0.2,0.5,0.1c0.8-0.3,1.5-1.1,2.2-1.6c0.9-0.7,1.9-1.4,2.7-2.2
		C598.9,100.2,598.1,99.4,597.6,99.9z"/>
</g>
<g>
	<defs>
		<rect id="SVGID_273_" x="5" y="8" width="1221" height="370"/>
	</defs>
	<clipPath id="SVGID_274_">
		<use xlink:href="#SVGID_273_"  style="overflow:visible;"/>
	</clipPath>
	<path class="st147" d="M586.7,103.9c-0.4-0.8-1.3-1.2-2.1-1.7c-1.2-0.7-2.1-1.8-3.1-2.7c-0.5-0.5-1.3,0.3-0.8,0.8
		c0.9,0.8,1.8,1.7,2.8,2.5c0.7,0.5,1.8,0.9,2.2,1.7C586,105.1,587,104.6,586.7,103.9z"/>
</g>
<g>
	<defs>
		<rect id="SVGID_275_" x="5" y="8" width="1221" height="370"/>
	</defs>
	<clipPath id="SVGID_276_">
		<use xlink:href="#SVGID_275_"  style="overflow:visible;"/>
	</clipPath>
	<path class="st148" d="M374.9,152.3c-1.3,0.9-2.5,2.1-3.7,3.2c-0.9,0.8-1.6,0.9-2.3-0.2c-0.5-0.8-1.1-1.6-1.5-2.4
		c-0.2-0.3-0.4-0.3-0.7-0.2c-0.2-0.1-0.4-0.1-0.6,0.1c-0.5,0.6-0.9,1.4-1.3,2.1c-0.3,0.6-0.5,1.4-1.3,1c-0.9-0.4-1.8-1.5-2.5-2.1
		c-0.9-0.8-1.8-1.7-2.6-2.6c-0.5-0.5-1.2,0.3-0.8,0.8c1.1,1.2,2.3,2.4,3.6,3.5c0.6,0.6,1.7,1.9,2.6,2c1.3,0.2,2.2-2.4,2.9-3.5
		c0.5,0.9,1.1,1.9,1.7,2.7c0.4,0.6,0.9,1,1.6,0.9c0.8-0.1,1.5-0.8,2.1-1.3c1.1-1,2.1-2.1,3.3-2.9C376,152.9,375.5,151.9,374.9,152.3
		z"/>
</g>
<g>
	<defs>
		<rect id="SVGID_277_" x="5" y="8" width="1221" height="370"/>
	</defs>
	<clipPath id="SVGID_278_">
		<use xlink:href="#SVGID_277_"  style="overflow:visible;"/>
	</clipPath>
	<path class="st149" d="M367.1,158.8c0-0.1-0.1-0.2-0.1-0.2l0,0c-0.1-0.4-0.5-0.5-0.7-0.3c-0.4,0.1-0.4,0.5-0.3,0.8l0,0l0,0
		c0,0.1,0.1,0.2,0.1,0.2c0.2,0.2,0.3,0.2,0.5,0.1l0,0c0,0,0,0,0.1,0C367,159.4,367.2,159.1,367.1,158.8z"/>
</g>
<g>
	<defs>
		<rect id="SVGID_279_" x="5" y="8" width="1221" height="370"/>
	</defs>
	<clipPath id="SVGID_280_">
		<use xlink:href="#SVGID_279_"  style="overflow:visible;"/>
	</clipPath>
	<path class="st150" d="M367.2,163.7c0.2-0.5-0.4-0.9-0.8-0.6c-0.1,0.1-0.2,0.2-0.3,0.3c-0.1,0.1-0.1,0.3,0,0.5
		c0,0.1,0.1,0.3,0.2,0.4c0.3,0.3,1,0.1,0.9-0.4l0,0C367.2,163.8,367.2,163.7,367.2,163.7z"/>
</g>
<g>
	<defs>
		<rect id="SVGID_281_" x="5" y="8" width="1221" height="370"/>
	</defs>
	<clipPath id="SVGID_282_">
		<use xlink:href="#SVGID_281_"  style="overflow:visible;"/>
	</clipPath>
	<path class="st151" d="M232.1,308.3h719.7c0.8,0,1.5,0.7,1.5,1.5v32.9H230.6v-32.9C230.6,309,231.3,308.3,232.1,308.3z"/>
</g>
<g>
	<defs>
		<rect id="SVGID_283_" x="5" y="8" width="1221" height="370"/>
	</defs>
	<clipPath id="SVGID_284_">
		<use xlink:href="#SVGID_283_"  style="overflow:visible;"/>
	</clipPath>
	<path class="st152" d="M205.9,324.7H978c0.8,0,1.5,0.7,1.5,1.5v16.5H204.4v-16.5C204.4,325.4,205,324.7,205.9,324.7z"/>
</g>
<g>
	<defs>
		<rect id="SVGID_285_" x="5" y="8" width="1221" height="370"/>
	</defs>
	<clipPath id="SVGID_286_">
		<use xlink:href="#SVGID_285_"  style="overflow:visible;"/>
	</clipPath>
	<g class="st153">
		<path class="st72" d="M471.8,304.8L471.8,304.8c-0.7,0-1.2-0.5-1.2-1.2V191.4c0-0.7,0.5-1.2,1.2-1.2l0,0c0.7,0,1.2,0.5,1.2,1.2
			v112.2C473,304.2,472.5,304.8,471.8,304.8z"/>
		<path class="st72" d="M476.4,304.8L476.4,304.8c-0.7,0-1.2-0.5-1.2-1.2V191.4c0-0.7,0.5-1.2,1.2-1.2l0,0c0.7,0,1.2,0.5,1.2,1.2
			v112.2C477.6,304.2,477.1,304.8,476.4,304.8z"/>
		<path class="st72" d="M481,304.8L481,304.8c-0.7,0-1.2-0.5-1.2-1.2V191.4c0-0.7,0.5-1.2,1.2-1.2l0,0c0.7,0,1.2,0.5,1.2,1.2v112.2
			C482.1,304.2,481.6,304.8,481,304.8z"/>
		<path class="st72" d="M485.5,304.8L485.5,304.8c-0.7,0-1.2-0.5-1.2-1.2V191.4c0-0.7,0.5-1.2,1.2-1.2l0,0c0.7,0,1.2,0.5,1.2,1.2
			v112.2C486.7,304.2,486.2,304.8,485.5,304.8z"/>
	</g>
</g>
<g>
	<defs>
		<rect id="SVGID_287_" x="5" y="8" width="1221" height="370"/>
	</defs>
	<clipPath id="SVGID_288_">
		<use xlink:href="#SVGID_287_"  style="overflow:visible;"/>
	</clipPath>
	<g class="st154">
		<path class="st72" d="M698.3,304.8L698.3,304.8c-0.7,0-1.2-0.5-1.2-1.2V191.4c0-0.7,0.5-1.2,1.2-1.2l0,0c0.7,0,1.2,0.5,1.2,1.2
			v112.2C699.5,304.2,699,304.8,698.3,304.8z"/>
		<path class="st72" d="M702.9,304.8L702.9,304.8c-0.7,0-1.2-0.5-1.2-1.2V191.4c0-0.7,0.5-1.2,1.2-1.2l0,0c0.7,0,1.2,0.5,1.2,1.2
			v112.2C704.1,304.2,703.6,304.8,702.9,304.8z"/>
		<path class="st72" d="M707.5,304.8L707.5,304.8c-0.7,0-1.2-0.5-1.2-1.2V191.4c0-0.7,0.5-1.2,1.2-1.2l0,0c0.7,0,1.2,0.5,1.2,1.2
			v112.2C708.6,304.2,708.1,304.8,707.5,304.8z"/>
		<path class="st72" d="M712,304.8L712,304.8c-0.7,0-1.2-0.5-1.2-1.2V191.4c0-0.7,0.5-1.2,1.2-1.2l0,0c0.7,0,1.2,0.5,1.2,1.2v112.2
			C713.2,304.2,712.7,304.8,712,304.8z"/>
	</g>
</g>
<g>
	<defs>
		<rect id="SVGID_289_" x="5" y="8" width="1221" height="370"/>
	</defs>
	<clipPath id="SVGID_290_">
		<use xlink:href="#SVGID_289_"  style="overflow:visible;"/>
	</clipPath>
	<g class="st155">
		<path class="st72" d="M898.1,303.7L898.1,303.7c-0.7,0-1.2-0.5-1.2-1.2v-60.6c0-0.7,0.5-1.2,1.2-1.2l0,0c0.7,0,1.2,0.5,1.2,1.2
			v60.6C899.2,303.2,898.7,303.7,898.1,303.7z"/>
		<path class="st72" d="M902.6,303.7L902.6,303.7c-0.7,0-1.2-0.5-1.2-1.2v-60.6c0-0.7,0.5-1.2,1.2-1.2l0,0c0.7,0,1.2,0.5,1.2,1.2
			v60.6C903.8,303.2,903.3,303.7,902.6,303.7z"/>
		<path class="st72" d="M907.2,303.7L907.2,303.7c-0.7,0-1.2-0.5-1.2-1.2v-60.6c0-0.7,0.5-1.2,1.2-1.2l0,0c0.7,0,1.2,0.5,1.2,1.2
			v60.6C908.4,303.2,907.8,303.7,907.2,303.7z"/>
		<path class="st72" d="M911.7,303.7L911.7,303.7c-0.7,0-1.2-0.5-1.2-1.2v-60.6c0-0.7,0.5-1.2,1.2-1.2l0,0c0.7,0,1.2,0.5,1.2,1.2
			v60.6C912.9,303.2,912.4,303.7,911.7,303.7z"/>
	</g>
</g>
<g>
	<defs>
		<rect id="SVGID_291_" x="5" y="8" width="1221" height="370"/>
	</defs>
	<clipPath id="SVGID_292_">
		<use xlink:href="#SVGID_291_"  style="overflow:visible;"/>
	</clipPath>
	<g class="st156">
		<path class="st72" d="M272.3,303.7L272.3,303.7c-0.7,0-1.2-0.5-1.2-1.2v-60.6c0-0.7,0.5-1.2,1.2-1.2l0,0c0.7,0,1.2,0.5,1.2,1.2
			v60.6C273.5,303.2,272.9,303.7,272.3,303.7z"/>
		<path class="st72" d="M276.8,303.7L276.8,303.7c-0.7,0-1.2-0.5-1.2-1.2v-60.6c0-0.7,0.5-1.2,1.2-1.2l0,0c0.7,0,1.2,0.5,1.2,1.2
			v60.6C278,303.2,277.5,303.7,276.8,303.7z"/>
		<path class="st72" d="M281.4,303.7L281.4,303.7c-0.7,0-1.2-0.5-1.2-1.2v-60.6c0-0.7,0.5-1.2,1.2-1.2l0,0c0.7,0,1.2,0.5,1.2,1.2
			v60.6C282.6,303.2,282,303.7,281.4,303.7z"/>
		<path class="st72" d="M285.9,303.7L285.9,303.7c-0.7,0-1.2-0.5-1.2-1.2v-60.6c0-0.7,0.5-1.2,1.2-1.2l0,0c0.7,0,1.2,0.5,1.2,1.2
			v60.6C287.1,303.2,286.6,303.7,285.9,303.7z"/>
	</g>
</g>
<g>
	<defs>
		<rect id="SVGID_293_" x="5" y="8" width="1221" height="370"/>
	</defs>
	<clipPath id="SVGID_294_">
		<use xlink:href="#SVGID_293_"  style="overflow:visible;"/>
	</clipPath>
	<g class="st157">
		<path class="st72" d="M148.5,338.2L148.5,338.2c-0.7,0-1.2-0.5-1.2-1.2v-64.3c0-0.7,0.5-1.2,1.2-1.2l0,0c0.7,0,1.2,0.5,1.2,1.2
			V337C149.6,337.7,149.1,338.2,148.5,338.2z"/>
		<path class="st72" d="M153,338.2L153,338.2c-0.7,0-1.2-0.5-1.2-1.2v-64.3c0-0.7,0.5-1.2,1.2-1.2l0,0c0.7,0,1.2,0.5,1.2,1.2V337
			C154.2,337.7,153.7,338.2,153,338.2z"/>
		<path class="st72" d="M157.6,338.2L157.6,338.2c-0.7,0-1.2-0.5-1.2-1.2v-64.3c0-0.7,0.5-1.2,1.2-1.2l0,0c0.7,0,1.2,0.5,1.2,1.2
			V337C158.8,337.7,158.2,338.2,157.6,338.2z"/>
		<path class="st72" d="M162.1,338.2L162.1,338.2c-0.7,0-1.2-0.5-1.2-1.2v-64.3c0-0.7,0.5-1.2,1.2-1.2l0,0c0.7,0,1.2,0.5,1.2,1.2
			V337C163.3,337.7,162.8,338.2,162.1,338.2z"/>
	</g>
</g>
<g>
	<defs>
		
			<rect id="SVGID_295_" x="-8.1" y="4.3" transform="matrix(0.9723 -0.2337 0.2337 0.9723 -27.5673 146.0228)" width="1221" height="370"/>
	</defs>
	<clipPath id="SVGID_296_">
		<use xlink:href="#SVGID_295_"  style="overflow:visible;"/>
	</clipPath>
	<ellipse class="st158" cx="593.6" cy="246.5" rx="42.7" ry="42.7"/>
</g>
<g>
	<defs>
		<rect id="SVGID_297_" x="5" y="8" width="1221" height="370"/>
	</defs>
	<clipPath id="SVGID_298_">
		<use xlink:href="#SVGID_297_"  style="overflow:visible;"/>
	</clipPath>
	<g class="st159">
		<path class="st160" d="M593.6,285.5c-21.5,0-38.9-17.5-38.9-38.9c0-21.5,17.5-38.9,38.9-38.9c21.5,0,38.9,17.5,38.9,38.9
			C632.6,268,615.1,285.5,593.6,285.5z M593.6,210.8c-19.7,0-35.7,16-35.7,35.7s16,35.7,35.7,35.7s35.7-16,35.7-35.7
			S613.3,210.8,593.6,210.8z"/>
	</g>
</g>
<g>
	<defs>
		<rect id="SVGID_299_" x="5" y="8" width="1221" height="370"/>
	</defs>
	<clipPath id="SVGID_300_">
		<use xlink:href="#SVGID_299_"  style="overflow:visible;"/>
	</clipPath>
	<g class="st161">
		<path class="st162" d="M593.6,282.8c-20,0-36.3-16.3-36.3-36.3s16.3-36.3,36.3-36.3s36.3,16.3,36.3,36.3
			C629.9,266.5,613.6,282.8,593.6,282.8z M593.6,211.3c-19.4,0-35.2,15.8-35.2,35.2s15.8,35.2,35.2,35.2s35.2-15.8,35.2-35.2
			S613,211.3,593.6,211.3z"/>
	</g>
</g>
<g>
	<defs>
		<rect id="SVGID_301_" x="5" y="8" width="1221" height="370"/>
	</defs>
	<clipPath id="SVGID_302_">
		<use xlink:href="#SVGID_301_"  style="overflow:visible;"/>
	</clipPath>
	<g class="st163">
		<path class="st88" d="M607.6,273h-28c-0.6,0-1-0.6-0.8-1.1l2.1-3c0.4-1.1,1.4-1.9,2.6-1.9h20.2c1.2,0,2.2,0.7,2.6,1.9l2.1,3
			C608.7,272.4,608.2,273,607.6,273z"/>
		<rect x="592.3" y="224.3" class="st88" width="2.7" height="44.6"/>
		<path class="st88" d="M594.7,226.3h-2.1c-0.6,0-1-0.5-1-1v-2.1c0-0.6,0.5-1,1-1h2.1c0.6,0,1,0.5,1,1v2.1
			C595.7,225.9,595.2,226.3,594.7,226.3z"/>
		<path class="st88" d="M613.1,225.3h-38.9c-0.6,0-1-0.5-1-1l0,0c0-0.6,0.5-1,1-1h38.9c0.6,0,1,0.5,1,1l0,0
			C614.1,224.8,613.7,225.3,613.1,225.3z"/>
		<g>
			<path class="st88" d="M566.4,241.4c-0.3,0-0.5,0.2-0.5,0.5c0.3,4.1,3.7,6.3,7.9,6.3s7.6-2.2,7.9-6.3c0-0.3-0.2-0.5-0.5-0.5H566.4
				z"/>
			<g>
				
					<rect x="560.4" y="232.7" transform="matrix(0.3788 -0.9255 0.9255 0.3788 138.3118 672.5538)" class="st88" width="19.5" height="1.1"/>
			</g>
			<g>
				
					<rect x="577" y="223.5" transform="matrix(0.9254 -0.3791 0.3791 0.9254 -45.3115 236.3558)" class="st88" width="1.1" height="19.5"/>
			</g>
			<g>
				
					<rect x="574.7" y="224.1" transform="matrix(0.9885 -0.1512 0.1512 0.9885 -28.689 89.6616)" class="st88" width="1.1" height="18.8"/>
			</g>
		</g>
		<g>
			<path class="st88" d="M606,241.4c-0.3,0-0.5,0.2-0.5,0.5c0.3,4.1,3.7,6.3,7.9,6.3s7.6-2.2,7.9-6.3c0-0.3-0.2-0.5-0.5-0.5H606z"/>
			<g>
				
					<rect x="600" y="232.7" transform="matrix(0.3788 -0.9255 0.9255 0.3788 162.9127 709.2037)" class="st88" width="19.5" height="1.1"/>
			</g>
			<g>
				
					<rect x="616.6" y="223.5" transform="matrix(0.9254 -0.3791 0.3791 0.9254 -42.3571 251.3685)" class="st88" width="1.1" height="19.5"/>
			</g>
			<g>
				
					<rect x="614.3" y="224.1" transform="matrix(0.9885 -0.1512 0.1512 0.9885 -28.2363 95.6487)" class="st88" width="1.1" height="18.8"/>
			</g>
		</g>
	</g>
</g>
<g>
	<defs>
		<rect id="SVGID_303_" x="5" y="8" width="1221" height="370"/>
	</defs>
	<clipPath id="SVGID_304_">
		<use xlink:href="#SVGID_303_"  style="overflow:visible;"/>
	</clipPath>
	<g class="st164">
		<path class="st36" d="M356.5,194.7c0,0,3.9,0,7.3,1.7c1.5,0.7,2.5,3.1,2.5,3.1h-7.6L356.5,194.7z"/>
		<path class="st88" d="M335.4,183.3c0,0,15.2,6.1,18.8,8.8c3.1,2.3,4,4.3,4,4.3s0.8,1.1,0.8,1.4c0.1,0.3,0.3,1.6,0.3,1.6h-16.7
			L335.4,183.3z"/>
	</g>
</g>
<g>
	<defs>
		<rect id="SVGID_305_" x="5" y="8" width="1221" height="370"/>
	</defs>
	<clipPath id="SVGID_306_">
		<use xlink:href="#SVGID_305_"  style="overflow:visible;"/>
	</clipPath>
	<g class="st165">
		<path class="st36" d="M378.9,194.7c0,0-3.9,0-7.3,1.7c-1.5,0.7-2.5,3.1-2.5,3.1h7.6L378.9,194.7z"/>
		<path class="st88" d="M400.1,183.3c0,0-15.2,6.1-18.8,8.8c-3.1,2.3-4,4.3-4,4.3s-0.8,1.1-0.8,1.4c-0.1,0.3-0.3,1.6-0.3,1.6h16.7
			L400.1,183.3z"/>
	</g>
</g>
<g>
	<defs>
		<rect id="SVGID_307_" x="5" y="8" width="1221" height="370"/>
	</defs>
	<clipPath id="SVGID_308_">
		<use xlink:href="#SVGID_307_"  style="overflow:visible;"/>
	</clipPath>
	<g class="st166">
		<path class="st36" d="M807.8,194.7c0,0,3.9,0,7.3,1.7c1.5,0.7,2.5,3.1,2.5,3.1H810L807.8,194.7z"/>
		<path class="st88" d="M786.7,183.3c0,0,15.2,6.1,18.8,8.8c3.1,2.3,4,4.3,4,4.3s0.8,1.1,0.8,1.4c0.1,0.3,0.3,1.6,0.3,1.6h-16.7
			L786.7,183.3z"/>
	</g>
</g>
<g>
	<defs>
		<rect id="SVGID_309_" x="5" y="8" width="1221" height="370"/>
	</defs>
	<clipPath id="SVGID_310_">
		<use xlink:href="#SVGID_309_"  style="overflow:visible;"/>
	</clipPath>
	<g class="st167">
		<path class="st36" d="M830.3,194.7c0,0-3.9,0-7.3,1.7c-1.5,0.7-2.5,3.1-2.5,3.1h7.6L830.3,194.7z"/>
		<path class="st88" d="M851.4,183.3c0,0-15.2,6.1-18.8,8.8c-3.1,2.3-4,4.3-4,4.3s-0.8,1.1-0.8,1.4c-0.1,0.3-0.3,1.6-0.3,1.6h16.7
			L851.4,183.3z"/>
	</g>
</g>
<g>
	<defs>
		<rect id="SVGID_311_" x="5" y="8" width="1221" height="370"/>
	</defs>
	<clipPath id="SVGID_312_">
		<use xlink:href="#SVGID_311_"  style="overflow:visible;"/>
	</clipPath>
	<g class="st168">
		<path class="st36" d="M580.7,143.9c0,0,3.9,0,7.3,1.7c1.5,0.7,2.5,3.1,2.5,3.1H583L580.7,143.9z"/>
		<path class="st88" d="M559.6,132.5c0,0,15.2,6.1,18.8,8.8c3.1,2.3,4,4.3,4,4.3s0.8,1.1,0.8,1.4c0.1,0.3,0.3,1.6,0.3,1.6h-16.7
			L559.6,132.5z"/>
	</g>
</g>
<g>
	<defs>
		<rect id="SVGID_313_" x="5" y="8" width="1221" height="370"/>
	</defs>
	<clipPath id="SVGID_314_">
		<use xlink:href="#SVGID_313_"  style="overflow:visible;"/>
	</clipPath>
	<g class="st169">
		<path class="st36" d="M603.2,143.9c0,0-3.9,0-7.3,1.7c-1.5,0.7-2.5,3.1-2.5,3.1h7.6L603.2,143.9z"/>
		<path class="st88" d="M624.3,132.5c0,0-15.2,6.1-18.8,8.8c-3.1,2.3-4,4.3-4,4.3s-0.8,1.1-0.8,1.4c-0.1,0.3-0.3,1.6-0.3,1.6h16.7
			L624.3,132.5z"/>
	</g>
</g>
<g>
	<defs>
		<rect id="SVGID_315_" x="5" y="8" width="1221" height="370"/>
	</defs>
	<clipPath id="SVGID_316_">
		<use xlink:href="#SVGID_315_"  style="overflow:visible;"/>
	</clipPath>
	<path class="st170" d="M101.4,228.6H50.1l-2.9-27.7c-0.2-1.8,1.3-3.4,3.1-3.4h50.9c1.9,0,3.3,1.6,3.1,3.4L101.4,228.6z"/>
</g>
<g>
	<defs>
		<rect id="SVGID_317_" x="5" y="8" width="1221" height="370"/>
	</defs>
	<clipPath id="SVGID_318_">
		<use xlink:href="#SVGID_317_"  style="overflow:visible;"/>
	</clipPath>
	<path class="st171" d="M78.4,212.6c0-1.4-1.2-2.6-2.6-2.6s-2.6,1.2-2.6,2.6c0,1.4,1.2,2.6,2.6,2.6C77.3,215.1,78.4,214,78.4,212.6z
		"/>
</g>
<g>
	<defs>
		<rect id="SVGID_319_" x="5" y="8" width="1221" height="370"/>
	</defs>
	<clipPath id="SVGID_320_">
		<use xlink:href="#SVGID_319_"  style="overflow:visible;"/>
	</clipPath>
	<path class="st172" d="M512.4,148.7h-30.5c-0.9,0-1.6-0.7-1.6-1.6v-1.9c0-0.9,0.7-1.6,1.6-1.6h30.5c0.9,0,1.6,0.7,1.6,1.6v1.9
		C513.9,148,513.2,148.7,512.4,148.7z"/>
</g>
<g>
	<defs>
		<rect id="SVGID_321_" x="5" y="8" width="1221" height="370"/>
	</defs>
	<clipPath id="SVGID_322_">
		<use xlink:href="#SVGID_321_"  style="overflow:visible;"/>
	</clipPath>
	<g class="st173">
		<path class="st174" d="M530.7,148.5l-19.8-10l1.9-3.7l19.8,10c1,0.5,1.4,1.8,0.9,2.8l0,0C533,148.6,531.7,149,530.7,148.5z"/>
		<path class="st72" d="M510.7,142L510.7,142l-0.6,0.6c-0.1,0.1-0.1,0.2-0.2,0.4c-0.6,0.8-1.7,1-2.6,0.6l-4.7-2.4
			c-0.9-0.5-1.3-1.5-1.1-2.4c0-0.1,0.1-0.3,0.1-0.4l0.1-0.7v-0.1c0.5-3.6,2.1-7,4.8-9.5l0.1-0.1l0.5-0.5c0.1-0.1,0.1-0.2,0.2-0.3
			c0.6-0.8,1.7-1,2.6-0.6l4.7,2.4c0.9,0.5,1.3,1.5,1.1,2.4c0,0.1-0.1,0.3-0.1,0.4l-0.1,0.7v0.1C515,136.1,513.3,139.5,510.7,142z"/>
		<path class="st174" d="M515.5,132.4l-8.8-4.5l0.5-0.5c0.1-0.1,0.1-0.2,0.2-0.3l8.3,4.2c0,0.1-0.1,0.3-0.1,0.4L515.5,132.4z"/>
		<path class="st174" d="M510.6,142.1l-0.5,0.5c-0.1,0.1-0.1,0.2-0.2,0.4l-8.3-4.2c0-0.1,0.1-0.3,0.1-0.4l0.1-0.7L510.6,142.1z"/>
	</g>
</g>
<g>
	<defs>
		<rect id="SVGID_323_" x="5" y="8" width="1221" height="370"/>
	</defs>
	<clipPath id="SVGID_324_">
		<use xlink:href="#SVGID_323_"  style="overflow:visible;"/>
	</clipPath>
	<g class="st175">
		<path class="st174" d="M713,148.6h-34.5c-0.6,0-1.1-0.5-1.1-1.1v-6.2c0-0.6,0.5-1.1,1.1-1.1H713c0.5,0,0.9,0.4,0.9,0.9v6.6
			C713.9,148.2,713.5,148.6,713,148.6z"/>
		<path class="st176" d="M709.1,147.1h-31.8v-5.5h31.8c0.3,0,0.6,0.3,0.6,0.6v4.3C709.7,146.9,709.4,147.1,709.1,147.1z"/>
	</g>
</g>
<g>
	<defs>
		<rect id="SVGID_325_" x="5" y="8" width="1221" height="370"/>
	</defs>
	<clipPath id="SVGID_326_">
		<use xlink:href="#SVGID_325_"  style="overflow:visible;"/>
	</clipPath>
	<g class="st177">
		<path class="st178" d="M713,140h-34.5c-0.6,0-1.1-0.5-1.1-1.1v-2.4c0-0.6,0.5-1.1,1.1-1.1H713c0.5,0,0.9,0.4,0.9,0.9v2.9
			C713.9,139.6,713.5,140,713,140z"/>
		<path class="st176" d="M709.1,139h-31.8v-2.6h31.8c0.3,0,0.6,0.3,0.6,0.6v1.4C709.7,138.7,709.4,139,709.1,139z"/>
	</g>
</g>
<g>
	<defs>
		<rect id="SVGID_327_" x="5" y="8" width="1221" height="370"/>
	</defs>
	<clipPath id="SVGID_328_">
		<use xlink:href="#SVGID_327_"  style="overflow:visible;"/>
	</clipPath>
	<g class="st179">
		<path class="st178" d="M453.2,199.4h-31.4c-0.6,0-1.1-0.5-1.1-1.1v-4.7c0-0.6,0.5-1.1,1.1-1.1h31.4c0.5,0,0.9,0.4,0.9,0.9v5.1
			C454.1,198.9,453.7,199.4,453.2,199.4z"/>
		<path class="st176" d="M449.7,198.1h-29v-4.5h29c0.3,0,0.6,0.3,0.6,0.6v3.4C450.2,197.9,450,198.1,449.7,198.1z"/>
	</g>
</g>
<g>
	<defs>
		<rect id="SVGID_329_" x="5" y="8" width="1221" height="370"/>
	</defs>
	<clipPath id="SVGID_330_">
		<use xlink:href="#SVGID_329_"  style="overflow:visible;"/>
	</clipPath>
	<g class="st180">
		<path class="st181" d="M453.2,187.6h-31.4c-0.6,0-1.1-0.5-1.1-1.1v-4.7c0-0.6,0.5-1.1,1.1-1.1h31.4c0.5,0,0.9,0.4,0.9,0.9v5.1
			C454.1,187.2,453.7,187.6,453.2,187.6z"/>
		<path class="st176" d="M449.7,186.4h-29v-4.5h29c0.3,0,0.6,0.3,0.6,0.6v3.4C450.2,186.2,450,186.4,449.7,186.4z"/>
	</g>
</g>
<g>
	<defs>
		<rect id="SVGID_331_" x="5" y="8" width="1221" height="370"/>
	</defs>
	<clipPath id="SVGID_332_">
		<use xlink:href="#SVGID_331_"  style="overflow:visible;"/>
	</clipPath>
	<g class="st182">
		<path class="st183" d="M453.2,192.4h-31.4c-0.6,0-1.1-0.5-1.1-1.1v-2.4c0-0.6,0.5-1.1,1.1-1.1h31.4c0.5,0,0.9,0.4,0.9,0.9v2.9
			C454.1,192,453.7,192.4,453.2,192.4z"/>
		<path class="st176" d="M449.7,191.3h-29v-2.6h29c0.3,0,0.6,0.3,0.6,0.6v1.4C450.2,191,450,191.3,449.7,191.3z"/>
	</g>
</g>
<g>
	<defs>
		<rect id="SVGID_333_" x="5" y="8" width="1221" height="370"/>
	</defs>
	<clipPath id="SVGID_334_">
		<use xlink:href="#SVGID_333_"  style="overflow:visible;"/>
	</clipPath>
	<g class="st184">
		<path class="st181" d="M909.6,194.7h-31.4c-0.6,0-1.1-0.5-1.1-1.1v-4.7c0-0.6,0.5-1.1,1.1-1.1h31.4c0.5,0,0.9,0.4,0.9,0.9v5.1
			C910.5,194.3,910.1,194.7,909.6,194.7z"/>
		<path class="st176" d="M906.1,193.5h-29V189h29c0.3,0,0.6,0.3,0.6,0.6v3.4C906.6,193.3,906.4,193.5,906.1,193.5z"/>
	</g>
</g>
<g>
	<defs>
		<rect id="SVGID_335_" x="5" y="8" width="1221" height="370"/>
	</defs>
	<clipPath id="SVGID_336_">
		<use xlink:href="#SVGID_335_"  style="overflow:visible;"/>
	</clipPath>
	<g class="st185">
		<path class="st186" d="M909.6,199.5h-31.4c-0.6,0-1.1-0.5-1.1-1.1V196c0-0.6,0.5-1.1,1.1-1.1h31.4c0.5,0,0.9,0.4,0.9,0.9v2.9
			C910.5,199.1,910.1,199.5,909.6,199.5z"/>
		<path class="st176" d="M906.1,198.4h-29v-2.6h29c0.3,0,0.6,0.3,0.6,0.6v1.4C906.6,198.1,906.4,198.4,906.1,198.4z"/>
	</g>
</g>
<g>
	<defs>
		<rect id="SVGID_337_" x="5" y="8" width="1221" height="370"/>
	</defs>
	<clipPath id="SVGID_338_">
		<use xlink:href="#SVGID_337_"  style="overflow:visible;"/>
	</clipPath>
	<g class="st187">
		<circle class="st160" cx="924.5" cy="80.1" r="28.4"/>
		<circle class="st188" cx="924.5" cy="80.1" r="24.9"/>
		<g>
			<path class="st189" d="M924.5,61.1L924.5,61.1c-0.7,0-1.2-0.5-1.2-1.2v-1.1c0-0.7,0.5-1.2,1.2-1.2l0,0c0.7,0,1.2,0.5,1.2,1.2v1.1
				C925.7,60.6,925.2,61.1,924.5,61.1z"/>
			<path class="st189" d="M924.5,99.2L924.5,99.2c-0.7,0-1.2,0.5-1.2,1.2v1.1c0,0.7,0.5,1.2,1.2,1.2l0,0c0.7,0,1.2-0.5,1.2-1.2v-1.1
				C925.7,99.7,925.2,99.2,924.5,99.2z"/>
		</g>
		<g>
			<path class="st189" d="M905.5,80.1L905.5,80.1c0,0.7-0.5,1.2-1.2,1.2h-1.1c-0.7,0-1.2-0.5-1.2-1.2l0,0c0-0.7,0.5-1.2,1.2-1.2h1.1
				C905,78.9,905.5,79.5,905.5,80.1z"/>
			<path class="st189" d="M943.6,80.1L943.6,80.1c0,0.7,0.5,1.2,1.2,1.2h1.1c0.7,0,1.2-0.5,1.2-1.2l0,0c0-0.7-0.5-1.2-1.2-1.2h-1.1
				C944.1,78.9,943.6,79.5,943.6,80.1z"/>
		</g>
		<g>
			<path class="st189" d="M924.5,61.1L924.5,61.1c-0.7,0-1.2-0.5-1.2-1.2v-1.1c0-0.7,0.5-1.2,1.2-1.2l0,0c0.7,0,1.2,0.5,1.2,1.2v1.1
				C925.7,60.6,925.2,61.1,924.5,61.1z"/>
			<path class="st189" d="M924.5,99.2L924.5,99.2c-0.7,0-1.2,0.5-1.2,1.2v1.1c0,0.7,0.5,1.2,1.2,1.2l0,0c0.7,0,1.2-0.5,1.2-1.2v-1.1
				C925.7,99.7,925.2,99.2,924.5,99.2z"/>
		</g>
		<g>
			<path class="st189" d="M924.5,61.1L924.5,61.1c-0.7,0-1.2-0.5-1.2-1.2v-1.1c0-0.7,0.5-1.2,1.2-1.2l0,0c0.7,0,1.2,0.5,1.2,1.2v1.1
				C925.7,60.6,925.2,61.1,924.5,61.1z"/>
			<path class="st189" d="M924.5,99.2L924.5,99.2c-0.7,0-1.2,0.5-1.2,1.2v1.1c0,0.7,0.5,1.2,1.2,1.2l0,0c0.7,0,1.2-0.5,1.2-1.2v-1.1
				C925.7,99.7,925.2,99.2,924.5,99.2z"/>
		</g>
		<g>
			<path class="st189" d="M934.8,63.4L934.8,63.4c-0.6-0.3-0.7-1.1-0.4-1.6l0,0c0.3-0.6,1.1-0.7,1.6-0.4l0,0
				c0.6,0.3,0.7,1.1,0.4,1.6l0,0C936.1,63.6,935.3,63.8,934.8,63.4z"/>
			<path class="st189" d="M913,98.8L913,98.8c0.6,0.3,1.3,0.2,1.6-0.4l0,0c0.3-0.6,0.2-1.3-0.4-1.6l0,0c-0.6-0.3-1.3-0.2-1.6,0.4
				l0,0C912.3,97.8,912.5,98.5,913,98.8z"/>
		</g>
		<g>
			<path class="st189" d="M941.6,70.5L941.6,70.5c-0.3-0.6-0.1-1.3,0.5-1.6l0,0c0.6-0.3,1.3-0.1,1.6,0.5l0,0
				c0.3,0.6,0.1,1.3-0.5,1.6l0,0C942.6,71.3,941.9,71.1,941.6,70.5z"/>
			<path class="st189" d="M905.4,90.9L905.4,90.9c0.3,0.6,1,0.8,1.6,0.5l0,0c0.6-0.3,0.8-1,0.5-1.6l0,0c-0.3-0.6-1-0.8-1.6-0.5l0,0
				C905.3,89.6,905.1,90.3,905.4,90.9z"/>
		</g>
		<g>
			<path class="st189" d="M941.6,89.8L941.6,89.8c0.3-0.6,1-0.8,1.6-0.4l0,0c0.6,0.3,0.8,1,0.4,1.6l0,0c-0.3,0.6-1,0.8-1.6,0.4l0,0
				C941.5,91.1,941.3,90.3,941.6,89.8z"/>
			<path class="st189" d="M905.4,69.3L905.4,69.3c-0.3,0.6-0.1,1.3,0.4,1.6l0,0c0.6,0.3,1.3,0.1,1.6-0.4l0,0
				c0.3-0.6,0.1-1.3-0.4-1.6l0,0C906.5,68.6,905.7,68.8,905.4,69.3z"/>
		</g>
		<g>
			<path class="st189" d="M934.7,96.8L934.7,96.8c0.6-0.3,1.3-0.2,1.6,0.4l0,0c0.3,0.6,0.2,1.3-0.4,1.6l0,0
				c-0.6,0.3-1.3,0.2-1.6-0.4l0,0C934,97.9,934.2,97.2,934.7,96.8z"/>
			<path class="st189" d="M913.1,61.4L913.1,61.4c-0.6,0.3-0.7,1.1-0.4,1.6l0,0c0.3,0.6,1.1,0.7,1.6,0.4l0,0
				c0.6-0.3,0.7-1.1,0.4-1.6l0,0C914.4,61.2,913.6,61.1,913.1,61.4z"/>
		</g>
		<path class="st189" d="M925.2,79.2l-1.3,1.7l-8.8-6.6c-0.5-0.3-0.6-1-0.2-1.5l0,0c0.3-0.5,1-0.6,1.5-0.2L925.2,79.2z"/>
		<path class="st189" d="M925.3,80.9l-1.8-1l8.7-15c0.3-0.5,0.9-0.7,1.4-0.4l0,0c0.5,0.3,0.7,0.9,0.4,1.4L925.3,80.9z"/>
		<path class="st189" d="M926.6,80.1c0-1.2-0.9-2.1-2.1-2.1c-1.2,0-2.1,0.9-2.1,2.1s0.9,2.1,2.1,2.1
			C925.7,82.2,926.6,81.3,926.6,80.1z"/>
	</g>
</g>
<g>
	<defs>
		<rect id="SVGID_339_" x="5" y="8" width="1221" height="370"/>
	</defs>
	<clipPath id="SVGID_340_">
		<use xlink:href="#SVGID_339_"  style="overflow:visible;"/>
	</clipPath>
	<path class="st190" d="M650.4,148.7h-42.5l1.7-5.5c0.3-1,1.2-1.6,2.2-1.6h34.8c1,0,1.9,0.7,2.2,1.6L650.4,148.7z"/>
</g>
<g>
	<defs>
		<rect id="SVGID_341_" x="5" y="8" width="1221" height="370"/>
	</defs>
	<clipPath id="SVGID_342_">
		<use xlink:href="#SVGID_341_"  style="overflow:visible;"/>
	</clipPath>
	<path class="st191" d="M648.5,148.7h-38.7l1.5-4.4c0.3-0.8,1.1-1.3,2-1.3H645c0.9,0,1.7,0.5,2,1.3L648.5,148.7z"/>
</g>
<g>
	<defs>
		<rect id="SVGID_343_" x="5" y="8" width="1221" height="370"/>
	</defs>
	<clipPath id="SVGID_344_">
		<use xlink:href="#SVGID_343_"  style="overflow:visible;"/>
	</clipPath>
	<path class="st192" d="M1099,182.1c0,0,2.6,1.9,4.1,6.4s4.8,15.9,3.9,17.6s-1.7,1.1-4.7,1.5s-3.7,1.1-6,1.2c-2.3,0.1-6,0.2-5.7-1.7
		C1090.8,205.1,1099,182.1,1099,182.1z"/>
</g>
<g>
	<defs>
		<rect id="SVGID_345_" x="5" y="8" width="1221" height="370"/>
	</defs>
	<clipPath id="SVGID_346_">
		<use xlink:href="#SVGID_345_"  style="overflow:visible;"/>
	</clipPath>
	<path class="st193" d="M1050.5,182c0,0-1.9,1.6-2.7,4c-0.8,2.4-4.7,14-4.9,16.9c-0.3,2.8,2.4,2.9,6,3.5c3.6,0.5,2.2,2.6,7.3,1.8
		c5.1-0.7,7-3.6,6.5-7.1C1062,197.5,1050.5,182,1050.5,182z"/>
</g>
<g>
	<defs>
		<rect id="SVGID_347_" x="5" y="8" width="1221" height="370"/>
	</defs>
	<clipPath id="SVGID_348_">
		<use xlink:href="#SVGID_347_"  style="overflow:visible;"/>
	</clipPath>
	<path class="st194" d="M1064.2,151.5c0,0.1,0.3-7.5,3.3-6.1s5.4,0,7.5,1.5c2.1,1.4,5,1.9,7.3,1.3c2.3-0.6,2.4,9.3,2.4,9.3
		s0.2,4.3,0.7,5.4c0.5,1,2.7-5.2,2.4-11.7c-0.3-6.5,0-9.7-2.2-12.4s-7.1-6.2-12.9-5.6c-5.7,0.6-7.8,2.4-10.1,5.2s-3.6,15.4-2.9,19.2
		s1.3,6.4,2.4,5C1063.2,161.2,1064.2,151.5,1064.2,151.5z"/>
</g>
<g>
	<defs>
		<rect id="SVGID_349_" x="5" y="8" width="1221" height="370"/>
	</defs>
	<clipPath id="SVGID_350_">
		<use xlink:href="#SVGID_349_"  style="overflow:visible;"/>
	</clipPath>
	<path class="st195" d="M1076.6,161.3c-1,0.3-2.1,0.2-3.2,0c-0.7-0.1-1,0.9-0.3,1c1.2,0.3,2.5,0.4,3.8,0.1
		C1077.5,162.2,1077.3,161.1,1076.6,161.3z"/>
</g>
<g>
	<defs>
		<rect id="SVGID_351_" x="5" y="8" width="1221" height="370"/>
	</defs>
	<clipPath id="SVGID_352_">
		<use xlink:href="#SVGID_351_"  style="overflow:visible;"/>
	</clipPath>
	<path class="st196" d="M1075.6,154.2c-0.1-0.4-0.6-0.5-0.9-0.2c-0.1,0.1-0.2,0.3-0.2,0.5s0,0.3,0.1,0.4c0.4,1.1,1.3,3,0.4,3.8
		c-0.5,0.5,0.2,1.2,0.8,0.8C1077.3,158.1,1076,155.8,1075.6,154.2z"/>
</g>
<g>
	<defs>
		<rect id="SVGID_353_" x="5" y="8" width="1221" height="370"/>
	</defs>
	<clipPath id="SVGID_354_">
		<use xlink:href="#SVGID_353_"  style="overflow:visible;"/>
	</clipPath>
	<path class="st197" d="M1156.7,207.2c-0.4-1.6-3-6.5-3.9-5.4c-0.9,1.3-1.6,2.7-2.3,4c-0.8,1.6,0.2,3.6,1,5.1
		c0.7,1.2,1.4,2.6,2.5,1.1c1.2-1.5,2.7-2.9,2.7-4.6C1156.8,207.4,1156.8,207.3,1156.7,207.2z"/>
</g>
<g>
	<defs>
		<rect id="SVGID_355_" x="5" y="8" width="1221" height="370"/>
	</defs>
	<clipPath id="SVGID_356_">
		<use xlink:href="#SVGID_355_"  style="overflow:visible;"/>
	</clipPath>
	<path class="st198" d="M1165.9,207.2c-0.4-1.6-3-6.5-3.9-5.4c-0.9,1.3-1.6,2.7-2.3,4c-0.8,1.6,0.2,3.6,1,5.1
		c0.7,1.2,1.4,2.6,2.5,1.1c1.2-1.5,2.7-2.9,2.7-4.6C1165.9,207.4,1165.9,207.3,1165.9,207.2z"/>
</g>
<g>
	<defs>
		<rect id="SVGID_357_" x="5" y="8" width="1221" height="370"/>
	</defs>
	<clipPath id="SVGID_358_">
		<use xlink:href="#SVGID_357_"  style="overflow:visible;"/>
	</clipPath>
	<path class="st199" d="M1175,207.2c-0.4-1.6-3-6.5-3.9-5.4c-0.9,1.3-1.6,2.7-2.3,4c-0.8,1.6,0.2,3.6,1,5.1c0.7,1.2,1.4,2.6,2.5,1.1
		c1.2-1.5,2.7-2.9,2.7-4.6C1175,207.4,1175,207.3,1175,207.2z"/>
</g>
<g>
	<defs>
		<rect id="SVGID_359_" x="5" y="8" width="1221" height="370"/>
	</defs>
	<clipPath id="SVGID_360_">
		<use xlink:href="#SVGID_359_"  style="overflow:visible;"/>
	</clipPath>
	<path class="st200" d="M1184.1,207.2c-0.4-1.6-3-6.5-3.9-5.4c-0.9,1.3-1.6,2.7-2.3,4c-0.8,1.6,0.2,3.6,1,5.1
		c0.7,1.2,1.4,2.6,2.5,1.1c1.2-1.5,2.7-2.9,2.7-4.6C1184.1,207.4,1184.1,207.3,1184.1,207.2z"/>
</g>
<g>
	<defs>
		<rect id="SVGID_361_" x="5" y="8" width="1221" height="370"/>
	</defs>
	<clipPath id="SVGID_362_">
		<use xlink:href="#SVGID_361_"  style="overflow:visible;"/>
	</clipPath>
	<path class="st201" d="M1193.2,207.2c-0.4-1.6-3-6.5-3.9-5.4c-0.9,1.3-1.6,2.7-2.3,4c-0.8,1.6,0.2,3.6,1,5.1
		c0.7,1.2,1.4,2.6,2.5,1.1c1.2-1.5,2.7-2.9,2.7-4.6C1193.2,207.4,1193.2,207.3,1193.2,207.2z"/>
</g>
<g>
	<defs>
		<rect id="SVGID_363_" x="5" y="8" width="1221" height="370"/>
	</defs>
	<clipPath id="SVGID_364_">
		<use xlink:href="#SVGID_363_"  style="overflow:visible;"/>
	</clipPath>
	<path class="st202" d="M1202.3,207.2c-0.4-1.6-3-6.5-3.9-5.4c-0.9,1.3-1.6,2.7-2.3,4c-0.8,1.6,0.2,3.6,1,5.1
		c0.7,1.2,1.4,2.6,2.5,1.1c1.2-1.5,2.7-2.9,2.7-4.6C1202.4,207.4,1202.3,207.3,1202.3,207.2z"/>
</g>
<g>
	<defs>
		<rect id="SVGID_365_" x="5" y="8" width="1221" height="370"/>
	</defs>
	<clipPath id="SVGID_366_">
		<use xlink:href="#SVGID_365_"  style="overflow:visible;"/>
	</clipPath>
	<g class="st203">
		
			<rect x="743.1" y="173.3" transform="matrix(0.9947 -0.1031 0.1031 0.9947 -14.8328 77.6622)" class="st36" width="1.5" height="18"/>
		<path class="st183" d="M743.7,173.9l-1.4,0.2c0,0-0.4-2.3-0.3-2.4c0.1-0.1,1.3-0.3,1.4-0.2C743.5,171.6,743.7,173.9,743.7,173.9z"
			/>
	</g>
</g>
<g>
	<defs>
		<rect id="SVGID_367_" x="5" y="8" width="1221" height="370"/>
	</defs>
	<clipPath id="SVGID_368_">
		<use xlink:href="#SVGID_367_"  style="overflow:visible;"/>
	</clipPath>
	<g class="st204">
		<path class="st178" d="M746.7,191.1l-1.5-0.1c0,0,1.4-17.7,1.7-17.9s1.3-0.2,1.5,0.1C748.5,173.4,746.7,191.1,746.7,191.1z"/>
	</g>
</g>
<g>
	<defs>
		<rect id="SVGID_369_" x="5" y="8" width="1221" height="370"/>
	</defs>
	<clipPath id="SVGID_370_">
		<use xlink:href="#SVGID_369_"  style="overflow:visible;"/>
	</clipPath>
	<g class="st205">
		<path class="st176" d="M741.9,187.5l-1.4,0.5c0,0-5.8-16.8-5.7-17.1c0.2-0.3,1.1-0.7,1.4-0.5C736.5,170.6,741.9,187.5,741.9,187.5
			z"/>
	</g>
</g>
<g>
	<defs>
		<rect id="SVGID_371_" x="5" y="8" width="1221" height="370"/>
	</defs>
	<clipPath id="SVGID_372_">
		<use xlink:href="#SVGID_371_"  style="overflow:visible;"/>
	</clipPath>
	<path class="st206" d="M746,199.4h-5.7c-0.9,0-1.7-0.7-1.8-1.6l-1.8-15.7c-0.1-1.1,0.7-2.1,1.8-2.1h9.3c1.1,0,2,1,1.8,2.1
		l-1.8,15.7C747.7,198.7,746.9,199.4,746,199.4z"/>
</g>
<g>
	<defs>
		<rect id="SVGID_373_" x="5" y="8" width="1221" height="370"/>
	</defs>
	<clipPath id="SVGID_374_">
		<use xlink:href="#SVGID_373_"  style="overflow:visible;"/>
	</clipPath>
	<path class="st207" d="M666.7,148.7H661c-0.9,0-1.7-0.7-1.8-1.6l-1.8-15.7c-0.1-1.1,0.7-2.1,1.8-2.1h9.3c1.1,0,2,1,1.8,2.1
		l-1.8,15.7C668.5,147.9,667.7,148.7,666.7,148.7z"/>
</g>
<g>
	<defs>
		<rect id="SVGID_375_" x="5" y="8" width="1221" height="370"/>
	</defs>
	<clipPath id="SVGID_376_">
		<use xlink:href="#SVGID_375_"  style="overflow:visible;"/>
	</clipPath>
	<rect x="5" y="341.5" class="st208" width="1221" height="36.2"/>
</g>
</svg>
