<svg width="28" height="28" viewBox="0 0 28 28" fill="none" xmlns="http://www.w3.org/2000/svg">
<g clip-path="url(#clip0)">
<path d="M22.7253 0H6.84927C4.99431 0.000839823 3.49061 1.50433 3.48998 3.35929V4.8105H1.91112C1.53991 4.8105 1.23926 5.11137 1.23926 5.48236C1.23926 5.85335 1.53991 6.15422 1.91112 6.15422H3.48305V10.5616H1.91112C1.53991 10.5616 1.23926 10.8623 1.23926 11.2335C1.23926 11.6045 1.53991 11.9053 1.91112 11.9053H3.48305V16.3127H1.91112C1.53991 16.3127 1.23926 16.6136 1.23926 16.9846C1.23926 17.3558 1.53991 17.6564 1.91112 17.6564H3.48305V22.0638H1.91112C1.53991 22.0638 1.23926 22.3647 1.23926 22.7357C1.23926 23.1067 1.53991 23.4075 1.91112 23.4075H3.48305V24.8587C3.48389 26.7137 4.98739 28.2172 6.84234 28.218H22.7183C24.5733 28.2172 26.0772 26.7137 26.0776 24.8587V3.35929C26.0804 1.50559 24.579 0.00125973 22.7253 0ZM24.7409 24.8587C24.7375 25.9705 23.837 26.8712 22.7253 26.8743H6.84927C5.73756 26.8712 4.83685 25.9705 4.8337 24.8587V23.4075H6.40564C6.77684 23.4075 7.07749 23.1067 7.07749 22.7357C7.07749 22.3647 6.77684 22.0638 6.40564 22.0638H4.8337V17.6564H6.40564C6.77684 17.6564 7.07749 17.3558 7.07749 16.9846C7.07749 16.6136 6.77684 16.3127 6.40564 16.3127H4.8337V11.9053H6.40564C6.77684 11.9053 7.07749 11.6045 7.07749 11.2335C7.07749 10.8623 6.77684 10.5616 6.40564 10.5616H4.8337V6.15422H6.40564C6.77684 6.15422 7.07749 5.85335 7.07749 5.48236C7.07749 5.11137 6.77684 4.8105 6.40564 4.8105H4.8337V3.35929C4.83685 2.24758 5.73756 1.34687 6.84927 1.34372H22.7253C23.837 1.34687 24.7375 2.24758 24.7409 3.35929V24.8587Z" fill="black"/>
<path d="M14.7839 13.9142C16.5834 13.9142 18.0424 12.4555 18.0424 10.6557C18.0424 8.85599 16.5834 7.39722 14.7839 7.39722C12.9842 7.39722 11.5254 8.85599 11.5254 10.6557C11.5271 12.4546 12.9848 13.9126 14.7839 13.9142ZM14.7839 8.73421C15.8412 8.73421 16.6987 9.59167 16.6987 10.649C16.6987 11.7063 15.8412 12.5638 14.7839 12.5638C13.7264 12.5638 12.8691 11.7063 12.8691 10.649C12.871 9.59251 13.727 8.7361 14.7839 8.73421Z" fill="black"/>
<path d="M14.7842 14.9958C11.9893 14.9958 9.79883 17.26 9.79883 20.1557C9.79988 20.5263 10.1001 20.8265 10.4707 20.8276H19.0976C19.4681 20.8265 19.7684 20.5263 19.7694 20.1557C19.7694 17.26 17.5789 14.9958 14.7842 14.9958ZM11.1963 19.4839C11.4854 17.6497 12.9299 16.3396 14.7842 16.3396C16.6383 16.3396 18.0898 17.6497 18.3719 19.4839H11.1963Z" fill="black"/>
</g>
<defs>
<clipPath id="clip0">
<rect width="28" height="28" fill="white"/>
</clipPath>
</defs>
</svg>
