<svg width="28" height="28" viewBox="0 0 28 28" fill="none" xmlns="http://www.w3.org/2000/svg">
<g clip-path="url(#clip0)">
<path d="M27.8918 25.3559L25.9696 19.7618C26.8941 17.8929 27.3831 15.8098 27.3864 13.7137C27.3919 10.1043 25.9954 6.69127 23.4538 4.10368C20.9119 1.5156 17.5246 0.0588386 13.9161 0.00158093C12.0255 -0.0287706 10.191 0.319588 8.46064 1.03583C6.79175 1.72669 5.29512 2.72742 4.01237 4.01017C2.72957 5.29291 1.72884 6.78954 1.03803 8.45844C0.321792 10.1887 -0.0261843 12.0242 0.00372973 13.9139C0.0608781 17.5224 1.5177 20.9097 4.10578 23.4517C6.68833 25.9883 10.0925 27.3844 13.6942 27.3843C13.7013 27.3843 13.7087 27.3843 13.7158 27.3843C15.8118 27.381 17.8949 26.8921 19.7639 25.9675L25.358 27.8897C25.5731 27.9637 25.7936 27.9997 26.0117 27.9997C26.5299 27.9997 27.0338 27.7962 27.416 27.4139C27.959 26.8709 28.1414 26.0823 27.8918 25.3559ZM26.2421 26.2401C26.1871 26.2952 26.0692 26.3787 25.8974 26.3198L19.9696 24.2829C19.8819 24.2528 19.7908 24.2378 19.6999 24.2378C19.5659 24.2378 19.4325 24.2703 19.3117 24.3342C17.5985 25.2405 15.6626 25.7212 13.7131 25.7242C7.17527 25.7347 1.76712 20.4244 1.66355 13.8876C1.61143 10.5987 2.86246 7.50775 5.18618 5.18403C7.5099 2.86036 10.6 1.60955 13.8897 1.66156C20.4265 1.76519 25.7364 7.17066 25.7262 13.7112C25.7232 15.6607 25.2425 17.5966 24.3362 19.3097C24.2289 19.5125 24.2104 19.7506 24.2849 19.9676L26.3218 25.8954C26.3808 26.067 26.2973 26.1851 26.2421 26.2401Z" fill="black"/>
<path d="M13.5573 19.8376C13.1231 19.8376 12.7072 20.2194 12.7273 20.6677C12.7474 21.1174 13.092 21.4977 13.5573 21.4977C13.9915 21.4977 14.4074 21.116 14.3874 20.6677C14.3672 20.2179 14.0226 19.8376 13.5573 19.8376Z" fill="black"/>
<path d="M13.5575 6.98218C11.2803 6.98218 9.42773 8.83477 9.42773 11.1119C9.42773 11.5703 9.79939 11.9419 10.2578 11.9419C10.7162 11.9419 11.0878 11.5703 11.0878 11.1119C11.0878 9.75018 12.1957 8.64227 13.5575 8.64227C14.9192 8.64227 16.0271 9.75018 16.0271 11.1119C16.0271 12.4736 14.9192 13.5815 13.5575 13.5815C13.0991 13.5815 12.7274 13.9532 12.7274 14.4116V17.797C12.7274 18.2554 13.0991 18.627 13.5575 18.627C14.0158 18.627 14.3875 18.2554 14.3875 17.7969V15.1578C16.2681 14.7725 17.6872 13.1048 17.6872 11.1119C17.6872 8.83477 15.8346 6.98218 13.5575 6.98218Z" fill="black"/>
</g>
<defs>
<clipPath id="clip0">
<rect width="28" height="28" fill="white"/>
</clipPath>
</defs>
</svg>
